<svg width="72" height="20" viewBox="0 0 72 20" fill="none" xmlns="http://www.w3.org/2000/svg">
<rect x="12.1974" y="0.355469" width="23.7553" height="18.7335" rx="9.36674" fill="#1D59F9"/>
<path fill-rule="evenodd" clip-rule="evenodd" d="M14.8838 4.68359L24.0748 4.68359V14.1923H20.8933V15.5405L18.2774 15.5405V14.1923H14.8838L14.8838 4.68359ZM21.5296 7.38008L17.6411 7.38008V11.7087H18.2774V10.4314H20.8933V11.7087H21.5296V7.38008Z" fill="white"/>
<path fill-rule="evenodd" clip-rule="evenodd" d="M25.206 4.68359H27.8219L33.1951 4.68359V10.6797H32.17L32.983 14.1923L30.2257 14.1923L29.4127 10.6797L27.8219 10.6797V10.7152V14.1923H25.206V10.7152V4.68359ZM30.7206 7.38008L27.8219 7.38008V8.2316L30.7206 8.2316V7.38008Z" fill="white"/>
<path fill-rule="evenodd" clip-rule="evenodd" d="M45.8506 4.89648L38.0029 4.89648V14.2632L45.8506 14.2632V10.2895L45.0729 9.54437L45.8506 8.79929V4.89648ZM43.164 7.38009L40.4774 7.38009V8.30257H42.3863L43.164 7.38009ZM43.164 11.7796H40.4774V10.8571H42.3863L43.164 11.7796Z" fill="black"/>
<path fill-rule="evenodd" clip-rule="evenodd" d="M46.7697 4.89648L54.6175 4.89648V14.2632L46.7697 14.2632V4.89648ZM52.1429 7.09625H49.1735V11.7087L52.1429 11.7087V7.09625Z" fill="black"/>
<path d="M55.7487 4.89648V10.8571H60.5563V11.7087H55.7487V14.2632H63.1015V8.30257H58.2939V7.45105H63.1015V4.89648L55.7487 4.89648Z" fill="black"/>
<path d="M64.2327 4.89648V10.8571L69.0403 10.8571V11.7087L64.2327 11.7087V14.2632L71.5855 14.2632V8.30257H66.7779V7.45105H71.5855V4.89648L64.2327 4.89648Z" fill="black"/>
<path d="M39.9127 16.354C39.9127 16.5223 39.8566 16.657 39.7445 16.7582C39.6335 16.8582 39.4885 16.9219 39.3096 16.9492V16.9611C39.5248 16.9873 39.6896 17.0521 39.804 17.1555C39.9184 17.2578 39.9756 17.392 39.9756 17.5579C39.9756 17.7035 39.9376 17.8319 39.8617 17.9433C39.7858 18.0547 39.6726 18.1417 39.5219 18.2042C39.3713 18.2668 39.1844 18.298 38.9613 18.298C38.7993 18.298 38.6515 18.2866 38.5178 18.2639C38.3842 18.2423 38.2652 18.2082 38.161 18.1616V17.8069C38.2324 17.841 38.3106 17.8706 38.3955 17.8956C38.4816 17.9195 38.5688 17.9382 38.6571 17.9519C38.7466 17.9644 38.8304 17.9706 38.9086 17.9706C39.1306 17.9706 39.2954 17.9331 39.403 17.8581C39.5106 17.783 39.5644 17.6767 39.5644 17.5392C39.5644 17.3982 39.4948 17.2953 39.3554 17.2305C39.2161 17.1657 39.0253 17.1333 38.7829 17.1333H38.4872V16.8059H38.7642C38.9443 16.8059 39.0887 16.79 39.1974 16.7582C39.3062 16.7264 39.3849 16.6809 39.4336 16.6218C39.4823 16.5626 39.5066 16.4922 39.5066 16.4103C39.5066 16.3023 39.4636 16.2182 39.3775 16.1579C39.2926 16.0965 39.1748 16.0659 39.0241 16.0659C38.8814 16.0659 38.7563 16.0852 38.6487 16.1238C38.5411 16.1625 38.4385 16.2131 38.3411 16.2756L38.1559 16.0011C38.2318 15.9488 38.3145 15.9027 38.404 15.8629C38.4946 15.8231 38.5943 15.7919 38.703 15.7691C38.8118 15.7464 38.9313 15.735 39.0615 15.735C39.2427 15.735 39.3962 15.7618 39.5219 15.8152C39.6488 15.8675 39.7456 15.9402 39.8125 16.0335C39.8793 16.1267 39.9127 16.2335 39.9127 16.354Z" fill="black"/>
<path d="M41.3976 16.3404C41.6208 16.3404 41.7997 16.4222 41.9345 16.586C42.0704 16.7497 42.1384 16.9929 42.1384 17.3158C42.1384 17.5295 42.1067 17.7097 42.0433 17.8564C41.981 18.0019 41.8932 18.1121 41.7799 18.1872C41.6678 18.2611 41.537 18.298 41.3874 18.298C41.2923 18.298 41.2096 18.2855 41.1394 18.2605C41.0692 18.2355 41.0091 18.2031 40.9593 18.1633C40.9095 18.1224 40.8675 18.078 40.8336 18.0303H40.8098C40.8154 18.0758 40.8205 18.1264 40.8251 18.1821C40.8307 18.2366 40.8336 18.2866 40.8336 18.3321V19.1012H40.4326V16.3762H40.7588L40.8149 16.6371H40.8336C40.8687 16.5837 40.9112 16.5342 40.961 16.4888C41.012 16.4433 41.0731 16.4075 41.1445 16.3813C41.217 16.354 41.3014 16.3404 41.3976 16.3404ZM41.2906 16.6678C41.1807 16.6678 41.0924 16.69 41.0256 16.7343C40.9599 16.7775 40.9117 16.8429 40.8811 16.9304C40.8517 17.0179 40.8358 17.1277 40.8336 17.2595V17.3158C40.8336 17.4556 40.8477 17.5744 40.876 17.6722C40.9055 17.7688 40.9536 17.8427 41.0205 17.8939C41.0884 17.9439 41.1802 17.9689 41.2957 17.9689C41.3931 17.9689 41.4735 17.9422 41.537 17.8888C41.6015 17.8353 41.6497 17.7592 41.6814 17.6603C41.7131 17.5614 41.7289 17.4448 41.7289 17.3107C41.7289 17.1072 41.6927 16.9492 41.6202 16.8366C41.5488 16.7241 41.439 16.6678 41.2906 16.6678Z" fill="black"/>
<path d="M44.2655 17.3158C44.2655 17.4727 44.2452 17.6119 44.2044 17.7336C44.1636 17.8552 44.1041 17.9581 44.026 18.0422C43.9478 18.1252 43.8538 18.1889 43.7439 18.2332C43.6341 18.2764 43.5101 18.298 43.3719 18.298C43.2427 18.298 43.1244 18.2764 43.0168 18.2332C42.9092 18.1889 42.8157 18.1252 42.7364 18.0422C42.6583 17.9581 42.5977 17.8552 42.5547 17.7336C42.5116 17.6119 42.4901 17.4727 42.4901 17.3158C42.4901 17.1078 42.5258 16.9315 42.5971 16.7872C42.6696 16.6417 42.7727 16.5308 42.9063 16.4546C43.04 16.3785 43.1991 16.3404 43.3838 16.3404C43.5571 16.3404 43.71 16.3785 43.8425 16.4546C43.975 16.5308 44.0787 16.6417 44.1534 16.7872C44.2282 16.9327 44.2655 17.1089 44.2655 17.3158ZM42.9012 17.3158C42.9012 17.4534 42.9177 17.571 42.9505 17.6688C42.9845 17.7665 43.0366 17.8416 43.1068 17.8939C43.177 17.945 43.2677 17.9706 43.3787 17.9706C43.4897 17.9706 43.5803 17.945 43.6505 17.8939C43.7207 17.8416 43.7723 17.7665 43.8051 17.6688C43.838 17.571 43.8544 17.4534 43.8544 17.3158C43.8544 17.1782 43.838 17.0617 43.8051 16.9662C43.7723 16.8696 43.7207 16.7963 43.6505 16.7462C43.5803 16.6951 43.4891 16.6695 43.377 16.6695C43.2116 16.6695 43.091 16.7252 43.0151 16.8366C42.9392 16.948 42.9012 17.1078 42.9012 17.3158Z" fill="black"/>
<path d="M44.6172 17.1316C44.6172 16.8577 44.6472 16.6246 44.7073 16.4325C44.7673 16.2404 44.8619 16.0863 44.991 15.9704C45.1201 15.8544 45.2878 15.7754 45.4939 15.7333C45.6276 15.7026 45.7635 15.6765 45.9017 15.6549C46.0399 15.6333 46.178 15.6123 46.3162 15.5918L46.3706 15.9448C46.306 15.9527 46.2369 15.9624 46.1633 15.9738C46.0897 15.984 46.0155 15.9948 45.9408 16.0062C45.8671 16.0175 45.7963 16.0295 45.7284 16.042C45.6616 16.0533 45.6015 16.0647 45.5483 16.0761C45.4418 16.0988 45.3518 16.1363 45.2781 16.1886C45.2057 16.2398 45.149 16.3148 45.1082 16.4137C45.0675 16.5126 45.0431 16.6445 45.0352 16.8093H45.0573C45.0879 16.7627 45.1303 16.7161 45.1847 16.6695C45.2391 16.6229 45.3048 16.5842 45.3818 16.5536C45.4599 16.5217 45.5489 16.5058 45.6485 16.5058C45.8048 16.5058 45.9374 16.5388 46.0461 16.6047C46.156 16.6706 46.2392 16.7661 46.2958 16.8912C46.3536 17.0162 46.3825 17.1669 46.3825 17.3431C46.3825 17.5534 46.3451 17.7296 46.2704 17.8717C46.1967 18.0127 46.0937 18.119 45.9611 18.1906C45.8286 18.2622 45.674 18.298 45.4973 18.298C45.3614 18.298 45.2391 18.2724 45.1303 18.2213C45.0227 18.1701 44.9304 18.0951 44.8534 17.9962C44.7775 17.8961 44.7192 17.7739 44.6784 17.6296C44.6376 17.484 44.6172 17.3181 44.6172 17.1316ZM45.5245 17.9689C45.6151 17.9689 45.6933 17.9496 45.759 17.9109C45.8258 17.8723 45.8773 17.8097 45.9136 17.7234C45.9509 17.637 45.9696 17.5227 45.9696 17.3806C45.9696 17.2055 45.9379 17.068 45.8745 16.9679C45.8122 16.8667 45.7091 16.8162 45.5653 16.8162C45.4769 16.8162 45.3959 16.8361 45.3223 16.8758C45.2487 16.9156 45.1864 16.9622 45.1354 17.0157C45.0845 17.068 45.0482 17.114 45.0267 17.1538C45.0267 17.2573 45.0341 17.3573 45.0488 17.4539C45.0646 17.5506 45.0907 17.6381 45.1269 17.7165C45.1643 17.7938 45.2153 17.8552 45.2798 17.9007C45.3444 17.9462 45.426 17.9689 45.5245 17.9689Z" fill="black"/>
<path d="M48.389 18.2639H47.9863V16.69H47.4648C47.4421 16.9765 47.4138 17.2214 47.3798 17.4249C47.3458 17.6284 47.3033 17.7944 47.2524 17.9229C47.2014 18.0502 47.1385 18.1434 47.0638 18.2025C46.989 18.2616 46.899 18.2912 46.7936 18.2912C46.7472 18.2912 46.7053 18.2878 46.6679 18.281C46.6305 18.2753 46.5971 18.2662 46.5677 18.2537V17.9382C46.5869 17.945 46.6079 17.9507 46.6305 17.9553C46.6532 17.9598 46.6764 17.9621 46.7002 17.9621C46.7421 17.9621 46.7806 17.945 46.8157 17.9109C46.852 17.8757 46.8854 17.8205 46.916 17.7455C46.9466 17.6705 46.9743 17.5716 46.9992 17.4488C47.0241 17.3249 47.0468 17.1748 47.0672 16.9986C47.0876 16.8213 47.1057 16.6138 47.1216 16.3762H48.389V18.2639Z" fill="black"/>
<path d="M49.7108 16.3404C49.8785 16.3404 50.0223 16.3751 50.1424 16.4444C50.2624 16.5138 50.3547 16.6121 50.4193 16.7394C50.4839 16.8667 50.5162 17.0191 50.5162 17.1964V17.4113H49.2606C49.2651 17.5943 49.3138 17.7353 49.4067 17.8342C49.5007 17.9331 49.6321 17.9825 49.8009 17.9825C49.9209 17.9825 50.0285 17.9712 50.1237 17.9484C50.22 17.9246 50.3191 17.8899 50.421 17.8444V18.1701C50.327 18.2145 50.2313 18.2469 50.1339 18.2673C50.0365 18.2878 49.9198 18.298 49.7839 18.298C49.5993 18.298 49.4367 18.2622 49.2963 18.1906C49.157 18.1178 49.0477 18.0098 48.9684 17.8666C48.8902 17.7234 48.8511 17.5454 48.8511 17.3328C48.8511 17.1214 48.8868 16.9418 48.9582 16.794C49.0295 16.6462 49.1298 16.5337 49.2589 16.4564C49.388 16.3791 49.5387 16.3404 49.7108 16.3404ZM49.7108 16.6422C49.5851 16.6422 49.4832 16.6832 49.405 16.765C49.328 16.8469 49.2827 16.9668 49.2691 17.1248H50.1254C50.1243 17.0305 50.1084 16.9469 50.0778 16.8741C50.0484 16.8014 50.0031 16.7445 49.9419 16.7036C49.8819 16.6627 49.8048 16.6422 49.7108 16.6422Z" fill="black"/>
<path d="M51.3674 16.3762V17.135H52.2474V16.3762H52.6484V18.2639H52.2474V17.4488H51.3674V18.2639H50.9664V16.3762H51.3674Z" fill="black"/>
<path d="M54.8843 17.3158C54.8843 17.4727 54.8639 17.6119 54.8231 17.7336C54.7823 17.8552 54.7229 17.9581 54.6447 18.0422C54.5666 18.1252 54.4726 18.1889 54.3627 18.2332C54.2528 18.2764 54.1288 18.298 53.9906 18.298C53.8615 18.298 53.7431 18.2764 53.6355 18.2332C53.5279 18.1889 53.4345 18.1252 53.3552 18.0422C53.277 17.9581 53.2164 17.8552 53.1734 17.7336C53.1303 17.6119 53.1088 17.4727 53.1088 17.3158C53.1088 17.1078 53.1445 16.9315 53.2159 16.7872C53.2884 16.6417 53.3914 16.5308 53.5251 16.4546C53.6587 16.3785 53.8179 16.3404 54.0025 16.3404C54.1758 16.3404 54.3287 16.3785 54.4612 16.4546C54.5937 16.5308 54.6974 16.6417 54.7721 16.7872C54.8469 16.9327 54.8843 17.1089 54.8843 17.3158ZM53.52 17.3158C53.52 17.4534 53.5364 17.571 53.5693 17.6688C53.6032 17.7665 53.6553 17.8416 53.7256 17.8939C53.7958 17.945 53.8864 17.9706 53.9974 17.9706C54.1084 17.9706 54.199 17.945 54.2692 17.8939C54.3395 17.8416 54.391 17.7665 54.4238 17.6688C54.4567 17.571 54.4731 17.4534 54.4731 17.3158C54.4731 17.1782 54.4567 17.0617 54.4238 16.9662C54.391 16.8696 54.3395 16.7963 54.2692 16.7462C54.199 16.6951 54.1078 16.6695 53.9957 16.6695C53.8303 16.6695 53.7097 16.7252 53.6338 16.8366C53.5579 16.948 53.52 17.1078 53.52 17.3158Z" fill="black"/>
<path d="M57.8286 16.8605C57.8286 16.9696 57.7952 17.0589 57.7284 17.1282C57.6627 17.1964 57.5721 17.2413 57.4566 17.2629V17.2766C57.58 17.2925 57.6831 17.3363 57.7658 17.4079C57.8485 17.4795 57.8898 17.579 57.8898 17.7063C57.8898 17.8143 57.8626 17.9104 57.8083 17.9945C57.755 18.0775 57.6701 18.1434 57.5534 18.1923C57.4379 18.24 57.2867 18.2639 57.0998 18.2639H56.2469V16.3762H57.0964C57.2368 16.3762 57.362 16.3916 57.4719 16.4222C57.5829 16.4529 57.6701 16.5035 57.7335 16.574C57.7969 16.6445 57.8286 16.74 57.8286 16.8605ZM57.4735 17.6927C57.4735 17.5994 57.4379 17.5324 57.3665 17.4914C57.2963 17.4505 57.1932 17.43 57.0573 17.43H56.6478V17.9689H57.0658C57.1926 17.9689 57.2923 17.9479 57.3648 17.9058C57.4373 17.8626 57.4735 17.7916 57.4735 17.6927ZM57.4226 16.8963C57.4226 16.8224 57.3948 16.7678 57.3393 16.7326C57.2838 16.6962 57.1966 16.678 57.0777 16.678H56.6478V17.135H57.0233C57.1547 17.135 57.2538 17.1163 57.3206 17.0788C57.3886 17.0401 57.4226 16.9793 57.4226 16.8963Z" fill="black"/>
<path d="M61.1876 15.7708L60.3975 17.5562C60.3284 17.7154 60.2559 17.8501 60.1801 17.9604C60.1053 18.0707 60.013 18.1548 59.9031 18.2128C59.7932 18.2696 59.6511 18.298 59.4767 18.298C59.4132 18.298 59.3498 18.2935 59.2864 18.2844C59.2229 18.2753 59.1646 18.2628 59.1114 18.2469V17.8751C59.1624 17.8967 59.2173 17.9132 59.2762 17.9246C59.3362 17.9348 59.3957 17.9399 59.4546 17.9399C59.5373 17.9399 59.6058 17.9268 59.6602 17.9007C59.7157 17.8745 59.7621 17.8359 59.7995 17.7847C59.838 17.7324 59.8725 17.6688 59.9031 17.5938L58.9942 15.7708H59.4308L60.017 17.0071C60.026 17.0265 60.0373 17.0515 60.0509 17.0822C60.0645 17.1117 60.0775 17.1424 60.09 17.1743C60.1036 17.205 60.1149 17.2334 60.124 17.2595H60.1393C60.1472 17.2368 60.1568 17.2101 60.1682 17.1794C60.1806 17.1475 60.1931 17.1151 60.2055 17.0822C60.2191 17.0492 60.231 17.0202 60.2412 16.9952L60.7611 15.7708H61.1876Z" fill="black"/>
<path d="M62.6385 16.3762H63.0785L62.3004 17.2834L63.1448 18.2639H62.6844L61.874 17.3056V18.2639H61.473V16.3762H61.874V17.2919L62.6385 16.3762Z" fill="black"/>
<path d="M64.4157 16.3404C64.6388 16.3404 64.8177 16.4222 64.9525 16.586C65.0885 16.7497 65.1564 16.9929 65.1564 17.3158C65.1564 17.5295 65.1247 17.7097 65.0613 17.8564C64.999 18.0019 64.9112 18.1121 64.7979 18.1872C64.6858 18.2611 64.555 18.298 64.4055 18.298C64.3103 18.298 64.2276 18.2855 64.1574 18.2605C64.0872 18.2355 64.0271 18.2031 63.9773 18.1633C63.9275 18.1224 63.8856 18.078 63.8516 18.0303H63.8278C63.8335 18.0758 63.8386 18.1264 63.8431 18.1821C63.8488 18.2366 63.8516 18.2866 63.8516 18.3321V19.1012H63.4506V16.3762H63.7768L63.8329 16.6371H63.8516C63.8867 16.5837 63.9292 16.5342 63.979 16.4888C64.03 16.4433 64.0911 16.4075 64.1625 16.3813C64.235 16.354 64.3194 16.3404 64.4157 16.3404ZM64.3086 16.6678C64.1987 16.6678 64.1104 16.69 64.0436 16.7343C63.9779 16.7775 63.9297 16.8429 63.8992 16.9304C63.8697 17.0179 63.8539 17.1277 63.8516 17.2595V17.3158C63.8516 17.4556 63.8657 17.5744 63.8941 17.6722C63.9235 17.7688 63.9716 17.8427 64.0385 17.8939C64.1064 17.9439 64.1982 17.9689 64.3137 17.9689C64.4111 17.9689 64.4915 17.9422 64.555 17.8888C64.6195 17.8353 64.6677 17.7592 64.6994 17.6603C64.7311 17.5614 64.747 17.4448 64.747 17.3107C64.747 17.1072 64.7107 16.9492 64.6382 16.8366C64.5669 16.7241 64.457 16.6678 64.3086 16.6678Z" fill="black"/>
<path d="M66.3559 16.3404C66.5938 16.3404 66.7733 16.3933 66.8945 16.499C67.0168 16.6047 67.078 16.7696 67.078 16.9935V18.2639H66.7943L66.7178 17.9962H66.7042C66.651 18.0644 66.596 18.1207 66.5394 18.165C66.4828 18.2093 66.4171 18.2423 66.3423 18.2639C66.2687 18.2866 66.1786 18.298 66.0722 18.298C65.96 18.298 65.8598 18.2776 65.7715 18.2366C65.6831 18.1946 65.6134 18.1309 65.5625 18.0456C65.5115 17.9604 65.486 17.8524 65.486 17.7216C65.486 17.5272 65.5579 17.3812 65.7018 17.2834C65.8468 17.1856 66.0654 17.1316 66.3576 17.1214L66.6838 17.1095V17.0106C66.6838 16.8798 66.6532 16.7866 66.5921 16.7309C66.532 16.6752 66.4471 16.6473 66.3372 16.6473C66.2432 16.6473 66.152 16.661 66.0637 16.6883C65.9753 16.7156 65.8893 16.7491 65.8054 16.7889L65.6763 16.5058C65.7681 16.4569 65.8723 16.4171 65.9889 16.3864C66.1067 16.3557 66.2291 16.3404 66.3559 16.3404ZM66.6821 17.3618L66.4392 17.3704C66.2398 17.3772 66.0999 17.4113 66.0195 17.4727C65.9391 17.5341 65.8989 17.6182 65.8989 17.7251C65.8989 17.8183 65.9266 17.8865 65.9821 17.9297C66.0376 17.9717 66.1107 17.9928 66.2013 17.9928C66.3395 17.9928 66.4539 17.9536 66.5445 17.8751C66.6362 17.7955 66.6821 17.679 66.6821 17.5255V17.3618Z" fill="black"/>
<path d="M68.0362 18.2639H67.637V16.3762H68.0362V18.2639ZM67.3056 15.8766C67.3056 15.8084 67.3243 15.7589 67.3617 15.7282C67.3991 15.6964 67.445 15.6805 67.4993 15.6805C67.5537 15.6805 67.6001 15.6964 67.6387 15.7282C67.6783 15.7589 67.6981 15.8084 67.6981 15.8766C67.6981 15.9425 67.6783 15.992 67.6387 16.0249C67.6001 16.0579 67.5537 16.0744 67.4993 16.0744C67.445 16.0744 67.3991 16.0579 67.3617 16.0249C67.3243 15.992 67.3056 15.9425 67.3056 15.8766ZM67.9734 15.8766C67.9734 15.8084 67.992 15.7589 68.0294 15.7282C68.0679 15.6964 68.1144 15.6805 68.1687 15.6805C68.2231 15.6805 68.2695 15.6964 68.3081 15.7282C68.3477 15.7589 68.3675 15.8084 68.3675 15.8766C68.3675 15.9425 68.3477 15.992 68.3081 16.0249C68.2695 16.0579 68.2231 16.0744 68.1687 16.0744C68.1144 16.0744 68.0679 16.0579 68.0294 16.0249C67.992 15.992 67.9734 15.9425 67.9734 15.8766Z" fill="black"/>
<path d="M69.0097 16.3762V17.135H69.8898V16.3762H70.2908V18.2639H69.8898V17.4488H69.0097V18.2639H68.6088V16.3762H69.0097Z" fill="black"/>
<path d="M71.2609 16.3762V18.2639H70.8617V16.3762H71.2609ZM71.0638 15.6532C71.125 15.6532 71.1777 15.6697 71.2218 15.7026C71.2671 15.7356 71.2898 15.7924 71.2898 15.8732C71.2898 15.9527 71.2671 16.0096 71.2218 16.0437C71.1777 16.0767 71.125 16.0931 71.0638 16.0931C71.0004 16.0931 70.9466 16.0767 70.9024 16.0437C70.8594 16.0096 70.8379 15.9527 70.8379 15.8732C70.8379 15.7924 70.8594 15.7356 70.9024 15.7026C70.9466 15.6697 71.0004 15.6532 71.0638 15.6532Z" fill="black"/>
<path fill-rule="evenodd" clip-rule="evenodd" d="M12.1973 0.355469L10.9247 0.355469V2.55523H12.1973V0.355469ZM6.8948 2.69652H8.87418V5.25313H10.9245V5.2519H12.1969V4.1875H10.9245V2.55664L9.01581 2.55664V0.638672L6.8948 0.638672V2.69652ZM8.87441 7.66655H6.54147V5.25391H8.94528V7.59375H12.1973L12.1973 9.01295H11.1367V9.29492H12.197V10.0782H12.1972V12.3477H12.1973V15.0441L8.87441 15.0441L8.87441 12.3477L10.9246 12.3477V10.1464L8.87407 10.1464V9.29492H8.8743V8.58789H8.87441V7.66655ZM9.08634 0.355469L10.9245 0.355469V0.85219L9.08634 0.85219V0.355469ZM12.1971 7.59364V5.25195H11.1365V7.59364H12.1971ZM7.0362 10.5742H8.87441L8.87441 12.4192H7.0362L7.0362 10.5742ZM6.54123 7.66397L4.13742 7.66397V10.0766H6.54123V7.66397ZM2.44027 10.0764H4.06637L4.06637 11.7084H2.44027L2.44027 10.0764ZM3.28907 5.75H1.66296L1.66296 7.38208H3.28907L3.28907 5.75ZM0.885201 3.05273H2.51131L2.51131 4.68482H0.885201L0.885201 3.05273ZM4.27865 1.41992L2.65254 1.41992V3.052L4.13765 3.052V5.11186L6.54146 5.11186L6.54146 2.69922H4.27865V1.41992ZM2.65282 0.355469L1.02672 0.355469V1.41987L2.65282 1.41987V0.355469Z" fill="#FCE501"/>
</svg>
