<svg width="121" height="53" viewBox="0 0 121 53" fill="none" xmlns="http://www.w3.org/2000/svg">
<g filter="url(#filter0_d_798_21108)">
<rect x="9" y="8" width="97.6536" height="29.4585" rx="14.7292" fill="white" shape-rendering="crispEdges"/>
<rect x="31.1974" y="13.3555" width="23.7553" height="18.7335" rx="9.36674" fill="#1D59F9"/>
<path fill-rule="evenodd" clip-rule="evenodd" d="M33.8838 17.6836H43.0748V27.1923H39.8933V28.5405H37.2774V27.1923H33.8838V17.6836ZM40.5296 20.3801H36.6411V24.7087H37.2774V23.4314H39.8933V24.7087H40.5296V20.3801Z" fill="white"/>
<path fill-rule="evenodd" clip-rule="evenodd" d="M44.206 17.6836L46.8219 17.6836H52.1951V23.6797H51.17L51.983 27.1923L49.2257 27.1923L48.4127 23.6797L46.8219 23.6797V23.7152V27.1923H44.206V23.7152V17.6836ZM49.7206 20.3801H46.8219V21.2316H49.7206V20.3801Z" fill="white"/>
<path fill-rule="evenodd" clip-rule="evenodd" d="M64.8506 17.8965H57.0029V27.2632H64.8506V23.2895L64.0729 22.5444L64.8506 21.7993V17.8965ZM62.164 20.3801H59.4774V21.3026H61.3863L62.164 20.3801ZM62.164 24.7796H59.4774V23.8571H61.3863L62.164 24.7796Z" fill="black"/>
<path fill-rule="evenodd" clip-rule="evenodd" d="M65.7697 17.8965L73.6175 17.8965V27.2632L65.7697 27.2632V17.8965ZM71.1429 20.0962L68.1735 20.0962V24.7087L71.1429 24.7087V20.0962Z" fill="black"/>
<path d="M74.7487 17.8965V23.8571H79.5563V24.7087H74.7487V27.2632H82.1015V21.3026H77.2939V20.4511H82.1015V17.8965H74.7487Z" fill="black"/>
<path d="M83.2327 17.8965V23.8571L88.0403 23.8571V24.7087L83.2327 24.7087V27.2632L90.5855 27.2632V21.3026L85.7779 21.3026V20.4511L90.5855 20.4511V17.8965L83.2327 17.8965Z" fill="black"/>
<path d="M58.9127 29.354C58.9127 29.5223 58.8566 29.657 58.7445 29.7582C58.6335 29.8582 58.4885 29.9219 58.3096 29.9492V29.9611C58.5248 29.9873 58.6896 30.0521 58.804 30.1555C58.9184 30.2578 58.9756 30.392 58.9756 30.5579C58.9756 30.7035 58.9376 30.8319 58.8617 30.9433C58.7858 31.0547 58.6726 31.1417 58.5219 31.2042C58.3713 31.2668 58.1844 31.298 57.9613 31.298C57.7993 31.298 57.6515 31.2866 57.5178 31.2639C57.3842 31.2423 57.2652 31.2082 57.161 31.1616V30.8069C57.2324 30.841 57.3106 30.8706 57.3955 30.8956C57.4816 30.9195 57.5688 30.9382 57.6571 30.9519C57.7466 30.9644 57.8304 30.9706 57.9086 30.9706C58.1306 30.9706 58.2954 30.9331 58.403 30.8581C58.5106 30.783 58.5644 30.6767 58.5644 30.5392C58.5644 30.3982 58.4948 30.2953 58.3554 30.2305C58.2161 30.1657 58.0253 30.1333 57.7829 30.1333H57.4872V29.8059H57.7642C57.9443 29.8059 58.0887 29.79 58.1974 29.7582C58.3062 29.7264 58.3849 29.6809 58.4336 29.6218C58.4823 29.5626 58.5066 29.4922 58.5066 29.4103C58.5066 29.3023 58.4636 29.2182 58.3775 29.1579C58.2926 29.0965 58.1748 29.0659 58.0241 29.0659C57.8814 29.0659 57.7563 29.0852 57.6487 29.1238C57.5411 29.1625 57.4385 29.2131 57.3411 29.2756L57.1559 29.0011C57.2318 28.9488 57.3145 28.9027 57.404 28.8629C57.4946 28.8231 57.5943 28.7919 57.703 28.7691C57.8118 28.7464 57.9313 28.735 58.0615 28.735C58.2427 28.735 58.3962 28.7618 58.5219 28.8152C58.6488 28.8675 58.7456 28.9402 58.8125 29.0335C58.8793 29.1267 58.9127 29.2335 58.9127 29.354Z" fill="black"/>
<path d="M60.3976 29.3404C60.6208 29.3404 60.7997 29.4222 60.9345 29.586C61.0704 29.7497 61.1384 29.9929 61.1384 30.3158C61.1384 30.5295 61.1067 30.7097 61.0433 30.8564C60.981 31.0019 60.8932 31.1121 60.7799 31.1872C60.6678 31.2611 60.537 31.298 60.3874 31.298C60.2923 31.298 60.2096 31.2855 60.1394 31.2605C60.0692 31.2355 60.0091 31.2031 59.9593 31.1633C59.9095 31.1224 59.8675 31.078 59.8336 31.0303H59.8098C59.8154 31.0758 59.8205 31.1264 59.8251 31.1821C59.8307 31.2366 59.8336 31.2866 59.8336 31.3321V32.1012H59.4326V29.3762H59.7588L59.8149 29.6371H59.8336C59.8687 29.5837 59.9112 29.5342 59.961 29.4888C60.012 29.4433 60.0731 29.4075 60.1445 29.3813C60.217 29.354 60.3014 29.3404 60.3976 29.3404ZM60.2906 29.6678C60.1807 29.6678 60.0924 29.69 60.0256 29.7343C59.9599 29.7775 59.9117 29.8429 59.8811 29.9304C59.8517 30.0179 59.8358 30.1277 59.8336 30.2595V30.3158C59.8336 30.4556 59.8477 30.5744 59.876 30.6722C59.9055 30.7688 59.9536 30.8427 60.0205 30.8939C60.0884 30.9439 60.1802 30.9689 60.2957 30.9689C60.3931 30.9689 60.4735 30.9422 60.537 30.8888C60.6015 30.8353 60.6497 30.7592 60.6814 30.6603C60.7131 30.5614 60.7289 30.4448 60.7289 30.3107C60.7289 30.1072 60.6927 29.9492 60.6202 29.8366C60.5488 29.7241 60.439 29.6678 60.2906 29.6678Z" fill="black"/>
<path d="M63.2655 30.3158C63.2655 30.4727 63.2452 30.6119 63.2044 30.7336C63.1636 30.8552 63.1041 30.9581 63.026 31.0422C62.9478 31.1252 62.8538 31.1889 62.7439 31.2332C62.6341 31.2764 62.5101 31.298 62.3719 31.298C62.2427 31.298 62.1244 31.2764 62.0168 31.2332C61.9092 31.1889 61.8157 31.1252 61.7364 31.0422C61.6583 30.9581 61.5977 30.8552 61.5547 30.7336C61.5116 30.6119 61.4901 30.4727 61.4901 30.3158C61.4901 30.1078 61.5258 29.9315 61.5971 29.7872C61.6696 29.6417 61.7727 29.5308 61.9063 29.4546C62.04 29.3785 62.1991 29.3404 62.3838 29.3404C62.5571 29.3404 62.71 29.3785 62.8425 29.4546C62.975 29.5308 63.0787 29.6417 63.1534 29.7872C63.2282 29.9327 63.2655 30.1089 63.2655 30.3158ZM61.9012 30.3158C61.9012 30.4534 61.9177 30.571 61.9505 30.6688C61.9845 30.7665 62.0366 30.8416 62.1068 30.8939C62.177 30.945 62.2677 30.9706 62.3787 30.9706C62.4897 30.9706 62.5803 30.945 62.6505 30.8939C62.7207 30.8416 62.7723 30.7665 62.8051 30.6688C62.838 30.571 62.8544 30.4534 62.8544 30.3158C62.8544 30.1782 62.838 30.0617 62.8051 29.9662C62.7723 29.8696 62.7207 29.7963 62.6505 29.7462C62.5803 29.6951 62.4891 29.6695 62.377 29.6695C62.2116 29.6695 62.091 29.7252 62.0151 29.8366C61.9392 29.948 61.9012 30.1078 61.9012 30.3158Z" fill="black"/>
<path d="M63.6172 30.1316C63.6172 29.8577 63.6472 29.6246 63.7073 29.4325C63.7673 29.2404 63.8619 29.0863 63.991 28.9704C64.1201 28.8544 64.2878 28.7754 64.4939 28.7333C64.6276 28.7026 64.7635 28.6765 64.9017 28.6549C65.0399 28.6333 65.178 28.6123 65.3162 28.5918L65.3706 28.9448C65.306 28.9527 65.2369 28.9624 65.1633 28.9738C65.0897 28.984 65.0155 28.9948 64.9408 29.0062C64.8671 29.0175 64.7963 29.0295 64.7284 29.042C64.6616 29.0533 64.6015 29.0647 64.5483 29.0761C64.4418 29.0988 64.3518 29.1363 64.2781 29.1886C64.2057 29.2398 64.149 29.3148 64.1082 29.4137C64.0675 29.5126 64.0431 29.6445 64.0352 29.8093H64.0573C64.0879 29.7627 64.1303 29.7161 64.1847 29.6695C64.2391 29.6229 64.3048 29.5842 64.3818 29.5536C64.4599 29.5217 64.5489 29.5058 64.6485 29.5058C64.8048 29.5058 64.9374 29.5388 65.0461 29.6047C65.156 29.6706 65.2392 29.7661 65.2958 29.8912C65.3536 30.0162 65.3825 30.1669 65.3825 30.3431C65.3825 30.5534 65.3451 30.7296 65.2704 30.8717C65.1967 31.0127 65.0937 31.119 64.9611 31.1906C64.8286 31.2622 64.674 31.298 64.4973 31.298C64.3614 31.298 64.2391 31.2724 64.1303 31.2213C64.0227 31.1701 63.9304 31.0951 63.8534 30.9962C63.7775 30.8961 63.7192 30.7739 63.6784 30.6296C63.6376 30.484 63.6172 30.3181 63.6172 30.1316ZM64.5245 30.9689C64.6151 30.9689 64.6933 30.9496 64.759 30.9109C64.8258 30.8723 64.8773 30.8097 64.9136 30.7234C64.9509 30.637 64.9696 30.5227 64.9696 30.3806C64.9696 30.2055 64.9379 30.068 64.8745 29.9679C64.8122 29.8667 64.7091 29.8162 64.5653 29.8162C64.4769 29.8162 64.3959 29.8361 64.3223 29.8758C64.2487 29.9156 64.1864 29.9622 64.1354 30.0157C64.0845 30.068 64.0482 30.114 64.0267 30.1538C64.0267 30.2573 64.0341 30.3573 64.0488 30.4539C64.0646 30.5506 64.0907 30.6381 64.1269 30.7165C64.1643 30.7938 64.2153 30.8552 64.2798 30.9007C64.3444 30.9462 64.426 30.9689 64.5245 30.9689Z" fill="black"/>
<path d="M67.389 31.2639H66.9863V29.69H66.4648C66.4421 29.9765 66.4138 30.2214 66.3798 30.4249C66.3458 30.6284 66.3033 30.7944 66.2524 30.9229C66.2014 31.0502 66.1385 31.1434 66.0638 31.2025C65.989 31.2616 65.899 31.2912 65.7936 31.2912C65.7472 31.2912 65.7053 31.2878 65.6679 31.281C65.6305 31.2753 65.5971 31.2662 65.5677 31.2537V30.9382C65.5869 30.945 65.6079 30.9507 65.6305 30.9553C65.6532 30.9598 65.6764 30.9621 65.7002 30.9621C65.7421 30.9621 65.7806 30.945 65.8157 30.9109C65.852 30.8757 65.8854 30.8205 65.916 30.7455C65.9466 30.6705 65.9743 30.5716 65.9992 30.4488C66.0241 30.3249 66.0468 30.1748 66.0672 29.9986C66.0876 29.8213 66.1057 29.6138 66.1216 29.3762H67.389V31.2639Z" fill="black"/>
<path d="M68.7108 29.3404C68.8785 29.3404 69.0223 29.3751 69.1424 29.4444C69.2624 29.5138 69.3547 29.6121 69.4193 29.7394C69.4839 29.8667 69.5162 30.0191 69.5162 30.1964V30.4113H68.2606C68.2651 30.5943 68.3138 30.7353 68.4067 30.8342C68.5007 30.9331 68.6321 30.9825 68.8009 30.9825C68.9209 30.9825 69.0285 30.9712 69.1237 30.9484C69.22 30.9246 69.3191 30.8899 69.421 30.8444V31.1701C69.327 31.2145 69.2313 31.2469 69.1339 31.2673C69.0365 31.2878 68.9198 31.298 68.7839 31.298C68.5993 31.298 68.4367 31.2622 68.2963 31.1906C68.157 31.1178 68.0477 31.0098 67.9684 30.8666C67.8902 30.7234 67.8511 30.5454 67.8511 30.3328C67.8511 30.1214 67.8868 29.9418 67.9582 29.794C68.0295 29.6462 68.1298 29.5337 68.2589 29.4564C68.388 29.3791 68.5387 29.3404 68.7108 29.3404ZM68.7108 29.6422C68.5851 29.6422 68.4832 29.6832 68.405 29.765C68.328 29.8469 68.2827 29.9668 68.2691 30.1248H69.1254C69.1243 30.0305 69.1084 29.9469 69.0778 29.8741C69.0484 29.8014 69.0031 29.7445 68.9419 29.7036C68.8819 29.6627 68.8048 29.6422 68.7108 29.6422Z" fill="black"/>
<path d="M70.3674 29.3762V30.135H71.2474V29.3762H71.6484V31.2639H71.2474V30.4488H70.3674V31.2639H69.9664V29.3762H70.3674Z" fill="black"/>
<path d="M73.8843 30.3158C73.8843 30.4727 73.8639 30.6119 73.8231 30.7336C73.7823 30.8552 73.7229 30.9581 73.6447 31.0422C73.5666 31.1252 73.4726 31.1889 73.3627 31.2332C73.2528 31.2764 73.1288 31.298 72.9906 31.298C72.8615 31.298 72.7431 31.2764 72.6355 31.2332C72.5279 31.1889 72.4345 31.1252 72.3552 31.0422C72.277 30.9581 72.2164 30.8552 72.1734 30.7336C72.1303 30.6119 72.1088 30.4727 72.1088 30.3158C72.1088 30.1078 72.1445 29.9315 72.2159 29.7872C72.2884 29.6417 72.3914 29.5308 72.5251 29.4546C72.6587 29.3785 72.8179 29.3404 73.0025 29.3404C73.1758 29.3404 73.3287 29.3785 73.4612 29.4546C73.5937 29.5308 73.6974 29.6417 73.7721 29.7872C73.8469 29.9327 73.8843 30.1089 73.8843 30.3158ZM72.52 30.3158C72.52 30.4534 72.5364 30.571 72.5693 30.6688C72.6032 30.7665 72.6553 30.8416 72.7256 30.8939C72.7958 30.945 72.8864 30.9706 72.9974 30.9706C73.1084 30.9706 73.199 30.945 73.2692 30.8939C73.3395 30.8416 73.391 30.7665 73.4238 30.6688C73.4567 30.571 73.4731 30.4534 73.4731 30.3158C73.4731 30.1782 73.4567 30.0617 73.4238 29.9662C73.391 29.8696 73.3395 29.7963 73.2692 29.7462C73.199 29.6951 73.1078 29.6695 72.9957 29.6695C72.8303 29.6695 72.7097 29.7252 72.6338 29.8366C72.5579 29.948 72.52 30.1078 72.52 30.3158Z" fill="black"/>
<path d="M76.8286 29.8605C76.8286 29.9696 76.7952 30.0589 76.7284 30.1282C76.6627 30.1964 76.5721 30.2413 76.4566 30.2629V30.2766C76.58 30.2925 76.6831 30.3363 76.7658 30.4079C76.8485 30.4795 76.8898 30.579 76.8898 30.7063C76.8898 30.8143 76.8626 30.9104 76.8083 30.9945C76.755 31.0775 76.6701 31.1434 76.5534 31.1923C76.4379 31.24 76.2867 31.2639 76.0998 31.2639H75.2469V29.3762H76.0964C76.2368 29.3762 76.362 29.3916 76.4719 29.4222C76.5829 29.4529 76.6701 29.5035 76.7335 29.574C76.7969 29.6445 76.8286 29.74 76.8286 29.8605ZM76.4735 30.6927C76.4735 30.5994 76.4379 30.5324 76.3665 30.4914C76.2963 30.4505 76.1932 30.43 76.0573 30.43H75.6478V30.9689H76.0658C76.1926 30.9689 76.2923 30.9479 76.3648 30.9058C76.4373 30.8626 76.4735 30.7916 76.4735 30.6927ZM76.4226 29.8963C76.4226 29.8224 76.3948 29.7678 76.3393 29.7326C76.2838 29.6962 76.1966 29.678 76.0777 29.678H75.6478V30.135H76.0233C76.1547 30.135 76.2538 30.1163 76.3206 30.0788C76.3886 30.0401 76.4226 29.9793 76.4226 29.8963Z" fill="black"/>
<path d="M80.1876 28.7708L79.3975 30.5562C79.3284 30.7154 79.2559 30.8501 79.1801 30.9604C79.1053 31.0707 79.013 31.1548 78.9031 31.2128C78.7932 31.2696 78.6511 31.298 78.4767 31.298C78.4132 31.298 78.3498 31.2935 78.2864 31.2844C78.2229 31.2753 78.1646 31.2628 78.1114 31.2469V30.8751C78.1624 30.8967 78.2173 30.9132 78.2762 30.9246C78.3362 30.9348 78.3957 30.9399 78.4546 30.9399C78.5373 30.9399 78.6058 30.9268 78.6602 30.9007C78.7157 30.8745 78.7621 30.8359 78.7995 30.7847C78.838 30.7324 78.8725 30.6688 78.9031 30.5938L77.9942 28.7708H78.4308L79.017 30.0071C79.026 30.0265 79.0373 30.0515 79.0509 30.0822C79.0645 30.1117 79.0775 30.1424 79.09 30.1743C79.1036 30.205 79.1149 30.2334 79.124 30.2595H79.1393C79.1472 30.2368 79.1568 30.2101 79.1682 30.1794C79.1806 30.1475 79.1931 30.1151 79.2055 30.0822C79.2191 30.0492 79.231 30.0202 79.2412 29.9952L79.7611 28.7708H80.1876Z" fill="black"/>
<path d="M81.6385 29.3762H82.0785L81.3004 30.2834L82.1448 31.2639H81.6844L80.874 30.3056V31.2639H80.473V29.3762H80.874V30.2919L81.6385 29.3762Z" fill="black"/>
<path d="M83.4157 29.3404C83.6388 29.3404 83.8177 29.4222 83.9525 29.586C84.0885 29.7497 84.1564 29.9929 84.1564 30.3158C84.1564 30.5295 84.1247 30.7097 84.0613 30.8564C83.999 31.0019 83.9112 31.1121 83.7979 31.1872C83.6858 31.2611 83.555 31.298 83.4055 31.298C83.3103 31.298 83.2276 31.2855 83.1574 31.2605C83.0872 31.2355 83.0271 31.2031 82.9773 31.1633C82.9275 31.1224 82.8856 31.078 82.8516 31.0303H82.8278C82.8335 31.0758 82.8386 31.1264 82.8431 31.1821C82.8488 31.2366 82.8516 31.2866 82.8516 31.3321V32.1012H82.4506V29.3762H82.7768L82.8329 29.6371H82.8516C82.8867 29.5837 82.9292 29.5342 82.979 29.4888C83.03 29.4433 83.0911 29.4075 83.1625 29.3813C83.235 29.354 83.3194 29.3404 83.4157 29.3404ZM83.3086 29.6678C83.1987 29.6678 83.1104 29.69 83.0436 29.7343C82.9779 29.7775 82.9297 29.8429 82.8992 29.9304C82.8697 30.0179 82.8539 30.1277 82.8516 30.2595V30.3158C82.8516 30.4556 82.8657 30.5744 82.8941 30.6722C82.9235 30.7688 82.9716 30.8427 83.0385 30.8939C83.1064 30.9439 83.1982 30.9689 83.3137 30.9689C83.4111 30.9689 83.4915 30.9422 83.555 30.8888C83.6195 30.8353 83.6677 30.7592 83.6994 30.6603C83.7311 30.5614 83.747 30.4448 83.747 30.3107C83.747 30.1072 83.7107 29.9492 83.6382 29.8366C83.5669 29.7241 83.457 29.6678 83.3086 29.6678Z" fill="black"/>
<path d="M85.3559 29.3404C85.5938 29.3404 85.7733 29.3933 85.8945 29.499C86.0168 29.6047 86.078 29.7696 86.078 29.9935V31.2639H85.7943L85.7178 30.9962H85.7042C85.651 31.0644 85.596 31.1207 85.5394 31.165C85.4828 31.2093 85.4171 31.2423 85.3423 31.2639C85.2687 31.2866 85.1786 31.298 85.0722 31.298C84.96 31.298 84.8598 31.2776 84.7715 31.2366C84.6831 31.1946 84.6134 31.1309 84.5625 31.0456C84.5115 30.9604 84.486 30.8524 84.486 30.7216C84.486 30.5272 84.5579 30.3812 84.7018 30.2834C84.8468 30.1856 85.0654 30.1316 85.3576 30.1214L85.6838 30.1095V30.0106C85.6838 29.8798 85.6532 29.7866 85.5921 29.7309C85.532 29.6752 85.4471 29.6473 85.3372 29.6473C85.2432 29.6473 85.152 29.661 85.0637 29.6883C84.9753 29.7156 84.8893 29.7491 84.8054 29.7889L84.6763 29.5058C84.7681 29.4569 84.8723 29.4171 84.9889 29.3864C85.1067 29.3557 85.2291 29.3404 85.3559 29.3404ZM85.6821 30.3618L85.4392 30.3704C85.2398 30.3772 85.0999 30.4113 85.0195 30.4727C84.9391 30.5341 84.8989 30.6182 84.8989 30.7251C84.8989 30.8183 84.9266 30.8865 84.9821 30.9297C85.0376 30.9717 85.1107 30.9928 85.2013 30.9928C85.3395 30.9928 85.4539 30.9536 85.5445 30.8751C85.6362 30.7955 85.6821 30.679 85.6821 30.5255V30.3618Z" fill="black"/>
<path d="M87.0362 31.2639H86.637V29.3762H87.0362V31.2639ZM86.3056 28.8766C86.3056 28.8084 86.3243 28.7589 86.3617 28.7282C86.3991 28.6964 86.445 28.6805 86.4993 28.6805C86.5537 28.6805 86.6001 28.6964 86.6387 28.7282C86.6783 28.7589 86.6981 28.8084 86.6981 28.8766C86.6981 28.9425 86.6783 28.992 86.6387 29.0249C86.6001 29.0579 86.5537 29.0744 86.4993 29.0744C86.445 29.0744 86.3991 29.0579 86.3617 29.0249C86.3243 28.992 86.3056 28.9425 86.3056 28.8766ZM86.9734 28.8766C86.9734 28.8084 86.992 28.7589 87.0294 28.7282C87.0679 28.6964 87.1144 28.6805 87.1687 28.6805C87.2231 28.6805 87.2695 28.6964 87.3081 28.7282C87.3477 28.7589 87.3675 28.8084 87.3675 28.8766C87.3675 28.9425 87.3477 28.992 87.3081 29.0249C87.2695 29.0579 87.2231 29.0744 87.1687 29.0744C87.1144 29.0744 87.0679 29.0579 87.0294 29.0249C86.992 28.992 86.9734 28.9425 86.9734 28.8766Z" fill="black"/>
<path d="M88.0097 29.3762V30.135H88.8898V29.3762H89.2908V31.2639H88.8898V30.4488H88.0097V31.2639H87.6088V29.3762H88.0097Z" fill="black"/>
<path d="M90.2609 29.3762V31.2639H89.8617V29.3762H90.2609ZM90.0638 28.6532C90.125 28.6532 90.1777 28.6697 90.2218 28.7026C90.2671 28.7356 90.2898 28.7924 90.2898 28.8732C90.2898 28.9527 90.2671 29.0096 90.2218 29.0437C90.1777 29.0767 90.125 29.0931 90.0638 29.0931C90.0004 29.0931 89.9466 29.0767 89.9024 29.0437C89.8594 29.0096 89.8379 28.9527 89.8379 28.8732C89.8379 28.7924 89.8594 28.7356 89.9024 28.7026C89.9466 28.6697 90.0004 28.6532 90.0638 28.6532Z" fill="black"/>
<path fill-rule="evenodd" clip-rule="evenodd" d="M31.1973 13.3555H29.9247V15.5552H31.1973V13.3555ZM25.8948 15.6965H27.8742V18.2531H29.9245V18.2519H31.1969V17.1875H29.9245V15.5566L28.0158 15.5566V13.6387H25.8948V15.6965ZM27.8744 20.6666H25.5415V18.2539H27.9453V20.5938H31.1973V22.013H30.1367V22.2949H31.197V23.0782H31.1972V25.3477H31.1973V28.0441H27.8744V25.3477H29.9246V23.1464H27.8741V22.2949H27.8743V21.5879H27.8744V20.6666ZM28.0863 13.3555H29.9245V13.8522L28.0863 13.8522V13.3555ZM31.1971 20.5936V18.252H30.1365V20.5936H31.1971ZM26.0362 23.5742H27.8744V25.4192H26.0362V23.5742ZM25.5412 20.664H23.1374V23.0766H25.5412V20.664ZM21.4403 23.0764H23.0664V24.7084H21.4403V23.0764ZM22.2891 18.75H20.663V20.3821H22.2891V18.75ZM19.8852 16.0527H21.5113V17.6848H19.8852V16.0527ZM23.2786 14.4199H21.6525V16.052H23.1376V18.1119H25.5415V15.6992H23.2786V14.4199ZM21.6528 13.3555H20.0267V14.4199H21.6528V13.3555Z" fill="#FCE501"/>
<rect x="9.46821" y="8.46821" width="96.7172" height="28.522" rx="14.261" stroke="#FF5100" stroke-width="0.936424" shape-rendering="crispEdges"/>
</g>
<defs>
<filter id="filter0_d_798_21108" x="0.572183" y="0.508607" width="120.128" height="51.9332" filterUnits="userSpaceOnUse" color-interpolation-filters="sRGB">
<feFlood flood-opacity="0" result="BackgroundImageFix"/>
<feColorMatrix in="SourceAlpha" type="matrix" values="0 0 0 0 0 0 0 0 0 0 0 0 0 0 0 0 0 0 127 0" result="hardAlpha"/>
<feOffset dx="2.80927" dy="3.7457"/>
<feGaussianBlur stdDeviation="5.61854"/>
<feComposite in2="hardAlpha" operator="out"/>
<feColorMatrix type="matrix" values="0 0 0 0 0 0 0 0 0 0 0 0 0 0 0 0 0 0 0.19 0"/>
<feBlend mode="normal" in2="BackgroundImageFix" result="effect1_dropShadow_798_21108"/>
<feBlend mode="normal" in="SourceGraphic" in2="effect1_dropShadow_798_21108" result="shape"/>
</filter>
</defs>
</svg>
