<svg width="18" height="13" viewBox="0 0 18 13" fill="none" xmlns="http://www.w3.org/2000/svg">
<mask id="mask0_1603_31103" style="mask-type:luminance" maskUnits="userSpaceOnUse" x="0" y="0" width="18" height="13">
<path d="M18 0H0V13H18V0Z" fill="white"/>
</mask>
<g mask="url(#mask0_1603_31103)">
<path d="M18 0H0V13H18V0Z" fill="white"/>
<path d="M12.0518 4.70072L18 0.57763V0H17.5924L10.8075 4.70072H12.0518Z" fill="#BD0034"/>
<path d="M11.7729 8.55811L18 12.8737V12.0106L13.0173 8.55811H11.7729Z" fill="#BD0034"/>
<path d="M0 0.989102L5.32598 4.70054H6.57569L0 0.125977V0.989102Z" fill="#BD0034"/>
<path d="M6.29142 8.55811L0 12.9202V12.9999H1.13707L7.53576 8.55811H6.29142Z" fill="#BD0034"/>
<path d="M16.7717 0H10.4642V4.36874L16.7717 0Z" fill="#1A237B"/>
<path d="M7.68597 0H1.40527L7.68597 4.36874V0Z" fill="#1A237B"/>
<path d="M18 4.70083V1.71973L13.7252 4.70083H18Z" fill="#1A237B"/>
<path d="M18 11.506V8.55811H13.7252L18 11.506Z" fill="#1A237B"/>
<path d="M1.76465 12.9999H7.68598V8.89014L1.76465 12.9999Z" fill="#1A237B"/>
<path d="M10.4642 12.9999H16.407L10.4642 8.89014V12.9999Z" fill="#1A237B"/>
<path d="M0 8.55811V11.6454L4.42491 8.55811H0Z" fill="#1A237B"/>
<path d="M0 4.70062H4.42491L0 1.61328V4.70062Z" fill="#1A237B"/>
<path d="M8.23838 0V5.47089H0V7.78805H8.23838V13H9.9118V7.78805H18V5.47089H9.9118V0H8.23838Z" fill="#BD0034"/>
</g>
</svg>
