<svg width="270" height="71" viewBox="0 0 270 71" fill="none" xmlns="http://www.w3.org/2000/svg">
<rect x="43.2002" width="90.72" height="70.9515" rx="17" fill="#1D59F9"/>
<path fill-rule="evenodd" clip-rule="evenodd" d="M53.46 16.3941H88.56V52.4073H76.41V57.5137H66.42V52.4073H53.46V16.3941ZM78.84 26.6068H63.99V43.0009H66.42V38.1633H76.41V43.0009H78.84V26.6068Z" fill="white"/>
<path fill-rule="evenodd" clip-rule="evenodd" d="M92.88 16.3941H102.87H123.39V39.1039H119.475L122.58 52.4073H112.05L108.945 39.1039H102.87V39.2383V52.4073H92.88V39.2383V16.3941ZM113.94 26.6068H102.87V29.8319H113.94V26.6068Z" fill="white"/>
<path fill-rule="evenodd" clip-rule="evenodd" d="M171.72 17.2004H141.75V52.6761H171.72V37.6258L168.75 34.8039L171.72 31.9819V17.2004ZM161.46 26.6068H151.2V30.1006H158.49L161.46 26.6068ZM161.46 43.2697H151.2V39.7758H158.49L161.46 43.2697Z" fill="black"/>
<path fill-rule="evenodd" clip-rule="evenodd" d="M175.23 17.2004H205.2V52.6761H175.23V17.2004ZM195.75 25.5318H184.41V43.0009H195.75V25.5318Z" fill="black"/>
<path d="M209.52 17.2004V39.7758H227.88V43.0009H209.52V52.6761H237.6V30.1006H219.24V26.8756H237.6V17.2004H209.52Z" fill="black"/>
<path d="M241.92 17.2004V39.7758H260.28V43.0009H241.92V52.6761H270V30.1006H251.64V26.8756H270V17.2004H241.92Z" fill="black"/>
<path d="M149.043 60.5954C149.043 61.2327 148.829 61.7429 148.401 62.1261C147.977 62.505 147.423 62.7461 146.74 62.8494V62.8946C147.561 62.9937 148.191 63.2391 148.628 63.6309C149.065 64.0184 149.283 64.5265 149.283 65.1551C149.283 65.7062 149.138 66.1928 148.848 66.6147C148.558 67.0367 148.126 67.366 147.551 67.6029C146.975 67.8397 146.262 67.9581 145.409 67.9581C144.791 67.9581 144.226 67.915 143.716 67.8289C143.206 67.7471 142.751 67.6179 142.353 67.4414V66.098C142.626 66.2272 142.924 66.3392 143.249 66.4339C143.578 66.5243 143.911 66.5953 144.248 66.647C144.59 66.6944 144.91 66.7181 145.208 66.7181C146.056 66.7181 146.686 66.576 147.096 66.2918C147.507 66.0076 147.713 65.605 147.713 65.0841C147.713 64.5502 147.447 64.1605 146.915 63.9151C146.383 63.6697 145.654 63.5469 144.728 63.5469H143.599V62.3069H144.657C145.345 62.3069 145.896 62.2466 146.311 62.1261C146.727 62.0055 147.027 61.8333 147.213 61.6094C147.399 61.3855 147.492 61.1186 147.492 60.8086C147.492 60.3995 147.328 60.0809 146.999 59.8527C146.675 59.6202 146.225 59.5039 145.65 59.5039C145.105 59.5039 144.627 59.5771 144.216 59.7235C143.805 59.8699 143.413 60.0615 143.041 60.2983L142.334 59.2585C142.624 59.0605 142.94 58.8861 143.281 58.7354C143.627 58.5847 144.008 58.4663 144.423 58.3802C144.838 58.2941 145.295 58.251 145.792 58.251C146.484 58.251 147.07 58.3522 147.551 58.5546C148.035 58.7526 148.405 59.0282 148.66 59.3812C148.915 59.7343 149.043 60.139 149.043 60.5954Z" fill="black"/>
<path d="M154.714 60.5438C155.566 60.5438 156.249 60.8538 156.764 61.4738C157.283 62.0938 157.543 63.0152 157.543 64.238C157.543 65.0475 157.422 65.7299 157.179 66.2853C156.941 66.8365 156.606 67.2541 156.174 67.5383C155.745 67.8181 155.246 67.9581 154.675 67.9581C154.312 67.9581 153.996 67.9107 153.728 67.816C153.459 67.7213 153.23 67.5986 153.04 67.4479C152.849 67.2929 152.689 67.1249 152.56 66.9441H152.469C152.49 67.1163 152.51 67.3079 152.527 67.5189C152.549 67.7256 152.56 67.915 152.56 68.0872V71H151.028V60.6794H152.274L152.488 61.6675H152.56C152.694 61.4652 152.856 61.2779 153.046 61.1056C153.241 60.9334 153.475 60.7978 153.747 60.6988C154.024 60.5954 154.346 60.5438 154.714 60.5438ZM154.305 61.7838C153.885 61.7838 153.548 61.8677 153.293 62.0357C153.042 62.1993 152.858 62.4469 152.741 62.7784C152.629 63.1099 152.568 63.5254 152.56 64.0249V64.238C152.56 64.7676 152.614 65.2175 152.722 65.5878C152.834 65.9538 153.018 66.2337 153.273 66.4274C153.533 66.6169 153.883 66.7116 154.324 66.7116C154.696 66.7116 155.004 66.6104 155.246 66.408C155.492 66.2057 155.676 65.9172 155.797 65.5426C155.918 65.168 155.979 64.7267 155.979 64.2186C155.979 63.4479 155.841 62.8494 155.564 62.4232C155.291 61.9969 154.872 61.7838 154.305 61.7838Z" fill="black"/>
<path d="M165.666 64.238C165.666 64.8322 165.588 65.3596 165.433 65.8203C165.277 66.281 165.05 66.6707 164.751 66.9893C164.453 67.3036 164.094 67.5447 163.674 67.7127C163.255 67.8763 162.781 67.9581 162.253 67.9581C161.76 67.9581 161.308 67.8763 160.897 67.7127C160.486 67.5447 160.129 67.3036 159.827 66.9893C159.528 66.6707 159.297 66.281 159.132 65.8203C158.968 65.3596 158.886 64.8322 158.886 64.238C158.886 63.4501 159.022 62.7827 159.295 62.2359C159.571 61.6848 159.965 61.265 160.475 60.9765C160.986 60.688 161.594 60.5438 162.299 60.5438C162.96 60.5438 163.544 60.688 164.051 60.9765C164.557 61.265 164.952 61.6848 165.238 62.2359C165.523 62.787 165.666 63.4544 165.666 64.238ZM160.456 64.238C160.456 64.759 160.519 65.2046 160.644 65.5749C160.774 65.9452 160.973 66.2294 161.241 66.4274C161.509 66.6212 161.855 66.7181 162.279 66.7181C162.703 66.7181 163.049 66.6212 163.317 66.4274C163.586 66.2294 163.782 65.9452 163.908 65.5749C164.033 65.2046 164.096 64.759 164.096 64.238C164.096 63.717 164.033 63.2757 163.908 62.914C163.782 62.548 163.586 62.2703 163.317 62.0809C163.049 61.8871 162.701 61.7902 162.273 61.7902C161.641 61.7902 161.181 62.0012 160.891 62.4232C160.601 62.8451 160.456 63.4501 160.456 64.238Z" fill="black"/>
<path d="M167.009 63.5405C167.009 62.5028 167.124 61.6202 167.353 60.8925C167.582 60.1649 167.944 59.5814 168.437 59.1423C168.93 58.7031 169.57 58.4039 170.357 58.2445C170.868 58.1283 171.387 58.0293 171.914 57.9475C172.442 57.8657 172.97 57.786 173.498 57.7085L173.705 59.0454C173.459 59.0755 173.195 59.1121 172.914 59.1552C172.632 59.1939 172.349 59.2348 172.064 59.2779C171.783 59.321 171.512 59.3662 171.253 59.4135C170.997 59.4566 170.768 59.4996 170.565 59.5427C170.158 59.6288 169.814 59.7709 169.533 59.969C169.256 60.1627 169.04 60.4469 168.884 60.8215C168.729 61.1961 168.636 61.6955 168.605 62.3198H168.69C168.807 62.1433 168.969 61.9668 169.176 61.7902C169.384 61.6137 169.635 61.4673 169.929 61.3511C170.227 61.2305 170.567 61.1702 170.948 61.1702C171.545 61.1702 172.051 61.2951 172.466 61.5448C172.886 61.7945 173.203 62.1562 173.42 62.6298C173.64 63.1035 173.751 63.674 173.751 64.3413C173.751 65.1379 173.608 65.8053 173.322 66.3435C173.041 66.8774 172.648 67.2799 172.142 67.5512C171.635 67.8224 171.045 67.9581 170.37 67.9581C169.851 67.9581 169.384 67.8612 168.969 67.6674C168.558 67.4737 168.205 67.1895 167.911 66.8149C167.621 66.436 167.399 65.9732 167.243 65.4264C167.087 64.8752 167.009 64.2466 167.009 63.5405ZM170.474 66.7116C170.82 66.7116 171.119 66.6384 171.369 66.492C171.625 66.3456 171.821 66.1088 171.96 65.7816C172.103 65.4543 172.174 65.0216 172.174 64.4834C172.174 63.8204 172.053 63.2994 171.811 62.9205C171.573 62.5373 171.179 62.3457 170.63 62.3457C170.292 62.3457 169.983 62.421 169.702 62.5717C169.421 62.7224 169.183 62.8989 168.988 63.1013C168.794 63.2994 168.655 63.4737 168.573 63.6244C168.573 64.0163 168.601 64.3952 168.657 64.7611C168.718 65.1271 168.817 65.4587 168.956 65.7557C169.098 66.0485 169.293 66.281 169.54 66.4533C169.786 66.6255 170.098 66.7116 170.474 66.7116Z" fill="black"/>
<path d="M181.413 67.8289H179.876V61.8677H177.884C177.797 62.9528 177.689 63.8806 177.559 64.6513C177.43 65.4221 177.267 66.0507 177.073 66.5372C176.878 67.0194 176.638 67.3725 176.352 67.5964C176.067 67.8203 175.723 67.9322 175.321 67.9322C175.143 67.9322 174.983 67.9193 174.841 67.8935C174.698 67.872 174.57 67.8375 174.458 67.7902V66.5953C174.531 66.6212 174.611 66.6427 174.698 66.6599C174.784 66.6771 174.873 66.6858 174.964 66.6858C175.124 66.6858 175.271 66.6212 175.405 66.492C175.544 66.3585 175.671 66.1497 175.788 65.8655C175.905 65.5814 176.011 65.2068 176.106 64.7418C176.201 64.2724 176.288 63.7041 176.365 63.0367C176.443 62.365 176.513 61.5793 176.573 60.6794H181.413V67.8289Z" fill="black"/>
<path d="M186.461 60.5438C187.102 60.5438 187.651 60.6751 188.109 60.9377C188.568 61.2004 188.92 61.5728 189.167 62.055C189.414 62.5373 189.537 63.1142 189.537 63.7859V64.5997H184.742C184.759 65.2929 184.945 65.8268 185.3 66.2014C185.659 66.576 186.161 66.7633 186.805 66.7633C187.264 66.7633 187.675 66.7202 188.038 66.6341C188.406 66.5437 188.784 66.4123 189.173 66.2401V67.4737C188.814 67.6416 188.449 67.7643 188.077 67.8418C187.705 67.9193 187.259 67.9581 186.74 67.9581C186.035 67.9581 185.415 67.8224 184.878 67.5512C184.346 67.2756 183.929 66.8666 183.626 66.3241C183.327 65.7816 183.178 65.1077 183.178 64.3026C183.178 63.5017 183.314 62.8214 183.587 62.2617C183.86 61.702 184.242 61.2757 184.735 60.9829C185.229 60.6902 185.804 60.5438 186.461 60.5438ZM186.461 61.6869C185.981 61.6869 185.592 61.8419 185.293 62.1519C184.999 62.4619 184.826 62.9162 184.774 63.5147H188.045C188.04 63.1573 187.98 62.8408 187.863 62.5653C187.75 62.2897 187.577 62.0744 187.344 61.9194C187.115 61.7644 186.82 61.6869 186.461 61.6869Z" fill="black"/>
<path d="M192.788 60.6794V63.5534H196.148V60.6794H197.68V67.8289H196.148V64.7418H192.788V67.8289H191.256V60.6794H192.788Z" fill="black"/>
<path d="M206.218 64.238C206.218 64.8322 206.141 65.3596 205.985 65.8203C205.829 66.281 205.602 66.6707 205.304 66.9893C205.005 67.3036 204.646 67.5447 204.226 67.7127C203.807 67.8763 203.333 67.9581 202.806 67.9581C202.312 67.9581 201.86 67.8763 201.449 67.7127C201.039 67.5447 200.682 67.3036 200.379 66.9893C200.08 66.6707 199.849 66.281 199.685 65.8203C199.52 65.3596 199.438 64.8322 199.438 64.238C199.438 63.4501 199.574 62.7827 199.847 62.2359C200.124 61.6848 200.517 61.265 201.028 60.9765C201.538 60.688 202.146 60.5438 202.851 60.5438C203.513 60.5438 204.097 60.688 204.603 60.9765C205.109 61.265 205.505 61.6848 205.79 62.2359C206.076 62.787 206.218 63.4544 206.218 64.238ZM201.008 64.238C201.008 64.759 201.071 65.2046 201.196 65.5749C201.326 65.9452 201.525 66.2294 201.793 66.4274C202.062 66.6212 202.408 66.7181 202.832 66.7181C203.255 66.7181 203.601 66.6212 203.87 66.4274C204.138 66.2294 204.335 65.9452 204.46 65.5749C204.586 65.2046 204.648 64.759 204.648 64.238C204.648 63.717 204.586 63.2757 204.46 62.914C204.335 62.548 204.138 62.2703 203.87 62.0809C203.601 61.8871 203.253 61.7902 202.825 61.7902C202.193 61.7902 201.733 62.0012 201.443 62.4232C201.153 62.8451 201.008 63.4501 201.008 64.238Z" fill="black"/>
<path d="M217.463 62.5136C217.463 62.9269 217.335 63.2649 217.08 63.5276C216.829 63.7859 216.483 63.956 216.042 64.0378V64.0895C216.513 64.1497 216.907 64.3155 217.223 64.5868C217.538 64.858 217.696 65.2348 217.696 65.717C217.696 66.126 217.593 66.4899 217.385 66.8085C217.182 67.1228 216.857 67.3725 216.412 67.5577C215.97 67.7385 215.393 67.8289 214.679 67.8289H211.422V60.6794H214.666C215.203 60.6794 215.681 60.7375 216.1 60.8538C216.524 60.97 216.857 61.1616 217.099 61.4286C217.342 61.6955 217.463 62.0572 217.463 62.5136ZM216.107 65.6653C216.107 65.3123 215.97 65.0582 215.698 64.9032C215.43 64.7482 215.036 64.6707 214.517 64.6707H212.953V66.7116H214.549C215.034 66.7116 215.415 66.6319 215.691 66.4726C215.968 66.309 216.107 66.0399 216.107 65.6653ZM215.912 62.6492C215.912 62.3694 215.806 62.1627 215.594 62.0292C215.382 61.8914 215.049 61.8225 214.595 61.8225H212.953V63.5534H214.387C214.889 63.5534 215.268 63.4824 215.523 63.3403C215.782 63.1939 215.912 62.9635 215.912 62.6492Z" fill="black"/>
<path d="M230.29 58.3866L227.273 65.1486C227.009 65.7514 226.732 66.2617 226.443 66.6793C226.157 67.0969 225.805 67.4156 225.385 67.6352C224.965 67.8504 224.423 67.9581 223.756 67.9581C223.514 67.9581 223.272 67.9409 223.03 67.9064C222.788 67.872 222.565 67.8246 222.361 67.7643V66.3564C222.556 66.4382 222.766 66.5006 222.991 66.5437C223.22 66.5824 223.447 66.6018 223.672 66.6018C223.988 66.6018 224.25 66.5523 224.457 66.4533C224.669 66.3542 224.847 66.2078 224.989 66.0141C225.136 65.816 225.268 65.5749 225.385 65.2907L221.914 58.3866H223.581L225.82 63.069C225.854 63.1422 225.898 63.2369 225.95 63.3532C226.001 63.4651 226.051 63.5814 226.099 63.7019C226.151 63.8182 226.194 63.9258 226.229 64.0249H226.287C226.317 63.9388 226.354 63.8376 226.397 63.7213C226.445 63.6008 226.492 63.4781 226.54 63.3532C226.592 63.2283 226.637 63.1185 226.676 63.0238L228.662 58.3866H230.29Z" fill="black"/>
<path d="M235.831 60.6794H237.512L234.54 64.1153L237.765 67.8289H236.007L232.912 64.1993V67.8289H231.38V60.6794H232.912V64.1476L235.831 60.6794Z" fill="black"/>
<path d="M242.618 60.5438C243.47 60.5438 244.154 60.8538 244.668 61.4738C245.188 62.0938 245.447 63.0152 245.447 64.238C245.447 65.0475 245.326 65.7299 245.084 66.2853C244.846 66.8365 244.511 67.2541 244.078 67.5383C243.65 67.8181 243.15 67.9581 242.579 67.9581C242.216 67.9581 241.9 67.9107 241.632 67.816C241.364 67.7213 241.134 67.5986 240.944 67.4479C240.754 67.2929 240.594 67.1249 240.464 66.9441H240.373C240.395 67.1163 240.414 67.3079 240.432 67.5189C240.453 67.7256 240.464 67.915 240.464 68.0872V71H238.933V60.6794H240.179L240.393 61.6675H240.464C240.598 61.4652 240.76 61.2779 240.951 61.1056C241.145 60.9334 241.379 60.7978 241.651 60.6988C241.928 60.5954 242.25 60.5438 242.618 60.5438ZM242.209 61.7838C241.79 61.7838 241.452 61.8677 241.197 62.0357C240.946 62.1993 240.762 62.4469 240.646 62.7784C240.533 63.1099 240.473 63.5254 240.464 64.0249V64.238C240.464 64.7676 240.518 65.2175 240.626 65.5878C240.739 65.9538 240.923 66.2337 241.178 66.4274C241.437 66.6169 241.788 66.7116 242.229 66.7116C242.601 66.7116 242.908 66.6104 243.15 66.408C243.397 66.2057 243.581 65.9172 243.702 65.5426C243.823 65.168 243.883 64.7267 243.883 64.2186C243.883 63.4479 243.745 62.8494 243.468 62.4232C243.196 61.9969 242.776 61.7838 242.209 61.7838Z" fill="black"/>
<path d="M250.028 60.5438C250.936 60.5438 251.622 60.744 252.085 61.1444C252.552 61.5448 252.785 62.1691 252.785 63.0174V67.8289H251.702L251.41 66.8149H251.358C251.155 67.0733 250.945 67.2864 250.729 67.4543C250.512 67.6222 250.261 67.7471 249.976 67.8289C249.695 67.915 249.351 67.9581 248.944 67.9581C248.516 67.9581 248.133 67.8806 247.796 67.7256C247.458 67.5663 247.192 67.3251 246.998 67.0022C246.803 66.6793 246.706 66.2703 246.706 65.7751C246.706 65.0388 246.98 64.4856 247.53 64.1153C248.084 63.745 248.918 63.5405 250.034 63.5017L251.28 63.4565V63.0819C251.28 62.5868 251.163 62.2337 250.93 62.0227C250.7 61.8118 250.376 61.7063 249.956 61.7063C249.597 61.7063 249.249 61.758 248.912 61.8613C248.574 61.9646 248.246 62.0916 247.926 62.2423L247.433 61.1702C247.783 60.9851 248.181 60.8344 248.626 60.7181C249.076 60.6019 249.543 60.5438 250.028 60.5438ZM251.274 64.4124L250.346 64.4447C249.584 64.4705 249.05 64.5997 248.743 64.8322C248.436 65.0647 248.283 65.3833 248.283 65.788C248.283 66.1411 248.388 66.3994 248.6 66.563C248.812 66.7224 249.091 66.802 249.437 66.802C249.965 66.802 250.402 66.6535 250.748 66.3564C251.098 66.055 251.274 65.6137 251.274 65.0324V64.4124Z" fill="black"/>
<path d="M256.445 67.8289H254.92V60.6794H256.445V67.8289ZM253.655 58.7871C253.655 58.5287 253.726 58.3414 253.869 58.2252C254.012 58.1046 254.187 58.0443 254.395 58.0443C254.602 58.0443 254.78 58.1046 254.927 58.2252C255.078 58.3414 255.154 58.5287 255.154 58.7871C255.154 59.0368 255.078 59.2241 254.927 59.3489C254.78 59.4738 254.602 59.5362 254.395 59.5362C254.187 59.5362 254.012 59.4738 253.869 59.3489C253.726 59.2241 253.655 59.0368 253.655 58.7871ZM256.205 58.7871C256.205 58.5287 256.276 58.3414 256.419 58.2252C256.566 58.1046 256.743 58.0443 256.951 58.0443C257.159 58.0443 257.336 58.1046 257.483 58.2252C257.634 58.3414 257.71 58.5287 257.71 58.7871C257.71 59.0368 257.634 59.2241 257.483 59.3489C257.336 59.4738 257.159 59.5362 256.951 59.5362C256.743 59.5362 256.566 59.4738 256.419 59.3489C256.276 59.2241 256.205 59.0368 256.205 58.7871Z" fill="black"/>
<path d="M260.163 60.6794V63.5534H263.524V60.6794H265.055V67.8289H263.524V64.7418H260.163V67.8289H258.631V60.6794H260.163Z" fill="black"/>
<path d="M268.76 60.6794V67.8289H267.235V60.6794H268.76ZM268.007 57.941C268.241 57.941 268.442 58.0034 268.611 58.1283C268.784 58.2532 268.87 58.4684 268.87 58.7741C268.87 59.0755 268.784 59.2908 268.611 59.42C268.442 59.5449 268.241 59.6073 268.007 59.6073C267.765 59.6073 267.559 59.5449 267.391 59.42C267.226 59.2908 267.144 59.0755 267.144 58.7741C267.144 58.4684 267.226 58.2532 267.391 58.1283C267.559 58.0034 267.765 57.941 268.007 57.941Z" fill="black"/>
<path fill-rule="evenodd" clip-rule="evenodd" d="M43.2 0H38.34H31.32V1.88129H38.34V8.33143H31.05V1.07502H22.95V8.86894H30.51V18.5441H21.6V27.6818H30.51V31.1757V32.7882V33.8632V34.4007V37.0883H38.34V45.4197L30.51 45.4197L30.51 38.7008H23.49V45.6885H30.51L30.51 55.6324H43.2V45.4197V37.0883V36.8195V33.8632H39.15V32.7882H43.2V27.4131V18.5441V14.5128H38.34L38.34 8.33143H43.2V0ZM30.78 27.4131H39.15V18.5441H38.34H36.18H30.78V27.4131ZM21.6 27.6818H12.42V36.8195H21.6V27.6818ZM5.94 36.8195H12.15V43.0009H5.94V36.8195ZM9.18 20.4254H2.97V26.6068H9.18V20.4254ZM0 10.2127H6.21V16.3941H0V10.2127ZM12.96 4.03133H6.75L6.75 0H0.54V4.03133H6.75V10.2127H12.42V18.0066H21.6V8.86894H12.96V4.03133Z" fill="#FCE501"/>
</svg>
