<svg width="173" height="45" viewBox="0 0 173 45" fill="none" xmlns="http://www.w3.org/2000/svg">
<rect x="27.6801" width="58.128" height="44.9693" rx="17" fill="#1D59F9"/>
<path fill-rule="evenodd" clip-rule="evenodd" d="M34.254 10.3906H56.744V33.2159H48.959V36.4524H42.558V33.2159H34.254V10.3906ZM50.516 16.8635H41.001V27.2541H42.558V24.188H48.959V27.2541H50.516V16.8635Z" fill="white"/>
<path fill-rule="evenodd" clip-rule="evenodd" d="M59.512 10.3906H65.913H79.061V24.7842H76.5525L78.542 33.2159H71.795L69.8055 24.7842H65.913V24.8694V33.2159H59.512V24.8694V10.3906ZM73.006 16.8635H65.913V18.9075H73.006V16.8635Z" fill="white"/>
<path fill-rule="evenodd" clip-rule="evenodd" d="M110.028 10.9023H90.825V33.387H110.028V23.848L108.125 22.0595L110.028 20.2709V10.9023ZM103.454 16.8642H96.88V19.0786H101.551L103.454 16.8642ZM103.454 27.4251H96.88V25.2107H101.551L103.454 27.4251Z" fill="black"/>
<path fill-rule="evenodd" clip-rule="evenodd" d="M112.277 10.9023H131.48V33.387H112.277V10.9023ZM125.425 16.1828H118.159V27.2548H125.425V16.1828Z" fill="black"/>
<path d="M134.248 10.9023V25.2107H146.012V27.2548H134.248V33.387H152.24V19.0786H140.476V17.0345H152.24V10.9023H134.248Z" fill="black"/>
<path d="M155.008 10.9023V25.2107H166.772V27.2548H155.008V33.387H173V19.0786H161.236V17.0345H173V10.9023H155.008Z" fill="black"/>
<path d="M95.4979 38.4049C95.4979 38.8088 95.3607 39.1322 95.0863 39.3751C94.8147 39.6152 94.46 39.768 94.0221 39.8335V39.8622C94.5487 39.925 94.9519 40.0805 95.2319 40.3288C95.5118 40.5744 95.6518 40.8965 95.6518 41.2949C95.6518 41.6442 95.5589 41.9525 95.3732 42.22C95.1875 42.4874 94.9104 42.6962 94.5417 42.8463C94.1731 42.9964 93.7158 43.0714 93.1698 43.0714C92.7735 43.0714 92.4118 43.0441 92.0847 42.9895C91.7577 42.9377 91.4667 42.8558 91.2117 42.7439V41.8925C91.3863 41.9744 91.5775 42.0453 91.7854 42.1054C91.996 42.1627 92.2095 42.2077 92.4256 42.2404C92.6446 42.2705 92.8497 42.2855 93.0409 42.2855C93.5842 42.2855 93.9874 42.1954 94.2507 42.0153C94.514 41.8352 94.6457 41.58 94.6457 41.2498C94.6457 40.9115 94.4752 40.6645 94.1343 40.5089C93.7934 40.3534 93.3264 40.2756 92.7333 40.2756H92.0099V39.4897H92.6876C93.1282 39.4897 93.4816 39.4515 93.7477 39.3751C94.0138 39.2987 94.2064 39.1895 94.3256 39.0476C94.4447 38.9057 94.5043 38.7365 94.5043 38.54C94.5043 38.2808 94.399 38.0788 94.1884 37.9342C93.9805 37.7868 93.6922 37.7132 93.3236 37.7132C92.9744 37.7132 92.6682 37.7595 92.4049 37.8523C92.1416 37.9451 91.8907 38.0666 91.6524 38.2166L91.1992 37.5576C91.3849 37.4321 91.5872 37.3216 91.8062 37.226C92.0279 37.1305 92.2718 37.0555 92.5379 37.0009C92.804 36.9463 93.0964 36.919 93.4151 36.919C93.8585 36.919 94.2341 36.9832 94.5417 37.1114C94.8522 37.237 95.0891 37.4116 95.2526 37.6354C95.4162 37.8592 95.4979 38.1157 95.4979 38.4049Z" fill="black"/>
<path d="M99.1315 38.3722C99.6775 38.3722 100.115 38.5687 100.445 38.9616C100.778 39.3546 100.944 39.9386 100.944 40.7136C100.944 41.2267 100.866 41.6592 100.711 42.0112C100.559 42.3605 100.344 42.6252 100.067 42.8053C99.7925 42.9827 99.4724 43.0714 99.1065 43.0714C98.8737 43.0714 98.6714 43.0414 98.4995 42.9814C98.3277 42.9213 98.1808 42.8435 98.0589 42.748C97.9369 42.6498 97.8344 42.5434 97.7512 42.4287H97.693C97.7069 42.5379 97.7193 42.6593 97.7304 42.7931C97.7443 42.924 97.7512 43.0441 97.7512 43.1533V44.9994H96.7701V38.4582H97.5683L97.7055 39.0844H97.7512C97.8371 38.9562 97.9411 38.8375 98.063 38.7283C98.1877 38.6192 98.3374 38.5332 98.512 38.4704C98.6894 38.4049 98.8959 38.3722 99.1315 38.3722ZM98.8695 39.1581C98.6007 39.1581 98.3845 39.2113 98.221 39.3178C98.0602 39.4215 97.9425 39.5784 97.8676 39.7885C97.7956 39.9986 97.7568 40.262 97.7512 40.5785V40.7136C97.7512 41.0493 97.7859 41.3344 97.8552 41.5691C97.9272 41.8011 98.045 41.9785 98.2085 42.1013C98.3748 42.2213 98.5993 42.2814 98.882 42.2814C99.1204 42.2814 99.3172 42.2173 99.4724 42.089C99.6303 41.9607 99.7481 41.7779 99.8257 41.5405C99.9033 41.3031 99.9421 41.0233 99.9421 40.7013C99.9421 40.2129 99.8535 39.8335 99.6761 39.5634C99.5015 39.2932 99.2326 39.1581 98.8695 39.1581Z" fill="black"/>
<path d="M106.149 40.7136C106.149 41.0902 106.099 41.4245 105.999 41.7165C105.9 42.0085 105.754 42.2555 105.563 42.4574C105.372 42.6566 105.142 42.8094 104.873 42.9159C104.604 43.0196 104.3 43.0714 103.962 43.0714C103.646 43.0714 103.357 43.0196 103.093 42.9159C102.83 42.8094 102.601 42.6566 102.407 42.4574C102.216 42.2555 102.068 42.0085 101.963 41.7165C101.857 41.4245 101.805 41.0902 101.805 40.7136C101.805 40.2142 101.892 39.7912 102.067 39.4447C102.244 39.0954 102.496 38.8293 102.823 38.6465C103.15 38.4636 103.54 38.3722 103.991 38.3722C104.415 38.3722 104.79 38.4636 105.114 38.6465C105.438 38.8293 105.692 39.0954 105.875 39.4447C106.058 39.794 106.149 40.2169 106.149 40.7136ZM102.811 40.7136C102.811 41.0438 102.851 41.3263 102.931 41.5609C103.014 41.7956 103.142 41.9757 103.314 42.1013C103.486 42.2241 103.707 42.2855 103.979 42.2855C104.251 42.2855 104.472 42.2241 104.644 42.1013C104.816 41.9757 104.942 41.7956 105.022 41.5609C105.103 41.3263 105.143 41.0438 105.143 40.7136C105.143 40.3834 105.103 40.1037 105.022 39.8745C104.942 39.6425 104.816 39.4665 104.644 39.3464C104.472 39.2236 104.249 39.1622 103.975 39.1622C103.57 39.1622 103.275 39.2959 103.089 39.5634C102.904 39.8308 102.811 40.2142 102.811 40.7136Z" fill="black"/>
<path d="M107.01 40.2715C107.01 39.6139 107.083 39.0544 107.23 38.5932C107.377 38.132 107.608 37.7623 107.924 37.4839C108.24 37.2056 108.65 37.0159 109.155 36.9149C109.482 36.8413 109.814 36.7785 110.153 36.7267C110.491 36.6748 110.829 36.6243 111.167 36.5752L111.3 37.4225C111.142 37.4416 110.973 37.4648 110.793 37.4921C110.613 37.5167 110.431 37.5426 110.248 37.5699C110.068 37.5972 109.895 37.6258 109.729 37.6559C109.565 37.6831 109.418 37.7104 109.288 37.7377C109.027 37.7923 108.807 37.8824 108.627 38.0079C108.449 38.1307 108.311 38.3108 108.211 38.5482C108.111 38.7856 108.052 39.1022 108.032 39.4979H108.086C108.161 39.386 108.265 39.2741 108.398 39.1622C108.531 39.0503 108.692 38.9575 108.88 38.8839C109.072 38.8075 109.289 38.7693 109.533 38.7693C109.916 38.7693 110.24 38.8484 110.506 39.0067C110.775 39.1649 110.979 39.3942 111.117 39.6944C111.258 39.9945 111.329 40.3561 111.329 40.7791C111.329 41.284 111.238 41.7069 111.055 42.0481C110.875 42.3864 110.622 42.6416 110.298 42.8135C109.974 42.9854 109.596 43.0714 109.163 43.0714C108.831 43.0714 108.531 43.01 108.265 42.8872C108.002 42.7644 107.776 42.5843 107.588 42.3469C107.402 42.1067 107.259 41.8134 107.159 41.4668C107.06 41.1175 107.01 40.7191 107.01 40.2715ZM109.23 42.2814C109.451 42.2814 109.643 42.235 109.803 42.1422C109.967 42.0494 110.093 41.8993 110.182 41.6919C110.273 41.4845 110.319 41.2103 110.319 40.8692C110.319 40.4489 110.241 40.1187 110.086 39.8786C109.934 39.6357 109.681 39.5143 109.329 39.5143C109.113 39.5143 108.915 39.562 108.735 39.6575C108.555 39.753 108.402 39.8649 108.278 39.9932C108.153 40.1187 108.064 40.2292 108.012 40.3247C108.012 40.5731 108.03 40.8132 108.066 41.0452C108.104 41.2771 108.168 41.4873 108.257 41.6756C108.348 41.8611 108.473 42.0085 108.631 42.1176C108.789 42.2268 108.989 42.2814 109.23 42.2814Z" fill="black"/>
<path d="M116.239 42.9895H115.254V39.2113H113.977C113.922 39.899 113.853 40.4871 113.77 40.9756C113.686 41.4641 113.582 41.8625 113.458 42.1709C113.333 42.4765 113.179 42.7003 112.996 42.8422C112.813 42.9841 112.593 43.055 112.335 43.055C112.222 43.055 112.119 43.0468 112.028 43.0305C111.936 43.0168 111.854 42.995 111.782 42.965V42.2077C111.829 42.2241 111.881 42.2377 111.936 42.2486C111.992 42.2596 112.048 42.265 112.107 42.265C112.209 42.265 112.303 42.2241 112.389 42.1422C112.478 42.0576 112.56 41.9253 112.635 41.7451C112.709 41.565 112.777 41.3276 112.838 41.0329C112.899 40.7354 112.955 40.3752 113.005 39.9522C113.054 39.5265 113.099 39.0285 113.138 38.4582H116.239V42.9895Z" fill="black"/>
<path d="M119.473 38.3722C119.884 38.3722 120.236 38.4554 120.529 38.6219C120.823 38.7884 121.049 39.0244 121.207 39.33C121.365 39.6357 121.444 40.0014 121.444 40.4271V40.9428H118.372C118.383 41.3822 118.502 41.7206 118.729 41.958C118.959 42.1954 119.281 42.3141 119.694 42.3141C119.988 42.3141 120.251 42.2868 120.484 42.2323C120.719 42.175 120.962 42.0917 121.211 41.9826V42.7644C120.981 42.8708 120.747 42.9486 120.509 42.9977C120.27 43.0468 119.985 43.0714 119.652 43.0714C119.2 43.0714 118.803 42.9854 118.459 42.8135C118.118 42.6389 117.851 42.3796 117.657 42.0358C117.465 41.6919 117.37 41.2649 117.37 40.7545C117.37 40.247 117.457 39.8158 117.632 39.461C117.806 39.1063 118.052 38.8361 118.368 38.6505C118.684 38.465 119.052 38.3722 119.473 38.3722ZM119.473 39.0967C119.166 39.0967 118.916 39.195 118.725 39.3914C118.537 39.5879 118.426 39.8758 118.393 40.2552H120.488C120.485 40.0287 120.446 39.8281 120.371 39.6534C120.299 39.4788 120.188 39.3423 120.039 39.2441C119.892 39.1458 119.703 39.0967 119.473 39.0967Z" fill="black"/>
<path d="M123.527 38.4582V40.2797H125.68V38.4582H126.661V42.9895H125.68V41.0329H123.527V42.9895H122.546V38.4582H123.527Z" fill="black"/>
<path d="M132.133 40.7136C132.133 41.0902 132.083 41.4245 131.983 41.7165C131.883 42.0085 131.738 42.2555 131.546 42.4574C131.355 42.6566 131.125 42.8094 130.856 42.9159C130.587 43.0196 130.284 43.0714 129.946 43.0714C129.63 43.0714 129.34 43.0196 129.077 42.9159C128.814 42.8094 128.585 42.6566 128.391 42.4574C128.2 42.2555 128.051 42.0085 127.946 41.7165C127.841 41.4245 127.788 41.0902 127.788 40.7136C127.788 40.2142 127.875 39.7912 128.05 39.4447C128.227 39.0954 128.48 38.8293 128.807 38.6465C129.134 38.4636 129.523 38.3722 129.975 38.3722C130.399 38.3722 130.773 38.4636 131.097 38.6465C131.422 38.8293 131.675 39.0954 131.858 39.4447C132.041 39.794 132.133 40.2169 132.133 40.7136ZM128.794 40.7136C128.794 41.0438 128.834 41.3263 128.915 41.5609C128.998 41.7956 129.125 41.9757 129.297 42.1013C129.469 42.2241 129.691 42.2855 129.962 42.2855C130.234 42.2855 130.456 42.2241 130.628 42.1013C130.799 41.9757 130.926 41.7956 131.006 41.5609C131.086 41.3263 131.126 41.0438 131.126 40.7136C131.126 40.3834 131.086 40.1037 131.006 39.8745C130.926 39.6425 130.799 39.4665 130.628 39.3464C130.456 39.2236 130.233 39.1622 129.958 39.1622C129.554 39.1622 129.258 39.2959 129.073 39.5634C128.887 39.8308 128.794 40.2142 128.794 40.7136Z" fill="black"/>
<path d="M139.337 39.6207C139.337 39.8827 139.256 40.0969 139.092 40.2633C138.931 40.4271 138.71 40.5349 138.427 40.5867V40.6195C138.729 40.6577 138.981 40.7627 139.183 40.9347C139.386 41.1066 139.487 41.3454 139.487 41.651C139.487 41.9102 139.42 42.1408 139.287 42.3428C139.157 42.542 138.949 42.7003 138.664 42.8176C138.381 42.9322 138.011 42.9895 137.554 42.9895H135.467V38.4582H137.545C137.889 38.4582 138.195 38.495 138.464 38.5687C138.736 38.6424 138.949 38.7638 139.104 38.933C139.26 39.1022 139.337 39.3314 139.337 39.6207ZM138.468 41.6183C138.468 41.3945 138.381 41.2335 138.206 41.1352C138.035 41.037 137.782 40.9879 137.45 40.9879H136.448V42.2814H137.471C137.781 42.2814 138.025 42.2309 138.202 42.1299C138.38 42.0262 138.468 41.8557 138.468 41.6183ZM138.344 39.7066C138.344 39.5293 138.276 39.3983 138.14 39.3137C138.004 39.2263 137.791 39.1827 137.5 39.1827H136.448V40.2797H137.367C137.688 40.2797 137.931 40.2347 138.094 40.1446C138.261 40.0518 138.344 39.9059 138.344 39.7066Z" fill="black"/>
<path d="M147.556 37.005L145.623 41.2908C145.454 41.6728 145.277 41.9962 145.091 42.2609C144.908 42.5256 144.682 42.7276 144.413 42.8667C144.145 43.0032 143.797 43.0714 143.37 43.0714C143.215 43.0714 143.06 43.0605 142.904 43.0387C142.749 43.0168 142.606 42.9868 142.476 42.9486V42.0562C142.601 42.1081 142.735 42.1477 142.879 42.175C143.026 42.1995 143.172 42.2118 143.316 42.2118C143.518 42.2118 143.686 42.1804 143.819 42.1176C143.955 42.0549 144.068 41.9621 144.16 41.8393C144.254 41.7138 144.339 41.5609 144.413 41.3808L142.189 37.005H143.258L144.692 39.9727C144.714 40.0191 144.742 40.0791 144.775 40.1528C144.808 40.2238 144.84 40.2975 144.871 40.3739C144.904 40.4475 144.932 40.5158 144.954 40.5785H144.991C145.011 40.524 145.034 40.4598 145.062 40.3861C145.092 40.3097 145.123 40.232 145.153 40.1528C145.187 40.0737 145.216 40.0041 145.241 39.9441L146.513 37.005H147.556Z" fill="black"/>
<path d="M151.107 38.4582H152.184L150.279 40.6358L152.346 42.9895H151.219L149.236 40.6891V42.9895H148.255V38.4582H149.236V40.6563L151.107 38.4582Z" fill="black"/>
<path d="M155.455 38.3722C156.001 38.3722 156.439 38.5687 156.769 38.9616C157.102 39.3546 157.268 39.9386 157.268 40.7136C157.268 41.2267 157.19 41.6592 157.035 42.0112C156.883 42.3605 156.668 42.6252 156.391 42.8053C156.116 42.9827 155.796 43.0714 155.43 43.0714C155.198 43.0714 154.995 43.0414 154.823 42.9814C154.652 42.9213 154.505 42.8435 154.383 42.748C154.261 42.6498 154.158 42.5434 154.075 42.4287H154.017C154.031 42.5379 154.043 42.6593 154.054 42.7931C154.068 42.924 154.075 43.0441 154.075 43.1533V44.9994H153.094V38.4582H153.892L154.029 39.0844H154.075C154.161 38.9562 154.265 38.8375 154.387 38.7283C154.512 38.6192 154.661 38.5332 154.836 38.4704C155.013 38.4049 155.22 38.3722 155.455 38.3722ZM155.193 39.1581C154.925 39.1581 154.708 39.2113 154.545 39.3178C154.384 39.4215 154.266 39.5784 154.192 39.7885C154.119 39.9986 154.081 40.262 154.075 40.5785V40.7136C154.075 41.0493 154.11 41.3344 154.179 41.5691C154.251 41.8011 154.369 41.9785 154.532 42.1013C154.699 42.2213 154.923 42.2814 155.206 42.2814C155.444 42.2814 155.641 42.2173 155.796 42.089C155.954 41.9607 156.072 41.7779 156.15 41.5405C156.227 41.3031 156.266 41.0233 156.266 40.7013C156.266 40.2129 156.177 39.8335 156 39.5634C155.825 39.2932 155.557 39.1581 155.193 39.1581Z" fill="black"/>
<path d="M160.203 38.3722C160.785 38.3722 161.224 38.4991 161.521 38.7529C161.82 39.0067 161.97 39.4024 161.97 39.94V42.9895H161.276L161.089 42.3469H161.055C160.925 42.5106 160.791 42.6457 160.652 42.7521C160.513 42.8586 160.353 42.9377 160.17 42.9895C159.99 43.0441 159.769 43.0714 159.509 43.0714C159.234 43.0714 158.989 43.0223 158.773 42.924C158.557 42.8231 158.386 42.6703 158.262 42.4656C158.137 42.2609 158.075 42.0017 158.075 41.6878C158.075 41.2212 158.25 40.8705 158.602 40.6358C158.957 40.4012 159.492 40.2715 160.207 40.247L161.005 40.2183V39.9809C161.005 39.6671 160.931 39.4433 160.781 39.3096C160.634 39.1759 160.426 39.109 160.157 39.109C159.927 39.109 159.704 39.1418 159.488 39.2072C159.272 39.2727 159.061 39.3532 158.856 39.4488L158.54 38.7693C158.765 38.6519 159.02 38.5564 159.305 38.4827C159.593 38.409 159.893 38.3722 160.203 38.3722ZM161.001 40.8241L160.407 40.8446C159.919 40.861 159.577 40.9428 159.38 41.0902C159.183 41.2376 159.085 41.4395 159.085 41.696C159.085 41.9198 159.153 42.0835 159.288 42.1872C159.424 42.2882 159.603 42.3387 159.825 42.3387C160.163 42.3387 160.443 42.2445 160.665 42.0562C160.889 41.8652 161.001 41.5855 161.001 41.2171V40.8241Z" fill="black"/>
<path d="M164.315 42.9895H163.338V38.4582H164.315V42.9895ZM162.527 37.2588C162.527 37.0951 162.573 36.9763 162.664 36.9027C162.756 36.8263 162.868 36.7881 163.001 36.7881C163.134 36.7881 163.248 36.8263 163.342 36.9027C163.439 36.9763 163.487 37.0951 163.487 37.2588C163.487 37.4171 163.439 37.5358 163.342 37.6149C163.248 37.6941 163.134 37.7336 163.001 37.7336C162.868 37.7336 162.756 37.6941 162.664 37.6149C162.573 37.5358 162.527 37.4171 162.527 37.2588ZM164.161 37.2588C164.161 37.0951 164.207 36.9763 164.298 36.9027C164.392 36.8263 164.506 36.7881 164.639 36.7881C164.772 36.7881 164.886 36.8263 164.98 36.9027C165.077 36.9763 165.125 37.0951 165.125 37.2588C165.125 37.4171 165.077 37.5358 164.98 37.6149C164.886 37.6941 164.772 37.7336 164.639 37.7336C164.506 37.7336 164.392 37.6941 164.298 37.6149C164.207 37.5358 164.161 37.4171 164.161 37.2588Z" fill="black"/>
<path d="M166.697 38.4582V40.2797H168.85V38.4582H169.832V42.9895H168.85V41.0329H166.697V42.9895H165.716V38.4582H166.697Z" fill="black"/>
<path d="M172.205 38.4582V42.9895H171.228V38.4582H172.205ZM171.723 36.7226C171.873 36.7226 172.002 36.7621 172.11 36.8413C172.221 36.9204 172.276 37.0569 172.276 37.2506C172.276 37.4416 172.221 37.5781 172.11 37.6599C172.002 37.7391 171.873 37.7787 171.723 37.7787C171.568 37.7787 171.436 37.7391 171.328 37.6599C171.223 37.5781 171.17 37.4416 171.17 37.2506C171.17 37.0569 171.223 36.9204 171.328 36.8413C171.436 36.7621 171.568 36.7226 171.723 36.7226Z" fill="black"/>
<path fill-rule="evenodd" clip-rule="evenodd" d="M27.68 0H24.566H20.068V1.19237H24.566L24.566 5.28048H27.68V0ZM14.705 5.62065H19.549V11.7538H13.8401V17.5453H19.549V19.7588H19.549V21.4629V21.8028V23.5069H24.5661V28.7871H19.549V24.5293H15.051V28.9581H19.549V35.26H27.68V28.7876H27.6801V23.3368H27.68V21.4629H25.0849V20.7806H27.68V17.3739H27.68V11.7543H27.68V9.19922H24.566V5.28125H19.895V0.680843H14.705V5.62065ZM19.7221 11.7541V17.3739H25.085V11.7543H23.182V11.7541H19.7221ZM13.84 17.5448H7.958V23.3363H13.84V17.5448ZM3.80596 23.3368H7.78496V27.2546H3.80596V23.3368ZM5.88195 12.9463H1.90295V16.8641H5.88195V12.9463ZM0 6.47285H3.979V10.3906H0V6.47285ZM4.32495 2.55507H0.346V0H4.325V2.55469H8.30395V5.62116H13.84V11.4127H7.958V6.47246H4.32495V2.55507Z" fill="#FCE501"/>
</svg>
