<svg width="42" height="98" viewBox="0 0 42 98" fill="none" xmlns="http://www.w3.org/2000/svg">
<path d="M41.4389 6.30764C41.4314 6.48949 41.4238 6.67134 41.4163 6.85319C41.4087 7.03504 41.5473 7.13188 41.832 7.1437C40.6522 10.3737 39.0035 13.4476 36.8859 16.3653C36.8557 17.0928 36.6413 17.6759 36.2429 18.1148C35.9393 18.5576 35.7724 19.1427 35.7422 19.8701C35.5524 19.8622 35.4081 19.9017 35.3094 19.9887C35.3057 20.0796 35.2089 20.1212 35.0191 20.1133C34.5866 21.3705 34.0573 22.6692 33.4313 24.0094C32.8052 25.3497 32.1811 26.6445 31.5588 27.8938C31.7486 27.9017 31.8341 28.1329 31.8152 28.5875C31.6254 28.5797 31.5305 28.5757 31.5305 28.5757C31.4016 29.3901 31.0373 30.1492 30.4377 30.8529C29.8419 31.4658 29.4283 32.2683 29.1969 33.2606C28.7187 33.3319 28.5137 33.6877 28.5822 34.3281C28.2975 34.3163 28.1988 34.4033 28.2862 34.5891C28.3735 34.7749 28.366 34.9567 28.2635 35.1346C27.239 36.9137 26.4954 38.7956 26.0327 40.7802C25.8391 40.8632 25.7272 41.2684 25.697 41.9959C25.2149 42.158 25.0138 42.4229 25.0936 42.7905C25.2683 43.1621 25.1621 43.431 24.7749 43.597C24.8698 43.601 24.9154 43.6484 24.9116 43.7393C24.9116 43.7393 24.9591 43.7413 25.054 43.7453C24.6744 43.7295 24.5245 43.9054 24.6043 44.2731C24.684 44.6407 24.7164 45.0064 24.7013 45.3701C24.1966 46.0778 23.8304 46.8823 23.6029 47.7837C23.3791 48.5942 23.0623 49.3552 22.6525 50.0669C22.4551 50.2408 22.2559 50.4603 22.0547 50.7251C21.8574 50.8991 21.7056 51.1205 21.5993 51.3894C21.3944 51.7452 21.33 52.1524 21.406 52.6109C21.5769 53.0735 21.372 53.4293 20.7913 53.6784C20.8635 54.2279 20.8428 54.728 20.729 55.1787C20.619 55.5384 20.4615 55.8962 20.2566 56.2521C20.3175 57.0743 20.183 58.0251 19.853 59.1044C19.523 60.1837 19.06 61.0297 18.4642 61.6426L18.4189 62.7337C18.2177 62.9986 18.0128 63.3544 17.8041 63.8011C17.5955 64.2479 17.5785 64.6571 17.7532 65.0286C17.1535 65.7324 16.7855 66.5824 16.6491 67.5786C16.5126 68.5749 16.1921 69.4269 15.6873 70.1346C15.3611 71.1229 15.1753 72.1627 15.13 73.2538C15.0847 74.3449 14.8097 75.2443 14.305 75.952C14.1647 77.0392 13.9315 78.0769 13.6053 79.0653C13.3739 80.0576 12.911 80.9036 12.2165 81.6034C11.7495 81.4019 11.4724 81.2082 11.385 81.0224C11.3775 81.2043 11.089 81.2834 10.5196 81.2597C10.2538 80.7933 9.78868 80.5463 9.12437 80.5187C8.55496 80.495 8.13734 80.25 7.87151 79.7835C7.48058 80.0405 7.14842 80.0267 6.87504 79.7421C6.60544 79.3666 6.2315 79.2145 5.75321 79.2857C5.66586 79.0999 5.62407 78.9615 5.62785 78.8706C5.63162 78.7797 5.53861 78.7303 5.34881 78.7224C5.18166 78.169 4.91394 77.748 4.54567 77.4594C4.18116 77.08 3.96656 76.5245 3.90187 75.7932C4.0879 75.892 4.1828 75.8959 4.18658 75.805C4.19413 75.6232 4.29092 75.5817 4.47695 75.6805C4.38582 75.5856 4.24535 75.5342 4.05555 75.5263C4.35158 75.2654 4.59262 75.1843 4.77864 75.2831C4.99866 74.5636 5.11621 74.022 5.13132 73.6583C5.2451 73.2076 5.45756 72.6699 5.7687 72.0453C5.77247 71.9543 5.63201 71.903 5.3473 71.8911C5.63956 71.7211 5.7439 71.4977 5.66033 71.221L6.08739 71.2388C6.10627 70.7841 6.07015 70.5094 5.97902 70.4145C5.98657 70.2326 5.99979 69.9144 6.01867 69.4598C6.20092 69.6495 6.29205 69.7444 6.29205 69.7444C6.71319 68.76 6.99198 67.7696 7.12842 66.7734C7.36354 65.6902 7.87203 64.8915 8.6539 64.3775L8.69355 63.4228C8.59865 63.4189 8.54931 63.4623 8.54553 63.5533C8.54176 63.6442 8.44686 63.6403 8.26083 63.5414C8.57574 62.8259 8.79575 62.1063 8.92086 61.3829C9.14465 60.5724 9.50324 59.9497 9.99663 59.5148C10.0991 59.3369 10.0535 59.2895 9.85994 59.3725C9.66636 59.4556 9.57335 59.4062 9.5809 59.2243C9.49355 59.0385 9.54289 58.995 9.72892 59.0938C9.91872 59.1017 10.1104 59.0641 10.304 58.9811C10.1217 58.7913 10.08 58.653 10.1786 58.566C10.376 58.392 10.524 58.2616 10.6227 58.1746C10.5353 57.9888 10.4879 57.9868 10.4803 58.1687C10.5677 58.3545 10.5202 58.3525 10.338 58.1628C10.2506 57.977 10.2164 57.6567 10.2353 57.2021L10.6623 57.2199C10.6963 56.4015 10.8271 55.5417 11.0547 54.6403C11.3771 53.7429 11.7414 52.9838 12.1474 52.3631C11.9652 52.1733 11.9727 51.9915 12.1701 51.8175C12.3674 51.6435 12.3788 51.3708 12.2041 50.9992C12.2041 50.9992 12.1984 51.1356 12.1871 51.4083C11.9024 51.3965 11.7107 51.4341 11.612 51.5211C11.3462 51.0546 11.3119 50.7344 11.5093 50.5605C11.8015 50.3904 11.9913 50.3983 12.0787 50.5841C12.166 50.7699 12.3046 50.8667 12.4944 50.8746C12.6918 50.7006 12.7468 50.5208 12.6594 50.335C12.5759 50.0583 12.722 49.9732 13.0978 50.0799C13.1016 49.989 12.9611 49.9376 12.6764 49.9258C12.7789 49.7479 12.9288 49.572 13.1261 49.398C13.4184 49.228 13.4734 49.0481 13.2911 48.8583C13.2987 48.6765 13.3006 48.631 13.2968 48.722C13.3917 48.7259 13.5341 48.7318 13.7239 48.7397C13.6327 48.6448 13.5891 48.5519 13.5928 48.461C13.6953 48.2831 13.6497 48.2357 13.4562 48.3187C13.6497 48.2357 13.7503 48.1032 13.7579 47.9214C13.7692 47.6486 13.8716 47.4707 14.0652 47.3876C13.5907 47.3679 13.5546 47.0932 13.9569 46.5634C14.454 46.0375 14.6152 45.5888 14.4405 45.2172L14.8676 45.235C14.8789 44.9622 14.9321 44.8278 15.027 44.8317C15.0345 44.6499 14.9415 44.6005 14.7479 44.6835C14.653 44.6796 14.6568 44.5886 14.7592 44.4107C14.949 44.4186 15.0458 44.3771 15.0496 44.2862C15.1521 44.1082 15.2982 44.0232 15.488 44.0311L14.7989 43.456C14.9962 43.282 15.0968 43.1496 15.1006 43.0587C15.203 42.8807 15.3966 42.7977 15.6813 42.8095C15.5902 42.7147 15.4535 42.5724 15.2713 42.3826C15.1877 42.1059 15.2901 41.928 15.5786 41.8489L15.4363 41.843L15.4476 41.5702C15.2578 41.5623 15.2066 41.6513 15.2939 41.8371C15.385 41.9319 15.3357 41.9754 15.1459 41.9676C14.9636 41.7778 14.9693 41.6414 15.1629 41.5584C15.3602 41.3844 15.5501 41.3923 15.7323 41.582C15.8348 41.4041 15.8404 41.2677 15.7493 41.1729C15.6619 40.9871 15.7151 40.8527 15.9086 40.7696C15.7188 40.7617 15.622 40.8032 15.6183 40.8942C15.6183 40.8942 15.5708 40.8922 15.4759 40.8883C15.5784 40.7104 15.7264 40.5799 15.92 40.4968C16.1135 40.4138 16.216 40.2359 16.2273 39.9631C16.2349 39.7812 16.1419 39.7318 15.9483 39.8149C15.8496 39.9019 15.804 39.8544 15.8116 39.6726C16.3772 39.7872 16.6202 39.6606 16.5404 39.293C16.4606 38.9253 16.5156 38.7455 16.7054 38.7533C16.618 38.5675 16.5231 38.5636 16.4207 38.7415C16.4169 38.8324 16.322 38.8285 16.136 38.7297C16.3333 38.5557 16.5288 38.4272 16.7224 38.3442C16.9159 38.2611 17.0165 38.1287 17.0241 37.9468C17.0241 37.9468 17.1152 38.0417 17.2974 38.2314C17.3961 38.1444 17.4018 38.0081 17.3144 37.8223C17.3258 37.5495 17.2346 37.4546 17.041 37.5377C17.4509 36.826 17.7639 36.1559 17.9801 35.5273C18.2001 34.8078 18.4676 34.0902 18.7825 33.3746C18.885 33.1967 18.8394 33.1493 18.6458 33.2323C18.5471 33.3193 18.5016 33.2719 18.5091 33.09C18.5167 32.9082 18.6647 32.7777 18.9532 32.6986C19.2417 32.6195 19.2473 32.4831 18.9702 32.2894C19.4522 32.1273 19.6553 31.8169 19.5792 31.3584C19.6019 30.8128 19.8543 30.459 20.3363 30.2968C20.1541 30.1071 20.1179 29.8323 20.2279 29.4726C20.4329 29.1168 20.5865 28.8499 20.689 28.672C20.8826 28.5889 20.9756 28.6383 20.968 28.8202C21.1616 28.7371 21.1673 28.6008 20.985 28.411C20.8977 28.2252 20.9945 28.1837 21.2754 28.2865C21.1805 28.2825 21.1368 28.1896 21.1444 28.0078C21.3531 27.561 21.4725 26.974 21.5027 26.2465C21.7874 26.2584 21.8767 26.3987 21.7704 26.6675C21.7629 26.8494 21.8502 27.0352 22.0325 27.2249C22.1425 26.8651 22.2013 26.5943 22.2088 26.4125C22.315 26.1437 22.2789 25.8689 22.1004 25.5882C22.2865 25.6871 22.3814 25.691 22.3851 25.6001C22.4838 25.5131 22.5825 25.4261 22.6812 25.3391C22.4989 25.1494 22.4116 24.9636 22.4191 24.7817C22.5216 24.6038 22.6696 24.4733 22.8632 24.3903C22.6734 24.3824 22.5804 24.333 22.5841 24.2421C22.3943 24.2342 22.2957 24.3212 22.2881 24.503C22.3755 24.6888 22.3261 24.7323 22.1401 24.6335C21.9578 24.4438 22.0147 24.2184 22.3108 23.9575C22.6068 23.6965 22.6637 23.4712 22.4814 23.2815L23.0622 23.0323C23.3162 21.4945 23.853 20.0139 24.6726 18.5906C25.4923 17.1673 26.217 15.7401 26.8468 14.3089C27.0366 14.3168 27.1296 14.3662 27.1259 14.4572C27.141 14.0935 27.2016 13.7772 27.3079 13.5084C27.5926 13.5202 27.7368 13.4806 27.7406 13.3897C27.843 13.2118 27.898 13.0319 27.9056 12.8501C27.9169 12.5773 27.9719 12.3974 28.0706 12.3104C28.173 12.1325 28.3647 12.0949 28.6457 12.1977C28.5583 12.0119 28.4672 11.917 28.3723 11.9131C28.2812 11.8182 28.2868 11.6818 28.3893 11.5039C28.5791 11.5118 28.6265 11.5138 28.5316 11.5098C28.5354 11.4189 28.5411 11.2825 28.5486 11.1006C28.8371 11.0215 28.9851 10.8911 28.9927 10.7092C29.0989 10.4404 29.3456 10.2229 29.7328 10.0568C29.7365 9.96591 29.5961 9.91453 29.3114 9.90271C29.41 9.81573 29.4613 9.72677 29.4651 9.63585C29.4726 9.45399 29.5694 9.41247 29.7554 9.51128C29.8579 9.33337 29.8123 9.28593 29.6187 9.36898C29.4289 9.36109 29.3378 9.26623 29.3454 9.08438C29.5314 9.18319 29.6263 9.18713 29.6301 9.0962C29.6376 8.91435 29.7344 8.87283 29.9204 8.97164C29.6471 8.68704 29.6546 8.50518 29.9431 8.42608C30.2353 8.25605 30.296 7.93978 30.1251 7.47727C30.3149 7.48515 30.4079 7.53456 30.4041 7.62548C30.499 7.62942 30.5465 7.63139 30.5465 7.63139C30.5503 7.54047 30.5996 7.49698 30.6945 7.50092C30.5122 7.31119 30.5198 7.12933 30.7172 6.95536C30.9145 6.78139 30.9221 6.59954 30.7398 6.40981C30.8347 6.41375 30.8803 6.46118 30.8765 6.55211C30.8765 6.55211 30.924 6.55408 31.0189 6.55802C31.4853 4.4825 32.265 2.87539 33.3581 1.73671C34.4548 0.507098 35.829 0.609707 37.4806 2.04453C37.8451 2.424 38.2096 2.80347 38.5741 3.18294C38.9386 3.56241 39.3544 3.85292 39.8213 4.05447C40.1707 4.79765 40.7099 5.5487 41.4389 6.30764ZM10.0366 86.0215C10.1127 86.4801 10.293 86.7153 10.5777 86.7271C10.8587 86.8299 11.187 86.9346 11.5629 87.0413C11.9311 87.3298 12.1533 87.7034 12.2293 88.1619C12.3053 88.6205 12.4345 88.9447 12.6167 89.1344C12.3627 90.6722 11.693 91.9196 10.6075 92.8764C9.51831 93.9242 8.8467 95.217 8.5927 96.7548C8.22442 96.4663 7.70812 96.3082 7.04381 96.2806C6.3795 96.2531 6.03412 96.5575 6.00769 97.194C5.62431 97.2691 5.38894 97.2138 5.30159 97.028C5.21424 96.8422 5.02632 96.7889 4.73784 96.868C4.74539 96.6861 4.70172 96.5932 4.60682 96.5893C4.60682 96.5893 4.61059 96.4984 4.61815 96.3165C4.33344 96.3047 4.19109 96.2988 4.19109 96.2988C4.28221 96.3937 4.27844 96.4846 4.17976 96.5716C3.91393 96.1051 3.31029 95.7613 2.36882 95.54C1.51848 95.4136 0.912942 95.1152 0.552214 94.6448C0.286388 94.1784 0.309044 93.6328 0.620183 93.0082C0.927545 92.4744 0.991988 92.0672 0.813511 91.7866C0.726162 91.6008 0.733714 91.4189 0.836168 91.241C0.938622 91.0631 1.03541 91.0216 1.12654 91.1164C1.07317 90.1123 1.35574 89.0311 1.97424 87.8727C2.59274 86.7143 3.29859 85.7417 4.09179 84.9549C4.97612 84.263 5.84534 83.9347 6.69946 83.9702C7.65225 83.9187 8.38692 84.5412 8.90347 85.8378C9.18818 85.8497 9.37609 85.903 9.46722 85.9979C9.65325 86.0967 9.84305 86.1046 10.0366 86.0215ZM7.89116 65.5755C8.377 65.3224 8.48323 65.0535 8.20985 64.7689C8.2023 64.9508 8.09985 65.1287 7.90249 65.3027C7.70891 65.3857 7.70513 65.4767 7.89116 65.5755ZM24.087 22.3918C23.9047 22.202 23.861 22.1091 23.9559 22.1131C24.1457 22.121 24.2444 22.034 24.252 21.8521C24.0622 21.8442 23.9635 21.9312 23.9559 22.1131C23.9484 22.2949 23.8478 22.4274 23.6542 22.5104C23.939 22.5222 24.0832 22.4827 24.087 22.3918ZM17.2061 36.998C17.0238 36.8083 16.9365 36.6225 16.944 36.4406C17.0465 36.2627 17.1926 36.1777 17.3824 36.1856C17.4697 36.3714 17.4166 36.5058 17.223 36.5889C17.1244 36.6758 17.1187 36.8122 17.2061 36.998ZM22.0778 26.1338C21.888 26.1259 21.7931 26.122 21.7931 26.122C21.7969 26.0311 21.702 26.0271 21.5084 26.1102C21.421 25.9244 21.6146 25.8413 22.0891 25.861L22.0778 26.1338ZM23.8362 21.5616C23.6464 21.5537 23.4984 21.6842 23.3922 21.953C23.3846 22.1349 23.4264 22.2733 23.5176 22.3681C23.5251 22.1863 23.5782 22.0519 23.6769 21.9649C23.7756 21.8779 23.8287 21.7435 23.8362 21.5616ZM22.8016 29.3062C22.9003 29.2192 22.9952 29.2232 23.0863 29.318C23.2761 29.3259 23.3274 29.237 23.24 29.0512C23.24 29.0512 23.0977 29.0453 22.813 29.0334L22.8016 29.3062ZM11.6369 61.2224C11.6482 60.9496 11.5096 60.8528 11.2212 60.9319C11.2136 61.1138 11.2573 61.2067 11.3522 61.2106C11.4509 61.1236 11.5458 61.1276 11.6369 61.2224ZM11.1589 62.4322C11.0715 62.2464 11.0791 62.0645 11.1815 61.8866C11.3789 61.7127 11.3789 61.7127 11.1815 61.8866L11.0335 62.0171C11.0184 62.3808 11.0602 62.5192 11.1589 62.4322ZM9.22407 67.8168C9.41387 67.8247 9.51255 67.7377 9.5201 67.5558C9.52765 67.374 9.43653 67.2791 9.24672 67.2712L9.22407 67.8168ZM19.9504 36.1556C20.2351 36.1674 20.3831 36.037 20.3945 35.7642C20.2047 35.7563 20.1079 35.7978 20.1041 35.8888C20.1003 35.9797 20.0491 36.0686 19.9504 36.1556ZM19.6261 37.0985C19.8121 37.1973 19.9089 37.1558 19.9164 36.974C19.9278 36.7012 19.8347 36.6518 19.6374 36.8257L19.6261 37.0985ZM37.1366 17.1955C37.1291 17.3774 37.1709 17.5157 37.262 17.6106L36.9773 17.5988L36.9943 17.1896L37.1366 17.1955ZM13.5944 55.2923L13.6057 55.0195L13.321 55.0077L13.3096 55.2804L13.5944 55.2923ZM21.1161 28.6897C21.3059 28.6976 21.3533 28.6996 21.2584 28.6956C21.2622 28.6047 21.3134 28.5157 21.4121 28.4288C21.1274 28.4169 21.0287 28.5039 21.1161 28.6897ZM25.1967 19.7054C25.3827 19.8042 25.4795 19.7627 25.4871 19.5808C25.4984 19.308 25.4054 19.2586 25.208 19.4326L25.1967 19.7054ZM21.5771 27.8891C21.5809 27.7982 21.634 27.6638 21.7364 27.4859C21.9338 27.3119 21.9357 27.2664 21.7421 27.3495C21.7383 27.4404 21.689 27.4839 21.5941 27.48C21.6814 27.6657 21.6283 27.8002 21.4347 27.8832C21.3398 27.8793 21.3873 27.8812 21.5771 27.8891ZM21.9921 24.764C22.087 24.7679 22.1288 24.9063 22.1174 25.1791C22.0225 25.1751 21.9807 25.0368 21.9921 24.764ZM24.1323 21.3007L24.1379 21.1643L23.9956 21.1584L24.0013 21.022L23.8589 21.0161L23.8476 21.2888L24.1323 21.3007ZM7.8685 66.121L7.87983 65.8482C7.78493 65.8443 7.73559 65.8878 7.73182 65.9787C7.73182 65.9787 7.68436 65.9767 7.58946 65.9728L7.5838 66.1092L7.8685 66.121ZM14.4745 44.3989C14.3834 44.304 14.3397 44.2111 14.3435 44.1202L14.6282 44.132L14.6226 44.2684L14.4745 44.3989ZM19.6246 30.2673L19.6302 30.1309L19.9149 30.1427L19.9093 30.2791L19.6246 30.2673ZM22.9085 23.2992L23.0452 23.4415L23.1875 23.4474L23.1932 23.311L22.9085 23.2992ZM26.7788 15.9456L26.6422 15.8033L26.4998 15.7974L26.4941 15.9338L26.7788 15.9456ZM25.367 43.0751L25.3613 43.2115L25.219 43.2056L25.2246 43.0692L25.367 43.0751ZM21.5601 28.2983C21.4652 28.2943 21.4159 28.3378 21.4121 28.4288L21.4177 28.2924L21.2754 28.2865L21.5601 28.2983Z" fill="#FF5100"/>
</svg>
