<svg width="115" height="27" viewBox="0 0 115 27" fill="none" xmlns="http://www.w3.org/2000/svg">
<g clip-path="url(#clip0_428_8345)">
<path d="M8.86751 6.06901C8.29878 6.74199 7.38864 7.27299 6.4786 7.19706C6.36485 6.28711 6.81035 5.3201 7.33177 4.72284C7.90049 4.0309 8.89594 3.53791 9.70172 3.5C9.79651 4.44796 9.42675 5.37697 8.86751 6.06901ZM9.69224 7.37725C8.37452 7.30142 7.24646 8.12607 6.62078 8.12607C5.9857 8.12607 5.02817 7.41517 3.98542 7.43412C2.62988 7.45308 1.36902 8.22085 0.676985 9.44379C-0.745005 11.8896 0.307317 15.5109 1.68182 17.5016C2.3549 18.4875 3.16068 19.5682 4.22239 19.5302C5.22732 19.4923 5.62542 18.8762 6.83888 18.8762C8.06172 18.8762 8.41253 19.5302 9.47423 19.5113C10.5739 19.4923 11.2659 18.5255 11.939 17.5395C12.7067 16.421 13.0196 15.3307 13.0386 15.2738C13.0196 15.2549 10.9152 14.4492 10.8962 12.0223C10.8773 9.99365 12.5552 9.02673 12.631 8.96986C11.683 7.56683 10.2042 7.41517 9.69224 7.37725ZM17.3046 4.62806V19.4071H19.5986V14.3544H22.7743C25.6751 14.3544 27.7133 12.3637 27.7133 9.4818C27.7133 6.6 25.713 4.62815 22.8502 4.62815H17.3045L17.3046 4.62806ZM19.5986 6.56199H22.2434C24.2342 6.56199 25.3718 7.6237 25.3718 9.49119C25.3718 11.3587 24.2342 12.43 22.2339 12.43H19.5986V6.56199ZM31.9033 19.5208C33.3443 19.5208 34.6809 18.7909 35.2876 17.6343H35.335V19.407H37.4585V12.0507C37.4585 9.91782 35.7521 8.54322 33.1262 8.54322C30.6899 8.54322 28.8887 9.93678 28.8224 11.8517H30.889C31.0596 10.9416 31.9032 10.3444 33.0598 10.3444C34.4629 10.3444 35.2497 10.9985 35.2497 12.2025V13.0176L32.3867 13.1882C29.7229 13.3494 28.2821 14.4396 28.2821 16.3356C28.2821 18.2505 29.7703 19.5208 31.9033 19.5208ZM32.5194 17.767C31.2967 17.767 30.5193 17.1793 30.5193 16.2787C30.5193 15.3498 31.2682 14.8094 32.6996 14.7241L35.2497 14.5629V15.3971C35.2497 16.7811 34.0742 17.767 32.5195 17.767H32.5194ZM40.2929 23.4264C42.5301 23.4264 43.5824 22.5734 44.5019 19.9853L48.5308 8.6854H46.1988L43.4971 17.4162H43.4497L40.748 8.6854H38.3496L42.2362 19.4449L42.0277 20.0991C41.677 21.2082 41.1082 21.6348 40.0938 21.6348C39.9137 21.6348 39.563 21.6158 39.4208 21.5969V23.3696C39.5535 23.4075 40.1222 23.4264 40.2929 23.4264Z" fill="black"/>
</g>
<path d="M53.0828 20.6L58.3628 5.528H59.7548L54.4748 20.6H53.0828Z" fill="black"/>
<g clip-path="url(#clip1_428_8345)">
<path d="M100.112 8.8982C101.492 8.8982 102.558 9.27458 103.374 10.0273C104.189 10.78 104.565 11.7836 104.565 13.0381V19.0597H102.809V17.6799H102.746C101.994 18.809 100.927 19.3735 99.6728 19.3735C98.6065 19.3735 97.6656 19.0598 96.9129 18.4326C96.2229 17.8054 95.7838 16.9272 95.7838 15.9863C95.7838 14.9827 96.1603 14.1672 96.9129 13.54C97.6656 12.9127 98.732 12.6618 99.9865 12.6618C101.115 12.6618 101.994 12.8501 102.684 13.2891V12.8501C102.684 12.2646 102.465 11.6792 102.028 11.2977L101.931 11.2192C101.429 10.7801 100.802 10.5292 100.112 10.5292C99.0456 10.5292 98.2302 10.9683 97.6656 11.8464L96.0348 10.8426C97.0383 9.52536 98.3556 8.8982 100.112 8.8982ZM91.2676 4.63291C92.3931 4.63291 93.4627 5.02458 94.3179 5.75497L94.4667 5.88732C95.3448 6.64007 95.7838 7.76919 95.7838 8.96095C95.7838 10.1527 95.3448 11.2191 94.4667 12.0345C93.5884 12.85 92.5222 13.289 91.2676 13.289L88.2569 13.2262V19.0598H86.375V4.63281L91.2676 4.63291ZM100.363 14.1672C99.6101 14.1672 98.9828 14.3554 98.4811 14.7317C97.9792 15.0454 97.7283 15.4844 97.7283 16.0489C97.7283 16.5508 97.9793 16.9898 98.3556 17.2408C98.7947 17.5544 99.2965 17.7425 99.7983 17.7425C100.501 17.7425 101.203 17.4693 101.753 16.9739L101.868 16.8644C102.495 16.2999 102.809 15.6099 102.809 14.8571C102.245 14.4181 101.429 14.1671 100.363 14.1671L100.363 14.1672ZM91.3931 6.38919H88.2569V11.4073H91.3931C92.083 11.4073 92.773 11.1564 93.2122 10.6547C94.2157 9.71379 94.2157 8.14566 93.2749 7.20468L93.2122 7.14193C92.7103 6.64017 92.083 6.32654 91.393 6.38928L91.3931 6.38919ZM114.727 9.21183L108.517 23.4506H106.635L108.956 18.4953L104.879 9.27458H106.886L109.834 16.3625H109.897L112.782 9.27458H114.727V9.21183Z" fill="black"/>
<path d="M80.7922 11.9709C80.7922 11.4064 80.7294 10.8419 80.6667 10.2773H72.8262V13.4764H77.2796C77.0915 14.4799 76.527 15.4208 75.6488 15.9854V18.0553H78.346C79.9141 16.6126 80.7923 14.4799 80.7923 11.971L80.7922 11.9709Z" fill="#4285F4"/>
<path d="M72.8264 20.0632C75.0844 20.0632 76.9662 19.3105 78.3462 18.056L75.649 15.9861C74.8963 16.4878 73.9554 16.8015 72.8264 16.8015C70.6936 16.8015 68.8119 15.3588 68.1846 13.3516H65.4248V15.4842C66.8675 18.3069 69.6901 20.0632 72.8264 20.0632Z" fill="#34A853"/>
<path d="M68.1845 13.3512C67.8082 12.3476 67.8082 11.2186 68.1845 10.1522V8.01953H65.4247C64.2328 10.3404 64.2328 13.1003 65.4247 15.4838L68.1845 13.3512Z" fill="#FBBC04"/>
<path d="M72.8262 6.76513C74.018 6.76513 75.147 7.20425 76.0252 8.01964L78.4088 5.63611C76.9033 4.25611 74.8961 3.44072 72.8889 3.50337C69.7526 3.50337 66.8673 5.25974 65.4873 8.08239L68.2472 10.215C68.8117 8.20778 70.6935 6.76513 72.8262 6.76513Z" fill="#EA4335"/>
</g>
<defs>
<clipPath id="clip0_428_8345">
<rect width="48.5308" height="20" fill="white" transform="translate(0 3.5)"/>
</clipPath>
<clipPath id="clip1_428_8345">
<rect width="50.1961" height="20" fill="white" transform="translate(64.5308 3.5)"/>
</clipPath>
</defs>
</svg>
