<svg width="1920" height="1212" viewBox="0 0 1920 1212" fill="none" xmlns="http://www.w3.org/2000/svg">
<path opacity="0.34" d="M2406.78 1148.55C2354.64 1187.16 2285.35 1202 2220.23 1208.81C2089.07 1222.43 2076.86 1077.76 1980.5 1070.46C1895.28 1063.98 1839.53 1045.77 1794.11 985.534C1717.69 884.231 1592.41 940.571 1514.26 1006.55C1393.64 1108.37 1266.22 1246.81 1070.38 1203.21C924.757 1170.77 833.125 1108.17 771.236 996.516C745.005 949.167 716.746 895.531 704.599 843.967C692.833 794.093 710.615 717.347 648.182 689.349C517.236 630.596 334.177 730.099 195.018 700.343C96.1789 679.322 56.6887 642.806 95.8966 556.411C149.341 438.779 -35.3289 407.386 -139.189 390.05C-229.287 374.937 -371.774 414.946 -446.383 361.499M2411.53 1132.34C2359.87 1169.46 2291.24 1183.94 2228.14 1189.53C2155.33 1196.02 2103.48 1143.53 2069.01 1097.74C2045.66 1066.65 2020.72 1038.55 1991.55 1038.15C1900.59 1036.94 1855.85 1015.93 1805.61 958.894C1791.31 942.604 1775.71 928.998 1758.77 920.894C1673.24 879.89 1588.73 930.898 1527.81 978.455C1462.97 1029.34 1398.77 1098.65 1322.96 1141.46C1241.06 1187.69 1164.31 1202.27 1069.1 1187.21C1010.73 1178 944.415 1158.1 901.579 1127.12C849.324 1089.17 810.868 1039.12 777.945 986.247C771.331 975.557 765.42 963.795 759.651 951.983C736.86 905.179 721.06 862.703 713.494 812.414C706.252 764.328 720.023 709.441 668.702 676.998C666.727 675.717 664.611 674.578 662.376 673.595C530.041 615.93 344.92 719.194 204.553 691.567C102.304 671.601 72.6193 633.988 110.895 547.628C138.642 484.704 91.4758 448.215 31.2483 424.419C-18.201 404.921 -80.3447 393.474 -137.762 384.503C-226.633 370.581 -368.092 406.834 -442.271 356.909M2416.3 1115.66C2364.98 1150.84 2297.1 1163.69 2236.17 1167.39C2162.7 1171.86 2113.19 1112.3 2079.26 1065.92C2055.89 1033.98 2031.16 1006.6 2002.27 1006.1C1914.89 1004.6 1869.85 986.669 1816.24 934.278C1803.17 920.867 1786.56 909.936 1767.51 902.214C1679.95 869.033 1605.96 905.753 1540.99 952.501C1471.18 1002.69 1403.24 1069.57 1328.65 1114.82C1248.09 1163.63 1165.44 1185.53 1067.74 1171.45C1011.53 1163.36 947.374 1143.4 906.234 1112.09C856.134 1074 816.71 1027.24 784.294 976.397C777.598 965.909 771.595 954.233 765.732 942.467C740.917 893.128 730.327 852.424 725.753 798.926C721.542 749.972 735.24 694.152 682.292 661.682C680.275 660.411 678.127 659.276 675.868 658.287C541.426 601.964 354.662 709.307 213.808 682.97C108.881 663.375 90.249 624.877 125.392 538.729C151.846 473.798 95.0208 440.231 33.539 417.982C-17.4008 399.541 -78.9514 388.125 -136.635 378.901C-224.632 364.832 -364.163 399.953 -438.168 352.203M2421.07 1098.94C2372.28 1130.2 2302.85 1143.88 2244.42 1143.16C2168.11 1142.27 2123.6 1080.59 2089.49 1033.83C2066 1001.66 2041.28 975.654 2012.64 975.092C1936.43 973.681 1875.99 957.604 1825.96 912.431C1811.73 900.556 1794.32 891.373 1774.93 885.515C1688.34 856.362 1620.17 884.056 1553.38 929.503C1481.44 978.45 1410.91 1041.79 1336.22 1087.59C1253.41 1138.35 1167 1168.12 1067.7 1155.51C1009.72 1147.87 956.11 1127.54 912.783 1096.75C862.713 1059.76 821.543 1015.79 791.16 966.857C784.549 956.207 778.326 944.86 772.225 933.192C744.958 880.883 741.001 841.876 739.425 785.246C738.065 735.633 750.621 679.084 695.834 646.996C693.792 645.735 691.628 644.602 689.361 643.605C552.729 588.825 364.087 699.759 223.625 674.64C117.672 655.753 109.129 615.393 140.167 530.238C164.363 463.533 97.943 433.079 35.5856 412.19C-16.5939 394.864 -77.5791 383.129 -135.233 373.668C-222.361 359.373 -359.702 393.576 -433.595 347.85M2425.89 1081.7C2377.12 1110.03 2308.4 1120.34 2252.75 1116.89C2177.32 1112.26 2134.44 1048.18 2099.5 1001.45C2075.85 969.762 2051.04 945.674 2022.54 945.061C1948.61 943.782 1889.57 930.484 1834.6 893.056C1818.33 882.828 1800.02 874.78 1780.37 869.21C1694.62 843.195 1629.16 863.441 1562.9 907.712C1492.12 955.041 1418.85 1014.34 1344.95 1059.53C1259.68 1111.58 1163.99 1151.48 1068.88 1138.33C1013.44 1130.11 962.154 1110.49 920.021 1081.4C870.114 1046.18 828.692 1004.02 797.643 956.84C790.947 946.353 784.73 935.084 778.366 923.202C749.511 870.121 749.211 829.454 753.471 770.715C756.854 724.398 763.929 660.86 708.519 632.066C706.366 630.84 704.124 629.715 701.802 628.695C563.084 575.528 373.171 689.651 233.087 665.558C127.037 647.303 127.882 604.942 154.297 521.055C175.652 453.288 99.1897 425.279 36.8066 405.916C-16.2857 389.484 -76.6749 377.819 -134.448 368.094C-220.709 353.573 -355.709 386.886 -429.495 343.105M2430.68 1064.67C2381.81 1089.96 2314.03 1096 2261.18 1089.95C2187.34 1081.16 2145.79 1016.51 2109.34 970.015C2085.45 939.561 2060.24 917.967 2032.01 917.567C1960.63 916.865 1900.15 908.257 1841.41 876.094C1823.78 866.977 1804.69 859.705 1784.61 854.448C1700.32 830.739 1636.45 844.486 1570.68 887.428C1501.26 932.694 1428.64 988.341 1355.42 1032.31C1267.79 1084.93 1167.94 1131.93 1072.79 1120.66C1024.98 1114.99 970.612 1094.87 927.541 1067.12C876.625 1034.3 834.727 993.55 804.255 947.204C797.468 936.802 791.229 925.261 784.587 913.597C737.96 832.777 828.705 670.142 720.647 618.158C718.347 617.091 715.985 615.873 713.636 614.81C572.571 562.456 387.286 680.9 243.912 656.288C135.221 637.619 147.039 594.615 168.155 512.168C185.432 444.492 99.4378 418.536 37.2155 400.567C-18.6374 385.14 -75.8141 372.635 -133.959 363.13C-219.309 348.301 -351.767 380.785 -425.45 338.912M2435.44 1047.83C2386.3 1069.78 2319.76 1071.04 2269.64 1062.19C2197.65 1049.49 2157.64 985.618 2118.95 940.047C2094.66 911.422 2069.11 892.866 2040.91 892.816C1971.99 892.661 1906.33 888.374 1846.91 860.527C1828.1 852.426 1808.34 845.738 1787.88 840.544C1705.91 817.549 1641.04 828.053 1576.59 867.763C1509.42 909.136 1438.92 963.713 1367.09 1005.93C1286.38 1053.39 1175.62 1115.99 1079.44 1101.64C1031.22 1094.47 977.803 1078.93 935.261 1053.48C883.605 1022.58 841.119 983.107 810.577 937.629C803.695 927.274 797.465 915.225 790.566 904.05C740.133 822.401 853.629 658.689 731.702 605C729.356 603.976 726.851 602.808 724.371 601.951C580.316 551.595 401.801 657.458 254.927 647.55C141.356 639.865 169.676 566.263 181.164 503.74C193.861 436.039 99.1636 412.03 37.2177 395.055C-18.7136 380.297 -75.6773 367.892 -133.443 357.89C-218.032 342.727 -347.75 374.405 -421.329 334.439M2440.22 1031.27C2386.84 1049.37 2327.41 1044.2 2278.06 1034.58C2210.79 1021.2 2170.1 956.087 2128.24 912.099C2103.46 886.054 2077.46 871.13 2049.14 871.518C1979.91 872.326 1913.11 871.571 1851.3 846.494C1831.69 839.146 1811.46 832.839 1790.73 827.612C1710.71 805.556 1645.46 810.696 1581.42 848.731C1516.43 887.272 1448.38 940.442 1379.26 980.837C1297.95 1028.19 1187.15 1092.09 1089.07 1081.76C1040.22 1076.56 986.307 1064.65 943.03 1040.47C890.777 1011.16 847.751 972.754 817.042 928.005C810.016 917.7 803.582 906.175 796.591 894.461C746.742 810.889 874.213 645.277 741.939 592.689C739.499 591.712 736.847 590.555 734.269 589.706C588.023 542.106 413.122 646.389 266.291 638.863C152.621 633.022 187.257 554.694 193.719 495.192C201.016 428.275 99.1677 405.932 36.7429 389.738C-17.7405 375.607 -76.0118 363.342 -133.016 352.774C-216.847 337.238 -343.426 368.157 -417.247 330.086M2444.92 1014.94C2391.35 1028.92 2333.66 1019.58 2286.56 1007.36C2220.97 990.325 2183.62 928.191 2137.34 886.784C2111.89 863.998 2085.81 853.654 2057.32 854.408C1987.83 856.292 1918.46 856.602 1855.15 833.678C1834.93 826.488 1814.12 820.32 1792.84 815.209C1712.53 795.716 1652.25 791.586 1584.68 829.864C1521.64 865.591 1455.91 917.637 1389.44 956.688C1307.12 1005.02 1199.18 1067.09 1099.87 1062.36C1050.46 1059.98 995.614 1051.16 951.206 1027.62C898.202 999.76 854.483 962.249 823.479 918.03C815.694 907.215 808.719 896.027 802.588 884.521C761.644 803.365 890.557 630.562 751.141 580.969C748.508 580.046 745.761 578.937 743.039 578.138C595.422 533.696 423.532 635.628 277.899 630.156C165.494 625.973 204.057 542.6 205.481 486.551C207.082 421.653 99.2678 400.412 35.8928 384.647C-18.6937 371.071 -76.1102 358.425 -132.585 347.697C-215.815 331.683 -339.435 362.053 -413.111 325.808M2449.58 999.364C2395.75 1008.79 2340.42 995.782 2294.86 981.288C2231.23 961.009 2198.07 902.136 2146.08 865.094C2119.72 846.251 2093.84 840.191 2064.97 841.054C1994.76 843.19 1923.16 844.069 1858.48 822.389C1838.6 815.731 1816.35 809.536 1794.99 804.013C1716.56 783.98 1654.17 776.188 1587.37 811.785C1526.01 844.602 1462.06 896.077 1398.34 933.89C1310.15 986.326 1209.31 1039.97 1110.97 1044.28C1063.25 1046.37 1005.53 1038.48 959.499 1015.62C905.737 988.978 861.273 952.198 829.843 908.374C821.389 897.682 814.695 886.136 809.917 874.007C782.738 790.185 905.454 616.198 758.891 570.186C756.164 569.31 753.28 568.329 750.512 567.573C600.99 528.247 434.331 625.422 289.434 621.767C178.073 618.947 220.078 530.609 216 477.774C211.117 416.717 99.1043 394.679 34.5836 379.357C-20.1031 366.376 -76.4102 353.446 -132.278 342.317C-214.903 325.864 -335.216 355.735 -409.079 321.459M2454.27 984.252C2400.53 989.176 2347.34 972.83 2303.21 956.386C2243.03 933.837 2212.15 877.009 2154.81 847.432C2130.58 834.876 2101.65 828.972 2072.25 830.582C2001.2 832.629 1927.53 833.401 1861.75 812.238C1841.54 805.685 1819.03 799.355 1797.5 793.494C1720.65 772.279 1656.34 760.926 1589.74 794.006C1529.71 823.785 1467.44 874.695 1406.08 911.851C1318.89 964.519 1220.59 1017.92 1122.33 1026.91C1073.46 1031.29 1015.79 1026.48 967.928 1004.08C913.314 978.542 868.008 942.371 836.067 898.808C827.843 887.903 822.24 875.82 819.533 863.153C803.846 778.412 921.257 601.487 765.874 561.497C763.058 560.745 760.037 559.892 757.08 559.23C605.746 524.936 445.235 615.912 300.98 614.12C190.717 612.737 234.405 520.199 225.451 469.787C214.701 410.45 98.7311 390.018 33.1344 374.782C-21.2798 362.131 -76.8862 349.34 -131.773 337.547C-217.207 319.208 -326.777 349.861 -405.027 317.343M2458.88 969.812C2405.55 970.168 2354.38 951.315 2311.29 933.185C2255.52 909.697 2221.44 855.862 2163.2 833.587C2136.65 823.398 2108.93 821.472 2079.26 822.203C2007.25 824.054 1931.75 823.995 1865.03 802.712C1844.37 796.077 1821.93 789.468 1800.25 782.993C1735.21 763.647 1658.04 739.643 1591.99 775.963C1530.22 809.868 1471.91 853.112 1412.68 889.785C1326.72 942.98 1231.18 996.473 1133.53 1009.36C1083.76 1015.96 1025.63 1014.09 976.796 991.88C922.049 967.06 872.106 932.161 842.942 888.134C836.029 876.505 832.184 863.797 831.635 850.771C825.07 765.613 934.213 586.848 771.741 553.601C768.738 552.981 765.573 552.179 762.475 551.606C610.521 522.482 455.419 606.615 312.54 606.042C204.224 605.598 248.517 508.321 234.009 461.089C216.659 404.157 99.4718 385.112 31.3863 369.528C-22.514 357.148 -77.1123 344.042 -131.135 331.985C-215.973 313.089 -322.423 343.376 -400.915 312.754M2463.39 956.082C2410.88 952.465 2361.55 931.432 2319.29 911.945C2267.42 888.067 2229.88 840.177 2171.31 823.01C2143.9 814.962 2116.27 815.412 2086.19 815.942C2013.15 817.21 1935.85 816.24 1868.65 793.901C1847.77 787.01 1825.36 779.93 1803.62 772.834C1738.88 751.589 1662.01 725.293 1594.73 757.997C1533.14 787.94 1475.95 831.564 1418.51 867.937C1333.82 921.617 1241.26 975.418 1144.6 992.062C1094.59 1000.67 1035.57 1001.8 985.679 979.873C931.456 956.066 874.932 921.967 852.177 876.842C846.97 866.509 845.527 852.161 845.598 838.279C846.051 749.785 947.01 575.779 776.302 547.256C773.211 546.76 769.905 546.047 766.664 545.525C615.398 521.31 464.786 598.204 323.804 598.575C217.417 598.875 261.468 496.106 241.656 452.699C217.168 398.839 101.377 381.246 29.5634 364.592C-23.8447 352.212 -77.2172 339.047 -130.436 326.574C-214.89 306.944 -318.011 337.003 -396.886 308.366M2467.86 943.099C2416.49 935.833 2368.34 913.534 2327.08 892.99C2279.52 869.432 2236.82 827.934 2179.28 815.571C2151.44 809.551 2123.53 810.844 2093.14 811.087C2019.36 811.711 1940.14 808.978 1872.75 785.442C1851.79 778.09 1829.42 770.419 1807.82 762.57C1743.24 739.083 1667.63 710.615 1598.46 739.953C1536.57 766.167 1479.95 809.667 1423.84 845.934C1340.36 899.947 1250.91 954.516 1155.45 974.503C1105.78 984.925 1044.95 989.243 994.639 967.586C942.239 945.041 879.84 913.171 864.197 864.662C860.901 851.675 859.965 838.312 861.417 824.975C867.625 731.525 958.484 566.614 779.741 542.251C776.507 541.806 773.109 541.179 769.777 540.742C620.549 521.093 473.242 590.688 334.774 591.717C230.344 592.486 272.745 485.705 247.592 445.071C215.707 393.483 102.097 377.319 27.5618 359.866C-24.8496 347.641 -77.3176 334.091 -129.503 321.613C-213.619 301.292 -313.509 331.131 -392.858 304.565M2472.26 931.02C2422.21 920.6 2376.55 897.437 2334.62 876.517C2288.47 853.393 2243.45 819.078 2187.12 810.137C2158.85 805.674 2130.86 807.092 2100.29 807.035C2025.62 806.91 1944.84 802.426 1877.53 776.929C1856.52 768.955 1834.29 760.609 1812.88 751.924C1748.87 725.773 1675.47 695.408 1603.75 721.744C1540.67 744.77 1484.47 787.338 1429.24 823.612C1346.62 877.909 1260.25 933.521 1166.22 956.56C1117.27 968.566 1054.25 976.265 1003.66 954.903C952.054 932.998 887.959 903.922 878.719 851.774C876.968 838.332 877.019 824.727 878.869 811.188C889.624 711.824 966.934 558.433 782.18 537.678C778.903 537.315 775.365 536.777 771.99 536.421C625.641 520.764 480.926 583.389 345.589 584.793C243.045 585.763 283.223 476.424 252.207 437.549C212.483 387.643 102.28 372.848 25.6684 354.662C-25.6088 342.464 -77.0259 328.517 -128.252 315.728C-212.124 294.761 -308.875 324.468 -388.796 299.98M2476.58 919.769C2428.55 906.92 2384.18 883.927 2341.91 863.699C2295.86 841.701 2250.38 812.855 2194.86 806.077C2166.24 802.699 2138.36 803.639 2107.64 803.477C2032.21 802.552 1949.9 796.236 1883.34 768.295C1862.46 759.568 1840.37 750.468 1819.33 740.854C1756.09 712.022 1686.48 679.83 1611.08 703.255C1545.7 723.338 1489.51 764.263 1434.53 800.556C1352.79 854.783 1268.96 911.873 1176.33 937.77C1128.19 951.198 1063.17 962.261 1012.57 941.37C960.233 919.562 900.459 892.212 895.621 837.874C894.951 824.283 895.67 810.63 897.77 797.05C911.816 691.443 972.54 550.987 783.695 533.843C780.274 533.531 776.694 533.074 773.276 532.8C630.709 520.75 487.735 576.825 355.898 578.301C254.941 579.417 292.984 468.607 255.5 430.718C207.347 382.504 102.098 368.719 23.935 349.602C-26.2601 337.395 -76.6291 323.013 -126.883 310.068C-210.61 288.464 -304.27 318.04 -384.9 295.759M2480.89 908.988C2434.64 894.472 2391.36 872.721 2349 853.281C2303.28 832.313 2256.82 808.393 2202.55 802.453C2173.85 799.354 2146.07 799.7 2115.25 798.959C2039.17 797.227 1955.48 789.067 1889.63 758.372C1869.18 748.75 1847.11 738.749 1826.49 728.242C1757.57 693.063 1698.38 672.976 1621.61 685.409C1556.99 695.933 1495.7 740.667 1441.24 776.723C1360.51 830.087 1278.29 889.472 1186.78 918.25C1139.34 933.068 1072.58 946.381 1021.77 927.071C970.092 907.438 916.029 875.8 914.44 823.939C914.548 810.225 915.752 796.499 918.044 782.842C933.721 671.163 974.724 544.441 784.431 530.736C780.964 530.466 777.39 530.087 773.877 529.86C635.357 521.004 493.97 571.088 365.859 572.383C266.223 573.395 302.858 461.602 257.702 424.405C201.432 378.091 101.57 364.579 22.2537 344.577C-26.4898 332.058 -75.7402 317.509 -124.644 304.221C-208.325 281.949 -299.182 311.497 -380.613 291.508M2485.17 898.561C2440.58 883.208 2398.61 862.486 2355.98 844.476C2310.8 825.418 2262 804.226 2210.23 798.751C2181.88 795.741 2153.93 794.615 2123.14 793.599C2046.51 791.129 1961.7 781.299 1897.2 747.721C1876.66 737.128 1854.76 726.059 1835.5 714.779C1773.57 678.923 1708.79 664.052 1637.24 671.025C1568.87 677.706 1504.67 716.183 1449.3 751.883C1369.07 803.642 1290.3 861.227 1197.49 897.106C1148.08 916.264 1083.48 930.734 1031.27 911.144C979.059 891.554 935.598 857.7 935.63 808.876C935.653 797.46 937.761 782.594 939.742 767.973C955.525 650.852 973.909 537.94 784.956 527.449C781.446 527.261 777.777 526.929 774.271 526.779C640.039 520.473 500.166 565.472 375.82 566.466C277.046 567.174 313.145 454.838 259.507 418.046C194.833 373.732 101.672 360.31 21.3694 339.058C-26.3501 326.418 -74.0054 311.506 -121.976 298.183C-205.759 275.255 -294.009 304.79 -376.327 287.256M2489.36 888.727C2446.33 872.624 2404.91 853.227 2362.89 836.769C2317.17 818.967 2268.78 801.025 2218.03 794.218C2189.42 790.232 2160.49 787.587 2131.37 786.296C2054.32 783.037 1968.54 771.957 1905.8 735.228C1886.1 723.474 1864.74 712.987 1846.58 703.182C1786.92 670.39 1725.86 656.55 1656.37 659.762C1586.89 662.974 1517.91 695.97 1460.66 728.42C1378.34 774.874 1299.62 836.833 1208.08 874.996C1160.88 894.719 1092.02 915.002 1043.48 893.946C997.601 874.162 957.335 840.248 957.86 793.886C957.995 782.657 960.061 767.872 961.663 753.438C967.381 701.852 992.344 637.353 958.418 589.798C925.687 543.634 847.06 527.329 784.148 524.739C780.642 524.589 776.882 524.342 773.43 524.267C645.559 521.79 507.458 559.416 384.547 561.116C298.903 562.298 300.557 443.297 259.769 412.083C203.613 369.043 102.048 355.785 20.1397 333.528C-26.9013 320.756 -72.4545 305.05 -119.325 291.952C-203.304 268.414 -289.341 297.928 -372.575 283.086M2493.57 879.244C2452.06 863.019 2412.04 844.565 2369.71 829.696C2323.01 813.261 2275.39 797.487 2225.88 788.274C2197.75 782.349 2168.96 778.323 2139.81 776.239C2061.53 772.258 1978.55 758.139 1915.67 722.048C1896.99 711.307 1876.52 702.664 1859.27 693.763C1806.15 665.92 1744.16 647.151 1678.45 650.179C1605.73 653.611 1538.49 678.103 1478.95 707.256C1393.03 749.308 1308.19 815.274 1219.73 850.845C1178.58 867.465 1105.92 895.519 1062.46 874.603C1021.86 855.061 981.567 823.222 981.531 778.468C981.542 767.522 983.278 752.921 984.354 738.685C988.207 687.17 1006.77 625.685 966.82 580.996C928.144 538.043 846.961 523.624 783.72 521.841C780.167 521.734 776.459 521.523 772.962 521.49C649.269 520.79 512.83 555.195 393.589 556.015C349.069 556.293 334.658 534.891 319.245 508.332C295.903 468.178 303.658 436.522 260.281 406.179C200.743 364.543 101.969 351.101 20.2117 327.659C-25.4756 314.583 -69.5342 298.484 -115.136 285.245C-199.147 260.694 -283.945 290.929 -368.047 278.776M2497.7 870.001C2497.7 870.001 2463.24 852.001 2376.54 822.74C2331.01 807.345 2281.45 792.663 2233.91 780.4C2205.61 773.087 2178.07 764.033 2148.46 762.53C2071.61 758.592 1991.96 744.168 1926.98 711.449C1908.72 702.277 1889.6 694.543 1873.6 686.558C1822.33 660.873 1764.64 641.721 1701.81 642.642C1629.94 643.661 1562.93 663.131 1502.09 688.871C1413.59 726.322 1326.04 788.087 1237.96 825.23C1199.87 841.254 1126.83 872.738 1087.63 853.28C1050.07 834.747 1007.94 806.454 1006.56 762.824C1006.21 752.259 1007.42 737.856 1007.69 723.997C1010.17 598.715 954.593 521.66 782.836 518.785C779.241 518.76 775.535 518.587 772.041 518.593C652.406 519.405 517.851 551.51 401.916 551.206C356.924 551.13 344.213 528.811 327.925 502.4C302.696 461.42 306.676 430.573 260.053 400.256C198.322 360.124 101.335 345.64 20.7666 321.673C-23.3556 308.472 -66.6148 291.293 -110.676 278.243C-193.66 253.61 -278.88 283.488 -363.8 274.645M2501.86 861.03C2501.86 861.03 2469.77 842.567 2383.36 815.783C2336.43 801.283 2288.25 786.608 2241.91 770.301C2213.7 760.284 2186.43 747.376 2157.17 745.808C2083.02 741.81 2004.16 733.107 1939.2 703.592C1921.68 695.612 1903.55 688.658 1888.2 681.364C1839.04 657.543 1785.71 637.456 1725.78 636.503C1655.76 635.42 1589.71 650.866 1528.73 673.059C1438.77 705.818 1349.38 761.047 1262.51 799.891C1227.06 815.743 1157.41 850.045 1116.47 831.117C1067.49 808.297 1043.32 790.96 1031.04 747.693C1028.43 738.365 1030.54 723.499 1029.8 710.033C1023.61 585.796 944.752 516.779 781.156 515.636C777.561 515.61 773.862 515.515 770.42 515.556C654.584 517.707 522.035 548.439 409.153 546.914C363.723 546.286 352.514 523.065 335.453 496.833C308.349 455.183 308.247 424.975 258.97 394.714C195.67 355.88 100.796 340.132 21.2964 315.376C-21.6094 302 -63.0514 283.542 -106.589 270.881C-190.227 246.69 -274.476 275.787 -359.954 270.428M2506.01 852.059C2506.01 852.059 2476.2 833.179 2389.99 808.256C2341.47 794.695 2294.74 777.632 2250.37 757.272C2222.42 743.872 2195.75 732.285 2166.48 731.148C2091.97 728.195 2019.66 724.363 1952.12 697.242C1934.99 690.365 1917.3 684.001 1903.41 677.06C1854.1 652.586 1805.48 635.993 1749.98 630.699C1687.67 624.542 1617.84 640.095 1557.67 658.901C1468.07 686.902 1378.83 736.685 1292.67 774.495C1258.57 789.418 1189 824.729 1149.41 807.296C1113.7 791.624 1063.17 770.335 1057.03 731.699C1055.47 722.013 1054.73 708.43 1052.85 695.407C1035.24 574.937 935.346 511.786 779.831 511.989C776.288 511.999 772.638 511.9 769.202 512.018C656.708 515.348 526.931 545.663 416.3 542.746C370.43 541.528 360.62 517.335 342.776 491.166C313.752 448.887 309.612 419.276 257.966 388.931C193.808 351.065 101.014 334.251 23.3664 308.644C-18.2896 294.894 -58.3389 275.386 -101.775 263.381C-186.534 239.945 -269.698 268.447 -355.554 266.363M2510.16 843.011C2510.16 843.011 2481.39 823.54 2397.16 799.982C2346.81 785.833 2302.67 765.089 2259.28 741.315C2235.28 727.516 2206.3 720.018 2176.2 719.816C2103.43 718.835 2032.3 717.566 1965.65 692.838C1949.63 687.24 1934.04 680.931 1918.96 673.94C1871.64 650.362 1826.51 631.887 1773.57 624.824C1714.77 616.98 1645.81 630.431 1587.61 646.109C1498.76 670.023 1410.94 714.181 1325.76 750.076C1292.44 764.233 1223.25 799.436 1184.12 783.49C1147.49 768.556 1093.26 755.108 1082.52 716.253C1079.91 706.963 1078.14 694.088 1074.84 681.688C1043.52 565.245 930.023 506.778 778.661 507.822C775.121 507.871 771.523 507.807 768.139 507.96C658.438 512.356 531.813 543.318 422.929 538.854C376.51 536.938 368.194 511.726 349.51 485.507C318.968 442.724 309.714 413.17 256.861 383.117C192.353 346.412 100.806 328.561 26.341 301.526C-13.5001 287.084 -54.0818 267.072 -96.9332 255.606C-181.982 232.858 -265.428 260.913 -351.539 262.406M2514.35 833.803C2514.35 833.803 2486.57 813.939 2404.14 790.629C2354.33 776.515 2310.13 747.606 2268.49 726.037C2243.59 713.175 2215.32 709.808 2186.41 710.205C2114.97 711.111 2045.14 711.966 1979.33 689.047C1963.55 683.962 1948.27 678.001 1933.6 671.205C1888.69 648.686 1844.18 628.245 1795.01 618.38C1739.97 607.147 1672.84 621.35 1616.08 634.176C1528.39 653.972 1443.72 694.439 1360.44 726.468C1325.49 739.896 1257.63 772.646 1219.56 759.508C1181.5 746.37 1124.08 739.783 1107.29 700.943C1103.43 692.066 1100.44 679.914 1095.54 667.992C1051 559.019 923.334 501.293 777.741 503.088C774.25 503.132 770.756 503.138 767.369 503.253C655.976 506.807 538.411 541.5 428.931 535.13C382.004 532.394 375.122 506.051 355.598 479.782C323.506 436.693 309.061 406.851 255.64 377.078C191.346 341.216 102.287 322.462 30.299 293.783C-8.3909 278.349 -49.6024 258.466 -92.2209 247.451C-177.657 225.398 -261.632 252.987 -347.733 258.31M2518.52 824.401C2518.52 824.401 2492.3 804.373 2411.26 780.014C2362.19 765.176 2321.87 731.267 2277.93 712.931C2253.13 702.562 2225.4 701.067 2196.6 702.236C2126.14 705.018 2057.51 707.849 1992.38 686.088C1976.95 681.271 1962.11 675.41 1948.01 668.567C1904.51 645.858 1862.34 623.314 1814.68 610.787C1763.8 597.423 1695.08 612.027 1643 622.369C1559.08 638.97 1476.35 674.786 1395.85 703.974C1360.31 716.862 1293.94 747.969 1255.37 735.849C1214.48 723.015 1155.52 724.291 1131.63 685.94C1126.48 677.596 1122.08 666.222 1115.42 654.911C1056.31 554.724 918.928 495.431 777.205 497.619L767.035 497.846C657.024 502.072 543.704 539.983 434.71 531.697C389.005 528.238 379.585 500.926 361.2 474.135C330.687 429.239 307.402 400.261 254.516 371.03C190.872 335.899 105.665 316.094 35.4182 285.79C-2.91227 269.312 -44.6305 249.86 -87.2668 239.237C-172.644 217.922 -258.081 245.081 -343.816 254.362M2522.76 814.719C2522.76 814.719 2497.28 795.766 2418.52 767.941C2370.09 750.785 2336.67 716.285 2287.63 701.366C2261.7 693.472 2235.49 693.067 2206.95 695.037C2137.63 699.76 2069.5 704.467 2005.05 683.276C1989.75 678.546 1975.11 672.621 1961.36 665.585C1918.57 641.996 1877.57 616.741 1831.16 601.417C1783.29 585.701 1715.71 599.745 1666.36 609.868C1587.54 626.179 1507.63 656.023 1430.02 682.518C1393.55 694.933 1327.51 724.529 1289.7 712.777C1245.53 698.954 1187.17 710.15 1154.44 671.373C1147.91 663.647 1141.9 653.066 1133.32 642.456C1059.96 551.735 917.434 489.061 777.268 491.633C773.924 491.666 770.475 491.629 767.443 491.872C663.725 499.073 548.719 541.145 440.12 528.567C391.884 523.004 386.726 496.055 366.349 467.743C333.87 422.887 307.121 393.677 254.071 364.851C190.682 330.441 110.615 309.053 41.6804 277.315C3.2567 259.671 -38.8823 241.113 -81.7321 230.898C-167.34 210.383 -254.307 236.883 -339.4 250.491M2526.98 804.687C2526.98 804.687 2497.88 786.728 2425.83 754.144C2384.99 735.834 2345.48 701.508 2297.7 690.554C2271.53 684.595 2245.78 685.091 2217.5 687.822C2149.12 694.386 2081.09 701.077 2017.18 679.921C2001.74 675.282 1987.11 669.183 1973.6 661.752C1930.29 635.9 1892.1 606.432 1844.29 589.578C1797.54 573.03 1734.81 585.044 1685.3 595.571C1611.3 611.301 1535.36 638.443 1461.65 662.007C1424.17 673.996 1361.09 701.321 1322.01 690.296C1274.04 676.896 1215.51 692.873 1175.55 657.254C1167.6 650.073 1160.08 640.394 1149.25 630.51C1060.62 549.454 920.118 482.006 778.01 484.304C774.767 484.367 771.368 484.327 768.189 484.581C665.459 492.446 552.951 539.907 444.619 525.119C396.696 518.554 391.53 490.276 370.163 461.887C336.419 417.21 306.156 387.148 252.99 358.097C190.756 323.986 112.963 299.64 47.2871 268.033C9.92377 250.109 -35.3608 229.144 -76.935 221.954C-163.175 207.079 -245.631 227.199 -335.854 246.22M2531.27 794.26C2531.27 794.26 2502.27 775.783 2433.33 738.965C2397.64 719.89 2353.44 688.402 2307.28 680.524C2281 676.254 2255.57 677.115 2227.5 680.533C2159.84 688.759 2091.55 697.661 2028.01 676.163C2012.48 671.328 1997.88 664.874 1984.59 656.964C1940.49 628.634 1901.84 595.256 1853.46 574.968C1807.32 555.635 1748.73 567.045 1698.82 578.776C1629.84 595.043 1558.79 621.247 1489.61 642.415C1451.17 654.089 1391.58 678.908 1351.2 668.769C1299.27 655.763 1241.16 675.694 1194.46 643.781C1185.08 637.338 1175.66 628.476 1162.63 619.394C1059.99 547.745 924.723 475.579 779.642 476.394C776.494 476.412 773.299 476.472 770.209 476.602C661.221 481.918 561.098 540.233 448.983 521.838C402.857 514.348 393.523 485.035 373.882 456.078C342.851 410.246 304.298 379.909 252.29 351.195C191.314 317.413 117.808 289.442 53.1722 258.532C15.7111 240.616 -30.1117 219.694 -71.9421 212.994C-158.603 199.013 -242.851 218.26 -332.102 242.05M2535.66 783.393C2535.66 783.393 2510.03 760.153 2441.09 722.239C2406.76 703.369 2361.75 676.05 2317.29 670.264C2291.03 667.206 2264.13 667.849 2237.8 672.165C2170.51 681.847 2101.66 693.061 2038.22 670.89C2022.35 665.719 2007.57 658.77 1994.29 650.247C1949.7 620.158 1912.85 580.303 1857.42 561.204C1806.82 543.87 1755.26 547.838 1706.61 559.234C1644.23 573.8 1578.09 604.029 1512.7 623.409C1473.81 634.963 1417.84 657.654 1376.43 648.262C1320.69 635.639 1263.29 658.914 1210.62 631.036C1199.88 625.367 1188.49 617.756 1172.97 608.913C1063.56 546.912 926.308 467.713 782.348 467.774C779.297 467.783 776.2 467.836 773.26 467.993C663.978 473.332 565.985 539.803 453.277 518.915C407.265 510.399 398.046 479.436 377.613 450.424C345.564 404.791 304.377 373.531 252.724 344.32C193.337 310.724 124.423 278.632 59.93 248.884C21.653 231.229 -24.1173 210.342 -66.1457 204.244C-153.12 191.265 -239.797 209.69 -327.681 238.257M2539.68 772.127C2539.68 772.127 2515.47 742.049 2448.48 706.325C2414.91 688.449 2369.65 664.043 2326.62 659.55C2300.33 656.955 2273.52 657.937 2247.31 662.453C2180.06 673.227 2110.18 686.907 2046.77 663.952C2030.39 658.418 2015.26 650.888 2001.92 641.624C1957.39 608.598 1918.86 568.721 1859.6 549.694C1809.6 533.681 1758.64 534.121 1709.6 543.164C1650.28 554.084 1588.76 584.804 1529.74 604.456C1493.79 616.478 1436.89 636.821 1396.76 628.539C1337.61 616.383 1280.98 642.528 1223.72 618.925C1211.61 613.952 1197.23 606.464 1180.12 598.099C1067.45 543.24 926.908 459.222 786.309 457.607C783.402 457.566 780.403 457.61 777.557 457.72C667.921 462.932 570.735 539.501 457.341 515.58C411.851 506.202 401.908 473.576 380.781 444.503C347.617 399.077 304.632 366.866 253.173 337.013C195.777 303.688 130.349 267.174 66.4592 238.824C27.3695 221.468 -18.3949 200.659 -60.7438 194.861C-147.93 182.915 -237.467 200.669 -323.642 233.986M2544.26 760.386C2544.26 760.386 2526.01 724.203 2456.47 691.145C2416.92 672.302 2381.77 652.559 2336.61 647.884C2310.35 645.156 2283.53 646.137 2257.36 650.783C2190.01 662.345 2118.75 678.404 2055.13 654.645C2037.99 648.765 2022.35 640.549 2008.89 630.356C1966.41 595.876 1921.37 557.028 1860.69 539.836C1812.45 526 1759.93 522.935 1708.68 530.964C1654.14 540.134 1595.75 565.717 1539.78 585.398C1493.54 601.645 1448.11 617.669 1411.46 609.89C1353.13 597.513 1288.61 621.631 1232.64 607.267C1219.57 603.934 1203.44 595.491 1185 587.625C1071.05 538.926 927.931 450.462 791.572 447.101C788.751 446.897 786.088 446.836 783.147 446.993C672.78 451.677 575.315 539.526 460.74 512.533C415.842 501.935 405.42 467.628 383.746 438.481C349.952 393.183 305.318 360.049 254.142 329.431C198.415 296.05 135.485 255.701 73.1104 228.442C34.0456 211.397 -12.6875 190.782 -55.1948 185.465C-142.542 174.588 -235.692 192.084 -319.593 229.831M2548.64 748.152C2548.64 748.152 2531.66 708.193 2464.16 676.459C2426 658.481 2391.32 640.264 2345.92 635.1C2319.73 631.913 2292.84 632.593 2266.6 637.106C2199.21 648.749 2125.36 666.969 2061.99 642.604C2044.58 636.112 2028.8 627.246 2015.35 616.392C1972.11 580.41 1923.23 545.856 1861.31 530.991C1811.09 518.638 1757.6 515.554 1704.81 521.97C1653.15 528.956 1595.97 549.399 1543.98 567.707C1500.89 582.88 1461.14 599.662 1419.45 592.286C1358.89 581.495 1296.04 607.982 1238.74 595.6C1224.98 592.791 1207.59 584.644 1188.05 577.178C1073.26 533.394 930.273 441.597 798.349 435.223C795.631 435.089 792.819 435.001 790.117 435.061C678.068 437.807 580.627 539.492 464.257 509.124C419.923 497.582 408.768 461.496 386.549 432.315C352.071 387.072 306.381 353.045 255.633 321.611C201.201 287.814 141.499 244.745 79.9991 217.963C40.9404 200.995 -6.64227 180.839 -49.4515 176.055C-141.54 166.494 -236.089 184.145 -315.396 225.704M2553.09 735.484C2553.09 735.484 2537.48 692.914 2472.26 662.013C2435.42 644.554 2401.14 627.048 2355.46 620.773C2329.38 616.742 2302.37 616.778 2275.93 620.88C2208.99 631.98 2132.58 651.89 2069.73 627.327C2052.5 620.951 2036.67 612.505 2022.79 602.273C1976.97 567.317 1925.47 535.084 1861.93 522.146C1809.07 511.418 1753.73 508.956 1698.93 514.897C1648.94 520.654 1593.45 535.841 1543.77 552.128C1502.95 565.516 1466.97 582.662 1422.33 575.288C1362.13 565.405 1299.13 593.702 1242.5 583.533C1228.22 581.001 1209.84 573.402 1189.3 566.368C1112.64 540.173 1037.76 508.559 963.417 478.152C914.723 458.242 861.967 425.718 805.499 422.456C802.827 422.278 800.014 422.191 797.309 422.212C683.942 424.477 585.163 538.973 467.713 505.565C424.249 493.21 412.013 455.295 389.281 425.843C354.123 380.732 308.16 345.749 257.768 313.232C204.418 278.801 148.02 233.356 86.8482 206.978C47.573 190.38 -1.0938 170.819 -43.9698 166.43C-131.678 157.81 -232.605 174.677 -311.451 221.479M2557.6 722.341C2557.6 722.341 2543.4 678.251 2480.21 647.578C2444.37 630.314 2410.64 612.842 2364.56 604.762C2338.11 600.115 2311.5 597.866 2284.88 601.675C2219.01 611.322 2142.36 633.322 2078.92 611.229C2061.46 605.552 2045.27 597.766 2030.91 588.138C1982.87 554.298 1927.83 522.113 1863.46 513.033C1807.47 504.449 1749.8 502.981 1692.57 508.682C1640.85 514.631 1589.83 524.736 1540.29 538.842C1501.12 549.988 1467.87 566.837 1421.78 559.266C1364.14 549.999 1298.73 579.505 1243.95 571.573C1229.41 569.414 1210.18 562.196 1188.88 555.574C1110.51 530.592 1034.42 501.569 961.085 468.684C915.119 448.438 867.053 412.998 812.629 409.455C809.911 409.248 807.176 409.154 804.436 409.172C689.684 410.728 589.019 537.961 471.14 501.655C428.709 488.671 414.993 448.256 391.965 419.413C356.08 374.438 310.33 338.423 260.444 304.848C208.009 269.562 155.407 222.329 93.6109 196.157C54.2806 179.485 4.80421 160.262 -38.3062 156.635C-126.344 148.823 -231.275 166.089 -307.361 217.243M2562.01 709.167C2562.01 709.167 2549.35 664.055 2488.1 632.993C2453.72 615.533 2419.99 597.397 2373.41 586.777C2346.74 580.74 2320.23 576.568 2294.17 580.567C2229.07 590.621 2152.97 614.571 2088.62 595.209C2070.82 590.397 2054.17 583.381 2039.26 574.414C1986.17 540.197 1931.17 515.24 1865.33 503.776C1809.56 493.852 1744.75 494.58 1686.03 502.599C1636.23 509.397 1582.96 516.667 1533.9 527.861C1495.66 536.548 1464.86 552.693 1417.9 544.566C1363.8 535.212 1295.88 565.465 1243.81 559.35C1228.91 557.649 1209.22 550.781 1187.31 544.559C1107.68 522.091 1031.31 493.347 959.305 458.741C915.17 437.372 873.915 400.332 819.695 396.264C816.977 396.032 814.24 395.911 811.496 395.904C694.631 396.886 591.562 534.669 474.495 497.439C433.485 484.38 418.192 441.472 394.537 412.797C358.072 367.947 312.724 330.804 263.601 296.309C211.822 259.993 162.855 211.453 100.326 185.339C60.8707 168.951 10.5543 150.304 -32.7727 147.046C-121.362 140.333 -230.203 157.951 -303.514 213.027M2566.41 696.424C2566.41 696.424 2555.34 650.403 2496.15 618.003C2462.96 599.979 2429.18 580.713 2382.26 566.954C2355.3 559.143 2330.08 555.141 2304.86 559.191C2240.43 569.582 2165.02 595.353 2099.72 578.959C2081.54 574.859 2064.42 568.443 2048.98 559.955C1993.36 527.27 1936.19 503.503 1869.1 493.077C1810.39 483.858 1742.77 485.787 1681.51 495.26C1630.57 503.243 1578.19 509.934 1526.8 518.461C1488.86 524.74 1460 539.87 1412.62 530.877C1361.7 521.23 1291.88 551.675 1242.39 547.111C1227.11 545.558 1206.93 539.355 1184.59 533.324C1106.63 513.018 1026.27 484.93 958.764 448.27C916.163 425.175 882.193 387.513 827.134 382.809C824.41 382.597 821.589 382.393 818.978 382.367C700.871 382.588 592.981 532.093 478.354 492.752C438.321 478.99 421.543 434.754 397.539 405.403C360.845 360.767 316.116 322.754 267.839 287.136C216.893 249.542 170.804 200.068 107.594 174.048C67.8937 157.679 16.7986 139.759 -26.8303 137.033C-115.874 131.412 -228.657 149.579 -299.148 208.534M2570.9 683.674C2561.41 650.814 2537.64 622.068 2503.72 602.427C2471.58 583.42 2436.36 560.282 2390.87 545.392C2364.7 536.971 2340.24 533.259 2315.76 537.328C2251.4 548.026 2177.18 575.11 2111.21 562.053C2092.58 558.842 2074.89 553.121 2058.87 545.132C2000.77 514.129 1941.34 491.052 1873.51 481.037C1809.19 472.334 1742.87 473.932 1678.38 485.738C1625.31 495.377 1572.41 504.142 1518.37 510.263C1480.94 514.35 1452.52 528.194 1405.11 518.188C1356.89 507.972 1287.2 537.469 1238.83 534.614C1224 533.729 1202.9 527.794 1180.94 522.124C1105.54 502.551 1022.75 477.237 958.297 437.518C916.889 412.1 889.84 375.448 834.389 369.525C831.691 369.214 828.965 369.041 826.227 369.005C706.422 368.307 590.904 529.523 482.519 487.611C444.374 472.838 425.618 428.487 400.761 398.305C363.861 353.568 319.768 314.879 272.613 277.92C222.57 238.69 178.951 188.706 114.625 162.893C74.6566 146.858 24.9312 131.29 -21.1237 127.156C-110.363 119.088 -233.031 145.356 -295.07 204.143M2575.37 671.199C2566.19 637.89 2543.77 608.184 2511.39 586.412C2478.09 563.902 2440.59 538.132 2399.93 523.873C2374.96 515.081 2350.96 511.607 2326.91 515.485C2261.45 526.036 2191.16 554.877 2123.82 544.901C2104.67 542.555 2086.31 537.498 2069.62 529.966C2009.59 500.681 1948.69 477.682 1879.9 467.47C1813.57 457.91 1744.9 459.962 1678.59 473.487C1624 485.085 1567.39 498.524 1510.86 502.537C1473.03 505.211 1444.52 517.42 1397.31 506.225C1351.21 495.293 1281.11 524.118 1234.54 521.55C1219.71 520.743 1198.68 515.701 1176.7 510.345C1102.5 492.24 1020.15 468.142 959.793 426.063C920.495 398.717 897.956 362.447 841.712 355.845C839.014 355.508 836.285 355.309 833.543 355.247C712.652 353.893 592.914 525.102 487.315 481.716C449.704 466.236 429.557 421.722 404.038 390.655C367.243 345.988 323.534 307.19 278.052 268.377C229.685 227.333 186.426 176.929 121.746 151.613C81.4569 135.877 30.6802 120.707 -15.2271 117.186C-105.357 110.284 -231.301 137.439 -290.756 199.615M2579.83 658.763C2571.55 624.564 2550.35 593.552 2519.02 569.814C2487.1 545.475 2450.38 517.102 2409.8 502.054C2385.36 493.064 2362.04 489.534 2338.57 493.327C2273.22 503.948 2204.96 534.151 2137.32 527.17C2117.59 525.723 2098.5 521.365 2081.02 514.318C2019.25 486.735 1956.99 463.259 1887.73 452.108C1822.66 441.676 1747.36 442.305 1682.05 457.692C1624.08 471.358 1565.94 490.901 1504.3 495.049C1464.46 497.766 1436.01 507.625 1389.2 495.226C1344.59 483.392 1274.57 511.234 1229.34 508.793C1214.51 508.025 1193.62 503.48 1171.71 498.431C1098.94 481.541 1019.11 458.218 962.638 414.265C925.423 385.267 905.63 349.482 848.942 342.25C846.247 341.898 843.517 341.699 840.773 341.652C720.364 339.556 602.216 518.338 493.175 474.993C453.769 459.226 433.735 414.274 408.237 383.479C371.35 338.897 327.355 298.363 284.147 259.056C238.601 217.59 193.632 165.486 128.753 140.772C88.1406 125.297 36.857 110.558 -9.45008 107.577C-100.572 101.81 -229.682 130 -286.607 195.492M2584.36 646.401C2576.59 611.036 2556.57 578.445 2526.53 552.25C2497.06 526.58 2460.01 496.005 2419.53 480.285C2395.76 471.085 2372.69 467.536 2349.9 471.235C2284.79 481.759 2218.56 513.401 2151.13 509.139C2131.1 508.473 2111.57 504.726 2093.6 498.106C2030.2 472.218 1966.64 447.321 1897.47 434.872C1828.31 422.423 1755.93 422.114 1690.36 437.326C1631.02 451.063 1566.81 481.489 1500.32 487.041C1457.82 490.441 1428.49 498.493 1382.01 484.777C1338.26 471.937 1268.74 498.684 1224.15 496.231C1209.32 495.462 1189.26 490.812 1166.95 486.265C1093.64 471.255 1019.25 446.989 967.234 402.171C932.077 371.836 912.761 336.481 856.247 328.962C853.548 328.604 850.818 328.378 848.072 328.287C724.4 325.396 611.313 510.223 499.097 467.796C458.499 452.515 437.709 406.725 412.021 375.397C375.431 330.831 332.123 289.656 290.998 249.322C247.498 206.364 201.045 153.557 135.62 129.395C94.6383 114.223 41.2991 98.3976 -3.85288 97.5528C-95.884 95.806 -225.056 118.294 -282.553 190.79M2588.83 634.004C2583.28 594.773 2561.22 564.524 2534 534.258C2508.61 506.034 2469.59 474.873 2429.5 458.574C2406.2 449.102 2383.33 445.577 2360.98 449.163C2296.29 459.496 2231.21 493.08 2164.88 490.841C2145.13 490.153 2123.31 488.068 2105.85 481.451C2041.68 456.954 1977.79 431.731 1908.23 415.561C1837.32 399.031 1765.58 394.449 1700.19 411.328C1638.32 427.26 1570.31 468.622 1498.8 477.86C1452.76 483.77 1421.83 489.762 1375.52 475.016C1319.09 456.897 1276.55 493.642 1218.41 484.142C1203.99 481.777 1183.49 478.413 1161.69 474.137C1088.23 459.648 1022.99 435.863 973.49 389.944C939.833 358.668 918.943 323.322 863.37 315.258C860.691 314.854 857.974 314.601 855.237 314.501C728.349 310.774 620.251 501.377 505.022 460.052C463.576 445.23 441.837 398.655 415.956 366.757C379.809 322.194 337.989 280.548 298.419 239.347C256.205 195.231 208.651 142.199 142.673 118.511C101.273 103.647 47.3354 88.338 1.92106 87.9051C-91.2706 87.0328 -223.251 110.723 -278.231 186.379M2593.35 621.565C2588.86 580.803 2567.76 547.74 2541.36 515.61C2517.69 486.74 2479.37 453.726 2439.39 436.872C2416.42 427.217 2393.69 423.641 2371.77 427.114C2307.36 437.268 2244.29 472.02 2178.52 472.512C2157.98 473.07 2137.66 470.293 2118.81 464.349C2052.96 441.042 1987.5 413.952 1918.35 393.058C1846.82 371.417 1775.09 363.16 1709.84 381.123C1645.49 398.738 1575.83 452.076 1501.34 466.556C1450.49 476.407 1417.4 481.087 1371.59 465.207C1314.9 445.662 1271.83 481.98 1213.71 472.127C1199.44 469.712 1179.57 466.297 1157.66 461.835C1084.37 447.096 1027.02 424.751 980.43 378.249C948.322 346.028 925.783 310.384 870.965 301.908C868.286 301.483 865.567 301.205 862.826 301.073C732.965 296.489 629.585 491.914 511.533 452.222C469.048 437.952 446.589 390.379 420.723 358.05C385.075 313.564 345.189 271.49 306.71 229.146C265.209 183.488 216.872 130.519 149.993 107.255C108.128 92.7398 53.5987 78.0259 7.91892 77.966C-86.5039 77.7004 -221.127 102.813 -273.645 181.556M2597.81 609.051C2594.41 566.56 2574.17 530.771 2548.61 496.658C2526.56 467.151 2489 432.591 2449.13 415.298C2426.29 405.398 2403.75 401.806 2382.06 405.026C2317.83 414.932 2256.57 450.868 2191.12 453.993C2170.49 455.219 2149.95 452.861 2130.91 447.081C2062.44 424.257 1994.9 393.268 1926.54 367.504C1856.05 340.933 1786.9 330.476 1718.25 347.889C1645.89 366.224 1584.21 427.601 1508.07 452.336C1467.87 465.401 1409.55 469.089 1369.64 455.591C1310.28 435.321 1264.73 471.369 1209.24 460.602C1195.38 457.801 1175.54 454.619 1153.96 450.091C1081.93 434.979 1031.3 412.996 987.262 366.445C956.033 333.528 932.828 297.546 877.691 288.783C875.018 288.323 872.295 288.031 869.549 287.91C737.058 282.442 637.923 482.335 517.337 444.174C435.372 418.13 369.25 281.253 314.568 219.098C273.618 172.339 224.478 119.161 156.655 96.4027C114.323 82.1986 59.2007 68.0793 13.3043 68.3885C-82.4195 69.0869 -219.425 95.1722 -269.629 177.013M2602.27 596.46C2599.01 554.358 2583.1 513.864 2555.86 478.371C2532.56 448.612 2498.5 411.622 2458.6 393.979C2435.78 383.843 2413.2 380.216 2391.75 383.417C2327.55 393.008 2268 430.058 2203.09 435.718C2182.53 437.598 2161.88 435.551 2142.86 429.747C2070.87 406.54 2001.65 367.516 1933.85 339.518C1871.5 313.82 1798.98 289.522 1726.55 312.553C1646.49 338.032 1589.67 404.18 1517.39 432.867C1473.56 450.289 1421.41 463.567 1370.73 445.301C1310.88 423.781 1262.11 460.673 1205.5 449.565C1191.84 446.749 1172.38 443.38 1151.18 438.704C1080.66 422.806 1035.87 400.591 994.144 354.637C963.707 321.149 939.776 284.717 885.116 275.759C882.459 275.285 879.752 274.979 877.02 274.843C742.104 268.591 646.725 472.367 524.046 435.742C440.603 410.91 376.407 271.651 322.709 208.87C282.088 161.303 232.238 107.869 163.475 85.655C120.678 71.8007 65.0189 58.3498 18.8967 58.9116C-78.2508 60.2711 -217.374 87.5811 -265.333 172.252M2606.71 583.752C2604.44 540.041 2589.57 497.7 2563.25 459.995C2541.47 429.528 2507.8 390.709 2467.66 372.615C2444.74 362.331 2421.91 358.685 2400.69 361.711C2336.45 370.758 2278.29 409.105 2213.97 417.22C2193.55 419.857 2172.82 418.171 2153.87 412.332C2077.82 388.161 2009.01 342.028 1940.02 309.629C1879.78 281.301 1807.17 252.905 1734.25 275.975C1650.97 302.376 1596.54 371.382 1526.29 409.366C1483.83 432.307 1428.5 454.361 1374.57 434.205C1314.54 411.644 1261 450.559 1202.64 438.38C1189.12 435.552 1170.14 432.106 1149.36 427.006C1080.87 410.633 1040.78 387.533 1000.82 342.689C970.697 308.863 946.897 272.225 892.102 262.809C889.44 262.342 886.734 262.023 884.003 261.854C751.73 254.805 654.164 465.088 530.527 426.937C443.572 400.041 384.384 261.241 330.783 198.452C290.261 150.877 239.7 96.5619 170.094 74.8844C126.787 61.4227 70.5847 48.5625 24.2459 49.4935C-74.4262 51.483 -215.382 79.8778 -261.145 167.383M2611.15 570.967C2609.78 525.796 2596 481.777 2570.77 441.999C2550.42 410.401 2516.88 370.164 2476.39 351.826C2453.25 341.324 2430.12 337.663 2408.94 340.568C2344.44 349.402 2287.43 388.633 2223.65 399.168C2203.38 402.652 2182.5 401.43 2163.52 395.652C2084.27 370.406 2014.78 314.478 1945.42 278.591C1887.08 248.351 1814.9 216.638 1741.61 239.308C1656.21 265.683 1601.82 337.734 1535.73 382.696C1497.08 409.006 1439.26 442.361 1382.92 421.732C1321.16 399.036 1262.54 440.898 1201.29 427.66C1187.82 424.828 1169.27 421.153 1149.09 416.2C1083.26 399.263 1046.09 374.561 1007.86 331.064C977.82 296.997 954.296 260.102 899.427 250.38C896.76 249.918 894.054 249.586 891.324 249.386C756.538 241.677 663.182 454.751 537.694 418.076C448.949 392.184 392.582 251.126 339.22 188.239C298.795 140.657 247.341 85.6313 177.048 64.595C133.179 51.491 78.3245 40.712 29.878 40.5216C-73.077 40.0393 -215.474 76.2498 -256.547 162.716M2615.59 558.065C2615.12 511.404 2602.45 465.692 2578.37 423.84C2559.31 391.084 2525.57 349.495 2484.69 330.718C2461.19 319.972 2437.86 316.327 2416.33 319.065C2350.65 327.406 2294.89 367.437 2231.78 380.263C2211.49 384.891 2190.07 383.842 2171.15 377.295C2089.61 347.308 2022.75 286.79 1950.13 247.061C1892.48 215.553 1822.25 181.73 1748.73 203.441C1662.18 228.97 1606.2 301.931 1544.9 353.388C1506.94 385.272 1453.82 426.303 1392.37 406.866C1326.74 386.278 1265.68 431.539 1201.73 417.149C1188.36 414.31 1170.18 410.331 1150.56 405.059C1036.79 374.562 1014.08 257.47 906.512 238.047C903.867 237.566 901.176 237.232 898.459 237.05C760.752 228.519 672.546 443.213 544.683 408.84C455.955 385.017 399.814 240.619 347.347 177.856C307.059 129.52 254.884 74.7087 183.512 54.3449C139.137 41.6723 83.7936 31.5578 35.0723 31.6239C-69.6517 31.7913 -212.965 68.8569 -252.304 157.92M2619.96 545.089C2622.49 496.104 2606.52 450.241 2585.9 406C2569.61 370.95 2534.28 329.176 2492.44 310.124C2471.79 300.204 2447.48 295.868 2422.99 297.737C2355.37 303.341 2300.17 344.265 2237.77 359.184C2217.45 364.49 2195.64 363.583 2176.69 356.643C2093.62 324.785 2027.2 257.509 1954.41 215.643C1898.17 183.28 1829.43 149.025 1755.85 169.334C1668.44 193.446 1611.07 266.909 1554.05 321.972C1518.91 355.819 1466.72 409.128 1401.7 389.976C1333.54 369.785 1273.94 421.498 1203.7 406.75C1189.89 403.946 1172.63 399.737 1153.49 394.271C1042.66 362.444 1019.57 245.422 913.363 225.851C910.701 225.345 907.991 224.987 905.254 224.779C765.061 215.94 681.368 431.055 551.79 399.242C463.478 377.536 406.856 230.205 355.319 167.368C315.122 118.322 261.987 63.8211 189.785 44.1493C144.854 31.912 89.129 22.5706 39.9373 22.9089C-66.8586 23.6329 -210.755 61.4096 -248.174 152.938M2624.44 532.106C2627.9 481.873 2613.02 434.32 2593.25 388.369C2577.91 352.227 2542.61 309.082 2499.62 289.732C2478.55 279.73 2454.13 274.786 2429.18 275.47C2360.01 277.68 2304.27 319.194 2242.41 335.985C2232.4 338.907 2221.82 340.209 2211.31 339.813C2200.8 339.418 2190.57 337.334 2181.25 333.685C2097.35 300.056 2031.96 228.32 1958.54 184.901C1903.32 152.223 1836.71 119.478 1763.09 137.992C1674.36 160.295 1617.51 231.722 1563.2 289.227C1529.66 324.704 1478.74 387.762 1411.17 371.16C1339.87 353.604 1283.81 412.617 1207.95 396.443C1191.29 392.852 1174.91 388.564 1158.88 383.598C1050.99 350.286 1025.71 233.556 920.647 214.167C917.985 213.674 915.277 213.329 912.542 213.135C770.545 203.892 690.401 419.075 559.607 389.9C472.095 370.202 414.406 219.985 363.822 157.385C323.618 107.635 269.439 53.6094 196.507 34.6604C151.267 22.8777 94.6728 14.3486 45.2583 14.9784C-62.9093 16.3984 -207.762 54.5252 -243.418 148.415M2628.86 519.126C2632.46 468.338 2623.01 417.883 2601.1 370.855C2583.72 333.821 2555.95 291.794 2507.33 269.767C2485.55 259.358 2460.71 253.441 2434.98 252.53C2364.45 251.331 2307.38 292.209 2245.94 311.117C2235.95 314.313 2225.29 315.782 2214.68 315.422C2204.08 315.063 2193.78 312.884 2184.49 309.034C2100.25 274.221 2036.58 199.377 1962.88 155.472C1908.32 123.054 1844.36 93.9274 1770.85 110.205C1680.8 130.111 1624.86 196.814 1572.33 255.74C1539.31 292.779 1485.47 365.451 1420.59 350.51C1352.99 334.887 1294.24 403.379 1214.35 386.042C1200.42 383.012 1184.23 378.717 1166.17 373.204C1057.82 339.733 1033 222.028 927.644 202.584C924.982 202.079 922.273 201.721 919.536 201.513C776.05 192.116 698.574 406.812 567.406 379.739C480.986 361.986 421.388 208.834 371.985 146.843C331.988 96.6075 276.559 42.955 202.708 24.8222C153.553 12.6403 102.085 6.54266 50.0615 6.73738C-59.7224 8.87301 -205.064 47.0389 -239.256 143.235M2633.24 506.189C2641.46 417.621 2613.42 298.963 2514.79 249.86C2386.63 185.842 2288.34 324.338 2186.92 283.315C2056.03 230.226 1961.39 56.189 1779.39 87.0459C1691.29 101.91 1634.28 163.265 1584.5 218.961C1550.52 256.859 1502.22 339.095 1429.94 328.38C1380.58 321.071 1360.34 349.856 1319.71 365.536C1269.68 384.9 1224.04 381.006 1174.06 363.505C1071.03 327.692 1037.47 207.794 934.505 191.13C787.877 167.678 713.614 394.234 575.388 369.367C500.476 355.814 460.637 242.321 423.375 191.828C371.238 121.495 310.387 37.5914 208.899 15.4539C73.3445 -14.161 -185.717 -11.3825 -234.63 138.291" stroke="url(#paint0_linear_770_22413)" stroke-width="0.5" stroke-miterlimit="10"/>
<defs>
<linearGradient id="paint0_linear_770_22413" x1="58.6156" y1="140.691" x2="1887.26" y2="677.659" gradientUnits="userSpaceOnUse">
<stop offset="0.683304" stop-color="#FD6721"/>
<stop offset="0.820933" stop-color="#FD6721" stop-opacity="0"/>
</linearGradient>
</defs>
</svg>
