<svg width="1920" height="1581" viewBox="0 0 1920 1581" fill="none" xmlns="http://www.w3.org/2000/svg">
<path opacity="0.2" d="M2165.78 1498.06C2113.64 1548.42 2044.35 1567.79 1979.23 1576.67C1848.07 1594.44 1835.86 1405.72 1739.5 1396.2C1654.28 1387.75 1598.53 1363.99 1553.11 1285.41C1476.69 1153.27 1351.41 1226.76 1273.26 1312.83C1152.64 1445.65 1025.22 1626.24 829.382 1569.37C683.757 1527.05 592.125 1445.39 530.235 1299.74C504.005 1237.97 475.745 1168.01 463.598 1100.74C451.833 1035.68 469.615 935.57 407.181 899.048C276.236 822.406 93.1764 952.206 -45.9825 913.389C-144.822 885.968 -184.312 838.333 -145.104 725.633C-91.6599 572.186 -276.329 531.233 -380.189 508.62C-470.287 488.905 -612.775 541.096 -687.383 471.375M2170.53 1476.92C2118.87 1525.34 2050.24 1544.23 1987.14 1551.53C1914.33 1559.99 1862.48 1491.52 1828.01 1431.78C1804.66 1391.23 1779.72 1354.57 1750.55 1354.05C1659.59 1352.47 1614.85 1325.07 1564.61 1250.66C1550.31 1229.41 1534.71 1211.66 1517.77 1201.09C1432.24 1147.6 1347.73 1214.14 1286.81 1276.18C1221.97 1342.55 1157.77 1432.98 1081.95 1488.82C1000.06 1549.12 923.314 1568.14 828.102 1548.5C769.73 1536.49 703.415 1510.52 660.578 1470.11C608.324 1420.6 569.868 1355.32 536.944 1286.34C530.331 1272.4 524.419 1257.06 518.651 1241.65C495.86 1180.59 480.059 1125.18 472.494 1059.58C465.251 996.857 479.023 925.257 427.702 882.936C425.727 881.265 423.61 879.779 421.376 878.497C289.041 803.275 103.92 937.98 -36.447 901.941C-138.696 875.896 -168.381 826.83 -130.106 714.176C-102.359 632.094 -149.525 584.495 -209.752 553.454C-259.201 528.019 -321.345 513.086 -378.763 501.383C-467.633 483.223 -609.092 530.514 -683.271 465.388M2175.3 1455.16C2123.98 1501.05 2056.1 1517.82 1995.17 1522.65C1921.7 1528.48 1872.19 1450.78 1838.26 1390.28C1814.89 1348.61 1790.16 1312.9 1761.27 1312.24C1673.89 1310.29 1628.85 1286.89 1575.24 1218.55C1562.17 1201.06 1545.56 1186.8 1526.51 1176.72C1438.95 1133.44 1364.96 1181.34 1299.99 1242.32C1230.18 1307.79 1162.24 1395.03 1087.65 1454.06C1007.09 1517.74 924.435 1546.3 826.743 1527.94C770.527 1517.38 706.374 1491.34 665.233 1450.51C615.134 1400.82 575.71 1339.82 543.293 1273.49C536.598 1259.81 530.594 1244.58 524.731 1229.23C499.916 1164.87 489.327 1111.78 484.753 1041.99C480.542 978.129 494.239 905.313 441.292 862.957C439.275 861.299 437.127 859.818 434.868 858.529C300.425 785.056 113.662 925.083 -27.1924 890.726C-132.119 865.165 -150.751 814.946 -115.609 702.568C-89.1545 617.866 -145.98 574.08 -207.461 545.056C-258.401 521.001 -319.952 506.108 -377.636 494.076C-465.632 475.723 -605.164 521.538 -679.169 459.249M2180.07 1433.34C2131.28 1474.13 2061.85 1491.98 2003.42 1491.04C1927.11 1489.87 1882.6 1409.41 1848.49 1348.42C1825 1306.46 1800.28 1272.53 1771.64 1271.79C1695.43 1269.95 1634.99 1248.98 1584.96 1190.05C1570.73 1174.56 1553.32 1162.58 1533.93 1154.94C1447.34 1116.91 1379.17 1153.04 1312.38 1212.32C1240.44 1276.17 1169.91 1358.79 1095.22 1418.55C1012.41 1484.75 925.997 1523.6 826.698 1507.14C768.719 1497.18 715.109 1470.66 671.783 1430.5C621.713 1382.25 580.543 1324.89 550.159 1261.05C543.549 1247.16 537.326 1232.36 531.224 1217.13C503.957 1148.9 500.001 1098.02 498.424 1024.14C497.065 959.425 509.621 885.658 454.833 843.8C452.791 842.155 450.628 840.676 448.36 839.376C311.728 767.917 123.086 912.627 -17.3752 879.861C-123.328 855.222 -131.872 802.574 -100.833 691.491C-76.6372 604.476 -143.057 564.749 -205.415 537.5C-257.594 514.899 -318.58 499.591 -376.233 487.25C-463.362 468.602 -600.703 513.22 -674.595 453.571M2184.89 1410.86C2136.12 1447.82 2067.4 1461.26 2011.75 1456.77C1936.32 1450.72 1893.44 1367.13 1858.5 1306.17C1834.85 1264.84 1810.04 1233.42 1781.54 1232.62C1707.61 1230.95 1648.57 1213.6 1593.6 1164.78C1577.33 1151.44 1559.02 1140.94 1539.37 1133.67C1453.62 1099.74 1388.15 1126.15 1321.9 1183.9C1251.12 1245.64 1177.85 1322.99 1103.95 1381.94C1018.68 1449.83 922.992 1501.88 827.883 1484.73C772.441 1474.01 721.153 1448.42 679.021 1410.47C629.114 1364.53 587.691 1309.53 556.642 1247.98C549.947 1234.3 543.73 1219.6 537.365 1204.1C508.51 1134.86 508.211 1081.81 512.471 1005.19C515.854 944.768 522.929 861.884 467.519 824.324C465.366 822.724 463.123 821.256 460.802 819.926C322.084 750.571 132.171 899.441 -7.91329 868.013C-113.963 844.2 -113.119 788.941 -86.7037 679.513C-65.3489 591.111 -141.811 554.574 -204.194 529.316C-257.286 507.882 -317.675 492.664 -375.448 479.979C-461.709 461.036 -596.71 504.492 -670.496 447.381M2189.68 1388.64C2140.81 1421.63 2073.03 1429.52 2020.18 1421.62C1946.33 1410.16 1904.79 1325.82 1868.34 1265.17C1844.45 1225.44 1819.24 1197.27 1791.01 1196.75C1719.63 1195.84 1659.14 1184.61 1600.41 1142.65C1582.78 1130.76 1563.69 1121.27 1543.61 1114.42C1459.32 1083.49 1395.45 1101.42 1329.68 1157.44C1260.26 1216.49 1187.64 1289.08 1114.42 1346.43C1026.79 1415.08 926.941 1476.38 831.786 1461.68C783.983 1454.28 729.612 1428.03 686.541 1391.84C635.624 1349.03 593.727 1295.87 563.255 1235.41C556.467 1221.84 550.228 1206.79 543.586 1191.57C496.959 1086.15 587.705 873.992 479.646 806.181C477.346 804.789 474.985 803.2 472.635 801.813C331.571 733.519 146.286 888.026 2.91172 855.92C-105.78 831.568 -93.9616 775.469 -72.8456 667.92C-55.5686 579.638 -141.563 545.778 -203.785 522.339C-259.638 502.215 -316.815 485.902 -374.96 473.503C-460.31 454.159 -592.768 496.534 -666.451 441.911M2194.44 1366.68C2145.3 1395.31 2078.76 1396.95 2028.64 1385.41C1956.65 1368.85 1916.64 1285.52 1877.95 1226.08C1853.66 1188.74 1828.11 1164.53 1799.91 1164.47C1730.99 1164.26 1665.33 1158.67 1605.91 1122.34C1587.1 1111.78 1567.34 1103.05 1546.88 1096.28C1464.91 1066.28 1400.04 1079.98 1335.59 1131.78C1268.42 1185.75 1197.92 1256.95 1126.09 1312.02C1045.38 1373.93 934.624 1455.6 838.435 1436.87C790.218 1427.52 736.802 1407.24 694.26 1374.05C642.604 1333.75 600.118 1282.25 569.576 1222.92C562.694 1209.42 556.464 1193.7 549.566 1179.12C499.132 1072.61 612.629 859.052 490.702 789.016C488.356 787.68 485.851 786.157 483.37 785.039C339.315 719.351 160.801 857.447 13.9269 844.522C-99.6448 834.497 -71.3245 738.485 -59.8369 656.926C-47.1393 568.611 -141.837 537.291 -203.783 515.149C-259.714 495.897 -316.678 479.714 -374.444 466.667C-459.033 446.887 -588.75 488.211 -662.33 436.076M2199.22 1345.07C2145.84 1368.69 2086.41 1361.94 2037.06 1349.39C1969.79 1331.94 1929.1 1247 1887.24 1189.62C1862.46 1155.64 1836.46 1136.18 1808.14 1136.68C1738.91 1137.74 1672.11 1136.75 1610.3 1104.04C1590.69 1094.45 1570.46 1086.23 1549.73 1079.41C1469.71 1050.64 1404.46 1057.34 1340.42 1106.96C1275.43 1157.23 1207.38 1226.59 1138.26 1279.29C1056.95 1341.06 946.149 1424.41 848.066 1410.93C799.219 1404.15 745.307 1388.61 702.03 1357.08C649.776 1318.84 606.751 1268.74 576.042 1210.37C569.016 1196.93 562.581 1181.89 555.591 1166.61C505.741 1057.59 633.212 841.557 500.939 772.957C498.498 771.682 495.846 770.174 493.268 769.066C347.022 706.973 172.121 843.008 25.2906 833.189C-88.3796 825.571 -53.7439 723.393 -47.2811 645.774C-39.984 558.483 -141.833 529.336 -204.258 508.213C-258.741 489.779 -317.012 473.78 -374.016 459.994C-457.848 439.727 -584.426 480.06 -658.248 430.398M2203.92 1323.78C2150.35 1342.01 2092.66 1329.83 2045.56 1313.89C1979.97 1291.66 1942.61 1210.61 1896.33 1156.6C1870.89 1126.87 1844.81 1113.38 1816.32 1114.36C1746.83 1116.82 1677.46 1117.23 1614.15 1087.32C1593.93 1077.94 1573.11 1069.9 1551.84 1063.23C1471.53 1037.8 1411.25 1032.41 1343.68 1082.35C1280.64 1128.95 1214.91 1196.84 1148.44 1247.78C1066.12 1310.83 958.176 1391.8 858.869 1385.64C809.46 1382.53 754.613 1371.02 710.206 1340.32C657.202 1303.97 613.483 1255.04 582.479 1197.36C574.694 1183.25 567.718 1168.65 561.588 1153.65C520.644 1047.78 649.557 822.362 510.14 757.669C507.507 756.465 504.761 755.018 502.039 753.976C354.421 696.003 182.532 828.971 36.8987 821.831C-75.5069 816.375 -36.943 707.618 -35.5197 634.502C-33.9182 549.844 -141.733 522.136 -205.108 501.571C-259.694 483.861 -317.111 467.365 -373.586 453.371C-456.816 432.481 -580.436 472.097 -654.111 424.817M2208.58 1303.45C2154.75 1315.75 2099.42 1298.78 2053.86 1279.88C1990.23 1253.42 1957.07 1176.62 1905.08 1128.3C1878.72 1103.72 1852.84 1095.82 1823.97 1096.94C1753.76 1099.73 1682.16 1100.88 1617.48 1072.6C1597.6 1063.91 1575.35 1055.83 1553.99 1048.62C1475.56 1022.49 1413.17 1012.33 1346.37 1058.76C1285.01 1101.57 1221.06 1168.72 1157.34 1218.05C1069.15 1286.45 968.312 1356.42 869.973 1362.04C822.251 1364.78 764.526 1354.48 718.499 1324.66C664.737 1289.91 620.272 1241.93 588.843 1184.76C580.389 1170.81 573.694 1155.75 568.917 1139.93C541.738 1030.59 664.453 803.624 517.891 743.603C515.163 742.46 512.279 741.18 509.512 740.194C359.99 688.895 193.331 815.657 48.4338 810.889C-62.9277 807.21 -20.922 691.975 -25.0001 623.054C-29.8835 543.406 -141.896 514.658 -206.417 494.671C-261.104 477.737 -317.411 460.87 -373.278 446.354C-455.903 424.89 -576.217 463.856 -650.079 419.144M2213.27 1283.74C2159.53 1290.17 2106.34 1268.84 2062.21 1247.39C2002.03 1217.98 1971.15 1143.85 1913.81 1105.26C1889.58 1088.88 1860.65 1081.18 1831.25 1083.28C1760.2 1085.95 1686.53 1086.96 1620.75 1059.35C1600.54 1050.81 1578.03 1042.55 1556.5 1034.9C1479.64 1007.23 1415.34 992.418 1348.74 1035.57C1288.71 1074.42 1226.44 1140.83 1165.08 1189.3C1077.89 1258 979.591 1327.66 881.331 1339.39C832.463 1345.1 774.788 1338.83 726.927 1309.61C672.313 1276.29 627.008 1229.11 595.067 1172.28C586.842 1158.06 581.239 1142.29 578.532 1125.77C562.846 1015.23 680.257 784.434 524.874 732.268C522.058 731.287 519.036 730.175 516.079 729.31C364.745 684.574 204.235 803.251 59.9791 800.914C-50.2831 799.109 -6.59541 678.395 -15.5493 612.634C-26.2999 535.231 -142.269 508.578 -207.866 488.703C-262.28 472.2 -317.887 455.515 -372.774 440.131C-458.208 416.207 -567.778 456.194 -646.028 413.775M2217.88 1264.9C2164.55 1265.37 2113.38 1240.78 2070.29 1217.13C2014.52 1186.49 1980.44 1116.26 1922.2 1087.2C1895.65 1073.91 1867.93 1071.4 1838.26 1072.35C1766.25 1074.77 1690.75 1074.69 1624.03 1046.93C1603.37 1038.27 1580.93 1029.65 1559.25 1021.2C1494.21 995.968 1417.04 964.656 1350.99 1012.03C1289.22 1056.26 1230.91 1112.67 1171.68 1160.51C1085.72 1229.9 990.181 1299.68 892.529 1316.5C842.755 1325.11 784.625 1322.66 735.796 1293.69C681.048 1261.31 631.105 1215.79 601.941 1158.36C595.028 1143.19 591.183 1126.61 590.635 1109.62C584.07 998.533 693.213 765.338 530.74 721.968C527.737 721.159 524.572 720.113 521.475 719.365C369.521 681.374 214.419 791.123 71.54 790.376C-36.7767 789.797 7.51627 662.901 -6.99108 601.288C-24.3415 527.021 -141.529 502.178 -209.614 481.849C-263.514 465.7 -318.113 448.603 -372.135 432.875C-456.974 408.226 -563.423 447.734 -641.915 407.788M2222.39 1247C2169.88 1242.28 2120.55 1214.84 2078.29 1189.42C2026.42 1158.27 1988.88 1095.8 1930.31 1073.41C1902.89 1062.91 1875.27 1063.49 1845.19 1064.19C1772.15 1065.84 1694.85 1064.57 1627.65 1035.43C1606.77 1026.44 1584.35 1017.21 1562.62 1007.95C1497.87 980.238 1421.01 945.936 1353.73 988.597C1292.14 1027.66 1234.95 1084.56 1177.51 1132.01C1092.82 1202.04 1000.26 1272.22 903.597 1293.93C853.59 1305.16 794.568 1306.63 744.679 1278.03C690.455 1246.97 633.932 1202.49 611.176 1143.63C605.97 1130.15 604.527 1111.43 604.598 1093.32C605.05 977.886 706.009 750.898 535.301 713.69C532.21 713.044 528.905 712.114 525.664 711.433C374.397 679.845 223.786 780.152 82.8037 780.635C-23.5831 781.027 20.4676 646.966 0.655237 590.344C-23.8323 520.084 -139.624 497.135 -211.437 475.41C-264.845 459.261 -318.218 442.088 -371.436 425.816C-455.891 400.209 -559.011 439.421 -637.886 402.065M2226.86 1230.06C2175.49 1220.58 2127.34 1191.49 2086.08 1164.69C2038.52 1133.96 1995.82 1079.83 1938.28 1063.7C1910.44 1055.85 1882.53 1057.54 1852.14 1057.85C1778.36 1058.67 1699.14 1055.1 1631.75 1024.4C1610.79 1014.81 1588.42 1004.8 1566.82 994.562C1502.24 963.925 1426.63 926.789 1357.46 965.059C1295.57 999.255 1238.95 1056 1182.84 1103.31C1099.36 1173.77 1009.91 1244.95 914.448 1271.02C864.783 1284.62 803.95 1290.25 753.639 1262C701.239 1232.59 638.84 1191.02 623.197 1127.74C619.901 1110.8 618.965 1093.37 620.416 1075.97C626.625 954.066 717.483 738.942 538.741 707.162C535.506 706.582 532.109 705.763 528.776 705.193C379.549 679.563 232.242 770.346 93.7732 771.689C-10.6567 772.692 31.7441 633.399 6.59176 580.393C-25.2937 513.098 -138.904 492.012 -213.439 469.245C-265.85 453.298 -318.318 435.622 -370.504 419.345C-454.62 392.836 -554.509 431.762 -633.858 397.107M2231.26 1214.3C2181.21 1200.71 2135.55 1170.49 2093.62 1143.2C2047.47 1113.04 2002.45 1068.28 1946.12 1056.61C1917.85 1050.79 1889.86 1052.64 1859.29 1052.57C1784.62 1052.4 1703.84 1046.55 1636.53 1013.29C1615.52 1002.89 1593.29 992.005 1571.88 980.676C1507.87 946.562 1434.47 906.952 1362.74 941.307C1299.67 971.344 1243.47 1026.87 1188.24 1074.19C1105.61 1145.02 1019.25 1217.56 925.219 1247.62C876.271 1263.28 813.247 1273.32 762.664 1245.46C711.054 1216.88 646.959 1178.95 637.718 1110.93C635.968 1093.39 636.018 1075.65 637.868 1057.98C648.624 928.366 725.934 728.271 541.18 701.197C537.902 700.723 534.365 700.021 530.989 699.557C384.64 679.133 239.926 760.825 104.588 762.657C2.04467 763.923 42.2229 621.292 11.2065 570.58C-28.5178 505.48 -138.72 486.18 -215.332 462.457C-266.609 446.544 -318.026 428.351 -369.252 411.668C-453.125 384.318 -549.875 423.069 -629.796 391.125M2235.58 1199.63C2187.55 1182.86 2143.18 1152.87 2100.91 1126.48C2054.86 1097.79 2009.38 1060.16 1953.86 1051.32C1925.24 1046.91 1897.36 1048.14 1866.64 1047.93C1791.21 1046.72 1708.9 1038.48 1642.34 1002.03C1621.46 990.646 1599.37 978.776 1578.33 966.235C1515.09 928.625 1445.48 886.631 1370.08 917.188C1304.7 943.386 1248.51 996.771 1193.53 1044.12C1111.79 1114.85 1027.96 1189.33 935.332 1223.11C887.187 1240.62 822.168 1255.06 771.574 1227.8C719.232 1199.35 659.459 1163.68 654.621 1092.8C653.951 1075.07 654.669 1057.26 656.77 1039.54C670.816 901.779 731.54 718.558 542.695 696.194C539.273 695.787 535.693 695.191 532.275 694.834C389.709 679.114 246.735 752.262 114.897 754.188C13.9405 755.645 51.9831 611.095 14.4996 561.67C-33.6536 498.775 -138.903 480.794 -217.065 455.856C-267.26 439.932 -317.63 421.171 -367.884 404.285C-451.61 376.103 -545.27 414.685 -625.901 385.619M2239.89 1185.56C2193.64 1166.63 2150.36 1138.25 2108 1112.89C2062.28 1085.54 2015.82 1054.34 1961.55 1046.59C1932.85 1042.55 1905.07 1043 1874.25 1042.03C1798.17 1039.77 1714.48 1029.13 1648.63 989.086C1628.18 976.535 1606.11 963.489 1585.49 949.783C1516.57 903.892 1457.38 877.689 1380.61 893.909C1315.99 907.636 1254.7 965.99 1200.24 1013.03C1119.51 1082.64 1037.29 1160.1 945.78 1197.64C898.337 1216.97 831.578 1234.34 780.766 1209.15C729.091 1183.54 675.029 1142.27 673.44 1074.62C673.548 1056.73 674.751 1038.82 677.044 1021.01C692.721 875.324 733.723 710.019 543.43 692.14C539.964 691.788 536.39 691.294 532.877 690.998C394.356 679.445 252.97 744.779 124.859 746.469C25.2223 747.788 61.8575 601.958 16.7019 553.435C-39.568 493.019 -139.431 475.393 -218.747 449.301C-267.49 432.971 -316.741 413.991 -365.644 396.657C-449.325 367.604 -540.182 406.148 -621.614 380.073M2244.17 1171.96C2199.58 1151.93 2157.61 1124.9 2114.98 1101.41C2069.8 1076.55 2021 1048.9 1969.23 1041.76C1940.88 1037.83 1912.93 1036.36 1882.14 1035.04C1805.5 1031.82 1720.7 1018.99 1656.2 975.192C1635.66 961.375 1613.76 946.935 1594.5 932.22C1532.57 885.448 1467.79 866.048 1396.24 875.145C1327.87 883.859 1263.67 934.053 1208.3 980.622C1128.07 1048.14 1049.3 1123.26 956.492 1170.06C907.083 1195.05 842.484 1213.93 790.271 1188.37C738.058 1162.82 694.598 1118.66 694.63 1054.97C694.652 1040.08 696.761 1020.68 698.741 1001.61C714.525 848.829 732.908 701.538 543.955 687.853C540.446 687.608 536.777 687.175 533.271 686.98C399.039 678.753 259.165 737.453 134.82 738.75C36.0453 739.673 72.1449 593.134 18.5069 545.139C-46.1671 487.333 -139.329 469.825 -219.631 442.102C-267.351 425.614 -315.006 406.161 -362.977 388.782C-446.76 358.872 -535.009 397.399 -617.327 374.527M2248.36 1159.13C2205.33 1138.13 2163.91 1112.82 2121.89 1091.35C2076.17 1068.13 2027.78 1044.73 1977.03 1035.85C1948.42 1030.65 1919.49 1027.2 1890.37 1025.51C1813.32 1021.26 1727.53 1006.81 1664.8 958.896C1645.1 943.563 1623.74 929.883 1605.58 917.093C1545.92 874.316 1484.86 856.262 1415.37 860.452C1345.89 864.643 1276.91 907.685 1219.66 950.015C1137.34 1010.61 1058.62 1091.44 967.078 1141.22C919.879 1166.95 851.02 1193.41 802.48 1165.94C756.601 1140.13 716.335 1095.89 716.859 1035.41C716.995 1020.77 719.061 1001.48 720.662 982.65C726.38 915.358 751.343 831.22 717.418 769.186C684.687 708.966 606.06 687.697 543.148 684.317C539.641 684.122 535.881 683.801 532.43 683.702C404.558 680.471 266.458 729.554 143.547 731.771C57.9022 733.313 59.557 578.079 18.7682 537.362C-37.3875 481.216 -138.952 463.921 -220.861 434.887C-267.902 418.227 -313.455 397.739 -360.325 380.653C-444.305 349.948 -530.341 388.448 -613.576 369.087M2252.57 1146.76C2211.06 1125.6 2171.04 1101.52 2128.71 1082.13C2082.01 1060.69 2034.39 1040.11 1984.88 1028.09C1956.75 1020.36 1927.96 1015.11 1898.81 1012.39C1820.53 1007.2 1737.55 988.783 1674.67 941.702C1655.99 927.691 1635.52 916.417 1618.27 904.806C1565.15 868.485 1503.16 844.002 1437.44 847.952C1364.73 852.428 1297.49 884.378 1237.95 922.408C1152.03 977.263 1067.19 1063.31 978.73 1109.72C937.584 1131.4 864.917 1167.99 821.457 1140.71C780.864 1115.22 740.567 1073.68 740.531 1015.3C740.541 1001.02 742.277 981.976 743.354 963.405C747.207 896.206 765.766 815.999 725.819 757.704C687.143 701.673 605.96 682.863 542.719 680.538C539.167 680.399 535.459 680.123 531.962 680.08C408.268 679.167 271.83 724.047 152.589 725.117C108.068 725.479 93.6579 697.561 78.2446 662.915C54.9026 610.536 62.6573 569.24 19.2804 529.66C-40.2575 475.346 -139.032 457.811 -220.789 427.231C-266.476 410.174 -310.535 389.174 -356.137 371.904C-440.148 339.877 -524.945 379.319 -609.048 363.465M2256.7 1134.7C2256.7 1134.7 2222.24 1111.22 2135.53 1073.05C2090.01 1052.97 2040.45 1033.82 1992.91 1017.82C1964.61 1008.28 1937.06 996.471 1907.46 994.511C1830.61 989.374 1750.96 970.558 1685.98 927.877C1667.72 915.912 1648.6 905.823 1632.6 895.407C1581.33 861.902 1523.64 836.919 1460.81 838.12C1388.94 839.449 1321.93 864.848 1261.09 898.424C1172.59 947.278 1085.04 1027.85 996.96 1076.3C958.867 1097.2 885.834 1138.27 846.625 1112.89C809.066 1088.72 766.936 1051.81 765.562 994.894C765.21 981.113 766.42 962.324 766.69 944.245C769.171 780.817 713.592 680.302 541.835 676.551C538.24 676.518 534.535 676.293 531.041 676.3C411.406 677.361 276.85 719.24 160.916 718.843C115.924 718.744 103.212 689.629 86.9247 655.177C61.6955 601.72 65.676 561.481 19.0527 521.933C-42.6782 469.582 -139.665 450.687 -220.234 419.423C-264.356 402.203 -307.615 379.793 -351.676 362.77C-434.66 330.636 -519.88 369.612 -604.801 358.076M2260.86 1123C2260.86 1123 2228.77 1098.92 2142.36 1063.98C2095.43 1045.06 2047.25 1025.92 2000.91 1004.65C1972.69 991.581 1945.43 974.743 1916.17 972.697C1842.02 967.482 1763.16 956.129 1698.2 917.628C1680.68 907.218 1662.55 898.146 1647.2 888.632C1598.04 857.558 1544.71 831.355 1484.78 830.112C1414.76 828.699 1348.71 848.847 1287.73 877.798C1197.77 920.532 1108.38 992.577 1021.51 1043.25C986.062 1063.93 916.405 1108.67 875.467 1083.98C826.49 1054.21 802.315 1031.6 790.044 975.156C787.428 962.988 789.536 943.595 788.804 926.029C782.608 763.965 703.752 673.935 540.156 672.443C536.561 672.41 532.862 672.286 529.42 672.339C413.583 675.145 281.034 715.234 168.152 713.244C122.722 712.426 111.513 682.135 94.4529 647.916C67.349 593.583 67.2462 554.178 17.9696 514.703C-45.3309 464.046 -140.204 443.503 -219.704 411.209C-262.61 393.76 -304.052 369.682 -347.589 353.166C-431.227 321.61 -515.476 359.566 -600.955 352.576M2265.01 1111.3C2265.01 1111.3 2235.2 1086.67 2148.99 1054.16C2100.47 1036.47 2053.74 1014.21 2009.37 987.652C1981.42 970.172 1954.75 955.057 1925.48 953.573C1850.97 949.721 1778.66 944.722 1711.12 909.344C1693.99 900.373 1676.3 892.071 1662.41 883.017C1613.1 851.091 1564.48 829.446 1508.98 822.54C1446.67 814.509 1376.84 834.797 1316.67 859.329C1227.07 895.855 1137.83 960.796 1051.67 1010.12C1017.57 1029.59 947.996 1075.65 908.408 1052.91C872.702 1032.46 822.174 1004.69 816.032 954.292C814.47 941.657 813.728 923.938 811.85 906.951C794.241 749.8 694.345 667.421 538.831 667.686C535.288 667.699 531.638 667.57 528.202 667.724C415.708 672.068 285.931 711.613 175.3 707.807C129.429 706.219 119.619 674.66 101.776 640.523C72.7515 585.371 68.6115 546.744 16.9657 507.159C-47.1925 457.764 -139.986 435.832 -217.634 402.427C-259.29 384.49 -299.339 359.043 -342.775 343.383C-427.534 312.811 -510.698 349.991 -596.555 347.272M2269.16 1099.5C2269.16 1099.5 2240.39 1074.1 2156.16 1043.37C2105.81 1024.91 2061.67 997.849 2018.28 966.836C1994.28 948.836 1965.3 939.055 1935.2 938.791C1862.43 937.512 1791.3 935.856 1724.65 903.599C1708.63 896.297 1693.04 888.067 1677.96 878.947C1630.64 848.19 1585.51 824.09 1532.57 814.877C1473.77 804.644 1404.81 822.19 1346.61 842.642C1257.76 873.837 1169.94 931.441 1084.76 978.265C1051.44 996.732 982.247 1042.65 943.123 1021.85C906.491 1002.37 852.259 984.829 841.522 934.143C838.909 922.025 837.141 905.23 833.836 889.054C802.522 737.157 689.023 660.888 537.66 662.25C534.121 662.314 530.522 662.23 527.139 662.43C417.437 668.165 290.813 708.554 181.928 702.731C135.51 700.231 127.193 667.343 108.509 633.14C77.968 577.331 68.7136 538.779 15.8607 499.575C-48.6476 451.695 -140.195 428.409 -214.659 393.142C-254.501 374.302 -295.082 348.197 -337.934 333.241C-422.982 303.566 -506.428 340.164 -592.54 342.111M2273.35 1087.48C2273.35 1087.48 2245.57 1061.57 2163.14 1031.17C2113.33 1012.75 2069.13 975.043 2027.49 946.907C2002.59 930.128 1974.32 925.736 1945.41 926.253C1873.97 927.436 1804.14 928.551 1738.33 898.654C1722.55 892.021 1707.27 884.244 1692.6 875.379C1647.69 846.004 1603.18 819.34 1554.01 806.47C1498.97 791.817 1431.84 810.344 1375.08 827.076C1287.38 852.9 1202.72 905.687 1119.44 947.469C1084.49 964.985 1016.63 1007.71 978.562 990.569C940.499 973.43 883.075 964.838 866.285 914.172C862.425 902.592 859.436 886.74 854.544 871.188C809.997 729.035 682.334 653.734 536.74 656.074C533.25 656.133 529.755 656.14 526.368 656.29C414.975 660.926 297.41 706.183 187.931 697.872C141.003 694.304 134.122 659.941 114.598 625.673C82.5059 569.464 68.0604 530.536 14.6393 491.697C-49.654 444.916 -138.714 420.453 -210.701 383.041C-249.391 362.909 -290.603 336.971 -333.221 322.602C-418.657 293.834 -502.632 329.825 -588.733 336.768M2277.52 1075.22C2277.52 1075.22 2251.3 1049.09 2170.26 1017.32C2121.19 997.963 2080.87 953.728 2036.93 929.809C2012.13 916.284 1984.4 914.333 1955.6 915.859C1885.14 919.488 1816.51 923.181 1751.38 894.793C1735.95 888.51 1721.11 880.864 1707.01 871.939C1663.51 842.314 1621.34 812.907 1573.68 796.565C1522.8 779.132 1454.08 798.183 1402 811.674C1318.08 833.33 1235.35 880.051 1154.85 918.126C1119.31 934.938 1052.94 975.517 1014.37 959.706C973.477 942.964 914.517 944.629 890.63 894.601C885.484 883.716 881.079 868.879 874.416 854.124C815.314 723.432 677.927 646.086 536.205 648.941L526.034 649.237C416.024 654.749 302.703 704.203 193.71 693.394C148.004 688.882 138.585 653.254 120.2 618.306C89.6863 559.741 66.4014 521.939 13.5159 483.809C-50.1284 437.98 -135.335 412.146 -205.582 372.615C-243.913 351.119 -285.631 325.744 -328.267 311.887C-413.644 284.082 -499.081 319.511 -584.816 331.617M2281.76 1062.59C2281.76 1062.59 2256.28 1037.87 2177.52 1001.57C2129.09 979.189 2095.67 934.185 2046.63 914.723C2020.7 904.426 1994.49 903.898 1965.95 906.468C1896.63 912.629 1828.5 918.769 1764.05 891.126C1748.74 884.956 1734.11 877.226 1720.36 868.048C1677.57 837.278 1636.57 804.333 1590.16 784.342C1542.29 763.841 1474.71 782.162 1425.36 795.367C1346.54 816.644 1266.63 855.575 1189.02 890.137C1152.55 906.332 1086.51 944.939 1048.7 929.609C1004.53 911.578 946.166 926.183 913.435 875.599C906.91 865.521 900.896 851.718 892.32 837.876C818.963 719.533 676.434 637.777 536.267 641.133C532.923 641.176 529.475 641.127 526.443 641.444C422.724 650.837 307.718 705.719 199.12 689.311C150.884 682.055 145.726 646.9 125.349 609.968C92.8698 551.454 66.121 513.351 13.0709 475.748C-50.3187 430.861 -130.386 402.961 -199.32 361.56C-237.744 338.544 -279.883 314.335 -322.733 301.01C-408.341 274.248 -495.307 308.817 -580.401 326.568M2285.98 1049.5C2285.98 1049.5 2256.88 1026.08 2184.83 983.572C2143.99 959.686 2104.48 914.909 2056.7 900.62C2030.53 892.846 2004.78 893.493 1976.5 897.056C1908.12 905.618 1840.09 914.347 1776.18 886.749C1760.74 880.698 1746.11 872.742 1732.6 863.048C1689.29 829.324 1651.1 790.885 1603.29 768.899C1556.54 747.313 1493.81 762.985 1444.3 776.717C1370.3 797.236 1294.36 832.643 1220.65 863.381C1183.17 879.02 1120.09 914.665 1081.01 900.284C1033.03 882.803 974.512 903.645 934.552 857.181C926.595 847.813 919.078 835.187 908.247 822.294C819.618 716.558 679.118 628.574 537.01 631.571C533.767 631.654 530.367 631.601 527.188 631.933C424.458 642.192 311.951 704.105 203.619 684.814C155.696 676.25 150.53 639.362 129.163 602.329C95.4181 544.05 65.1559 504.834 11.9894 466.937C-50.2444 422.44 -128.038 390.682 -193.713 349.451C-231.077 326.069 -276.361 298.721 -317.935 289.342C-404.175 269.938 -486.632 296.184 -576.854 320.996M2290.26 1035.9C2290.26 1035.9 2261.27 1011.8 2192.33 963.77C2156.64 938.888 2112.44 897.813 2066.28 887.535C2040 881.966 2014.57 883.089 1986.5 887.548C1918.84 898.278 1850.55 909.891 1787.01 881.847C1771.48 875.539 1756.88 867.12 1743.59 856.803C1699.49 819.847 1660.84 776.305 1612.46 749.841C1566.32 724.622 1507.72 739.505 1457.82 754.808C1388.84 776.028 1317.79 810.21 1248.61 837.824C1210.17 853.053 1150.58 885.428 1110.2 872.202C1058.27 855.236 1000.16 881.236 953.458 839.605C944.083 831.201 934.662 819.64 921.631 807.793C818.989 714.329 683.723 620.19 538.642 621.254C535.493 621.276 532.299 621.354 529.208 621.524C420.22 628.459 320.098 704.53 207.983 680.534C161.856 670.763 152.523 632.526 132.882 594.751C101.851 534.965 63.2975 495.391 11.29 457.934C-49.6869 413.867 -123.193 377.378 -187.828 337.058C-225.289 313.687 -271.112 286.395 -312.943 277.654C-399.603 259.416 -483.852 284.523 -573.102 315.557M2294.66 1021.73C2294.66 1021.73 2269.03 991.41 2200.09 941.952C2165.76 917.337 2120.75 881.699 2076.29 874.152C2050.03 870.163 2023.13 871.002 1996.8 876.632C1929.51 889.262 1860.66 903.89 1797.22 874.969C1781.35 868.224 1766.57 859.159 1753.29 848.04C1708.7 808.789 1671.85 756.8 1616.42 731.886C1565.82 709.275 1514.26 714.45 1465.61 729.316C1403.23 748.317 1337.09 787.75 1271.7 813.03C1232.81 828.102 1176.84 857.703 1135.43 845.451C1079.69 828.984 1022.29 859.346 969.615 822.979C958.875 815.584 947.487 805.657 931.965 794.121C822.564 713.243 685.307 609.929 541.347 610.008C538.297 610.021 535.2 610.089 532.259 610.294C422.978 617.259 324.984 703.969 212.276 676.721C166.265 665.612 157.045 625.221 136.612 587.376C104.563 527.849 63.377 487.071 11.7235 448.966C-47.6636 405.14 -116.577 363.278 -181.07 324.472C-219.347 301.441 -265.118 274.194 -307.146 266.24C-394.12 249.309 -480.798 273.344 -568.681 310.609M2298.68 1007.03C2298.68 1007.03 2274.47 967.794 2207.48 921.193C2173.91 897.874 2128.65 866.037 2085.62 860.176C2059.33 856.791 2032.52 858.071 2006.31 863.963C1939.05 878.017 1869.18 895.862 1805.77 865.918C1789.39 858.699 1774.26 848.877 1760.91 836.791C1716.39 793.71 1677.86 741.692 1618.6 716.872C1568.6 695.982 1517.64 696.557 1468.6 708.353C1409.28 722.598 1347.76 762.671 1288.74 788.307C1252.79 803.99 1195.89 830.526 1155.76 819.722C1096.61 803.866 1039.98 837.971 982.723 807.181C970.611 800.695 956.231 790.926 939.123 780.014C826.454 708.452 685.908 598.852 545.309 596.746C542.401 596.692 539.403 596.75 536.557 596.894C426.92 603.693 329.734 703.575 216.341 672.37C170.851 660.137 160.908 617.577 139.781 579.652C106.616 520.395 63.6315 478.376 12.1728 439.435C-45.2238 395.962 -110.652 348.331 -174.541 311.349C-213.631 288.709 -259.395 261.564 -301.744 253.999C-388.931 238.417 -478.467 261.577 -564.642 305.037M2303.26 991.714C2303.26 991.714 2285.01 944.515 2215.47 901.391C2175.92 876.81 2140.77 851.056 2095.61 844.958C2069.35 841.399 2042.53 842.679 2016.35 848.74C1949.01 863.822 1877.75 884.77 1814.13 853.777C1796.99 846.107 1781.35 835.39 1767.89 822.092C1725.41 777.115 1680.37 726.438 1619.69 704.011C1571.45 685.963 1518.93 681.965 1467.68 692.438C1413.14 704.4 1354.74 737.773 1298.78 763.447C1252.54 784.64 1207.11 805.543 1170.46 795.396C1112.13 779.25 1047.61 810.711 991.635 791.974C978.571 787.626 962.441 776.613 943.995 766.351C830.047 702.825 686.931 587.426 550.572 583.041C547.75 582.775 545.087 582.695 542.147 582.9C431.779 589.01 334.314 703.607 219.74 668.395C174.841 654.57 164.419 609.817 142.745 571.797C108.951 512.706 64.3172 469.483 13.1418 429.543C-42.5858 385.999 -105.515 333.365 -167.89 297.806C-206.955 275.571 -253.688 248.68 -296.195 241.744C-383.543 227.555 -476.692 250.378 -560.594 299.618M2307.64 975.755C2307.64 975.755 2290.66 923.63 2223.16 882.233C2185 858.781 2150.32 835.017 2104.92 828.281C2078.73 824.125 2051.84 825.011 2025.6 830.898C1958.21 846.087 1884.36 869.853 1820.99 838.07C1803.58 829.601 1787.8 818.036 1774.35 803.877C1731.11 756.939 1682.23 711.865 1620.31 692.474C1570.09 676.359 1516.6 672.337 1463.81 680.706C1412.15 689.819 1354.96 716.487 1302.98 740.369C1259.89 760.161 1220.14 782.054 1178.45 772.432C1117.89 758.355 1055.04 792.906 997.739 776.754C983.979 773.091 966.593 762.463 947.047 752.724C832.261 695.608 689.272 575.861 557.349 567.547C554.631 567.371 551.818 567.257 549.116 567.335C437.068 570.918 339.627 703.563 223.256 663.949C178.922 648.893 167.767 601.82 145.549 563.753C111.07 504.735 65.3806 460.347 14.6322 419.343C-39.7999 375.255 -99.5015 319.072 -161.001 284.136C-200.06 262.002 -247.643 235.709 -290.452 229.468C-382.54 216.996 -477.089 240.021 -556.397 294.234M2312.09 959.229C2312.09 959.229 2296.48 903.698 2231.26 863.388C2194.42 840.614 2160.14 817.778 2114.46 809.593C2088.37 804.334 2061.37 804.381 2034.93 809.732C1967.99 824.211 1891.58 850.184 1828.73 818.141C1811.5 809.825 1795.67 798.806 1781.79 785.459C1735.97 739.86 1684.47 697.813 1620.93 680.936C1568.06 666.941 1512.73 663.73 1457.93 671.479C1407.94 678.989 1352.45 698.8 1302.77 720.046C1261.95 737.511 1225.97 759.877 1181.32 750.257C1121.13 737.366 1058.13 774.278 1001.5 761.014C987.22 757.711 968.845 747.798 948.299 738.622C871.638 704.451 796.758 663.211 722.417 623.547C673.722 597.574 620.967 555.147 564.498 550.892C561.826 550.661 559.014 550.546 556.308 550.574C442.942 553.529 344.163 702.886 226.713 659.306C183.249 643.189 171.012 593.731 148.28 555.31C113.123 496.464 67.16 450.83 16.7678 408.412C-36.5829 363.498 -92.98 304.217 -154.152 269.807C-193.427 248.154 -242.094 222.638 -284.97 216.913C-372.678 205.668 -473.606 227.671 -552.452 288.723M2316.6 942.085C2316.6 942.085 2302.4 884.571 2239.21 844.559C2203.37 822.038 2169.64 799.246 2123.56 788.706C2097.11 782.645 2070.49 779.71 2043.88 784.68C1978.01 797.263 1901.36 825.962 1837.92 797.143C1820.46 789.736 1804.27 779.58 1789.91 767.02C1741.87 722.877 1686.83 680.893 1622.46 669.048C1566.47 657.85 1508.8 655.935 1451.57 663.371C1399.85 671.132 1348.83 684.315 1299.29 702.715C1260.12 717.255 1226.86 739.234 1180.78 729.357C1123.14 717.269 1057.73 755.759 1002.95 745.412C988.409 742.595 969.178 733.18 947.878 724.541C869.511 691.953 793.423 654.093 720.084 611.195C674.119 584.785 626.052 538.555 571.628 533.933C568.91 533.663 566.176 533.54 563.435 533.564C448.683 535.594 348.019 701.566 230.14 654.206C187.708 637.268 173.992 584.547 150.964 546.923C115.08 488.254 69.3297 441.273 19.4436 397.476C-32.9911 351.446 -85.5939 289.831 -147.39 255.691C-186.72 233.942 -236.196 208.867 -279.307 204.136C-367.344 193.945 -472.276 216.467 -548.361 283.197M2321.01 924.9C2321.01 924.9 2308.35 866.053 2247.1 825.532C2212.72 802.757 2178.99 779.099 2132.41 765.245C2105.74 757.37 2079.23 751.927 2053.16 757.145C1988.07 770.26 1911.97 801.502 1847.62 776.245C1829.82 769.967 1813.17 760.816 1798.26 749.118C1745.17 704.482 1690.17 671.927 1624.33 656.972C1568.56 644.027 1503.75 644.976 1445.03 655.436C1395.23 664.304 1341.96 673.788 1292.9 688.391C1254.66 699.723 1223.86 720.783 1176.9 710.182C1122.8 697.98 1054.88 737.444 1002.81 729.467C987.912 727.248 968.216 718.289 946.309 710.173C866.677 680.864 790.308 643.367 718.305 598.225C674.169 570.349 632.915 522.032 578.695 516.726C575.976 516.422 573.24 516.265 570.496 516.256C453.63 517.537 350.562 697.272 233.495 648.706C192.485 631.671 177.191 575.698 153.537 538.292C117.071 479.786 71.7233 431.335 22.6003 386.336C-29.1785 338.964 -78.1452 275.644 -140.674 241.58C-180.13 220.201 -230.446 195.876 -273.773 191.626C-362.362 182.87 -471.203 205.851 -544.515 277.697M2325.41 908.277C2325.41 908.277 2314.34 848.243 2255.15 805.978C2221.96 782.467 2188.18 757.335 2141.26 739.387C2114.3 729.197 2089.08 723.976 2063.86 729.259C1999.43 742.815 1924.02 776.432 1858.72 755.047C1840.54 749.698 1823.41 741.329 1807.98 730.257C1752.36 687.619 1695.19 656.617 1628.1 643.016C1569.39 630.989 1501.77 633.506 1440.51 645.863C1389.57 656.277 1337.19 665.005 1285.8 676.129C1247.86 684.319 1219 704.056 1171.62 692.325C1120.7 679.741 1050.88 719.455 1001.39 713.502C986.108 711.476 965.925 703.384 943.589 695.516C865.627 669.028 785.27 632.388 717.763 584.566C675.163 554.439 641.192 505.31 586.134 499.174C583.41 498.897 580.588 498.631 577.977 498.597C459.87 498.886 351.98 693.912 237.353 642.592C197.32 624.639 180.543 566.935 156.539 528.647C119.844 470.421 75.1158 420.834 26.8381 374.371C-24.1078 325.33 -70.1961 260.792 -133.407 226.85C-173.107 205.497 -224.202 182.12 -267.831 178.565C-356.874 171.232 -469.658 194.931 -540.149 271.837M2329.9 891.645C2320.41 848.78 2296.64 811.281 2262.71 785.66C2230.58 760.866 2195.36 730.683 2149.87 711.26C2123.7 700.274 2099.24 695.433 2074.76 700.74C2010.4 714.696 1936.18 750.025 1870.21 732.993C1851.58 728.805 1833.89 721.342 1817.87 710.92C1759.77 670.478 1700.34 640.374 1632.51 627.31C1568.19 615.957 1501.87 618.041 1437.38 633.442C1384.31 646.016 1331.41 657.45 1277.37 665.434C1239.94 670.766 1211.52 688.825 1164.11 675.772C1115.89 662.446 1046.2 700.924 997.833 697.2C982.996 696.045 961.899 688.303 939.937 680.906C864.543 655.374 781.751 622.353 717.296 570.541C675.888 537.383 648.84 489.572 593.389 481.845C590.691 481.44 587.964 481.214 585.226 481.167C465.421 480.256 349.904 690.559 241.519 635.886C203.374 616.614 184.618 558.759 159.76 519.388C122.861 461.03 78.7675 410.561 31.613 362.349C-18.4301 311.175 -62.0491 245.971 -126.375 212.298C-166.344 191.381 -216.069 171.074 -262.124 165.681C-351.363 155.156 -474.032 189.422 -536.071 266.108M2334.37 875.372C2325.19 831.921 2302.77 793.17 2270.39 764.769C2237.09 735.406 2199.59 701.789 2158.93 683.188C2133.96 671.72 2109.96 667.187 2085.91 672.246C2020.45 686.01 1950.16 723.632 1882.82 710.619C1863.67 707.559 1845.31 700.962 1828.62 691.136C1768.59 652.935 1707.69 622.933 1638.9 609.612C1572.57 597.141 1503.9 599.818 1437.59 617.461C1383 632.59 1326.39 650.122 1269.86 655.357C1232.03 658.845 1203.52 674.771 1156.31 660.167C1110.2 645.907 1040.11 683.509 993.54 680.158C978.71 679.105 957.684 672.528 935.698 665.542C861.504 641.924 779.153 610.488 718.792 555.598C679.494 519.925 656.955 472.613 600.712 463.999C598.013 463.561 595.285 463.301 592.543 463.22C471.651 461.454 351.913 684.791 246.314 628.196C208.703 608.002 188.556 549.935 163.037 509.409C126.242 451.142 82.5333 400.531 37.0517 349.9C-11.3155 296.359 -54.5742 230.608 -119.254 197.584C-159.543 177.057 -210.32 157.267 -256.228 152.675C-346.358 143.671 -472.302 179.094 -531.756 260.202M2338.83 859.15C2330.55 814.538 2309.35 774.083 2278.02 743.118C2246.1 711.367 2209.38 674.355 2168.8 654.725C2144.36 642.998 2121.04 638.394 2097.57 643.342C2032.22 657.196 1963.96 696.595 1896.32 687.489C1876.58 685.601 1857.5 679.917 1840.02 670.723C1778.25 634.743 1715.99 604.119 1646.73 589.572C1581.66 575.965 1506.36 576.785 1441.05 596.857C1383.08 614.684 1324.94 640.177 1263.3 645.588C1223.46 649.133 1195.01 661.993 1148.2 645.819C1103.59 630.382 1033.57 666.702 988.335 663.517C973.508 662.515 952.621 656.587 930.708 650C857.941 627.967 778.113 597.543 721.638 540.208C684.423 502.38 664.629 455.699 607.941 446.265C605.246 445.807 602.517 445.546 599.773 445.486C479.364 442.752 361.215 675.968 252.174 619.426C212.769 598.858 192.734 540.219 167.237 500.047C130.35 441.892 86.3549 389.016 43.147 337.741C-2.39918 283.65 -47.3689 215.681 -112.247 183.442C-152.86 163.255 -204.143 144.028 -250.451 140.141C-341.573 132.617 -470.683 169.39 -527.608 254.823M2343.36 843.024C2335.59 796.891 2315.57 754.376 2285.53 720.205C2256.06 686.72 2219.01 646.835 2178.53 626.329C2154.76 614.328 2131.68 609.698 2108.9 614.523C2043.79 628.251 1977.56 669.529 1910.13 663.969C1890.1 663.099 1870.57 658.212 1852.6 649.575C1789.2 615.806 1725.64 583.328 1656.47 567.089C1587.31 550.849 1514.93 550.446 1449.36 570.29C1390.02 588.209 1325.81 627.899 1259.32 635.143C1216.82 639.577 1187.49 650.081 1141.01 632.189C1097.26 615.439 1027.74 650.33 983.147 647.13C968.32 646.127 948.261 640.062 925.946 634.129C852.64 614.549 778.249 582.895 726.233 524.431C691.076 484.859 671.76 438.74 615.246 428.931C612.547 428.464 609.817 428.17 607.071 428.051C483.399 424.28 370.312 665.382 258.096 610.038C217.499 590.104 196.708 530.371 171.021 489.506C134.43 431.37 91.1223 377.658 49.9979 325.043C6.49798 269.005 -39.9553 200.12 -105.38 168.601C-146.362 148.81 -199.701 128.166 -244.853 127.064C-336.884 124.785 -466.057 154.12 -523.554 248.689M2347.83 826.852C2342.28 775.676 2320.22 736.216 2292.99 696.735C2267.6 659.918 2228.59 619.27 2188.5 598.008C2165.2 585.652 2142.33 581.053 2119.98 585.73C2055.29 599.21 1990.21 643.02 1923.88 640.099C1904.13 639.201 1882.31 636.481 1864.85 627.85C1800.68 595.895 1736.79 562.992 1667.23 541.898C1596.32 520.335 1524.58 514.358 1459.19 536.376C1397.32 557.159 1329.31 611.115 1257.79 623.166C1211.76 630.875 1180.83 638.691 1134.52 619.455C1078.09 595.819 1035.55 643.752 977.406 631.361C962.992 628.276 942.494 623.887 920.693 618.31C847.232 599.408 781.985 568.381 732.49 508.481C698.833 467.682 677.942 421.574 622.369 411.055C619.691 410.528 616.974 410.199 614.237 410.068C487.348 405.205 379.251 653.843 264.022 599.935C222.576 580.6 200.836 519.844 174.955 478.234C138.808 420.103 96.9885 365.777 57.4189 312.031C15.2045 254.482 -32.3497 185.304 -98.327 154.404C-139.728 135.013 -193.665 115.043 -239.079 114.479C-332.271 113.341 -464.251 144.244 -519.231 242.935M2352.35 810.625C2347.86 757.452 2326.76 714.323 2300.36 672.409C2276.69 634.749 2238.37 591.684 2198.38 569.697C2175.41 557.103 2152.68 552.438 2130.77 556.968C2066.36 570.214 2003.29 615.548 1937.52 616.189C1916.98 616.917 1896.66 613.294 1877.81 605.541C1811.96 575.138 1746.5 539.799 1677.35 512.544C1605.82 484.313 1534.09 473.543 1468.84 496.974C1404.49 519.953 1334.83 589.531 1260.34 608.419C1209.49 621.27 1176.4 627.375 1130.59 606.66C1073.9 581.164 1030.83 628.54 972.705 615.687C958.435 612.536 938.573 608.082 916.658 602.261C843.374 583.035 786.019 553.887 739.43 493.225C707.321 451.194 684.783 404.697 629.965 393.64C627.285 393.087 624.566 392.723 621.826 392.552C491.965 386.571 388.584 641.499 270.533 589.721C228.048 571.106 205.589 509.048 179.723 466.876C144.074 408.846 104.189 353.961 65.7092 298.725C24.2081 239.164 -24.1285 170.067 -91.0072 139.72C-132.872 120.785 -187.402 101.591 -233.082 101.513C-327.504 101.167 -462.127 133.926 -514.645 236.644M2356.81 794.301C2353.41 738.873 2333.17 692.186 2307.61 647.688C2285.56 609.196 2248 564.113 2208.13 541.554C2185.28 528.64 2162.75 523.955 2141.06 528.156C2076.83 541.078 2015.57 587.955 1950.12 592.031C1929.49 593.631 1908.95 590.555 1889.91 583.016C1821.44 553.242 1753.9 512.818 1685.54 479.208C1615.05 444.547 1545.9 430.907 1477.25 453.621C1404.89 477.539 1343.21 557.604 1267.07 589.87C1226.87 606.914 1168.55 611.724 1128.64 594.116C1069.28 567.675 1023.73 614.698 968.238 600.652C954.381 596.999 934.537 592.849 912.962 586.941C840.927 567.228 790.295 538.551 746.262 477.827C715.033 434.888 691.827 387.951 636.691 376.52C634.017 375.919 631.295 375.539 628.549 375.38C496.058 368.247 396.923 629.003 276.336 579.223C194.371 545.249 128.249 366.696 73.5672 285.616C32.6181 224.621 -16.5227 155.251 -84.3453 125.564C-126.677 107.035 -181.8 88.6164 -227.696 89.0198C-323.42 89.9308 -460.426 123.958 -510.629 230.718M2361.27 777.876C2358.01 722.955 2342.09 670.132 2314.86 623.832C2291.56 585.012 2257.5 536.76 2217.59 513.745C2194.78 500.522 2172.2 495.791 2150.75 499.967C2086.55 512.478 2027 560.809 1962.09 568.193C1941.53 570.645 1920.88 567.975 1901.86 560.403C1829.87 530.131 1760.65 479.224 1692.85 442.701C1630.5 409.179 1557.98 377.483 1485.55 407.527C1405.49 440.763 1348.67 527.052 1276.39 564.473C1232.56 587.199 1180.41 604.52 1129.73 580.692C1069.88 552.62 1021.11 600.745 964.502 586.255C950.84 582.581 931.375 578.187 910.182 572.087C839.66 551.349 794.865 522.369 753.144 462.424C722.706 418.739 698.776 371.215 644.116 359.53C641.459 358.912 638.752 358.512 636.02 358.335C501.103 350.18 405.724 616 283.046 568.223C199.603 535.831 135.407 354.171 81.7081 272.274C41.088 210.225 -8.76232 140.521 -77.5257 111.543C-120.322 93.4709 -175.982 75.9245 -222.104 76.6574C-319.251 78.4308 -458.374 114.056 -506.333 224.508M2365.71 761.299C2363.44 704.279 2348.57 649.047 2322.25 599.861C2300.47 560.117 2266.8 509.479 2226.66 485.876C2203.74 472.461 2180.91 467.704 2159.69 471.652C2095.45 483.454 2037.29 533.476 1972.97 544.062C1952.55 547.502 1931.82 545.303 1912.87 537.686C1836.82 506.155 1768.01 445.975 1699.02 403.713C1638.78 366.758 1566.17 329.717 1493.25 359.812C1409.97 394.251 1355.54 484.268 1285.29 533.817C1242.83 563.742 1187.5 592.512 1133.57 566.219C1073.54 536.789 1020 587.552 961.638 571.665C948.123 567.976 929.144 563.48 908.359 556.827C839.866 535.47 799.776 505.336 759.816 446.838C729.696 402.713 705.897 354.92 651.102 342.637C648.44 342.027 645.734 341.611 643.003 341.391C510.729 332.195 413.164 606.505 289.527 556.737C202.572 521.652 143.383 340.591 89.7825 258.684C49.2603 196.625 -1.3003 125.771 -70.9068 97.4934C-114.213 79.933 -170.416 63.1572 -216.755 64.3716C-315.427 66.967 -456.382 104.007 -502.146 218.156M2370.15 744.621C2368.78 685.697 2354.99 628.276 2329.77 576.386C2309.42 535.167 2275.88 482.678 2235.39 458.757C2212.25 445.058 2189.12 440.282 2167.94 444.072C2103.43 455.595 2046.43 506.772 1982.65 520.514C1962.38 525.058 1941.5 523.465 1922.51 515.927C1843.27 482.994 1773.78 410.037 1704.42 363.224C1646.08 323.776 1573.9 282.407 1500.61 311.98C1415.21 346.386 1360.82 440.375 1294.73 499.026C1256.08 533.347 1198.26 576.858 1141.92 549.948C1080.16 520.342 1021.54 574.95 960.289 557.681C946.823 553.987 928.268 549.192 908.086 542.731C842.255 520.637 805.088 488.414 766.861 431.673C736.819 387.234 713.295 339.106 658.426 326.423C655.759 325.82 653.053 325.388 650.324 325.127C515.537 315.071 422.182 593.02 296.694 545.179C207.948 511.403 151.582 327.396 98.2195 245.362C57.795 183.292 6.34082 111.513 -63.9526 84.0713C-107.821 66.9774 -162.676 52.9164 -211.122 52.668C-314.077 52.0389 -456.475 99.2747 -497.547 212.067M2374.58 727.791C2374.12 666.923 2361.44 607.292 2337.37 552.698C2318.31 509.968 2284.57 455.717 2243.69 431.223C2220.19 417.205 2196.86 412.449 2175.33 416.022C2109.65 426.903 2053.89 479.122 1990.78 495.853C1970.49 501.889 1949.07 500.521 1930.15 491.98C1848.61 452.863 1781.75 373.92 1709.13 322.093C1651.48 280.993 1581.25 236.871 1507.73 265.193C1421.18 298.495 1365.2 393.671 1303.9 460.795C1265.94 502.386 1212.82 555.911 1151.37 530.556C1085.74 503.699 1024.68 562.741 960.728 543.97C947.359 540.266 929.175 535.075 909.558 528.199C795.786 488.416 773.082 335.672 665.512 310.336C662.866 309.707 660.175 309.273 657.458 309.034C519.751 297.907 431.545 577.97 303.682 533.13C214.955 502.054 158.814 313.69 106.347 231.818C66.059 168.765 13.8837 97.2643 -57.488 70.7003C-101.863 54.1692 -157.207 40.975 -205.928 41.0612C-310.652 41.2796 -453.966 89.6307 -493.305 205.812M2378.96 710.864C2381.49 646.965 2365.52 587.137 2344.9 529.425C2328.61 483.704 2293.28 429.211 2251.44 404.358C2230.79 391.418 2206.47 385.762 2181.99 388.2C2114.37 395.51 2059.17 448.894 1996.77 468.356C1976.45 475.277 1954.64 474.094 1935.69 465.041C1852.62 423.483 1786.2 335.723 1713.41 281.11C1657.17 238.893 1588.43 194.208 1514.85 220.701C1427.44 252.154 1370.07 347.984 1313.05 419.813C1277.91 463.966 1225.72 533.506 1160.7 508.523C1092.54 482.185 1032.94 549.643 962.702 530.404C948.893 526.746 931.625 521.256 912.485 514.126C801.658 472.608 778.567 319.956 672.362 294.426C669.7 293.766 666.991 293.299 664.254 293.028C524.061 281.497 440.368 562.109 310.79 520.61C222.478 492.295 165.856 300.106 114.318 218.136C74.1212 154.156 20.9865 83.0617 -51.2158 57.4002C-96.1469 41.437 -151.871 29.2514 -201.063 29.6927C-307.859 30.6371 -451.755 79.9159 -489.175 199.313M2383.44 693.928C2386.9 628.401 2372.02 566.368 2352.25 506.427C2336.91 459.281 2301.61 402.999 2258.62 377.757C2237.55 364.71 2213.13 358.26 2188.18 359.152C2119.01 362.035 2063.27 416.19 2001.41 438.093C1991.4 441.904 1980.82 443.603 1970.31 443.087C1959.8 442.571 1949.57 439.852 1940.25 435.093C1856.35 391.224 1790.96 297.647 1717.54 241.008C1662.32 198.38 1595.71 155.665 1522.09 179.816C1433.36 208.909 1376.51 302.084 1322.2 377.098C1288.66 423.378 1237.74 505.635 1170.17 483.978C1098.87 461.077 1042.81 538.058 966.947 516.959C950.291 512.274 933.914 506.682 917.882 500.203C809.988 456.748 784.705 304.477 679.647 279.184C676.985 278.541 674.277 278.091 671.542 277.837C529.545 265.781 449.401 546.482 318.606 508.424C231.095 482.728 173.405 286.774 122.822 205.114C82.6179 140.216 28.4383 69.7407 -44.4937 45.0222C-89.733 29.652 -146.328 18.526 -195.742 19.3475C-303.91 21.1999 -448.763 70.9354 -484.418 193.412M2387.86 676.996C2391.46 610.745 2382.01 544.927 2360.1 483.58C2342.72 435.27 2314.95 380.447 2266.33 351.713C2244.55 338.134 2219.71 330.416 2193.98 329.228C2123.45 327.664 2066.38 380.988 2004.94 405.653C1994.94 409.823 1984.28 411.738 1973.68 411.27C1963.08 410.801 1952.78 407.959 1943.49 402.936C1859.25 357.523 1795.58 259.891 1721.88 202.618C1667.32 160.33 1603.36 122.335 1529.85 143.568C1439.8 169.535 1383.86 256.548 1331.33 333.415C1298.31 381.731 1244.47 476.531 1179.59 457.041C1111.99 436.66 1053.24 526.006 973.349 503.391C959.424 499.439 943.232 493.836 925.171 486.644C816.821 442.982 792.001 289.439 686.644 264.075C683.982 263.416 681.273 262.949 678.536 262.678C535.05 250.419 457.574 530.485 326.406 495.168C239.985 472.01 180.388 272.228 130.985 191.361C90.9881 125.831 35.5585 55.8424 -38.2925 32.1885C-87.4474 16.2976 -138.915 8.34333 -190.939 8.59734C-300.723 11.3832 -446.065 61.1697 -480.256 186.655M2392.24 660.121C2400.46 544.586 2372.42 389.799 2273.79 325.745C2145.63 242.236 2047.34 422.9 1945.92 369.387C1815.03 300.133 1720.39 73.1058 1538.39 113.358C1450.29 132.747 1393.28 212.784 1343.5 285.439C1309.52 334.875 1261.22 442.15 1188.94 428.173C1139.58 418.638 1119.34 456.188 1078.71 476.642C1028.68 501.901 983.037 496.822 933.058 473.992C830.034 427.275 796.474 270.871 693.505 249.133C546.877 218.54 472.614 514.077 334.387 481.639C259.475 463.96 219.636 315.91 182.375 250.043C130.238 158.296 69.3864 48.8456 -32.1013 19.9678C-167.656 -18.6642 -426.718 -15.0397 -475.63 180.206" stroke="url(#paint0_linear_300_13249)" stroke-width="0.5" stroke-miterlimit="10"/>
<defs>
<linearGradient id="paint0_linear_300_13249" x1="-182.385" y1="183.337" x2="1708.14" y2="608.902" gradientUnits="userSpaceOnUse">
<stop offset="0.683304" stop-color="#FD6721"/>
<stop offset="0.820933" stop-color="#FD6721" stop-opacity="0"/>
</linearGradient>
</defs>
</svg>
