<svg width="1920" height="1595" viewBox="0 0 1920 1595" fill="none" xmlns="http://www.w3.org/2000/svg">
<path opacity="0.2" d="M-628.567 1511.03C-576.431 1561.82 -507.138 1581.35 -442.025 1590.3C-310.863 1608.22 -298.652 1417.92 -202.289 1408.31C-117.065 1399.8 -61.3203 1375.84 -15.8969 1296.6C60.5211 1163.34 185.805 1237.45 263.953 1324.24C384.566 1458.18 511.995 1640.29 707.828 1582.94C853.453 1540.26 945.085 1457.92 1006.97 1311.05C1033.21 1248.76 1061.46 1178.21 1073.61 1110.38C1085.38 1044.77 1067.6 943.821 1130.03 906.992C1260.97 829.708 1444.03 960.596 1583.19 921.453C1682.03 893.803 1721.52 845.768 1682.31 732.123C1628.87 577.387 1813.54 536.091 1917.4 513.288C2007.5 493.408 2149.98 546.037 2224.59 475.731M-633.324 1489.71C-581.661 1538.54 -513.027 1557.59 -449.933 1564.95C-377.116 1573.48 -325.273 1504.43 -290.8 1444.2C-267.445 1403.31 -242.507 1366.34 -213.338 1365.81C-122.383 1364.22 -77.6368 1336.59 -27.3997 1261.56C-13.1031 1240.13 2.50468 1222.23 19.4443 1211.57C104.968 1157.63 189.482 1224.73 250.401 1287.29C315.238 1354.22 379.437 1445.4 455.255 1501.71C537.149 1562.52 613.896 1581.7 709.109 1561.89C767.48 1549.78 833.795 1523.59 876.632 1482.85C928.886 1432.92 967.342 1367.09 1000.27 1297.54C1006.88 1283.48 1012.79 1268 1018.56 1252.47C1041.35 1190.9 1057.15 1135.03 1064.72 1068.88C1071.96 1005.62 1058.19 933.421 1109.51 890.745C1111.48 889.06 1113.6 887.562 1115.83 886.269C1248.17 810.415 1433.29 946.251 1573.66 909.91C1675.91 883.646 1705.59 834.168 1667.32 720.569C1639.57 637.798 1686.73 589.8 1746.96 558.498C1796.41 532.85 1858.56 517.792 1915.97 505.991C2004.84 487.678 2146.3 535.366 2220.48 469.693M-638.093 1467.77C-586.766 1514.04 -518.888 1530.95 -457.956 1535.82C-384.486 1541.7 -334.982 1463.35 -301.052 1402.34C-277.678 1360.33 -252.946 1324.31 -224.063 1323.65C-136.679 1321.69 -91.6367 1298.09 -38.0308 1229.18C-24.9612 1211.54 -8.34823 1197.16 10.7009 1187C98.2571 1143.35 172.249 1191.65 237.219 1253.15C307.034 1319.16 374.971 1407.14 449.561 1466.66C530.116 1530.87 612.775 1559.67 710.468 1541.16C766.683 1530.52 830.836 1504.26 871.977 1463.08C922.076 1412.97 961.5 1351.46 993.917 1284.58C1000.61 1270.79 1006.62 1255.43 1012.48 1239.95C1037.29 1175.05 1047.88 1121.5 1052.46 1051.13C1056.67 986.736 1042.97 913.31 1095.92 870.599C1097.94 868.927 1100.08 867.433 1102.34 866.133C1236.78 792.044 1423.55 933.246 1564.4 898.601C1669.33 872.825 1687.96 822.184 1652.82 708.864C1626.36 623.451 1683.19 579.297 1744.67 550.03C1795.61 525.773 1857.16 510.756 1914.85 498.622C2002.84 480.115 2142.37 526.314 2216.38 463.503M-642.859 1445.77C-594.073 1486.9 -524.638 1504.9 -466.206 1503.95C-389.895 1502.77 -345.39 1421.64 -311.282 1360.13C-287.792 1317.82 -263.071 1283.6 -234.429 1282.86C-158.225 1281.01 -97.7776 1259.86 -47.7514 1200.44C-33.5191 1184.82 -16.1112 1172.74 3.27559 1165.03C89.8698 1126.68 158.038 1163.11 224.835 1222.9C296.766 1287.28 367.3 1370.6 441.993 1430.85C524.804 1497.61 611.213 1536.78 710.512 1520.18C768.491 1510.14 822.101 1483.4 865.427 1442.9C915.497 1394.24 956.667 1336.41 987.051 1272.03C993.661 1258.02 999.884 1243.1 1005.99 1227.75C1033.25 1158.94 1037.21 1107.63 1038.79 1033.14C1040.15 967.876 1027.59 893.489 1082.38 851.281C1084.42 849.622 1086.58 848.131 1088.85 846.82C1225.48 774.761 1414.12 920.685 1554.59 887.644C1660.54 862.799 1669.08 809.709 1638.04 697.694C1613.85 609.948 1680.27 569.889 1742.62 542.41C1794.8 519.62 1855.79 504.184 1913.44 491.739C2000.57 472.934 2137.91 517.926 2211.81 457.777M-647.682 1423.1C-598.908 1460.37 -530.186 1473.93 -474.54 1469.39C-399.11 1463.29 -356.234 1379 -321.292 1317.53C-297.643 1275.85 -272.83 1244.17 -244.332 1243.36C-170.402 1241.68 -111.359 1224.19 -56.3901 1174.95C-40.1153 1161.5 -21.8129 1150.91 -2.16333 1143.59C83.5892 1109.36 149.055 1136 215.306 1194.23C286.087 1256.49 359.357 1334.49 433.261 1393.94C518.529 1462.4 614.218 1514.89 709.327 1497.59C764.769 1486.77 816.057 1460.97 858.189 1422.7C908.096 1376.38 949.519 1320.92 980.568 1258.86C987.263 1245.06 993.48 1230.24 999.845 1214.61C1028.7 1144.78 1029 1091.29 1024.74 1014.02C1021.36 953.096 1014.28 869.517 1069.69 831.641C1071.84 830.028 1074.09 828.548 1076.41 827.206C1215.13 757.269 1405.04 907.389 1545.12 875.697C1651.17 851.684 1650.33 795.961 1623.91 685.615C1602.56 596.472 1679.02 559.628 1741.4 534.158C1794.5 512.544 1854.89 497.199 1912.66 484.407C1998.92 465.305 2133.92 509.125 2207.71 451.536M-652.472 1400.69C-603.603 1433.96 -535.82 1441.92 -482.967 1433.95C-409.125 1422.39 -367.581 1337.34 -331.132 1276.19C-307.237 1236.13 -282.032 1207.72 -253.798 1207.2C-182.424 1206.27 -121.935 1194.95 -63.2037 1152.64C-45.5694 1140.65 -26.4843 1131.08 -6.3967 1124.17C77.8917 1092.98 141.761 1111.06 207.528 1167.55C276.948 1227.09 349.574 1300.29 422.789 1358.13C510.422 1427.35 610.269 1489.17 705.424 1474.35C753.227 1466.88 807.598 1440.42 850.669 1403.92C901.586 1360.75 943.483 1307.14 973.956 1246.18C980.743 1232.5 986.982 1217.32 993.624 1201.97C1040.25 1095.66 949.505 881.726 1057.56 813.346C1059.86 811.942 1062.23 810.34 1064.57 808.942C1205.64 740.074 1390.92 895.877 1534.3 863.503C1642.99 838.946 1631.17 782.376 1610.06 673.925C1592.78 584.902 1678.77 550.758 1741 527.122C1796.85 506.829 1854.02 490.38 1912.17 477.876C1997.52 458.37 2129.98 501.1 2203.66 446.02M-657.228 1378.55C-608.092 1407.42 -541.55 1409.07 -491.427 1397.43C-419.438 1380.74 -379.433 1296.71 -340.745 1236.77C-316.454 1199.11 -290.902 1174.7 -262.696 1174.64C-193.777 1174.43 -128.121 1168.79 -68.7016 1132.16C-49.8933 1121.51 -30.1326 1112.71 -9.66508 1105.88C72.3022 1075.63 137.169 1089.45 201.62 1141.68C268.792 1196.1 339.288 1267.9 411.118 1323.43C491.831 1385.86 602.586 1468.21 698.775 1449.33C746.992 1439.9 800.408 1419.45 842.95 1385.98C894.606 1345.34 937.092 1293.41 967.634 1233.59C974.516 1219.96 980.746 1204.11 987.644 1189.41C1038.08 1082.01 924.581 866.661 1046.51 796.037C1048.85 794.69 1051.36 793.154 1053.84 792.027C1197.89 725.788 1376.41 865.042 1523.28 852.009C1636.85 841.899 1608.53 745.082 1597.05 662.838C1584.35 573.783 1679.05 542.2 1740.99 519.872C1796.92 500.458 1853.89 484.14 1911.65 470.984C1996.24 451.038 2125.96 492.708 2199.54 440.136M-662.007 1356.76C-608.625 1380.58 -549.198 1373.77 -499.85 1361.12C-432.58 1343.51 -391.886 1257.87 -350.026 1200C-325.253 1165.74 -299.253 1146.11 -270.935 1146.62C-201.699 1147.68 -134.898 1146.69 -73.0917 1113.7C-53.4845 1104.04 -33.2509 1095.74 -12.519 1088.87C67.5029 1059.85 132.75 1066.62 196.793 1116.65C261.78 1167.34 329.829 1237.29 398.95 1290.42C480.262 1352.71 591.061 1436.76 689.144 1423.17C737.991 1416.33 791.903 1400.67 835.18 1368.87C887.434 1330.31 930.459 1279.79 961.168 1220.92C968.194 1207.37 974.629 1192.21 981.62 1176.8C1031.47 1066.87 903.998 849.019 1036.27 779.843C1038.71 778.558 1041.36 777.037 1043.94 775.92C1190.19 713.305 1365.09 850.482 1511.92 840.581C1625.59 832.899 1590.95 729.863 1584.49 651.593C1577.19 563.569 1679.04 534.179 1741.47 512.878C1795.95 494.289 1854.22 478.156 1911.23 464.254C1995.06 443.817 2121.64 484.489 2195.46 434.41M-666.706 1335.28C-613.142 1353.67 -555.448 1341.39 -508.353 1325.31C-442.76 1302.9 -405.405 1221.17 -359.125 1166.7C-333.677 1136.73 -307.601 1123.12 -279.114 1124.11C-209.62 1126.59 -140.247 1127 -76.9391 1096.85C-56.7152 1087.39 -35.9048 1079.27 -14.6275 1072.55C65.6815 1046.91 125.96 1041.48 193.528 1091.83C256.574 1138.82 322.302 1207.29 388.774 1258.66C471.09 1322.23 579.034 1403.88 678.341 1397.66C727.75 1394.53 782.597 1382.92 827.004 1351.96C880.008 1315.31 923.727 1265.97 954.731 1207.8C962.516 1193.58 969.492 1178.86 975.622 1163.73C1016.57 1056.97 887.653 829.663 1027.07 764.427C1029.7 763.213 1032.45 761.753 1035.17 760.703C1182.79 702.243 1354.68 836.327 1500.31 829.128C1612.72 823.626 1574.15 713.956 1572.73 640.227C1571.13 554.858 1678.94 526.918 1742.32 506.18C1796.9 488.322 1854.32 471.687 1910.8 457.576C1994.03 436.51 2117.65 476.459 2191.32 428.782M-671.366 1314.79C-617.536 1327.19 -562.207 1310.08 -516.653 1291.02C-453.015 1264.34 -419.858 1186.9 -367.873 1138.17C-341.511 1113.38 -315.629 1105.41 -286.758 1106.55C-216.546 1109.36 -144.954 1110.51 -80.2688 1082C-60.3933 1073.24 -38.1431 1065.09 -16.7834 1057.82C61.6494 1031.47 124.042 1021.22 190.839 1068.05C252.199 1111.22 316.151 1178.93 379.868 1228.67C468.057 1297.64 568.898 1368.2 667.237 1373.87C714.959 1376.63 772.684 1366.25 818.711 1336.18C872.473 1301.13 916.938 1252.75 948.367 1195.1C956.821 1181.04 963.516 1165.85 968.293 1149.89C995.472 1039.63 872.757 810.767 1019.32 750.243C1022.05 749.09 1024.93 747.799 1027.7 746.805C1177.22 695.076 1343.88 822.902 1488.78 818.093C1600.14 814.384 1558.13 698.182 1562.21 628.682C1567.09 548.367 1679.11 519.377 1743.63 499.222C1798.31 482.146 1854.62 465.137 1910.49 450.499C1993.11 428.856 2113.43 468.148 2187.29 423.061M-676.063 1294.91C-622.316 1301.39 -569.132 1279.89 -524.997 1258.26C-464.82 1228.6 -433.943 1153.84 -376.6 1114.94C-352.366 1098.42 -323.439 1090.66 -294.041 1092.77C-222.985 1095.47 -149.317 1096.48 -83.5418 1068.64C-63.3302 1060.02 -40.8231 1051.7 -19.2887 1043.99C57.5651 1016.08 121.867 1001.15 188.472 1044.66C248.499 1083.83 310.774 1150.8 372.131 1199.68C459.318 1268.96 557.619 1339.2 655.879 1351.03C704.747 1356.79 762.422 1350.46 810.283 1321C864.897 1287.4 910.202 1239.82 942.143 1182.52C950.368 1168.17 955.971 1152.28 958.678 1135.62C974.364 1024.15 856.953 791.417 1012.34 738.813C1015.15 737.824 1018.17 736.702 1021.13 735.83C1172.46 690.719 1332.98 810.391 1477.23 808.035C1587.49 806.215 1543.81 684.488 1552.76 618.175C1563.51 540.123 1679.48 513.246 1745.08 493.204C1799.49 476.562 1855.1 459.737 1909.98 444.225C1995.42 420.1 2104.99 460.422 2183.24 417.648M-680.667 1275.92C-627.343 1276.39 -576.173 1251.59 -533.084 1227.74C-477.311 1196.84 -443.228 1126.03 -384.992 1096.73C-358.436 1083.32 -330.719 1080.79 -301.05 1081.75C-229.043 1084.19 -153.537 1084.11 -86.8166 1056.11C-66.1555 1047.39 -43.7245 1038.69 -22.0426 1030.17C42.9969 1004.73 120.172 973.151 186.223 1020.93C247.988 1065.52 306.298 1122.41 365.528 1170.65C451.492 1240.62 547.029 1310.99 644.681 1327.95C694.455 1336.63 752.585 1334.16 801.414 1304.95C856.162 1272.3 906.105 1226.39 935.269 1168.48C942.182 1153.18 946.027 1136.47 946.575 1119.33C953.14 1007.31 843.998 772.16 1006.47 728.426C1009.47 727.611 1012.64 726.556 1015.73 725.802C1167.69 687.491 1322.79 798.162 1465.67 797.409C1573.99 796.824 1529.69 668.864 1544.2 606.734C1561.55 531.844 1678.74 506.792 1746.82 486.292C1800.72 470.008 1855.32 452.768 1909.34 436.907C1994.18 412.052 2100.63 451.891 2179.13 411.61M-685.18 1257.86C-632.669 1253.1 -583.343 1225.43 -541.081 1199.8C-489.214 1168.39 -451.669 1105.39 -393.104 1082.81C-365.685 1072.23 -338.06 1072.82 -307.98 1073.52C-234.943 1075.18 -157.641 1073.91 -90.4426 1044.52C-69.5642 1035.46 -47.1447 1026.14 -25.4131 1016.81C39.3353 988.864 116.202 954.274 183.477 997.293C245.066 1036.68 302.264 1094.06 359.697 1141.91C444.391 1212.52 536.95 1283.29 633.613 1305.19C683.62 1316.52 742.642 1318 792.531 1289.15C846.755 1257.84 903.278 1212.98 926.034 1153.62C931.241 1140.03 932.683 1121.16 932.612 1102.9C932.16 986.491 831.201 757.599 1001.91 720.079C1005 719.428 1008.31 718.49 1011.55 717.803C1162.81 685.95 1313.42 787.098 1454.41 787.585C1560.79 787.981 1516.74 652.795 1536.55 595.698C1561.04 524.849 1676.83 501.707 1748.65 479.8C1802.06 463.515 1855.43 446.198 1908.65 429.79C1993.1 403.968 2096.22 443.509 2175.1 405.839M-689.654 1240.78C-638.279 1231.22 -590.132 1201.89 -548.868 1174.87C-501.308 1143.88 -458.614 1089.29 -401.073 1073.03C-373.226 1065.11 -345.324 1066.81 -314.926 1067.13C-241.148 1067.95 -161.933 1064.35 -94.5409 1033.4C-73.5763 1023.72 -51.2081 1013.63 -29.6131 1003.31C34.9701 972.413 110.583 934.966 179.751 973.557C241.639 1008.04 298.256 1065.26 354.369 1112.97C437.855 1184.02 527.301 1255.8 622.762 1282.09C672.427 1295.8 733.26 1301.48 783.571 1272.99C835.971 1243.33 898.37 1201.41 914.013 1137.6C917.309 1120.52 918.245 1102.94 916.794 1085.4C910.585 962.472 819.727 745.543 998.469 713.496C1001.7 712.911 1005.1 712.086 1008.43 711.511C1157.66 685.665 1304.97 777.211 1443.44 778.564C1547.87 779.576 1505.47 639.114 1530.62 585.663C1562.5 517.804 1676.11 496.541 1750.65 473.583C1803.06 457.502 1855.53 439.678 1907.71 423.264C1991.83 396.533 2091.72 435.785 2171.07 400.839M-694.052 1224.89C-644 1211.18 -598.343 1180.72 -556.409 1153.2C-510.262 1122.78 -465.239 1077.64 -408.907 1065.88C-380.643 1060.01 -352.652 1061.87 -322.083 1061.8C-247.408 1061.63 -166.626 1055.74 -99.3225 1022.2C-78.3082 1011.71 -56.0828 1000.73 -34.6671 989.305C29.3417 954.905 102.744 914.963 174.465 949.606C237.543 979.895 293.743 1035.89 348.969 1083.6C431.595 1155.03 517.956 1228.18 611.992 1258.49C660.939 1274.28 723.963 1284.41 774.546 1256.31C826.156 1227.49 890.251 1189.25 899.492 1120.65C901.242 1102.97 901.192 1085.07 899.342 1067.26C888.586 936.556 811.276 734.782 996.03 707.481C999.308 707.003 1002.85 706.295 1006.22 705.828C1152.57 685.232 1297.28 767.61 1432.62 769.457C1535.17 770.733 1494.99 626.906 1526 575.768C1565.73 510.122 1675.93 490.66 1752.54 466.738C1803.82 450.692 1855.24 432.346 1906.46 415.523C1990.33 387.943 2087.09 427.019 2167.01 394.807M-698.37 1210.09C-650.338 1193.19 -605.974 1162.94 -563.702 1136.34C-517.645 1107.4 -472.173 1069.45 -416.654 1060.54C-388.034 1056.09 -360.153 1057.33 -329.427 1057.12C-253.999 1055.9 -171.693 1047.59 -105.129 1010.84C-84.2514 999.359 -62.1626 987.389 -41.1156 974.743C22.1232 936.817 91.7339 894.471 167.134 925.285C232.514 951.702 288.697 1005.54 343.676 1053.28C425.422 1124.61 509.253 1199.71 601.878 1233.77C650.023 1251.43 715.042 1265.99 765.636 1238.51C817.978 1209.82 877.751 1173.84 882.589 1102.37C883.259 1084.49 882.541 1066.53 880.44 1048.66C866.394 909.746 805.67 724.988 994.515 702.437C997.937 702.025 1001.52 701.425 1004.93 701.065C1147.5 685.213 1290.48 758.975 1422.31 760.917C1523.27 762.386 1485.23 616.623 1522.71 566.784C1570.86 503.361 1676.11 485.229 1754.28 460.082C1804.47 444.024 1854.84 425.106 1905.09 408.077C1988.82 379.66 2082.48 418.565 2163.11 389.256M-702.676 1195.91C-656.43 1176.82 -613.15 1148.2 -570.793 1122.63C-525.065 1095.05 -478.609 1063.58 -424.338 1055.77C-395.642 1051.7 -367.861 1052.15 -337.04 1051.18C-260.957 1048.9 -177.272 1038.16 -111.423 997.786C-90.9661 985.13 -68.9037 971.974 -48.2774 958.153C20.6371 911.877 79.8296 885.454 156.601 901.81C221.22 915.653 282.512 974.496 336.968 1021.93C417.701 1092.12 499.921 1170.24 591.43 1208.09C638.873 1227.59 705.632 1245.1 756.444 1219.7C808.119 1193.87 862.181 1152.25 863.77 1084.03C863.662 1066 862.459 1047.94 860.166 1029.98C844.489 883.069 803.487 716.377 993.78 698.349C997.247 697.993 1000.82 697.495 1004.33 697.196C1142.85 685.547 1284.24 751.429 1412.35 753.133C1511.99 754.463 1475.35 607.409 1520.51 558.479C1576.78 497.556 1676.64 479.783 1755.96 453.472C1804.7 437.004 1853.95 417.865 1902.85 400.386C1986.54 371.089 2077.39 409.957 2158.82 383.663M-706.961 1182.19C-662.371 1162 -620.404 1134.74 -577.767 1111.05C-532.586 1085.98 -483.788 1058.1 -432.015 1050.9C-403.671 1046.94 -375.723 1045.46 -344.929 1044.12C-268.295 1040.88 -183.492 1027.94 -118.988 983.776C-98.4532 969.842 -76.5514 955.281 -57.2905 940.443C4.63971 893.278 69.4197 873.716 140.967 882.889C209.339 891.676 273.544 942.291 328.914 989.251C409.136 1057.34 487.906 1133.08 580.718 1180.28C630.127 1205.48 694.726 1224.51 746.939 1198.75C799.152 1172.98 842.612 1128.45 842.58 1064.22C842.558 1049.2 840.449 1029.65 838.469 1010.42C822.685 856.352 804.302 707.825 993.255 694.026C996.764 693.778 1000.43 693.341 1003.94 693.144C1138.17 684.849 1278.04 744.041 1402.39 745.349C1501.16 746.28 1465.07 598.511 1518.7 550.114C1583.38 491.823 1676.54 474.167 1756.84 446.212C1804.56 429.585 1852.22 409.97 1900.19 392.444C1983.97 362.284 2072.22 401.134 2154.54 378.07M-711.145 1169.26C-668.12 1148.08 -626.701 1122.56 -584.681 1100.91C-538.96 1077.49 -490.571 1053.89 -439.823 1044.94C-411.214 1039.7 -382.275 1036.22 -353.155 1034.52C-276.113 1030.23 -190.325 1015.66 -127.586 967.343C-107.894 951.881 -86.5309 938.086 -68.3725 925.188C-8.70521 882.053 52.3501 863.847 121.836 868.073C191.322 872.298 260.296 915.702 317.551 958.387C399.87 1019.49 478.586 1101 570.132 1151.2C617.331 1177.14 686.19 1203.82 734.73 1176.12C780.609 1150.1 820.875 1105.49 820.351 1044.5C820.215 1029.73 818.149 1010.28 816.548 991.296C810.83 923.439 785.867 838.595 819.792 776.041C852.523 715.315 931.15 693.867 994.062 690.46C997.569 690.263 1001.33 689.939 1004.78 689.839C1132.65 686.582 1270.75 736.076 1393.66 738.312C1479.31 739.867 1477.65 583.33 1518.44 542.271C1574.6 485.655 1676.16 468.215 1758.07 438.937C1805.11 422.136 1850.66 401.477 1897.54 384.247C1981.51 353.285 2067.55 392.108 2150.79 372.585M-715.358 1156.78C-673.849 1135.44 -633.834 1111.17 -591.498 1091.61C-544.804 1069.99 -497.178 1049.24 -447.666 1037.12C-419.537 1029.33 -390.75 1024.03 -361.604 1021.29C-283.323 1016.05 -200.343 997.48 -137.459 950.005C-118.783 935.876 -98.3053 924.507 -81.0559 912.799C-27.9368 876.173 34.0542 851.484 99.7651 855.467C172.482 859.981 239.725 892.199 299.261 930.548C385.18 985.864 470.024 1072.64 558.48 1119.43C599.626 1141.29 672.293 1178.19 715.753 1150.68C756.346 1124.97 796.644 1083.09 796.679 1024.22C796.669 1009.82 794.933 990.616 793.856 971.889C790.003 904.126 771.444 823.246 811.391 764.462C850.067 707.961 931.25 688.993 994.491 686.649C998.043 686.508 1001.75 686.23 1005.25 686.186C1128.94 685.266 1265.38 730.523 1384.62 731.602C1429.14 731.967 1443.55 703.815 1458.97 668.878C1482.31 616.059 1474.55 574.417 1517.93 534.504C1577.47 479.735 1676.24 462.053 1758 431.217C1803.69 414.016 1847.74 392.84 1893.35 375.425C1977.36 343.129 2062.16 382.902 2146.26 366.915M-719.491 1144.63C-719.491 1144.63 -685.026 1120.95 -598.325 1082.46C-552.797 1062.21 -503.24 1042.89 -455.698 1026.76C-427.403 1017.14 -399.855 1005.23 -370.253 1003.26C-293.403 998.076 -213.745 979.102 -148.768 936.063C-130.513 923.998 -111.388 913.824 -95.3929 903.321C-44.1199 869.534 13.5705 844.342 76.3984 845.553C148.275 846.893 215.279 872.505 276.122 906.363C364.624 955.627 452.166 1036.87 540.25 1085.73C578.343 1106.81 651.376 1148.23 690.585 1122.63C728.144 1098.25 770.274 1061.04 771.648 1003.64C772 989.745 770.79 970.799 770.52 952.569C768.039 787.77 823.618 686.41 995.375 682.628C998.97 682.595 1002.68 682.368 1006.17 682.376C1125.8 683.445 1260.36 725.675 1376.29 725.275C1421.29 725.176 1434 695.816 1450.29 661.075C1475.51 607.169 1471.53 566.593 1518.16 526.713C1579.89 473.922 1676.88 454.869 1757.44 423.343C1801.57 405.978 1844.83 383.38 1888.89 366.215C1971.87 333.811 2057.09 373.114 2142.01 361.481M-723.647 1132.82C-723.647 1132.82 -691.556 1108.54 -605.151 1073.31C-558.218 1054.23 -510.04 1034.93 -463.701 1013.48C-435.485 1000.3 -408.219 983.322 -378.956 981.259C-304.808 976 -225.953 964.552 -160.986 925.728C-143.465 915.231 -125.338 906.083 -109.989 896.489C-60.8339 865.154 -7.49844 838.732 52.4278 837.478C122.454 836.053 188.501 856.37 249.48 885.564C339.44 928.656 428.834 1001.31 515.699 1052.4C551.148 1073.25 620.805 1118.37 661.743 1093.48C710.72 1063.46 734.895 1040.65 747.166 983.739C749.782 971.468 747.674 951.913 748.406 934.2C754.602 770.776 833.458 679.99 997.054 678.486C1000.65 678.453 1004.35 678.328 1007.79 678.381C1123.63 681.21 1256.18 721.636 1369.06 719.629C1414.49 718.804 1425.7 688.259 1442.76 653.753C1469.86 598.964 1469.96 559.229 1519.24 519.422C1582.54 468.34 1677.41 447.625 1756.91 415.06C1799.82 397.464 1841.26 373.185 1884.8 356.529C1968.44 324.709 2052.69 362.984 2138.16 355.934M-727.802 1121.02C-727.802 1121.02 -697.991 1096.19 -611.784 1063.4C-563.258 1045.57 -516.527 1023.12 -472.158 996.34C-444.213 978.713 -417.545 963.471 -388.267 961.975C-313.76 958.09 -241.446 953.05 -173.914 917.375C-156.778 908.329 -139.091 899.957 -125.198 890.827C-75.8921 858.633 -27.2656 836.806 28.2336 829.842C90.5447 821.744 160.373 842.202 220.54 866.94C310.142 903.773 399.381 969.258 485.541 1019C519.637 1038.62 589.214 1085.07 628.802 1062.14C664.508 1041.53 715.036 1013.52 721.178 962.7C722.74 949.958 723.482 932.092 725.36 914.961C742.969 756.492 842.865 673.421 998.379 673.689C1001.92 673.702 1005.57 673.572 1009.01 673.727C1121.5 678.107 1251.28 717.984 1361.91 714.147C1407.78 712.546 1417.59 680.722 1435.43 646.298C1464.46 590.683 1468.6 551.733 1520.24 511.815C1584.4 462.006 1677.2 439.889 1754.84 406.204C1796.5 388.117 1836.55 362.457 1879.99 346.665C1964.74 315.836 2047.91 353.329 2133.76 350.587M-731.95 1109.12C-731.95 1109.12 -703.175 1083.51 -618.948 1052.52C-568.598 1033.91 -524.463 1006.62 -481.07 975.349C-457.069 957.198 -428.094 947.335 -397.992 947.069C-325.217 945.779 -254.093 944.109 -187.442 911.581C-171.421 904.218 -155.833 895.919 -140.748 886.723C-93.4329 855.708 -48.2982 831.405 4.63546 822.115C63.4394 811.796 132.402 829.489 190.604 850.113C279.451 881.57 367.269 939.657 452.45 986.874C485.771 1005.5 554.963 1051.8 594.087 1030.83C630.719 1011.18 684.951 993.493 695.688 942.382C698.301 930.162 700.069 913.226 703.374 896.914C734.688 743.743 848.187 666.834 999.55 668.207C1003.09 668.271 1006.69 668.187 1010.07 668.389C1119.77 674.172 1246.4 714.9 1355.28 709.028C1401.7 706.507 1410.02 673.343 1428.7 638.853C1459.24 582.576 1468.5 543.701 1521.35 504.167C1585.86 455.886 1677.4 432.404 1751.87 396.841C1791.71 377.844 1832.29 351.519 1875.14 336.437C1960.19 306.513 2043.64 343.418 2129.75 345.382M-736.136 1097.01C-736.136 1097.01 -708.363 1070.88 -625.927 1040.22C-576.121 1021.65 -531.924 983.625 -490.282 955.253C-465.382 938.333 -437.108 933.904 -408.199 934.426C-336.756 935.618 -266.934 936.742 -201.117 906.595C-185.338 899.906 -170.06 892.064 -155.393 883.125C-110.476 853.504 -65.9718 826.615 -16.8007 813.638C38.2384 798.861 105.369 817.544 162.126 834.416C249.825 860.457 334.493 913.687 417.769 955.819C452.723 973.482 520.585 1016.56 558.648 999.281C596.711 981.998 654.135 973.334 670.925 922.243C674.785 910.566 677.774 894.581 682.666 878.899C727.213 735.553 854.876 659.619 1000.47 661.98C1003.96 662.039 1007.45 662.046 1010.84 662.197C1122.23 666.872 1239.8 712.509 1349.28 704.128C1396.21 700.53 1403.09 665.879 1422.61 631.323C1454.7 574.643 1469.15 535.388 1522.57 496.223C1586.86 449.05 1675.92 424.381 1747.91 386.656C1786.6 366.354 1827.81 340.199 1870.43 325.71C1955.87 296.7 2039.84 332.992 2125.94 339.994M-740.306 1084.64C-740.306 1084.64 -714.095 1058.3 -633.052 1026.25C-583.975 1006.74 -543.66 962.131 -499.718 938.012C-474.919 924.373 -447.187 922.406 -418.39 923.944C-347.934 927.603 -279.303 931.328 -214.169 902.702C-198.741 896.366 -183.898 888.656 -169.8 879.656C-126.295 849.783 -84.1328 820.128 -36.4715 803.65C14.4067 786.07 83.1293 805.281 135.212 818.885C219.131 840.722 301.858 887.836 382.359 926.23C417.897 943.184 484.267 984.102 522.839 968.159C563.733 951.277 622.693 952.956 646.58 902.508C651.726 891.532 656.131 876.57 662.794 861.691C721.896 729.903 859.283 651.908 1001.01 654.786L1011.18 655.085C1121.19 660.643 1234.51 710.512 1343.5 699.613C1389.21 695.063 1398.63 659.136 1417.01 623.895C1447.52 564.838 1470.81 526.719 1523.69 488.269C1587.34 442.056 1672.55 416.005 1742.79 376.142C1781.12 354.466 1822.84 328.878 1865.48 314.905C1950.85 286.866 2036.29 322.592 2122.03 334.8M-744.552 1071.91C-744.552 1071.91 -719.066 1046.98 -640.306 1010.37C-591.88 987.806 -558.458 942.424 -509.424 922.799C-483.494 912.416 -457.277 911.883 -428.74 914.474C-359.424 920.687 -291.288 926.879 -226.84 899.003C-211.535 892.782 -196.901 884.988 -183.146 875.732C-140.358 844.704 -99.3572 811.482 -52.9487 791.324C-5.08157 770.651 62.5046 789.125 111.849 802.441C190.672 823.897 270.579 863.155 348.194 898.007C384.657 914.337 450.704 953.268 488.508 937.81C532.68 919.627 591.044 934.355 623.775 883.346C630.3 873.184 636.314 859.265 644.89 845.307C718.247 725.971 860.776 643.529 1000.94 646.913C1004.29 646.956 1007.74 646.907 1010.77 647.226C1114.49 656.699 1229.49 712.041 1338.09 695.496C1386.33 688.179 1391.48 652.729 1411.86 615.486C1444.34 556.482 1471.09 518.059 1524.14 480.14C1587.53 434.877 1667.6 406.743 1736.53 364.994C1774.95 341.785 1817.09 317.373 1859.94 303.936C1945.55 276.95 2032.52 311.809 2117.61 329.708M-748.77 1058.71C-748.77 1058.71 -719.673 1035.09 -647.619 992.225C-606.779 968.139 -567.267 922.986 -519.486 908.577C-493.317 900.739 -467.566 901.391 -439.287 904.983C-370.906 913.617 -302.879 922.42 -238.975 894.59C-223.534 888.488 -208.904 880.466 -195.39 870.69C-152.077 836.683 -113.889 797.921 -66.0785 775.751C-19.3261 753.984 43.4021 769.788 92.9109 783.635C166.908 804.326 242.848 840.03 316.563 871.026C354.044 886.796 417.122 922.741 456.198 908.238C504.175 890.611 562.698 911.628 602.658 864.774C610.615 855.327 618.132 842.595 628.963 829.595C717.592 722.971 858.092 634.249 1000.2 637.271C1003.44 637.355 1006.84 637.301 1010.02 637.636C1112.75 647.981 1225.26 710.413 1333.59 690.96C1381.51 682.325 1386.68 645.127 1408.05 607.784C1441.79 549.015 1472.05 509.47 1525.22 471.256C1587.45 426.385 1665.25 394.361 1730.92 352.783C1768.29 329.206 1813.57 301.628 1855.15 292.171C1941.39 272.604 2023.84 299.07 2114.06 324.09M-753.055 1044.99C-753.055 1044.99 -724.064 1020.69 -655.117 972.258C-619.433 947.166 -575.226 905.747 -529.069 895.383C-502.789 889.767 -477.363 890.899 -449.286 895.396C-381.628 906.216 -313.336 917.926 -249.798 889.647C-234.266 883.286 -219.669 874.797 -206.377 864.392C-162.275 827.127 -123.627 783.22 -75.2461 756.533C-29.1077 731.102 29.4853 746.111 79.39 761.542C148.373 782.94 219.416 817.409 288.598 845.254C327.04 860.611 386.627 893.258 427.01 879.921C478.942 862.812 537.051 889.03 583.752 847.051C593.127 838.576 602.548 826.918 615.579 814.972C718.221 720.724 853.487 625.794 998.568 626.867C1001.72 626.89 1004.91 626.969 1008 627.14C1116.99 634.133 1217.11 710.842 1329.23 686.645C1375.35 676.792 1384.69 638.233 1404.33 600.142C1435.36 539.854 1473.91 499.948 1525.92 462.177C1586.9 417.74 1660.4 380.945 1725.04 340.287C1762.5 316.719 1808.32 289.198 1850.15 280.385C1936.81 261.993 2021.06 287.311 2110.31 318.605M-757.451 1030.7C-757.451 1030.7 -731.82 1000.13 -662.883 950.256C-628.545 925.435 -583.54 889.498 -539.076 881.887C-512.815 877.865 -485.916 878.711 -459.592 884.388C-392.297 897.124 -323.451 911.874 -260.006 882.711C-244.144 875.909 -229.356 866.768 -216.076 855.556C-171.489 815.976 -134.636 763.551 -79.2139 738.428C-28.6088 715.626 22.9505 720.845 71.6022 735.836C133.979 754.996 200.123 794.76 265.51 820.253C304.404 835.451 360.372 865.3 401.778 852.946C457.518 836.341 514.916 866.957 567.595 830.285C578.335 822.828 589.723 812.817 605.245 801.184C714.646 719.628 851.903 615.447 995.863 615.527C998.913 615.54 1002.01 615.608 1004.95 615.815C1114.23 622.839 1212.23 710.276 1324.93 682.799C1370.95 671.598 1380.16 630.868 1400.6 592.706C1432.65 532.679 1473.83 491.558 1525.49 453.133C1584.87 408.94 1653.79 366.726 1718.28 327.595C1756.56 304.371 1802.33 276.896 1844.36 268.874C1931.33 251.801 2018.01 276.038 2105.89 313.615M-761.472 1015.88C-761.472 1015.88 -737.262 976.315 -670.273 929.323C-636.704 905.809 -591.439 873.704 -548.407 867.794C-522.12 864.381 -495.308 865.672 -469.102 871.613C-401.845 885.784 -331.965 903.78 -268.557 873.584C-252.179 866.305 -237.053 856.4 -223.705 844.213C-179.178 800.77 -140.649 748.315 -81.3941 723.287C-31.3868 702.223 19.5686 702.802 68.6055 714.697C127.927 729.062 189.454 769.471 248.47 795.322C284.423 811.136 341.317 837.895 381.453 827.001C440.602 811.011 497.228 845.403 554.487 814.355C566.599 807.814 580.979 797.963 598.087 786.96C710.756 714.797 851.302 604.277 991.902 602.153C994.809 602.099 997.807 602.158 1000.65 602.303C1110.29 609.158 1207.48 709.879 1320.87 678.413C1366.36 666.076 1376.3 623.16 1397.43 584.917C1430.59 525.162 1473.58 482.791 1525.04 443.522C1582.43 399.685 1647.86 351.654 1711.75 314.362C1750.84 291.532 1796.61 264.159 1838.95 256.531C1926.14 240.818 2015.68 264.172 2101.85 307.997M-766.046 1000.44C-766.046 1000.44 -747.796 952.84 -678.264 909.355C-638.71 884.568 -603.564 858.597 -558.401 852.448C-532.144 848.86 -505.319 850.151 -479.145 856.262C-411.803 871.471 -340.539 892.594 -276.918 861.341C-259.778 853.607 -244.138 842.8 -230.679 829.391C-188.202 784.036 -143.16 732.934 -82.4765 710.319C-34.2382 692.12 18.277 688.088 69.5316 698.649C124.071 710.711 182.465 744.364 238.428 770.253C284.674 791.624 330.1 812.703 366.751 802.47C425.081 786.189 489.597 817.914 545.575 799.02C558.639 794.636 574.769 783.53 593.215 773.181C707.163 709.123 850.279 592.755 986.638 588.334C989.46 588.065 992.123 587.985 995.063 588.192C1105.43 594.353 1202.9 709.912 1317.47 674.404C1362.37 660.463 1372.79 615.335 1394.46 576.995C1428.26 517.409 1472.89 473.823 1524.07 433.548C1579.8 389.638 1642.73 336.563 1705.1 300.705C1744.16 278.283 1790.9 251.167 1833.41 244.173C1920.75 229.864 2013.9 252.879 2097.8 302.532M-770.432 984.343C-770.432 984.343 -753.454 931.781 -685.947 890.036C-647.792 866.387 -613.113 842.424 -567.714 835.631C-541.517 831.44 -514.633 832.334 -488.386 838.27C-421.002 853.586 -347.154 877.553 -283.78 845.502C-266.367 836.962 -250.592 825.3 -237.141 811.023C-193.904 763.691 -145.022 718.238 -83.0972 698.685C-32.8757 682.434 20.6119 678.379 73.4016 686.818C125.064 696.007 182.245 722.899 234.233 746.982C277.316 766.94 317.071 789.016 358.759 779.314C419.324 765.119 482.175 799.96 539.471 783.672C553.231 779.978 570.617 769.261 590.163 759.44C704.949 701.845 847.938 581.094 979.861 572.709C982.579 572.533 985.392 572.417 988.094 572.496C1100.14 576.109 1197.58 709.867 1313.95 669.921C1358.29 654.738 1369.44 607.27 1391.66 568.884C1426.14 509.37 1471.83 464.61 1522.58 423.262C1577.01 378.804 1636.71 322.15 1698.21 286.92C1737.27 264.601 1784.85 238.087 1827.66 231.794C1919.75 219.217 2014.3 242.436 2093.61 297.103M-774.882 967.678C-774.882 967.678 -759.271 911.681 -694.046 871.033C-657.212 848.068 -622.934 825.04 -577.249 816.786C-551.165 811.483 -524.164 811.531 -497.72 816.927C-430.784 831.527 -354.365 857.718 -291.517 825.407C-274.289 817.02 -258.464 805.91 -244.576 792.45C-198.763 746.469 -147.262 704.069 -83.7193 687.05C-30.8548 672.937 24.4809 669.7 79.2824 677.514C129.271 685.087 184.756 705.064 234.444 726.489C275.259 744.1 311.245 766.654 355.885 756.953C416.083 743.953 479.083 781.175 535.711 767.8C549.99 764.469 568.365 754.473 588.911 745.22C665.572 710.763 740.452 669.177 814.793 629.179C863.488 602.989 916.243 560.206 972.712 555.915C975.384 555.682 978.196 555.566 980.902 555.594C1094.27 558.574 1193.05 709.184 1310.5 665.238C1353.96 648.987 1366.2 599.113 1388.93 560.37C1424.09 501.03 1470.05 455.014 1520.44 412.239C1573.79 366.948 1630.19 307.17 1691.36 272.471C1730.64 250.637 1779.3 224.906 1822.18 219.134C1909.89 207.794 2010.82 229.982 2089.66 291.546M-779.392 950.39C-779.392 950.39 -765.185 892.394 -701.996 852.046C-666.162 829.336 -632.428 806.353 -586.353 795.724C-559.895 789.612 -533.285 786.653 -506.667 791.664C-440.796 804.354 -364.15 833.293 -300.712 804.232C-283.245 796.763 -267.057 786.522 -252.698 773.856C-204.661 729.343 -149.62 687.007 -85.2538 675.063C-29.2587 663.771 28.408 661.839 85.6372 669.338C137.36 677.164 188.384 690.457 237.919 709.012C277.092 723.674 310.345 745.837 356.429 735.877C414.067 723.688 479.481 762.501 534.256 752.067C548.801 749.227 568.032 739.732 589.332 731.021C667.699 698.159 743.787 659.982 817.126 616.724C863.091 590.092 911.158 543.474 965.582 538.814C968.3 538.541 971.034 538.417 973.775 538.442C1088.53 540.488 1189.19 707.853 1307.07 660.096C1349.5 643.016 1363.22 589.853 1386.25 551.912C1422.13 492.752 1467.88 445.376 1517.77 401.211C1570.2 354.796 1622.8 292.664 1684.6 258.236C1723.93 236.305 1773.41 211.02 1816.52 206.249C1904.55 195.972 2009.49 218.684 2085.57 285.974M-783.802 933.061C-783.802 933.061 -771.138 873.72 -709.886 832.86C-675.513 809.893 -641.775 786.037 -595.202 772.066C-568.534 764.125 -542.016 758.637 -515.955 763.898C-450.855 777.123 -374.759 808.628 -310.407 783.159C-292.607 776.828 -275.956 767.6 -261.051 755.804C-207.964 710.794 -152.959 677.966 -87.1226 662.885C-31.3515 649.831 33.4606 650.788 92.177 661.337C141.984 670.279 195.248 679.842 244.31 694.567C282.547 705.995 313.346 727.231 360.311 716.541C414.412 704.237 482.326 744.033 534.397 735.988C549.298 733.751 568.994 724.717 590.901 716.532C670.533 686.978 746.902 649.166 818.905 603.645C863.041 575.536 904.295 526.812 958.515 521.462C961.234 521.156 963.97 520.998 966.714 520.988C1083.58 522.28 1186.65 703.523 1303.72 654.549C1344.73 637.371 1360.02 580.929 1383.67 543.209C1420.14 484.212 1465.49 435.354 1514.61 389.979C1566.39 342.208 1615.36 278.357 1677.88 244.007C1717.34 222.449 1767.66 197.92 1810.98 193.635C1899.57 184.805 2008.41 207.979 2081.72 280.428M-788.198 916.299C-788.198 916.299 -777.134 855.761 -717.941 813.142C-684.753 789.433 -650.974 764.09 -604.051 745.992C-577.094 735.716 -551.869 730.452 -526.649 735.779C-462.216 749.448 -386.807 783.348 -321.511 761.783C-303.334 756.389 -286.205 747.95 -270.773 736.785C-215.15 693.79 -157.976 662.527 -90.8939 648.811C-32.1768 636.684 35.4431 639.222 96.7011 651.683C147.644 662.185 200.019 670.986 251.41 682.203C289.348 690.462 318.21 710.364 365.589 698.535C416.515 685.845 486.333 725.892 535.818 719.889C551.102 717.847 571.285 709.687 593.621 701.753C671.583 675.042 751.94 638.095 819.447 589.871C862.047 559.492 896.018 509.951 951.076 503.763C953.8 503.484 956.622 503.215 959.233 503.181C1077.34 503.473 1185.23 700.135 1299.86 648.385C1339.89 630.281 1356.67 572.093 1380.67 533.484C1417.37 474.768 1462.09 424.765 1510.37 377.912C1561.32 328.461 1607.41 263.381 1670.62 229.154C1710.32 207.622 1761.41 184.049 1805.04 180.464C1894.08 173.069 2006.87 196.967 2077.36 274.518M-792.69 899.527C-783.2 856.303 -759.428 818.489 -725.505 792.653C-693.37 767.651 -658.15 737.215 -612.662 717.628C-586.493 706.55 -562.03 701.668 -537.549 707.02C-473.19 721.093 -398.968 756.719 -333.005 739.544C-314.373 735.321 -296.675 727.795 -280.661 717.285C-222.564 676.504 -163.132 646.147 -95.2952 632.974C-30.9786 621.526 35.3368 623.627 99.8257 639.157C152.9 651.837 205.798 663.367 259.843 671.418C297.267 676.795 325.691 695.005 373.101 681.843C421.316 668.405 491.013 707.206 539.377 703.45C554.214 702.286 575.311 694.479 597.273 687.02C672.667 661.274 755.46 627.976 819.914 575.729C861.322 542.293 888.37 494.081 943.821 486.289C946.519 485.88 949.246 485.652 951.984 485.605C1071.79 484.687 1187.31 696.754 1295.69 641.622C1333.84 622.188 1352.59 563.848 1377.45 524.146C1414.35 465.299 1458.44 414.406 1505.6 365.789C1555.64 314.186 1599.26 248.435 1663.59 214.48C1703.55 193.387 1753.28 172.91 1799.33 167.471C1888.57 156.859 2011.24 191.412 2073.28 268.741M-797.156 883.117C-787.979 839.302 -765.564 800.225 -733.182 771.586C-699.882 741.977 -662.383 708.078 -621.72 689.321C-596.752 677.756 -572.751 673.186 -548.698 678.287C-483.244 692.167 -412.953 730.104 -345.611 716.982C-326.456 713.897 -308.102 707.244 -291.408 697.336C-231.382 658.814 -170.48 628.561 -101.692 615.128C-35.3613 602.552 33.3104 605.252 99.6238 623.042C154.215 638.298 210.824 655.977 267.351 661.256C305.183 664.774 333.689 680.833 380.899 666.107C427.005 651.727 497.101 689.644 543.67 686.265C558.5 685.203 579.526 678.572 601.512 671.527C675.706 647.71 758.057 616.011 818.418 560.66C857.716 524.688 880.255 476.979 936.498 468.293C939.197 467.851 941.925 467.588 944.667 467.507C1065.56 465.726 1185.3 690.938 1290.9 633.867C1328.51 613.504 1348.65 554.95 1374.17 514.084C1410.97 455.328 1454.68 404.292 1500.16 353.237C1548.53 299.246 1591.78 232.943 1656.46 199.642C1696.75 178.943 1747.53 158.987 1793.44 154.356C1883.57 145.277 2009.51 180.997 2068.97 262.786M-801.624 866.759C-793.337 821.773 -772.135 780.979 -740.812 749.754C-708.891 717.736 -672.168 680.414 -631.59 660.62C-607.147 648.794 -583.831 644.152 -560.361 649.14C-495.012 663.111 -426.749 702.841 -359.106 693.658C-339.375 691.754 -320.286 686.022 -302.805 676.752C-241.044 640.47 -178.775 609.589 -109.519 594.92C-44.4539 581.198 30.8498 582.025 96.1628 602.265C154.132 620.242 212.272 645.949 273.906 651.405C313.753 654.98 342.2 667.948 389.015 651.638C433.618 636.072 503.644 672.696 548.875 669.485C563.702 668.474 584.59 662.496 606.502 655.855C679.269 633.637 759.097 602.958 815.572 545.141C852.787 506.996 872.581 459.923 929.269 450.41C931.964 449.948 934.693 449.685 937.437 449.624C1057.85 446.867 1175.99 682.041 1285.04 625.024C1324.44 604.284 1344.48 545.152 1369.97 504.644C1406.86 446 1450.86 392.681 1494.06 340.975C1539.61 286.43 1584.58 217.891 1649.46 185.382C1690.07 165.025 1741.35 145.637 1787.66 141.717C1878.78 134.13 2007.89 171.212 2064.82 257.362M-806.148 850.498C-798.377 803.978 -778.358 761.106 -748.316 726.649C-718.848 692.882 -681.802 652.663 -641.317 631.985C-617.547 619.883 -594.475 615.214 -571.687 620.08C-506.576 633.923 -440.348 675.547 -372.922 669.94C-352.894 669.063 -333.359 664.135 -315.389 655.426C-251.992 621.373 -188.428 588.623 -119.264 572.247C-50.1005 555.872 22.2759 555.465 87.849 575.476C147.191 593.545 211.4 633.568 277.893 640.872C320.392 645.344 349.722 655.937 396.199 637.894C439.948 621.004 509.471 656.187 554.063 652.96C568.89 651.949 588.949 645.833 611.264 639.851C684.57 620.106 758.961 588.186 810.977 529.232C846.134 489.328 865.45 442.822 921.964 432.931C924.663 432.46 927.393 432.163 930.139 432.043C1053.81 428.24 1166.9 671.366 1279.11 615.557C1319.71 595.456 1340.5 535.222 1366.19 494.013C1402.78 435.39 1446.09 381.227 1487.21 328.171C1530.71 271.663 1577.17 202.2 1642.59 170.416C1683.57 150.459 1736.91 129.642 1782.06 128.53C1874.09 126.233 2003.27 155.814 2060.76 251.176M-810.619 834.191C-805.07 782.585 -783.012 742.794 -755.785 702.982C-730.395 665.855 -691.382 624.866 -651.294 603.426C-627.994 590.966 -605.121 586.329 -582.767 591.046C-518.084 604.638 -452.995 648.816 -386.666 645.87C-366.924 644.965 -345.101 642.222 -327.64 633.519C-263.469 601.295 -199.583 568.116 -130.024 546.846C-59.1061 525.102 12.6274 519.074 78.0181 541.277C139.891 562.235 207.901 616.643 279.415 628.795C325.454 636.57 356.377 644.45 402.69 625.054C459.116 601.219 501.655 649.554 559.804 637.059C574.218 633.948 594.716 629.523 616.517 623.898C689.978 604.838 755.225 573.55 804.72 513.148C838.377 472.007 859.268 425.512 914.841 414.905C917.519 414.374 920.236 414.041 922.973 413.909C1049.86 409.006 1157.96 659.73 1273.19 605.37C1314.63 585.872 1336.37 524.607 1362.25 482.647C1398.4 424.029 1440.22 369.246 1479.79 315.05C1522.01 257.018 1569.56 187.259 1635.54 156.1C1676.94 136.546 1730.88 116.409 1776.29 115.84C1869.48 114.692 2001.46 145.854 2056.44 245.374M-815.137 817.827C-810.647 764.208 -789.545 720.717 -763.153 678.451C-739.483 640.476 -701.159 597.049 -661.175 574.878C-638.205 562.178 -615.475 557.474 -593.555 562.042C-529.152 575.399 -466.077 621.113 -400.311 621.76C-379.767 622.494 -359.449 618.841 -340.596 611.023C-274.747 580.364 -209.285 544.729 -140.135 517.245C-68.6122 488.777 3.12005 477.917 68.3748 501.544C132.722 524.717 202.383 594.879 276.874 613.925C327.716 626.884 360.811 633.039 406.624 612.15C463.312 586.441 506.377 634.215 564.505 621.254C578.775 618.076 598.637 613.585 620.552 607.715C693.836 588.328 751.191 558.935 797.78 497.764C829.889 455.38 852.427 408.493 907.245 397.344C909.925 396.785 912.644 396.419 915.384 396.246C1045.25 390.215 1148.63 647.282 1266.68 595.07C1309.16 576.299 1331.62 513.72 1357.49 471.194C1393.14 412.677 1433.02 357.331 1471.5 301.632C1513 241.571 1561.34 171.895 1628.22 141.293C1670.08 122.199 1724.61 102.844 1770.29 102.766C1864.71 102.416 1999.34 135.45 2051.86 239.03M-819.599 801.367C-816.201 745.473 -795.964 698.395 -770.398 653.523C-748.35 614.708 -710.789 569.247 -670.916 546.499C-648.075 533.477 -625.54 528.752 -603.846 532.988C-539.621 546.018 -478.363 593.289 -412.906 597.399C-392.283 599.013 -371.739 595.911 -352.7 588.308C-284.232 558.285 -216.687 517.521 -148.328 483.63C-77.8382 448.678 -8.68629 434.923 59.9593 457.828C132.321 481.946 194.005 562.683 270.137 595.22C310.337 612.407 368.662 617.257 408.575 599.501C467.93 572.838 513.478 620.256 568.972 606.093C582.829 602.409 602.673 598.224 624.248 592.267C696.283 572.388 746.915 543.471 790.948 482.237C822.177 438.938 845.383 391.606 900.519 380.079C903.193 379.474 905.915 379.09 908.661 378.931C1041.15 371.737 1140.29 634.681 1260.87 584.484C1342.84 550.225 1408.96 370.174 1463.64 288.413C1504.59 226.906 1553.73 156.954 1621.56 127.018C1663.89 108.333 1719.01 89.7603 1764.91 90.1671C1860.63 91.0858 1997.64 125.399 2047.84 233.054M-824.056 784.804C-820.799 729.422 -804.885 676.156 -777.648 629.467C-754.35 590.321 -720.285 541.664 -680.385 518.456C-657.573 505.123 -634.987 500.352 -613.538 504.562C-549.336 517.179 -489.792 565.915 -424.882 573.361C-404.317 575.834 -383.668 573.141 -364.653 565.506C-292.66 534.98 -223.438 483.646 -155.639 446.816C-93.291 413.013 -20.768 381.051 51.661 411.347C131.72 444.862 188.544 531.875 260.816 569.61C304.654 592.527 356.797 609.993 407.477 585.965C467.326 557.658 516.104 606.186 572.708 591.575C586.37 587.87 605.835 583.439 627.028 577.288C697.55 556.376 742.345 527.153 784.066 466.704C814.504 422.653 838.434 374.73 893.094 362.947C895.751 362.324 898.458 361.921 901.19 361.742C1036.11 353.518 1131.49 621.569 1254.16 573.391C1337.61 540.728 1401.8 357.543 1455.5 274.959C1496.12 212.389 1545.97 142.101 1614.74 112.88C1657.53 94.6556 1713.19 76.962 1759.31 77.701C1856.46 79.4893 1995.58 115.414 2043.54 226.792M-828.502 768.088C-826.231 710.589 -811.36 654.893 -785.037 605.295C-763.257 565.218 -729.587 514.154 -689.454 490.354C-666.533 476.826 -643.699 472.029 -622.481 476.01C-558.236 487.911 -500.075 538.352 -435.756 549.027C-415.338 552.497 -394.606 550.279 -375.662 542.598C-299.606 510.802 -230.799 450.118 -161.812 407.5C-101.567 370.236 -28.9618 332.884 43.9562 363.231C127.239 397.96 181.668 488.732 251.917 538.697C294.379 568.873 349.709 597.884 403.64 571.37C463.671 541.693 517.209 592.883 575.572 576.862C589.087 573.142 608.066 568.609 628.851 561.9C697.344 540.363 737.434 509.977 777.394 450.988C807.514 406.492 831.313 358.298 886.108 345.913C888.77 345.297 891.476 344.878 894.207 344.656C1026.48 335.383 1124.05 611.994 1247.68 561.809C1334.64 526.429 1393.83 343.849 1447.43 261.255C1487.95 198.675 1538.51 127.227 1608.12 98.7119C1651.42 81.0041 1707.63 64.0875 1753.96 65.3121C1852.64 67.9293 1993.59 105.28 2039.36 220.387M-832.944 751.27C-831.57 691.851 -817.785 633.948 -792.556 581.623C-772.211 540.058 -738.675 487.129 -698.177 463.007C-675.041 449.193 -651.911 444.376 -630.733 448.199C-566.225 459.819 -509.217 511.424 -445.436 525.282C-425.171 529.864 -404.29 528.258 -385.305 520.656C-306.061 487.448 -236.57 413.878 -167.205 366.673C-108.874 326.893 -36.693 285.177 36.6016 314.998C122.003 349.693 176.385 444.47 242.483 503.614C281.132 538.223 338.954 582.098 395.286 554.963C457.05 525.109 515.668 580.174 576.921 562.761C590.387 559.036 608.942 554.201 629.124 547.686C694.955 525.406 732.122 492.913 770.349 435.696C800.391 390.883 823.915 342.351 878.784 329.562C881.451 328.955 884.157 328.518 886.886 328.255C1021.67 318.115 1115.03 598.396 1240.52 550.154C1329.26 516.094 1385.63 330.543 1438.99 247.821C1479.42 185.231 1530.87 112.849 1601.16 85.1771C1645.03 67.9398 1699.89 53.7608 1748.33 53.5104C1851.29 52.876 1993.68 100.508 2034.76 214.247M-837.375 734.298C-836.909 672.92 -824.235 612.788 -800.16 557.736C-781.101 514.647 -747.357 459.941 -706.48 435.242C-682.98 421.106 -659.654 416.31 -638.119 419.913C-572.439 430.885 -516.677 483.542 -453.571 500.414C-433.277 506.501 -411.858 505.122 -392.942 496.509C-311.4 457.063 -244.544 377.458 -171.918 325.197C-114.273 283.751 -44.04 239.259 29.4789 267.819C116.031 301.4 172.014 397.374 233.31 465.062C271.267 507.002 324.39 560.976 385.844 535.408C451.475 508.325 512.528 567.864 576.482 548.935C589.851 545.199 608.035 539.965 627.652 533.031C741.424 492.915 764.128 338.889 871.698 313.34C874.344 312.707 877.035 312.268 879.752 312.028C1017.46 300.807 1105.66 583.22 1233.53 538.004C1322.26 506.668 1378.4 316.722 1430.86 234.163C1471.15 170.581 1523.33 98.4808 1594.7 71.6939C1639.07 55.0241 1694.42 41.7192 1743.14 41.8062C1847.86 42.0263 1991.18 90.7832 2030.51 207.939M-841.751 717.23C-844.281 652.794 -828.308 592.464 -807.691 534.268C-791.402 488.163 -756.068 433.212 -714.234 408.151C-693.578 395.103 -669.265 389.399 -644.78 391.858C-577.159 399.229 -521.96 453.061 -459.563 472.686C-439.238 479.665 -417.433 478.472 -398.476 469.343C-315.406 427.436 -248.994 338.94 -176.198 283.869C-119.961 241.298 -51.219 196.238 22.3629 222.953C109.766 254.67 167.137 351.305 224.158 423.736C259.3 468.259 311.49 538.383 376.514 513.19C444.673 486.631 504.275 554.655 574.508 535.255C588.317 531.566 605.585 526.03 624.725 518.84C735.552 476.974 758.643 323.041 864.848 297.297C867.51 296.632 870.219 296.161 872.956 295.887C1013.15 284.259 1096.84 567.226 1226.42 525.379C1314.73 496.826 1371.35 303.024 1422.89 220.367C1463.09 155.85 1516.22 84.1591 1588.43 58.2823C1633.36 42.1851 1689.08 29.8973 1738.27 30.3423C1845.07 31.2946 1988.97 80.9869 2026.38 201.386M-846.225 700.151C-849.689 634.074 -834.811 571.521 -815.042 511.077C-799.699 463.535 -764.403 406.781 -721.413 381.327C-700.337 368.17 -675.918 361.667 -650.973 362.566C-581.8 365.473 -526.058 420.082 -464.204 442.17C-454.187 446.012 -443.606 447.725 -433.096 447.205C-422.586 446.685 -412.363 443.944 -403.038 439.144C-319.138 394.908 -253.747 300.545 -180.334 243.43C-125.106 200.445 -58.5025 157.371 15.1245 181.726C103.854 211.062 160.698 305.019 215.014 380.663C248.549 427.331 299.467 510.278 367.043 488.439C438.338 465.346 494.403 542.973 570.263 521.697C586.919 516.973 603.296 511.333 619.328 504.801C727.222 460.981 752.505 307.433 857.563 281.927C860.225 281.279 862.933 280.825 865.668 280.569C1007.67 268.411 1087.81 551.467 1218.6 513.09C1306.12 487.179 1363.8 289.581 1414.39 207.235C1454.59 141.793 1508.77 70.7263 1581.7 45.8003C1626.94 30.3012 1683.54 19.0819 1732.95 19.9102C1841.12 21.7782 1985.97 71.931 2021.63 195.435M-850.65 683.077C-854.25 616.27 -844.804 549.899 -822.893 488.038C-805.51 439.323 -777.736 384.04 -729.118 355.064C-707.342 341.372 -682.504 333.589 -656.766 332.391C-586.238 330.813 -529.165 384.585 -467.727 409.457C-457.735 413.662 -447.075 415.594 -436.472 415.121C-425.869 414.648 -415.573 411.782 -406.283 406.718C-322.041 360.923 -258.371 262.472 -184.673 204.719C-130.106 162.075 -66.1541 123.762 7.35656 145.173C97.4097 171.358 153.352 259.101 205.88 336.613C238.897 385.335 292.738 480.93 357.622 461.276C425.218 440.725 483.97 530.82 563.861 508.015C577.786 504.03 593.978 498.38 612.039 491.128C720.389 447.099 745.209 292.268 850.566 266.691C853.228 266.027 855.937 265.556 858.674 265.282C1002.16 252.921 1079.64 535.336 1210.8 499.724C1297.22 476.371 1356.82 274.912 1406.23 193.367C1446.22 127.287 1501.65 56.7113 1575.5 32.859C1624.66 16.8347 1676.13 8.81372 1728.15 9.06986C1837.93 11.8791 1983.27 62.0834 2017.47 188.621M-855.029 666.06C-863.253 549.555 -835.207 393.47 -736.582 328.878C-608.415 244.668 -510.128 426.849 -408.705 372.887C-277.819 303.051 -183.181 74.1196 -1.17694 114.71C86.917 134.261 143.927 214.97 193.711 288.234C227.693 338.085 275.994 446.261 348.268 432.166C397.628 422.551 417.868 460.416 458.499 481.042C508.531 506.513 554.173 501.391 604.152 478.369C707.176 431.26 740.736 273.544 843.705 251.624C990.333 220.774 1064.6 518.791 1202.82 486.081C1277.73 468.253 1317.57 318.962 1354.84 252.542C1406.97 160.024 1467.82 49.6559 1569.31 20.5357C1704.87 -18.4204 1963.93 -14.7655 2012.84 182.119" stroke="url(#paint0_linear_375_10816)" stroke-width="0.5" stroke-miterlimit="10"/>
<defs>
<linearGradient id="paint0_linear_375_10816" x1="1719.59" y1="185.275" x2="-172.446" y2="607.637" gradientUnits="userSpaceOnUse">
<stop offset="0.683304" stop-color="#FD6721"/>
<stop offset="0.820933" stop-color="#FD6721" stop-opacity="0"/>
</linearGradient>
</defs>
</svg>
