<svg width="1920" height="991" viewBox="0 0 1920 991" fill="none" xmlns="http://www.w3.org/2000/svg">
<path opacity="0.2" d="M-225.642 927.086C-173.506 965.693 -104.212 980.539 -39.0993 987.349C92.0623 1000.97 104.273 856.299 200.637 848.996C285.86 842.522 341.605 824.31 387.028 764.072C463.446 662.768 588.73 719.109 666.879 785.087C787.491 886.905 914.92 1025.35 1110.75 981.751C1256.38 949.306 1348.01 886.706 1409.9 775.054C1436.13 727.705 1464.39 674.068 1476.54 622.505C1488.3 572.63 1470.52 495.884 1532.95 467.887C1663.9 409.134 1846.96 508.637 1986.12 478.88C2084.96 457.86 2124.45 421.343 2085.24 334.949C2031.8 217.317 2216.46 185.923 2320.32 168.588C2410.42 153.475 2552.91 193.484 2627.52 140.036M-230.399 910.875C-178.735 947.998 -110.101 962.478 -47.0073 968.071C25.8097 974.56 77.6519 922.067 112.125 876.276C135.48 845.192 160.418 817.089 189.588 816.685C280.542 815.478 325.289 794.47 375.526 737.431C389.822 721.141 405.43 707.536 422.37 699.431C507.894 658.427 592.408 709.435 653.327 756.992C718.163 807.873 782.362 877.191 858.18 919.999C940.075 966.224 1016.82 980.805 1112.03 965.749C1170.41 956.541 1236.72 936.633 1279.56 905.661C1331.81 867.703 1370.27 817.657 1403.19 764.784C1409.8 754.095 1415.72 742.333 1421.48 730.521C1444.28 683.717 1460.08 641.24 1467.64 590.952C1474.88 542.866 1461.11 487.978 1512.43 455.535C1514.41 454.254 1516.53 453.116 1518.76 452.132C1651.09 394.468 1836.22 497.732 1976.58 470.104C2078.83 450.139 2108.52 412.525 2070.24 326.166C2042.49 263.242 2089.66 226.753 2149.89 202.957C2199.34 183.459 2261.48 172.012 2318.9 163.041C2407.77 149.119 2549.23 185.372 2623.41 135.447M-235.168 894.194C-183.841 929.374 -115.963 942.23 -55.0309 945.931C18.4397 950.4 67.9433 890.84 101.873 844.459C125.248 812.517 149.979 785.139 178.862 784.635C266.246 783.142 311.289 765.206 364.894 712.815C377.964 699.404 394.577 688.474 413.626 680.751C501.182 647.571 575.174 684.291 640.145 731.039C709.959 781.223 777.896 848.104 852.486 893.354C933.041 942.169 1015.7 964.064 1113.39 949.988C1169.61 941.897 1233.76 921.934 1274.9 890.63C1325 852.539 1364.43 805.776 1396.84 754.934C1403.54 744.447 1409.54 732.771 1415.4 721.005C1440.22 671.666 1450.81 630.962 1455.38 577.463C1459.59 528.509 1445.9 472.689 1498.84 440.22C1500.86 438.949 1503.01 437.814 1505.27 436.825C1639.71 380.502 1826.47 487.845 1967.33 461.507C2072.25 441.912 2090.89 403.415 2055.74 317.267C2029.29 252.335 2086.11 218.769 2147.6 196.52C2198.54 178.079 2260.09 166.663 2317.77 157.439C2405.77 143.369 2545.3 178.49 2619.3 130.741M-239.934 877.473C-191.148 908.737 -121.712 922.421 -63.2811 921.701C13.0301 920.807 57.5352 859.128 91.643 812.369C115.134 780.202 139.855 754.192 168.496 753.629C244.701 752.219 305.148 736.141 355.174 690.969C369.406 679.094 386.814 669.911 406.201 664.053C492.795 634.9 560.963 662.593 627.76 708.041C699.691 756.987 770.225 820.324 844.918 866.129C927.73 916.884 1014.14 946.662 1113.44 934.043C1171.42 926.409 1225.03 906.077 1268.35 875.292C1318.42 838.302 1359.59 794.332 1389.98 745.395C1396.59 734.744 1402.81 723.398 1408.91 711.729C1436.18 659.421 1440.13 620.414 1441.71 563.783C1443.07 514.171 1430.51 457.622 1485.3 425.534C1487.34 424.273 1489.51 423.139 1491.77 422.143C1628.41 367.363 1817.05 478.296 1957.51 453.178C2063.46 434.29 2072.01 393.931 2040.97 308.775C2016.77 242.07 2083.19 211.616 2145.55 190.727C2197.73 173.402 2258.71 161.667 2316.37 152.206C2403.5 137.911 2540.84 172.114 2614.73 126.388M-244.757 860.24C-195.983 888.572 -127.261 898.876 -71.6145 895.431C3.81507 890.793 46.6908 826.716 81.6331 779.985C105.282 748.3 130.095 724.212 158.593 723.599C232.523 722.319 291.567 709.022 346.535 671.594C362.81 661.366 381.112 653.318 400.762 647.748C486.515 621.733 551.98 641.979 618.232 686.249C689.013 733.579 762.282 792.873 836.187 838.069C921.454 890.114 1017.14 930.016 1112.25 916.867C1167.69 908.644 1218.98 889.03 1261.11 859.938C1311.02 824.721 1352.44 782.56 1383.49 735.378C1390.19 724.89 1396.41 713.622 1402.77 701.74C1431.62 648.659 1431.92 607.992 1427.66 549.252C1424.28 502.935 1417.21 439.397 1472.62 410.604C1474.77 409.378 1477.01 408.252 1479.33 407.232C1618.05 354.065 1807.96 468.188 1948.05 444.095C2054.1 425.841 2053.25 383.479 2026.84 299.593C2005.48 231.825 2081.95 203.816 2144.33 184.453C2197.42 168.022 2257.81 156.357 2315.58 146.632C2401.84 132.111 2536.85 165.423 2610.63 121.643M-249.547 843.205C-200.677 868.496 -132.895 874.542 -80.0417 868.489C-6.19948 859.698 35.3442 795.046 71.7932 748.553C95.6884 718.098 120.893 696.505 149.127 696.105C220.501 695.403 280.991 686.794 339.722 654.631C357.356 645.515 376.441 638.242 396.529 632.985C480.817 609.277 544.686 623.024 610.453 665.965C679.873 711.232 752.499 766.879 825.715 810.846C913.348 863.472 1013.19 910.468 1108.35 899.199C1156.15 893.524 1210.52 873.403 1253.59 845.655C1304.51 812.839 1346.41 772.087 1376.88 725.741C1383.67 715.339 1389.91 703.799 1396.55 692.134C1443.18 611.315 1352.43 448.679 1460.49 396.695C1462.79 395.629 1465.15 394.41 1467.5 393.347C1608.56 340.994 1793.85 459.437 1937.22 434.826C2045.92 416.157 2034.1 373.152 2012.98 290.706C1995.7 223.03 2081.7 197.073 2143.92 179.105C2199.77 163.678 2256.95 151.173 2315.09 141.668C2400.44 126.839 2532.9 159.323 2606.59 117.45M-254.303 826.369C-205.167 848.319 -138.625 849.576 -88.5014 840.724C-16.5128 828.032 23.4922 764.156 62.1808 718.585C86.471 689.96 112.023 671.404 140.229 671.354C209.148 671.198 274.804 666.912 334.224 639.064C353.032 630.964 372.793 624.275 393.26 619.082C475.228 596.087 540.094 606.591 604.545 646.3C671.717 687.674 742.213 742.251 814.043 784.466C894.756 831.925 1005.51 894.531 1101.7 880.178C1149.92 873.012 1203.33 857.466 1245.87 832.021C1297.53 801.122 1340.02 761.645 1370.56 716.167C1377.44 705.812 1383.67 693.763 1390.57 682.588C1441 600.939 1327.51 437.226 1449.43 383.537C1451.78 382.513 1454.28 381.346 1456.76 380.489C1600.82 330.133 1779.33 435.996 1926.21 426.088C2039.78 418.402 2011.46 344.8 1999.97 282.278C1987.27 214.577 2081.97 190.567 2143.92 173.593C2199.85 158.834 2256.81 146.429 2314.58 136.428C2399.17 121.264 2528.89 152.943 2602.46 112.977M-259.081 809.804C-205.7 827.911 -146.273 822.735 -96.9246 813.118C-29.6551 799.736 11.0393 734.625 52.899 690.637C77.672 664.591 103.672 649.667 131.991 650.056C201.226 650.864 268.027 650.109 329.834 625.032C349.441 617.684 369.674 611.376 390.406 606.15C470.428 584.094 535.675 589.234 599.718 627.269C664.705 665.809 732.755 718.98 801.875 759.375C883.187 806.726 993.987 870.625 1092.07 860.294C1140.92 855.093 1194.83 843.183 1238.11 819.009C1290.36 789.699 1333.38 751.291 1364.09 706.542C1371.12 696.238 1377.55 684.713 1384.54 672.998C1434.39 589.426 1306.92 423.814 1439.2 371.227C1441.64 370.249 1444.29 369.093 1446.87 368.244C1593.11 320.643 1768.01 424.927 1914.84 417.4C2028.51 411.56 1993.88 333.231 1987.42 273.729C1980.12 206.812 2081.97 184.469 2144.39 168.276C2198.88 154.145 2257.15 141.88 2314.15 131.312C2397.98 115.775 2524.56 146.694 2598.38 108.624M-263.78 793.48C-210.216 807.458 -152.523 798.118 -105.428 785.897C-39.8349 768.863 -2.47935 706.729 43.8004 665.322C69.2479 642.536 95.3245 632.191 123.811 632.945C193.305 634.829 262.678 635.14 325.986 612.216C346.21 605.026 367.021 598.857 388.298 593.747C468.607 574.254 528.886 570.124 596.453 608.402C659.499 644.129 725.227 696.175 791.699 735.225C874.016 783.556 981.959 845.623 1081.27 840.901C1130.68 838.521 1185.52 829.696 1229.93 806.159C1282.93 778.298 1326.65 740.786 1357.66 696.568C1365.44 685.753 1372.42 674.565 1378.55 663.059C1419.49 581.902 1290.58 409.1 1429.99 359.507C1432.63 358.584 1435.37 357.474 1438.1 356.676C1585.71 312.234 1757.6 414.166 1903.24 408.693C2015.64 404.511 1977.08 321.138 1975.66 265.088C1974.05 200.19 2081.87 178.95 2145.24 163.184C2199.83 149.608 2257.25 136.963 2313.72 126.235C2396.95 110.22 2520.57 140.59 2594.25 104.345M-268.44 777.902C-214.611 787.328 -159.282 774.319 -113.727 759.826C-50.0899 739.547 -16.9326 680.673 35.0519 643.632C61.4144 624.789 87.296 618.728 116.168 619.591C186.38 621.728 257.972 622.607 322.657 600.927C342.532 594.269 364.782 588.074 386.142 582.551C464.575 562.518 526.967 554.726 593.765 590.323C655.124 623.14 719.077 674.614 782.793 712.428C870.983 764.863 971.824 818.506 1070.16 822.814C1117.88 824.911 1175.61 817.02 1221.64 794.16C1275.4 767.515 1319.86 730.735 1351.29 686.912C1359.75 676.22 1366.44 664.673 1371.22 652.544C1398.4 568.723 1275.68 394.735 1422.24 348.724C1424.97 347.847 1427.86 346.866 1430.62 346.11C1580.15 306.785 1746.8 403.96 1891.7 400.305C2003.06 397.485 1961.06 309.146 1965.14 256.312C1970.02 195.255 2082.03 173.217 2146.55 157.895C2201.24 144.913 2257.55 131.983 2313.41 120.855C2396.04 104.401 2516.35 134.272 2590.21 99.9966M-273.138 762.789C-219.391 767.714 -166.207 751.368 -122.071 734.923C-61.8945 712.374 -31.0172 655.546 26.3257 625.969C50.5597 613.414 79.4867 607.51 108.884 609.119C179.94 611.167 253.608 611.938 319.384 590.775C339.595 584.222 362.102 577.892 383.637 572.031C460.49 550.816 524.792 539.464 591.397 572.544C651.425 602.323 713.7 653.233 775.057 690.388C862.243 743.056 960.544 796.457 1058.8 805.45C1107.67 809.827 1165.35 805.02 1213.21 782.619C1267.82 757.08 1313.13 720.909 1345.07 677.346C1353.29 666.44 1358.9 654.358 1361.6 641.69C1377.29 556.95 1259.88 380.025 1415.26 340.035C1418.08 339.283 1421.1 338.43 1424.06 337.767C1575.39 303.473 1735.9 394.449 1880.16 392.658C1990.42 391.275 1946.73 298.736 1955.68 248.325C1966.44 188.988 2082.4 168.556 2148 153.32C2202.42 140.668 2258.02 127.878 2312.91 116.085C2398.34 97.7451 2507.91 128.398 2586.16 95.881M-277.742 748.349C-224.417 748.705 -173.248 729.853 -130.159 711.722C-74.3856 688.235 -40.3024 634.399 17.933 612.125C44.4893 601.936 72.2059 600.009 101.876 600.741C173.882 602.591 249.388 602.532 316.109 581.249C336.77 574.615 359.201 568.005 380.883 561.531C445.922 542.185 523.098 518.181 589.148 554.5C650.913 588.405 709.224 631.649 768.454 668.322C854.417 721.518 949.954 775.01 1047.61 787.902C1097.38 794.502 1155.51 792.624 1204.34 770.418C1259.09 745.597 1309.03 710.699 1338.19 666.672C1345.11 655.042 1348.95 642.335 1349.5 629.308C1356.07 544.151 1246.92 365.386 1409.4 332.139C1412.4 331.519 1415.56 330.717 1418.66 330.144C1570.61 301.019 1725.72 385.153 1868.6 384.58C1976.91 384.136 1932.62 286.858 1947.13 239.627C1964.48 182.694 2081.66 163.65 2149.75 148.065C2203.65 135.686 2258.25 122.58 2312.27 110.522C2397.11 91.6267 2503.56 121.913 2582.05 91.2913M-282.254 734.62C-229.744 731.002 -180.418 709.97 -138.156 690.483C-86.2887 666.605 -48.7435 618.714 9.8217 601.548C37.2404 593.5 64.8653 593.95 94.9448 594.48C167.982 595.748 245.284 594.777 312.483 572.438C333.361 565.548 355.781 558.468 377.512 551.372C442.261 530.126 519.127 503.831 586.402 536.534C647.991 566.477 705.189 610.102 762.622 646.474C847.316 700.155 939.875 753.956 1036.54 770.6C1086.55 779.212 1145.57 780.336 1195.46 758.411C1249.68 734.604 1306.2 700.505 1328.96 655.379C1334.17 645.046 1335.61 630.699 1335.54 616.817C1335.09 528.323 1234.13 354.316 1404.83 325.793C1407.92 325.298 1411.23 324.585 1414.47 324.062C1565.74 299.848 1716.35 376.742 1857.33 377.112C1963.72 377.413 1919.67 274.643 1939.48 231.237C1963.97 177.377 2079.76 159.784 2151.57 143.13C2204.98 130.75 2258.35 117.585 2311.57 105.111C2396.03 85.4814 2499.15 115.541 2578.02 86.9039M-286.729 721.636C-235.354 714.371 -187.207 692.071 -145.942 671.528C-98.3832 647.969 -55.6891 606.471 1.85203 594.109C29.6992 588.088 57.6012 589.382 87.999 589.624C161.777 590.248 240.992 587.515 308.384 563.98C329.349 556.627 351.717 548.957 373.312 541.107C437.895 517.621 513.508 489.153 582.677 518.49C644.564 544.704 701.181 588.204 757.294 624.471C840.78 678.485 930.226 733.054 1025.69 753.041C1075.35 763.463 1136.19 767.781 1186.5 746.124C1238.9 723.578 1301.3 691.708 1316.94 643.199C1320.23 630.213 1321.17 616.849 1319.72 603.512C1313.51 510.063 1222.65 345.151 1401.39 320.788C1404.63 320.344 1408.03 319.716 1411.36 319.279C1560.59 299.631 1707.89 369.225 1846.36 370.254C1950.79 371.024 1908.39 264.243 1933.54 223.609C1965.43 172.021 2079.04 155.856 2153.57 138.404C2205.99 126.178 2258.45 112.629 2310.64 100.151C2394.75 79.8291 2494.64 109.669 2573.99 83.1028M-291.127 709.558C-241.075 699.138 -195.418 675.974 -153.483 655.054C-107.337 631.93 -62.3136 597.615 -5.98128 588.674C22.2827 584.212 50.2732 585.63 80.8425 585.573C155.517 585.448 236.299 580.964 303.603 555.467C324.617 547.493 346.842 539.146 368.258 530.462C432.267 504.31 505.669 473.946 577.391 500.282C640.469 523.308 696.668 565.875 751.894 602.15C834.521 656.447 920.881 712.058 1014.92 735.098C1063.86 747.104 1126.89 754.803 1177.47 733.441C1229.08 711.536 1293.18 682.459 1302.42 630.311C1304.17 616.869 1304.12 603.265 1302.27 589.725C1291.51 490.362 1214.2 336.97 1398.96 316.216C1402.23 315.852 1405.77 315.314 1409.15 314.959C1555.49 299.302 1700.21 361.926 1835.55 363.331C1938.09 364.301 1897.91 254.961 1928.93 216.086C1968.65 166.181 2078.86 151.386 2155.47 133.2C2206.74 121.001 2258.16 107.055 2309.39 94.2656C2393.26 73.299 2490.01 103.005 2569.93 78.5173M-295.445 698.307C-247.413 685.458 -203.049 662.465 -160.776 642.236C-114.72 620.239 -69.2482 591.393 -13.7288 584.615C14.8915 581.236 42.7725 582.176 73.4979 582.015C148.926 581.09 231.232 574.774 297.796 546.833C318.674 538.105 340.763 529.005 361.81 519.392C425.049 490.56 494.659 458.368 570.059 481.793C635.439 501.876 691.623 542.8 746.601 579.094C828.347 633.32 912.178 690.411 1004.8 716.308C1052.95 729.735 1117.97 740.799 1168.56 719.907C1220.9 698.099 1280.68 670.749 1285.51 616.412C1286.18 602.821 1285.47 589.168 1283.37 575.588C1269.32 469.98 1208.6 329.525 1397.44 312.381C1400.86 312.068 1404.44 311.612 1407.86 311.338C1550.43 299.287 1693.4 355.362 1825.24 356.838C1926.19 357.955 1888.15 247.145 1925.64 209.256C1973.79 161.041 2079.04 147.257 2157.2 128.14C2207.4 115.933 2257.76 101.551 2308.02 88.6055C2391.75 67.0019 2485.41 96.5781 2566.04 74.2969M-299.751 687.526C-253.505 673.009 -210.225 651.259 -167.868 631.819C-122.14 610.85 -75.6837 586.93 -21.4126 580.991C7.28374 577.892 35.0647 578.237 65.8856 577.497C141.969 575.765 225.653 567.604 291.502 536.909C311.959 527.288 334.022 517.287 354.648 506.78C423.562 471.6 482.755 451.513 559.526 463.947C624.145 474.471 685.438 519.204 739.894 555.261C820.626 608.624 902.846 668.009 994.355 696.788C1041.8 711.605 1108.56 724.919 1159.37 705.608C1211.04 685.975 1265.11 654.338 1266.7 602.477C1266.59 588.763 1265.38 575.036 1263.09 561.38C1247.41 449.7 1206.41 322.979 1396.7 309.273C1400.17 309.003 1403.75 308.625 1407.26 308.397C1545.78 299.541 1687.17 349.626 1815.28 350.921C1914.91 351.932 1878.28 240.14 1923.43 202.943C1979.7 156.628 2079.57 143.117 2158.88 123.115C2207.63 110.596 2256.88 96.0461 2305.78 82.7585C2389.46 60.4868 2480.32 90.0342 2561.75 70.0451M-304.035 677.098C-259.446 661.746 -217.478 641.024 -174.842 623.013C-129.66 603.956 -80.8631 582.763 -29.0901 577.289C-0.745417 574.279 27.2025 573.152 57.9962 572.136C134.63 569.666 219.433 559.836 283.937 526.258C304.472 515.666 326.374 504.597 345.635 493.316C407.565 457.461 472.345 442.59 543.893 449.563C612.265 456.243 676.469 494.721 731.84 530.421C812.061 582.18 890.832 639.764 983.643 675.644C1033.05 694.801 1097.65 709.271 1149.86 689.681C1202.08 670.092 1245.54 636.238 1245.51 587.414C1245.48 575.998 1243.37 561.132 1241.39 546.511C1225.61 429.389 1207.23 316.477 1396.18 305.987C1399.69 305.798 1403.36 305.466 1406.86 305.317C1541.1 299.01 1680.97 344.009 1805.32 345.003C1904.09 345.711 1867.99 233.376 1921.63 196.583C1986.3 152.27 2079.46 138.848 2159.77 117.596C2207.49 104.956 2255.14 90.0441 2303.11 76.721C2386.9 53.7928 2475.14 83.3272 2557.46 65.7934M-308.22 667.265C-265.195 651.162 -223.776 631.764 -181.756 615.307C-136.035 597.504 -87.6455 579.563 -36.8979 572.755C-8.28854 568.769 20.6498 566.124 49.7701 564.833C126.812 561.575 212.6 550.495 275.339 513.766C295.031 502.012 316.394 491.525 334.553 481.72C394.22 448.928 455.275 435.087 524.761 438.3C594.247 441.512 663.222 474.508 720.476 506.958C802.795 553.412 881.512 615.37 973.058 653.533C1020.26 673.256 1089.11 693.539 1137.66 672.483C1183.53 652.699 1223.8 618.786 1223.28 572.424C1223.14 561.194 1221.07 546.41 1219.47 531.975C1213.76 480.39 1188.79 415.891 1222.72 368.336C1255.45 322.171 1334.08 305.867 1396.99 303.276C1400.49 303.127 1404.25 302.88 1407.71 302.804C1535.58 300.328 1673.68 337.954 1796.59 339.654C1882.23 340.836 1880.58 221.835 1921.37 190.621C1977.52 147.581 2079.09 134.323 2161 112.065C2208.04 99.2932 2253.59 83.5877 2300.46 70.4892C2384.44 46.9514 2470.48 76.4651 2553.71 61.6236M-312.433 657.781C-270.923 641.557 -230.909 623.102 -188.573 608.234C-141.879 591.799 -94.2532 576.025 -44.7405 566.812C-16.6122 560.886 12.175 556.861 41.3213 554.776C119.602 550.796 202.582 536.677 265.467 500.585C284.143 489.844 304.62 481.202 321.869 472.301C374.988 444.458 436.979 425.689 502.69 428.717C575.407 432.148 642.65 456.641 702.186 485.794C788.106 527.846 872.949 593.812 961.405 629.382C1002.55 646.003 1075.22 674.056 1118.68 653.141C1159.27 633.599 1199.57 601.759 1199.6 557.006C1199.59 546.06 1197.86 531.458 1196.78 517.222C1192.93 465.708 1174.37 404.222 1214.32 359.534C1252.99 316.58 1334.17 302.161 1397.42 300.379C1400.97 300.272 1404.68 300.06 1408.17 300.027C1531.87 299.328 1668.31 333.733 1787.55 334.553C1832.07 334.83 1846.48 313.429 1861.89 286.869C1885.23 246.716 1877.48 215.059 1920.85 184.717C1980.39 143.08 2079.17 129.638 2160.92 106.196C2206.61 93.1204 2250.67 77.0218 2296.27 63.7828C2380.28 39.2312 2465.08 69.4666 2549.18 57.3134M-316.566 648.539C-316.566 648.539 -282.101 630.539 -195.399 601.277C-149.871 585.883 -100.315 571.201 -52.7732 558.938C-24.4781 551.624 3.07029 542.57 32.6725 541.068C109.523 537.13 189.18 522.706 254.157 489.987C272.413 480.815 291.537 473.08 307.532 465.095C358.805 439.411 416.496 420.259 479.324 421.18C551.2 422.199 618.204 441.669 679.047 467.409C767.55 504.859 855.092 566.624 943.175 603.768C981.269 619.792 1054.3 651.275 1093.51 631.818C1131.07 613.284 1173.2 584.992 1174.57 541.362C1174.93 530.797 1173.72 516.394 1173.45 502.535C1170.96 377.252 1226.54 300.198 1398.3 297.322C1401.9 297.297 1405.6 297.124 1409.09 297.13C1528.73 297.943 1663.29 330.047 1779.22 329.743C1824.21 329.668 1836.92 307.348 1853.21 280.937C1878.44 239.957 1874.46 209.111 1921.08 178.794C1982.81 138.662 2079.8 124.177 2160.37 100.21C2204.49 87.0093 2247.75 69.8305 2291.81 56.7809C2374.8 32.1472 2460.02 62.0255 2544.94 53.1821M-320.721 639.568C-320.721 639.568 -288.63 621.105 -202.226 594.321C-155.293 579.82 -107.115 565.146 -60.7755 548.838C-32.5595 538.821 -5.29354 525.914 23.9694 524.346C98.1173 520.347 176.973 511.644 241.94 482.13C259.46 474.15 277.587 467.196 292.936 459.902C342.091 436.08 395.427 415.994 455.353 415.041C525.38 413.958 591.426 429.403 652.405 451.597C742.365 484.356 831.759 539.585 918.624 578.429C954.073 594.281 1023.73 628.582 1064.67 609.654C1113.65 586.835 1137.82 569.498 1150.09 526.231C1152.71 516.902 1150.6 502.036 1151.33 488.57C1157.53 364.334 1236.38 295.317 1399.98 294.173C1403.57 294.148 1407.27 294.053 1410.72 294.094C1526.55 296.244 1659.1 326.977 1771.98 325.451C1817.41 324.824 1828.62 301.603 1845.68 275.371C1872.79 233.72 1872.89 203.513 1922.17 173.251C1985.47 134.418 2080.34 118.67 2159.84 93.9138C2202.75 80.5373 2244.19 62.0795 2287.72 49.4181C2371.36 25.2275 2455.61 54.3246 2541.09 48.9657M-324.876 630.597C-324.876 630.597 -295.065 611.717 -208.859 586.793C-160.333 573.233 -113.602 556.17 -69.2327 535.81C-41.2874 522.41 -14.6193 510.822 14.6584 509.685C89.1657 506.732 161.479 502.9 229.011 475.78C246.148 468.903 263.834 462.539 277.727 455.598C327.033 431.124 375.66 414.53 431.159 409.236C493.47 403.08 563.298 418.632 623.465 437.438C713.067 465.439 802.306 515.222 888.466 553.033C922.562 567.955 992.139 603.267 1031.73 585.833C1067.43 570.161 1117.96 548.873 1124.1 510.236C1125.67 500.55 1126.41 486.968 1128.29 473.945C1145.89 353.475 1245.79 290.323 1401.3 290.527C1404.85 290.536 1408.5 290.437 1411.93 290.556C1524.43 293.886 1654.2 324.201 1764.84 321.283C1810.71 320.066 1820.52 295.873 1838.36 269.704C1867.38 227.425 1871.52 197.814 1923.17 167.468C1987.33 129.602 2080.12 112.789 2157.77 87.1813C2199.43 73.4313 2239.47 53.924 2282.91 41.9189C2367.67 18.4825 2450.83 46.9847 2536.69 44.9003M-329.025 621.548C-329.025 621.548 -300.25 602.077 -216.023 578.52C-165.672 564.371 -121.537 543.627 -78.1446 519.853C-54.144 506.054 -25.169 498.556 4.93352 498.353C77.708 497.373 148.832 496.104 215.483 471.375C231.504 465.778 247.093 459.469 262.178 452.478C309.492 428.9 354.627 410.425 407.561 403.362C466.365 395.517 535.327 408.968 593.529 424.646C682.376 448.561 770.194 492.719 855.376 528.614C888.696 542.771 957.888 577.973 997.013 562.027C1033.64 547.093 1087.88 533.646 1098.61 494.79C1101.23 485.501 1102.99 472.626 1106.3 460.225C1137.61 343.783 1251.11 285.315 1402.47 286.36C1406.01 286.408 1409.61 286.344 1413 286.498C1522.7 290.894 1649.32 321.856 1758.21 317.392C1804.63 315.475 1812.94 290.264 1831.63 264.044C1862.17 221.261 1871.42 191.708 1924.27 161.654C1988.78 124.95 2080.33 107.099 2154.79 80.0638C2194.64 65.6213 2235.22 45.6094 2278.07 34.1439C2363.12 11.3952 2446.56 39.4508 2532.68 40.944M-333.211 612.34C-333.211 612.34 -305.438 592.476 -223.002 569.167C-173.196 555.052 -128.999 526.144 -87.357 504.575C-62.4572 491.713 -34.1824 488.345 -5.27355 488.742C66.1688 489.648 135.991 490.503 201.808 467.584C217.587 462.5 232.865 456.538 247.532 449.743C292.449 427.224 336.953 406.783 386.125 396.918C441.164 385.684 508.294 399.887 565.051 412.714C652.75 432.51 737.419 472.976 820.694 505.006C855.648 518.433 923.51 551.184 961.573 538.046C999.637 524.907 1057.06 518.321 1073.85 479.481C1077.71 470.603 1080.7 458.451 1085.59 446.53C1130.14 337.556 1257.8 279.831 1403.39 281.625C1406.89 281.67 1410.38 281.676 1413.77 281.79C1525.16 285.345 1642.72 320.038 1752.2 313.667C1799.13 310.932 1806.01 284.589 1825.54 258.32C1857.63 215.231 1872.07 185.389 1925.5 155.615C1989.79 119.753 2078.85 101 2150.84 72.3204C2189.53 56.8869 2230.74 37.0034 2273.36 25.9884C2358.79 3.93512 2442.77 31.525 2528.87 36.8479M-337.38 602.938C-337.38 602.938 -311.169 582.91 -230.126 558.551C-181.05 543.714 -140.735 509.804 -96.7923 491.468C-71.9935 481.1 -44.2622 479.604 -15.4643 480.774C54.9913 483.556 123.622 486.387 188.756 464.625C204.185 459.808 219.027 453.947 233.125 447.105C276.63 424.395 318.792 401.852 366.454 389.325C417.332 375.96 486.055 390.564 538.138 400.906C622.057 417.508 704.783 453.324 785.284 482.512C820.823 495.4 887.192 526.507 925.764 514.386C966.658 501.553 1025.62 502.829 1049.51 464.478C1054.65 456.133 1059.06 444.759 1065.72 433.448C1124.82 333.261 1262.21 273.968 1403.93 276.157L1414.1 276.384C1524.11 280.609 1637.43 318.52 1746.43 310.234C1792.13 306.776 1801.55 279.463 1819.94 252.673C1850.45 207.777 1873.73 178.798 1926.62 149.568C1990.26 114.436 2075.47 94.6318 2145.72 64.3278C2184.05 47.8491 2225.77 28.3971 2268.4 17.7744C2353.78 -3.5409 2439.22 23.6186 2524.95 32.8994M-341.627 593.256C-341.627 593.256 -316.141 574.304 -237.381 546.479C-188.955 529.322 -155.533 494.822 -106.499 479.903C-80.5689 472.01 -54.3521 471.605 -25.8152 473.574C43.5008 478.298 111.637 483.005 176.086 461.814C191.39 457.084 206.024 451.159 219.779 444.122C262.567 420.534 303.568 395.279 349.977 379.954C397.844 364.238 465.43 378.283 514.774 388.405C593.598 404.717 673.504 434.561 751.12 461.056C787.582 473.471 853.629 503.066 891.434 491.314C935.606 477.492 993.97 488.688 1026.7 449.911C1033.22 442.185 1039.24 431.604 1047.82 420.993C1121.17 330.272 1263.7 267.599 1403.87 270.171C1407.21 270.204 1410.66 270.167 1413.69 270.41C1517.41 277.611 1632.42 319.683 1741.02 307.104C1789.25 301.542 1794.41 274.592 1814.79 246.28C1847.27 201.424 1874.01 172.215 1927.06 143.389C1990.45 108.979 2070.52 87.5908 2139.46 55.8528C2177.88 38.2089 2220.02 19.6505 2262.87 9.43578C2348.48 -11.0792 2435.44 15.4209 2520.54 29.0282M-345.845 583.225C-345.845 583.225 -316.747 565.265 -244.694 532.682C-203.854 514.372 -164.342 480.046 -116.561 469.092C-90.3918 463.133 -64.6409 463.629 -36.3617 466.36C32.0196 472.923 100.046 479.615 163.951 458.459C179.392 453.82 194.021 447.721 207.535 440.289C250.848 414.437 289.036 384.97 336.847 368.116C383.599 351.568 446.327 363.582 495.836 374.109C569.834 389.838 645.773 416.981 719.488 440.545C756.969 452.533 820.048 479.859 859.123 468.834C907.1 455.433 965.623 471.411 1005.58 435.792C1013.54 428.61 1021.06 418.931 1031.89 409.048C1120.52 327.992 1261.02 260.544 1403.13 262.841C1406.37 262.905 1409.77 262.864 1412.95 263.118C1515.68 270.983 1628.18 318.445 1736.52 303.656C1784.44 297.092 1789.61 268.814 1810.97 240.425C1844.72 195.748 1874.98 165.686 1928.15 136.634C1990.38 102.523 2068.17 78.178 2133.85 46.5702C2171.21 28.6462 2216.5 7.68131 2258.07 0.491634C2344.31 -14.3832 2426.77 5.73654 2516.99 24.7575M-350.13 572.797C-350.13 572.797 -321.138 554.321 -252.191 517.502C-216.508 498.428 -172.301 466.94 -126.144 459.061C-99.864 454.792 -74.4375 455.653 -46.3609 459.071C21.2968 467.297 89.5895 476.199 153.128 454.7C168.659 449.865 183.256 443.411 196.548 435.502C240.65 407.172 279.299 373.793 327.679 353.506C373.818 334.173 432.411 345.583 482.315 357.314C551.299 373.58 622.342 399.784 691.524 420.953C729.965 432.627 789.553 457.445 829.935 447.307C881.868 434.301 939.976 454.232 986.678 422.318C996.052 415.876 1005.47 407.013 1018.5 397.932C1121.15 326.283 1256.41 254.117 1401.49 254.932C1404.64 254.949 1407.84 255.009 1410.93 255.139C1519.91 260.456 1620.04 318.771 1732.15 300.376C1778.28 292.886 1787.61 263.573 1807.25 234.616C1838.28 188.784 1876.84 158.447 1928.85 129.733C1989.82 95.951 2063.33 67.9793 2127.96 37.0701C2165.42 19.1538 2211.25 -1.76802 2253.08 -8.46814C2339.74 -22.4493 2423.99 -3.20261 2513.24 20.5876M-354.526 561.931C-354.526 561.931 -328.894 538.69 -259.958 500.777C-225.62 481.907 -180.615 454.587 -136.15 448.801C-109.89 445.743 -82.9908 446.387 -56.6665 450.703C10.6286 460.385 79.4747 471.598 142.919 449.428C158.781 444.257 173.569 437.308 186.849 428.785C231.436 398.695 268.289 358.841 323.711 339.742C374.317 322.408 425.876 326.376 474.528 337.772C536.904 352.338 603.048 382.566 668.435 401.946C707.329 413.5 763.297 436.192 804.703 426.8C860.444 414.176 917.842 437.452 970.521 409.573C981.261 403.904 992.648 396.294 1008.17 387.45C1117.57 325.45 1254.83 246.25 1398.79 246.311C1401.84 246.321 1404.94 246.373 1407.88 246.53C1517.16 251.87 1615.15 318.341 1727.86 297.452C1773.87 288.937 1783.09 257.973 1803.52 228.962C1835.57 183.329 1876.76 152.069 1928.41 122.857C1987.8 89.2613 2056.71 57.1698 2121.21 27.4219C2159.48 9.76634 2205.25 -11.1206 2247.28 -17.2185C2334.26 -30.1974 2420.93 -11.7728 2508.82 16.7942M-358.547 550.664C-358.547 550.664 -334.337 520.587 -267.348 484.863C-233.778 466.987 -188.514 442.581 -145.482 438.088C-119.195 435.493 -92.3824 436.474 -66.1764 440.991C1.08062 451.764 70.9598 465.445 134.368 442.49C150.747 436.956 165.872 429.426 179.221 420.161C223.747 387.136 262.276 347.259 321.531 328.232C371.539 312.218 422.494 312.659 471.531 321.701C530.852 332.622 592.379 363.341 651.396 382.994C687.348 395.016 744.242 415.358 784.378 407.076C843.527 394.921 900.154 421.066 957.413 397.463C969.524 392.49 983.905 385.001 1001.01 376.637C1113.68 321.777 1254.23 237.759 1394.83 236.144C1397.73 236.103 1400.73 236.148 1403.58 236.258C1513.21 241.47 1610.4 318.039 1723.79 294.118C1769.28 284.739 1779.23 252.114 1800.35 223.041C1833.52 177.614 1876.5 145.403 1927.96 115.551C1985.36 82.2257 2050.79 45.712 2114.68 17.3621C2153.77 0.00605004 2199.53 -20.8032 2241.88 -26.6019C2329.07 -38.5474 2418.6 -20.7931 2504.78 12.5233M-363.121 538.924C-363.121 538.924 -344.871 502.741 -275.338 469.683C-235.785 450.839 -200.639 431.096 -155.476 426.422C-129.218 423.694 -102.393 424.675 -76.2194 429.321C-8.87777 440.883 62.3863 456.941 126.007 433.182C143.148 427.302 158.787 419.087 172.246 408.893C214.724 374.414 259.765 335.566 320.449 318.373C368.687 304.538 421.202 301.473 472.457 309.501C526.996 318.672 585.39 344.254 641.353 363.936C687.599 380.182 733.026 396.207 769.676 388.428C828.006 376.05 892.522 400.169 948.501 385.805C961.564 382.472 977.694 374.029 996.141 366.162C1110.09 317.464 1253.2 229 1389.56 225.638C1392.39 225.434 1395.05 225.374 1397.99 225.531C1508.36 230.215 1605.82 318.064 1720.4 291.07C1765.29 280.472 1775.72 246.165 1797.39 217.019C1831.18 171.721 1875.82 138.586 1926.99 107.969C1982.72 74.5879 2045.65 34.2391 2108.03 6.97976C2147.09 -10.0655 2193.82 -30.68 2236.33 -35.997C2323.68 -46.8743 2416.83 -29.3782 2500.73 8.36876M-367.506 526.69C-367.506 526.69 -350.529 486.731 -283.022 454.996C-244.867 437.018 -210.187 418.801 -164.788 413.637C-138.592 410.451 -111.707 411.131 -85.4606 415.643C-18.0763 427.287 55.7711 445.506 119.145 421.141C136.558 414.649 152.333 405.783 165.784 394.93C209.022 358.947 257.903 324.394 319.828 309.529C370.05 297.175 423.537 294.092 476.327 300.508C527.989 307.493 585.171 327.937 637.158 346.245C680.241 361.417 719.996 378.2 761.684 370.824C822.249 360.033 885.1 386.519 942.396 374.137C956.156 371.329 973.542 363.182 993.089 355.716C1107.87 311.931 1250.86 220.135 1382.79 213.761C1385.5 213.626 1388.32 213.538 1391.02 213.598C1503.07 216.345 1600.51 318.03 1716.88 287.662C1761.21 276.12 1772.37 240.034 1794.59 210.853C1829.07 165.61 1874.75 131.582 1925.5 100.149C1979.94 66.3518 2039.64 23.2823 2101.14 -3.49981C2140.2 -20.4674 2187.78 -40.6231 2230.59 -45.4077C2322.68 -54.9687 2417.22 -37.3174 2496.53 4.2414M-371.957 514.021C-371.957 514.021 -356.346 471.451 -291.12 440.55C-254.287 423.092 -220.008 405.586 -174.324 399.311C-148.239 395.28 -121.239 395.316 -94.7947 399.418C-27.859 410.517 48.5602 430.428 111.408 405.864C128.636 399.489 144.461 391.042 158.349 380.81C204.162 345.855 255.663 313.622 319.206 300.684C372.07 289.955 427.406 287.494 482.208 293.434C532.196 299.191 587.682 314.378 637.37 330.666C678.184 344.054 714.17 361.2 758.81 353.825C819.008 343.942 882.009 372.239 938.636 362.071C952.915 359.539 971.291 351.94 991.836 344.905C1068.5 318.711 1143.38 287.096 1217.72 256.69C1266.41 236.779 1319.17 204.255 1375.64 200.993C1378.31 200.816 1381.12 200.728 1383.83 200.749C1497.19 203.015 1595.97 317.51 1713.42 284.102C1756.89 271.748 1769.12 233.833 1791.86 204.38C1827.01 159.269 1872.98 124.287 1923.37 91.7694C1976.72 57.3387 2033.12 11.8941 2094.29 -14.4842C2133.56 -31.0827 2182.23 -50.6435 2225.11 -55.0319C2312.81 -63.6524 2413.74 -46.785 2492.59 0.0170836M-376.467 500.878C-376.467 500.878 -362.26 456.789 -299.071 426.116C-263.237 408.851 -229.503 391.38 -183.428 383.299C-156.97 378.653 -130.36 376.403 -103.742 380.213C-37.871 389.859 38.7748 411.86 102.213 389.767C119.68 384.089 135.868 376.304 150.227 366.675C198.264 332.836 253.305 300.651 317.671 291.571C373.667 282.987 431.333 281.518 488.562 287.219C540.286 293.168 591.309 303.274 640.845 317.38C680.017 328.526 713.27 345.375 759.354 337.803C816.992 328.537 882.406 358.043 937.181 350.111C951.726 347.951 970.957 340.734 992.257 334.111C1070.62 309.129 1146.71 280.106 1220.05 247.221C1266.02 226.975 1314.08 191.536 1368.51 187.993C1371.22 187.786 1373.96 187.691 1376.7 187.71C1491.45 189.266 1592.12 316.498 1710 280.193C1752.43 267.208 1766.14 226.793 1789.17 197.95C1825.06 152.976 1870.81 116.96 1920.69 83.3859C1973.13 48.1001 2025.73 0.86661 2087.52 -25.3055C2126.86 -41.9777 2176.33 -61.2001 2219.44 -64.8271C2307.48 -72.6395 2412.41 -55.3737 2488.5 -4.21895M-380.877 487.705C-380.877 487.705 -368.213 442.593 -306.961 411.53C-272.588 394.071 -238.85 375.935 -192.276 365.314C-165.609 359.278 -139.091 355.105 -113.03 359.105C-47.93 369.159 28.1662 393.109 92.5179 373.747C110.318 368.935 126.969 361.919 141.874 352.951C194.962 318.734 249.966 293.778 315.803 282.314C371.574 272.39 436.386 273.117 495.102 281.136C544.909 287.934 598.173 295.204 647.235 306.399C685.472 315.086 716.271 331.23 763.236 323.104C817.338 313.75 885.252 344.003 937.322 337.887C952.224 336.186 971.919 329.319 993.827 323.097C1073.46 300.629 1149.83 271.884 1221.83 237.279C1265.97 215.909 1307.22 178.869 1361.44 174.802C1364.16 174.569 1366.9 174.449 1369.64 174.441C1486.5 175.423 1589.57 313.207 1706.64 275.977C1747.65 262.917 1762.94 220.01 1786.6 191.334C1823.06 146.484 1868.41 109.342 1917.54 74.8465C1969.31 38.5311 2018.28 -10.0095 2080.81 -36.1229C2120.27 -52.5116 2170.58 -71.1586 2213.91 -74.4165C2302.5 -81.1293 2411.34 -63.5118 2484.65 -8.43553M-385.272 474.962C-385.272 474.962 -374.209 428.94 -315.016 396.54C-281.828 378.517 -248.049 359.251 -201.126 345.492C-174.169 337.68 -148.944 333.678 -123.724 337.728C-59.2906 348.12 16.1185 373.891 81.414 357.497C99.5915 353.397 116.721 346.981 132.153 338.493C187.776 305.807 244.949 282.041 312.031 271.614C370.748 262.395 438.368 264.325 499.626 273.798C550.569 281.781 602.944 288.472 654.335 296.999C692.273 303.278 721.136 318.407 768.514 309.415C819.44 299.768 889.258 330.212 938.743 325.649C954.027 324.096 974.21 317.893 996.546 311.861C1074.51 291.556 1154.86 263.467 1222.37 226.807C1264.97 203.712 1298.94 166.051 1354 161.347C1356.73 161.135 1359.55 160.93 1362.16 160.905C1480.27 161.126 1588.16 310.631 1702.78 271.29C1742.81 257.527 1759.59 213.292 1783.6 183.941C1820.29 139.305 1865.02 101.292 1913.3 65.6736C1964.24 28.0798 2010.33 -21.3947 2073.54 -47.4145C2113.24 -63.7835 2164.34 -81.7038 2207.97 -84.4294C2297.01 -90.0505 2409.79 -71.8831 2480.28 -12.9281M-389.764 462.211C-380.274 429.352 -356.503 400.606 -322.579 380.964C-290.445 361.958 -255.224 338.82 -209.736 323.93C-183.568 315.508 -159.104 311.797 -134.624 315.866C-70.2644 326.564 3.95694 353.647 69.9207 340.591C88.5522 337.38 106.25 331.659 122.265 323.669C180.362 292.667 239.793 269.589 307.63 259.575C371.947 250.872 438.262 252.469 502.751 264.275C555.825 273.915 608.724 282.68 662.768 288.8C700.192 292.888 728.616 306.732 776.027 296.725C824.241 286.51 893.938 316.007 942.303 313.152C957.139 312.266 978.236 306.332 1000.2 300.661C1075.59 281.088 1158.38 255.775 1222.84 216.056C1264.25 190.638 1291.3 153.986 1346.75 148.063C1349.44 147.752 1352.17 147.578 1354.91 147.543C1474.71 146.845 1590.23 308.061 1698.62 266.149C1736.76 251.375 1755.52 207.024 1780.38 176.843C1817.27 132.106 1861.37 93.4166 1908.52 56.4576C1958.57 17.2281 2002.18 -32.7566 2066.51 -58.5699C2106.48 -74.6048 2156.2 -90.172 2202.26 -94.3062C2291.5 -102.374 2414.17 -76.1066 2476.21 -17.3195M-394.23 449.737C-385.054 416.428 -362.639 386.721 -330.257 364.95C-296.956 342.44 -259.458 316.67 -218.795 302.41C-193.827 293.619 -169.825 290.144 -145.772 294.023C-80.3186 304.574 -10.0277 333.414 57.314 323.439C76.4696 321.093 94.8229 316.036 111.517 308.503C171.544 279.219 232.446 256.22 301.233 246.008C367.564 236.447 436.236 238.5 502.549 252.024C557.14 263.622 613.75 277.062 670.276 281.075C708.109 283.749 736.614 295.958 783.824 284.763C829.931 273.831 900.026 302.656 946.595 300.087C961.426 299.28 982.452 294.239 1004.44 288.883C1078.63 270.777 1160.98 246.679 1221.34 204.601C1260.64 177.255 1283.18 140.985 1339.42 134.382C1342.12 134.046 1344.85 133.847 1347.59 133.785C1468.48 132.431 1588.22 303.64 1693.82 260.254C1731.43 244.773 1751.58 200.26 1777.1 169.193C1813.89 124.526 1857.6 85.7276 1903.08 46.915C1951.45 5.87055 1994.71 -44.5338 2059.39 -69.8497C2099.68 -85.5854 2150.46 -100.756 2196.36 -104.276C2286.49 -111.179 2412.44 -84.0236 2471.89 -21.847M-398.698 437.301C-390.412 403.102 -369.21 372.09 -337.886 348.352C-305.966 324.012 -269.243 295.639 -228.665 280.591C-204.222 271.601 -180.905 268.072 -157.436 271.864C-92.0864 282.485 -23.824 312.688 43.8195 305.708C63.5506 304.26 82.6394 299.903 100.12 292.855C161.881 265.273 224.15 241.797 293.407 230.645C358.471 220.214 433.775 220.842 499.088 236.229C557.058 249.895 615.197 269.438 676.831 273.586C716.678 276.304 745.126 286.163 791.94 273.763C836.543 261.93 906.57 289.772 951.8 287.331C966.627 286.562 987.515 282.018 1009.43 276.969C1082.19 260.079 1162.02 236.756 1218.5 192.803C1255.71 163.805 1275.51 128.019 1332.19 120.787C1334.89 120.436 1337.62 120.236 1340.36 120.19C1460.77 118.094 1578.92 296.876 1687.96 253.531C1727.37 237.764 1747.4 192.812 1772.9 162.016C1809.79 117.435 1853.78 76.9006 1896.99 37.5934C1942.53 -3.87207 1987.5 -55.9767 2052.38 -80.6905C2093 -96.1657 2144.28 -110.905 2190.59 -113.885C2281.71 -119.653 2410.82 -91.4627 2467.74 -25.9704M-403.223 424.939C-395.452 389.574 -375.433 356.982 -345.391 330.787C-315.923 305.118 -278.877 274.543 -238.392 258.823C-214.622 249.623 -191.55 246.074 -168.762 249.772C-103.651 260.296 -37.4228 291.939 30.0032 287.677C50.0309 287.01 69.5659 283.264 87.5365 276.643C150.934 250.756 214.498 225.858 283.661 213.409C352.825 200.96 425.201 200.651 490.774 215.864C550.116 229.6 614.325 260.026 680.818 265.579C723.317 268.978 752.648 277.031 799.124 263.315C842.873 250.475 912.396 277.221 956.988 274.768C971.815 274 991.874 269.35 1014.19 264.802C1087.5 249.792 1161.89 225.527 1213.9 180.709C1249.06 150.373 1268.38 115.019 1324.89 107.499C1327.59 107.141 1330.32 106.916 1333.06 106.824C1456.74 103.934 1569.82 288.761 1682.04 246.334C1722.64 231.053 1743.43 185.262 1769.11 153.935C1805.7 109.369 1849.01 68.1934 1890.14 27.8596C1933.64 -15.0985 1980.09 -67.9054 2045.52 -92.0673C2086.5 -107.239 2139.84 -123.065 2184.99 -123.91C2277.02 -125.656 2406.19 -103.168 2463.69 -30.6726M-407.694 412.542C-402.144 373.311 -380.087 343.061 -352.86 312.795C-327.469 284.571 -288.457 253.411 -248.369 237.112C-225.069 227.64 -202.196 224.114 -179.842 227.7C-115.158 238.033 -50.0702 271.618 16.2589 269.379C36.0014 268.691 57.8244 266.605 75.2849 259.989C139.457 235.492 203.342 210.269 272.902 194.099C343.819 177.569 415.553 172.987 480.943 189.865C542.817 205.798 610.826 247.16 682.341 256.398C728.38 262.308 759.302 268.299 805.615 253.554C862.042 235.434 904.581 272.179 962.73 262.68C977.143 260.315 997.641 256.951 1019.44 252.675C1092.9 238.185 1158.15 214.4 1207.65 168.482C1241.3 137.206 1262.19 101.859 1317.77 93.7958C1320.44 93.3919 1323.16 93.139 1325.9 93.0391C1452.79 89.3113 1560.88 279.915 1676.11 238.59C1717.56 223.767 1739.3 177.192 1765.18 145.294C1801.33 100.732 1843.15 59.0856 1882.72 17.8847C1924.93 -26.2316 1972.48 -79.2632 2038.46 -102.951C2079.86 -117.816 2133.8 -133.124 2179.21 -133.557C2272.41 -134.43 2404.39 -110.74 2459.37 -35.0836M-412.212 400.102C-407.721 359.34 -386.62 326.278 -360.228 294.147C-336.558 265.278 -298.234 232.264 -258.249 215.409C-235.279 205.755 -212.55 202.178 -190.63 205.651C-126.227 215.806 -63.152 250.558 2.61414 251.049C23.1585 251.607 43.4761 248.83 62.3295 242.887C128.178 219.58 193.64 192.489 262.79 171.596C334.313 149.955 406.045 141.698 471.3 159.66C535.647 177.276 605.308 230.614 679.799 245.093C730.641 254.945 763.736 259.624 809.549 243.744C866.237 224.2 909.303 260.518 967.431 250.665C981.7 248.249 1001.56 244.835 1023.48 240.372C1096.76 225.634 1154.12 203.289 1200.71 156.786C1232.81 124.565 1255.35 88.9212 1310.17 80.4455C1312.85 80.0211 1315.57 79.7423 1318.31 79.611C1448.17 75.0266 1551.55 270.452 1669.6 230.759C1712.09 216.489 1734.55 168.916 1760.41 136.587C1796.06 92.1021 1835.95 50.0275 1874.43 7.68408C1915.93 -37.9747 1964.26 -90.9436 2031.14 -114.208C2073.01 -128.723 2127.54 -143.437 2173.22 -143.496C2267.64 -143.762 2402.26 -118.649 2454.78 -39.9065M-416.674 387.589C-413.275 345.098 -393.039 309.308 -367.473 275.196C-345.425 245.688 -307.863 211.129 -267.991 193.835C-245.149 183.935 -222.615 180.344 -200.921 183.564C-136.695 193.47 -75.4377 229.406 -9.98056 232.53C10.6419 233.757 31.1866 231.399 50.2253 225.619C118.693 202.795 186.239 171.806 254.597 146.041C325.087 119.47 394.239 109.014 462.885 126.426C535.246 144.761 596.93 206.139 673.062 230.873C713.262 243.939 771.587 247.627 811.5 234.128C870.855 213.859 916.403 249.906 971.897 239.139C985.754 236.339 1005.6 233.157 1027.17 228.628C1099.21 213.517 1149.84 191.533 1193.87 144.982C1225.1 112.066 1248.31 76.0839 1303.44 67.321C1306.12 66.8609 1308.84 66.5689 1311.59 66.4477C1444.08 60.9791 1543.21 260.873 1663.8 222.712C1745.76 196.668 1811.89 59.7906 1866.57 -2.36478C1907.52 -49.1231 1956.66 -102.301 2024.48 -125.06C2066.81 -139.264 2121.94 -153.383 2167.83 -153.074C2263.56 -152.376 2400.56 -126.29 2450.76 -44.4492M-421.131 374.997C-417.873 332.896 -401.959 292.402 -374.723 256.909C-351.425 227.15 -317.36 190.16 -277.46 172.517C-254.648 162.38 -232.062 158.754 -210.613 161.954C-146.411 171.546 -86.8664 208.595 -21.9567 214.256C-1.39214 216.136 19.2575 214.089 38.2724 208.285C110.265 185.078 179.487 146.053 247.286 118.055C309.634 92.3573 382.157 68.0596 454.586 91.0907C534.645 116.569 591.469 182.718 663.741 211.404C707.579 228.826 759.723 242.104 810.402 223.838C870.251 202.318 919.029 239.21 975.633 228.102C989.295 225.286 1008.76 221.918 1029.95 217.241C1100.48 201.344 1145.27 179.128 1186.99 133.174C1217.43 99.6862 1241.36 63.2542 1296.02 54.2968C1298.68 53.823 1301.38 53.5167 1304.12 53.3808C1439.03 47.1289 1534.41 250.905 1657.09 214.279C1740.53 189.448 1804.73 50.1886 1858.43 -12.5927C1899.05 -60.1592 1948.9 -113.593 2017.66 -135.807C2060.46 -149.662 2116.12 -163.113 2162.24 -162.551C2259.39 -161.191 2398.51 -133.881 2446.47 -49.21M-425.577 362.29C-423.305 318.579 -408.435 276.238 -382.112 238.533C-360.332 208.065 -326.662 169.246 -286.529 151.153C-263.607 140.869 -240.773 137.223 -219.556 140.249C-155.311 149.296 -97.1499 187.642 -32.8302 195.757C-12.4124 198.395 8.31903 196.709 27.263 190.87C103.32 166.698 172.126 120.565 241.113 88.1669C301.359 59.8382 373.963 31.4426 446.882 54.5129C530.164 80.9138 584.594 149.92 654.842 187.904C697.304 210.844 752.634 232.899 806.566 212.743C866.596 190.182 920.134 229.097 978.497 216.918C992.013 214.09 1010.99 210.643 1031.78 205.543C1100.27 189.171 1140.36 166.071 1180.32 121.227C1210.44 87.4006 1234.24 50.7626 1289.03 41.347C1291.7 40.8792 1294.4 40.5601 1297.13 40.3921C1429.41 33.3425 1526.97 243.625 1650.61 205.474C1737.56 178.578 1796.75 39.7784 1850.35 -23.0107C1890.88 -70.5849 1941.44 -124.9 2011.04 -146.578C2054.35 -160.04 2110.55 -172.9 2156.89 -171.969C2255.56 -169.979 2396.52 -141.585 2442.28 -54.0791M-430.018 349.504C-428.644 304.334 -414.859 260.315 -389.631 220.537C-369.286 188.938 -335.749 148.701 -295.252 130.363C-272.116 119.862 -248.986 116.2 -227.808 119.106C-163.3 127.94 -106.292 167.171 -42.5105 177.706C-22.2457 181.189 -1.36459 179.968 17.6207 174.189C96.8641 148.944 166.355 93.0151 235.72 57.129C294.051 26.8883 366.232 -4.82465 439.527 17.8457C524.928 44.2206 579.311 116.272 645.408 161.234C684.057 187.543 741.879 220.898 798.211 200.27C859.975 177.574 918.593 219.436 979.846 206.198C993.313 203.366 1011.87 199.69 1032.05 194.738C1097.88 177.8 1135.05 153.098 1173.27 109.601C1203.32 75.5342 1226.84 38.6397 1281.71 28.9172C1284.38 28.4554 1287.08 28.1236 1289.81 27.9235C1424.6 20.215 1517.95 233.288 1643.44 196.614C1732.19 170.721 1788.55 29.6632 1841.92 -33.2232C1882.34 -80.8053 1933.79 -135.831 2004.09 -156.867C2047.96 -169.971 2102.81 -180.75 2151.26 -180.941C2254.21 -181.423 2396.61 -145.213 2437.68 -58.7467M-434.45 336.603C-433.984 289.942 -421.309 244.229 -397.234 202.378C-378.175 169.621 -344.432 128.033 -303.555 109.256C-280.055 98.51 -256.729 94.8641 -235.193 97.6029C-169.514 105.944 -113.751 145.975 -50.6452 158.801C-30.3521 163.428 -8.93237 162.38 9.98358 155.832C91.5257 125.845 158.382 65.328 231.007 25.5984C288.652 -5.90902 358.885 -39.7321 432.404 -18.021C518.956 7.50777 574.939 80.4688 636.235 131.926C674.192 163.809 727.315 204.841 788.769 185.404C854.4 164.815 915.453 210.077 979.407 195.687C992.776 192.847 1010.96 188.868 1030.58 183.597C1144.35 153.1 1167.05 36.0078 1274.62 16.5848C1277.27 16.1033 1279.96 15.77 1282.68 15.5872C1420.38 7.05692 1508.59 221.751 1636.45 187.377C1725.18 163.555 1781.32 19.1563 1833.79 -43.6063C1874.08 -91.942 1926.25 -146.754 1997.62 -167.117C2042 -179.79 2097.34 -189.905 2146.06 -189.838C2250.79 -189.671 2394.1 -152.606 2433.44 -63.5421M-438.826 323.627C-441.356 274.642 -425.383 228.778 -404.766 184.537C-388.476 149.488 -353.143 107.713 -311.309 88.6616C-290.653 78.7419 -266.34 74.4058 -241.855 76.2749C-174.234 81.8788 -119.035 122.803 -56.6377 137.722C-36.3131 143.027 -14.5077 142.12 4.44917 135.181C87.5191 103.322 153.931 36.0464 226.727 -5.81943C282.964 -38.1821 351.706 -72.4372 425.288 -52.1283C512.692 -28.0168 570.062 45.4461 627.083 100.509C662.225 134.357 714.415 187.665 779.439 168.514C847.598 148.323 907.2 200.036 977.434 185.288C991.242 182.483 1008.51 178.275 1027.65 172.809C1138.48 140.982 1161.57 23.9598 1267.77 4.38848C1270.44 3.88307 1273.14 3.52509 1275.88 3.31709C1416.07 -5.52254 1499.77 209.592 1629.35 177.78C1717.66 156.074 1774.28 8.74271 1825.82 -54.0942C1866.01 -103.141 1919.15 -157.641 1991.35 -177.313C2036.28 -189.55 2092.01 -198.892 2141.2 -198.553C2247.99 -197.829 2391.89 -160.053 2429.31 -68.524M-443.3 310.643C-446.764 260.411 -431.886 212.857 -412.116 166.907C-396.773 130.765 -361.478 87.6197 -318.488 68.2694C-297.411 58.2676 -272.992 53.3234 -248.047 54.0073C-178.875 56.2173 -123.133 97.7317 -61.2789 114.523C-51.2613 117.444 -40.6809 118.746 -30.171 118.351C-19.6611 117.956 -9.4378 115.871 -0.112903 112.223C83.7877 78.5936 149.178 6.85797 222.591 -36.5612C277.819 -69.2391 344.423 -101.984 418.05 -83.47C506.779 -61.1677 563.623 10.2595 617.939 67.7644C651.474 103.242 702.392 166.299 769.969 149.697C841.263 132.142 897.329 191.155 973.189 174.981C989.844 171.389 1006.22 167.102 1022.25 162.136C1130.15 128.823 1155.43 12.094 1260.49 -7.29532C1263.15 -7.78821 1265.86 -8.13322 1268.59 -8.32787C1410.59 -17.5704 1490.73 197.612 1621.53 168.438C1709.04 148.739 1766.73 -1.47692 1817.31 -64.0774C1857.52 -113.827 1911.7 -167.853 1984.63 -186.802C2029.87 -198.585 2086.46 -207.114 2135.88 -206.484C2244.05 -205.064 2388.9 -166.937 2424.55 -73.0478M-447.724 297.664C-451.324 246.876 -441.879 196.42 -419.968 149.392C-402.584 112.359 -374.811 70.3316 -326.193 48.3043C-304.416 37.8953 -279.579 31.9783 -253.841 31.0679C-183.313 29.8683 -126.24 70.7465 -64.8014 89.6542C-54.8097 92.8508 -44.1496 94.3194 -33.5468 93.9601C-22.944 93.6007 -12.6473 91.4218 -3.35752 87.5717C80.8839 52.7582 144.554 -22.0857 218.252 -65.9902C272.82 -98.4083 336.771 -127.535 410.282 -111.258C500.335 -91.3515 556.277 -24.6479 608.806 34.2776C641.822 71.3164 695.663 143.989 760.547 129.048C828.143 113.424 886.896 181.916 966.786 164.579C980.711 161.55 996.903 157.255 1014.96 151.742C1123.31 118.27 1148.13 0.565649 1253.49 -18.8779C1256.15 -19.3833 1258.86 -19.7413 1261.6 -19.9493C1405.09 -29.3464 1482.56 185.349 1613.73 158.276C1700.15 140.523 1759.75 -12.6284 1809.15 -74.6197C1849.15 -124.855 1904.58 -178.507 1978.43 -196.64C2027.58 -208.822 2079.05 -214.92 2131.07 -214.725C2240.86 -212.589 2386.2 -174.423 2420.39 -78.2277M-452.104 284.727C-460.327 196.159 -432.281 77.5006 -333.657 28.3975C-205.49 -35.6201 -107.203 102.876 -5.77998 61.8531C125.106 8.76332 219.745 -165.273 401.748 -134.416C489.842 -119.553 546.852 -58.1972 596.637 -2.50099C630.618 35.3967 678.919 117.633 751.193 106.918C800.553 99.6083 820.793 128.394 861.424 144.074C911.457 163.437 957.099 159.544 1007.08 142.042C1110.1 106.229 1143.66 -13.6686 1246.63 -30.3325C1393.26 -53.7847 1467.52 172.772 1605.75 147.905C1680.66 134.352 1720.5 20.8585 1757.76 -29.6346C1809.9 -99.9676 1870.75 -183.871 1972.24 -206.009C2107.79 -235.623 2366.85 -232.845 2415.77 -83.1711" stroke="url(#paint0_linear_6_312)" stroke-width="0.5" stroke-miterlimit="10"/>
<defs>
<linearGradient id="paint0_linear_6_312" x1="2122.52" y1="-80.7714" x2="293.872" y2="456.197" gradientUnits="userSpaceOnUse">
<stop offset="0.683304" stop-color="#FD6721"/>
<stop offset="0.820933" stop-color="#FD6721" stop-opacity="0"/>
</linearGradient>
</defs>
</svg>
