<svg width="1920" height="1212" viewBox="0 0 1920 1212" fill="none" xmlns="http://www.w3.org/2000/svg">
<path opacity="0.34" d="M1961.78 1148.55C1909.64 1187.16 1840.35 1202 1775.23 1208.81C1644.07 1222.43 1631.86 1077.76 1535.5 1070.46C1450.28 1063.98 1394.53 1045.77 1349.11 985.534C1272.69 884.231 1147.41 940.571 1069.26 1006.55C948.644 1108.37 821.216 1246.81 625.382 1203.21C479.757 1170.77 388.125 1108.17 326.236 996.516C300.005 949.167 271.746 895.531 259.599 843.967C247.833 794.093 265.615 717.347 203.182 689.349C72.2363 630.596 -110.823 730.099 -249.982 700.343C-348.821 679.322 -388.311 642.806 -349.103 556.411C-295.659 438.779 -480.329 407.386 -584.189 390.05C-674.287 374.937 -816.774 414.946 -891.383 361.499M1966.53 1132.34C1914.87 1169.46 1846.24 1183.94 1783.14 1189.53C1710.33 1196.02 1658.48 1143.53 1624.01 1097.74C1600.66 1066.65 1575.72 1038.55 1546.55 1038.15C1455.59 1036.94 1410.85 1015.93 1360.61 958.894C1346.31 942.604 1330.71 928.998 1313.77 920.894C1228.24 879.89 1143.73 930.898 1082.81 978.455C1017.97 1029.34 953.774 1098.65 877.955 1141.46C796.061 1187.69 719.314 1202.27 624.102 1187.21C565.73 1178 499.415 1158.1 456.579 1127.12C404.324 1089.17 365.868 1039.12 332.945 986.247C326.331 975.557 320.42 963.795 314.651 951.983C291.86 905.179 276.06 862.703 268.494 812.414C261.252 764.328 275.023 709.441 223.702 676.998C221.727 675.717 219.611 674.578 217.376 673.595C85.0413 615.93 -100.08 719.194 -240.447 691.567C-342.696 671.601 -372.381 633.988 -334.105 547.628C-306.358 484.704 -353.524 448.215 -413.752 424.419C-463.201 404.921 -525.345 393.474 -582.762 384.503C-671.633 370.581 -813.092 406.834 -887.271 356.909M1971.3 1115.66C1919.98 1150.84 1852.1 1163.69 1791.17 1167.39C1717.7 1171.86 1668.19 1112.3 1634.26 1065.92C1610.89 1033.98 1586.16 1006.6 1557.27 1006.1C1469.89 1004.6 1424.85 986.669 1371.24 934.278C1358.17 920.867 1341.56 909.936 1322.51 902.214C1234.95 869.033 1160.96 905.753 1095.99 952.501C1026.18 1002.69 958.239 1069.57 883.65 1114.82C803.095 1163.63 720.436 1185.53 622.743 1171.45C566.528 1163.36 502.374 1143.4 461.234 1112.09C411.134 1074 371.71 1027.24 339.294 976.397C332.598 965.909 326.595 954.233 320.732 942.467C295.917 893.128 285.327 852.424 280.753 798.926C276.542 749.972 290.24 694.152 237.292 661.682C235.275 660.411 233.127 659.276 230.868 658.287C96.4258 601.964 -90.3378 709.307 -231.192 682.97C-336.119 663.375 -354.751 624.877 -319.608 538.729C-293.154 473.798 -349.979 440.231 -411.461 417.982C-462.401 399.541 -523.951 388.125 -581.635 378.901C-669.632 364.832 -809.163 399.953 -883.168 352.203M1976.07 1098.94C1927.28 1130.2 1857.85 1143.88 1799.42 1143.16C1723.11 1142.27 1678.6 1080.59 1644.49 1033.83C1621 1001.66 1596.28 975.654 1567.64 975.092C1491.43 973.681 1430.99 957.604 1380.96 912.431C1366.73 900.556 1349.32 891.373 1329.93 885.515C1243.34 856.362 1175.17 884.056 1108.38 929.503C1036.44 978.45 965.91 1041.79 891.218 1087.59C808.406 1138.35 721.997 1168.12 622.698 1155.51C564.72 1147.87 511.11 1127.54 467.783 1096.75C417.713 1059.76 376.543 1015.79 346.16 966.857C339.549 956.207 333.326 944.86 327.225 933.192C299.958 880.883 296.001 841.876 294.425 785.246C293.065 735.633 305.621 679.084 250.834 646.996C248.792 645.735 246.628 644.602 244.361 643.605C107.729 588.825 -80.9134 699.759 -221.375 674.64C-327.328 655.753 -335.871 615.393 -304.833 530.238C-280.637 463.533 -347.057 433.079 -409.414 412.19C-461.594 394.864 -522.579 383.129 -580.233 373.668C-667.361 359.373 -804.702 393.576 -878.595 347.85M1980.89 1081.7C1932.12 1110.03 1863.4 1120.34 1807.75 1116.89C1732.32 1112.26 1689.44 1048.18 1654.5 1001.45C1630.85 969.762 1606.04 945.674 1577.54 945.061C1503.61 943.782 1444.57 930.484 1389.6 893.056C1373.33 882.828 1355.02 874.78 1335.37 869.21C1249.62 843.195 1184.16 863.441 1117.9 907.712C1047.12 955.041 973.854 1014.34 899.949 1059.53C814.681 1111.58 718.992 1151.48 623.884 1138.33C568.442 1130.11 517.154 1110.49 475.021 1081.4C425.114 1046.18 383.692 1004.02 352.643 956.84C345.947 946.353 339.73 935.084 333.366 923.202C304.511 870.121 304.211 829.454 308.471 770.715C311.854 724.398 318.929 660.86 263.519 632.066C261.366 630.84 259.124 629.715 256.802 628.695C118.084 575.528 -71.8289 689.651 -211.913 665.558C-317.963 647.303 -317.118 604.942 -290.703 521.055C-269.348 453.288 -345.81 425.279 -408.193 405.916C-461.286 389.484 -521.675 377.819 -579.448 368.094C-665.709 353.573 -800.709 386.886 -874.495 343.105M1985.68 1064.67C1936.81 1089.96 1869.03 1096 1816.18 1089.95C1742.34 1081.16 1700.79 1016.51 1664.34 970.015C1640.45 939.561 1615.24 917.967 1587.01 917.567C1515.63 916.865 1455.15 908.257 1396.41 876.094C1378.78 866.977 1359.69 859.705 1339.61 854.448C1255.32 830.739 1191.45 844.486 1125.68 887.428C1056.26 932.694 983.637 988.341 910.421 1032.31C822.788 1084.93 722.941 1131.93 627.786 1120.66C579.984 1114.99 525.612 1094.87 482.541 1067.12C431.625 1034.3 389.727 993.55 359.255 947.204C352.468 936.802 346.229 925.261 339.587 913.597C292.96 832.777 383.705 670.142 275.647 618.158C273.347 617.091 270.985 615.873 268.636 614.81C127.571 562.456 -57.7139 680.9 -201.088 656.288C-309.779 637.619 -297.961 594.615 -276.845 512.168C-259.568 444.492 -345.562 418.536 -407.785 400.567C-463.637 385.14 -520.814 372.635 -578.959 363.13C-664.309 348.301 -796.767 380.785 -870.45 338.912M1990.44 1047.83C1941.3 1069.78 1874.76 1071.04 1824.64 1062.19C1752.65 1049.49 1712.64 985.618 1673.95 940.047C1649.66 911.422 1624.11 892.866 1595.91 892.816C1526.99 892.661 1461.33 888.374 1401.91 860.527C1383.1 852.426 1363.34 845.738 1342.88 840.544C1260.91 817.549 1196.04 828.053 1131.59 867.763C1064.42 909.136 993.922 963.713 922.092 1005.93C841.38 1053.39 730.624 1115.99 634.435 1101.64C586.218 1094.47 532.803 1078.93 490.261 1053.48C438.605 1022.58 396.119 983.107 365.577 937.629C358.695 927.274 352.465 915.225 345.566 904.05C295.133 822.401 408.629 658.689 286.702 605C284.356 603.976 281.851 602.808 279.371 601.951C135.316 551.595 -43.199 657.458 -190.073 647.55C-303.644 639.865 -275.324 566.263 -263.836 503.74C-251.139 436.039 -345.836 412.03 -407.782 395.055C-463.714 380.297 -520.677 367.892 -578.443 357.89C-663.032 342.727 -792.75 374.405 -866.329 334.439M1995.22 1031.27C1941.84 1049.37 1882.41 1044.2 1833.06 1034.58C1765.79 1021.2 1725.1 956.087 1683.24 912.099C1658.46 886.054 1632.46 871.13 1604.14 871.518C1534.91 872.326 1468.11 871.571 1406.3 846.494C1386.69 839.146 1366.46 832.839 1345.73 827.612C1265.71 805.556 1200.46 810.696 1136.42 848.731C1071.43 887.272 1003.38 940.442 934.261 980.837C852.949 1028.19 742.149 1092.09 644.067 1081.76C595.219 1076.56 541.307 1064.65 498.03 1040.47C445.777 1011.16 402.751 972.754 372.042 928.005C365.016 917.7 358.582 906.175 351.591 894.461C301.742 810.889 429.213 645.277 296.939 592.689C294.499 591.712 291.847 590.555 289.269 589.706C143.023 542.106 -31.8781 646.389 -178.709 638.863C-292.379 633.022 -257.743 554.694 -251.281 495.192C-243.984 428.275 -345.832 405.932 -408.257 389.738C-462.74 375.607 -521.012 363.342 -578.016 352.774C-661.847 337.238 -788.426 368.157 -862.247 330.086M1999.92 1014.94C1946.35 1028.92 1888.66 1019.58 1841.56 1007.36C1775.97 990.325 1738.62 928.191 1692.34 886.784C1666.89 863.998 1640.81 853.654 1612.32 854.408C1542.83 856.292 1473.46 856.602 1410.15 833.678C1389.93 826.488 1369.12 820.32 1347.84 815.209C1267.53 795.716 1207.25 791.586 1139.68 829.864C1076.64 865.591 1010.91 917.637 944.437 956.688C862.12 1005.02 754.177 1067.09 654.869 1062.36C605.46 1059.98 550.614 1051.16 506.206 1027.62C453.202 999.76 409.483 962.249 378.479 918.03C370.694 907.215 363.719 896.027 357.588 884.521C316.644 803.365 445.557 630.562 306.141 580.969C303.508 580.046 300.761 578.937 298.039 578.138C150.422 533.696 -21.4678 635.628 -167.101 630.156C-279.506 625.973 -240.943 542.6 -239.519 486.551C-237.918 421.653 -345.732 400.412 -409.107 384.647C-463.694 371.071 -521.11 358.425 -577.585 347.697C-660.815 331.683 -784.435 362.053 -858.111 325.808M2004.58 999.364C1950.75 1008.79 1895.42 995.782 1849.86 981.288C1786.23 961.009 1753.07 902.136 1701.08 865.094C1674.72 846.251 1648.84 840.191 1619.97 841.054C1549.76 843.19 1478.16 844.069 1413.48 822.389C1393.6 815.731 1371.35 809.536 1349.99 804.013C1271.56 783.98 1209.17 776.188 1142.37 811.785C1081.01 844.602 1017.06 896.077 953.343 933.89C865.153 986.326 764.312 1039.97 665.973 1044.28C618.251 1046.37 560.526 1038.48 514.499 1015.62C460.737 988.978 416.273 952.198 384.843 908.374C376.389 897.682 369.695 886.136 364.917 874.007C337.738 790.185 460.454 616.198 313.891 570.186C311.164 569.31 308.28 568.329 305.512 567.573C155.99 528.247 -10.6687 625.422 -155.566 621.767C-266.927 618.947 -224.922 530.609 -229 477.774C-233.883 416.717 -345.896 394.679 -410.416 379.357C-465.103 366.376 -521.41 353.446 -577.278 342.317C-659.903 325.864 -780.216 355.735 -854.079 321.459M2009.27 984.252C1955.53 989.176 1902.34 972.83 1858.21 956.386C1798.03 933.837 1767.15 877.009 1709.81 847.432C1685.58 834.876 1656.65 828.972 1627.25 830.582C1556.2 832.629 1482.53 833.401 1416.75 812.238C1396.54 805.685 1374.03 799.355 1352.5 793.494C1275.65 772.279 1211.34 760.926 1144.74 794.006C1084.71 823.785 1022.44 874.695 961.079 911.851C873.892 964.519 775.591 1017.92 677.332 1026.91C628.463 1031.29 570.788 1026.48 522.928 1004.08C468.314 978.542 423.008 942.371 391.067 898.808C382.843 887.903 377.24 875.82 374.533 863.153C358.846 778.412 476.257 601.487 320.874 561.497C318.058 560.745 315.037 559.892 312.08 559.23C160.746 524.936 0.235271 615.912 -144.02 614.12C-254.283 612.737 -210.595 520.199 -219.549 469.787C-230.299 410.45 -346.269 390.018 -411.866 374.782C-466.28 362.131 -521.886 349.34 -576.773 337.547C-662.207 319.208 -771.777 349.861 -850.027 317.343M2013.88 969.812C1960.55 970.168 1909.38 951.315 1866.29 933.185C1810.52 909.697 1776.44 855.862 1718.2 833.587C1691.65 823.398 1663.93 821.472 1634.26 822.203C1562.25 824.054 1486.75 823.995 1420.03 802.712C1399.37 796.077 1376.93 789.468 1355.25 782.993C1290.21 763.647 1213.04 739.643 1146.99 775.963C1085.22 809.868 1026.91 853.112 967.682 889.785C881.719 942.98 786.181 996.473 688.529 1009.36C638.755 1015.96 580.625 1014.09 531.796 991.88C477.049 967.06 427.106 932.161 397.942 888.134C391.029 876.505 387.184 863.797 386.635 850.771C380.07 765.613 489.213 586.848 326.741 553.601C323.738 552.981 320.573 552.179 317.475 551.606C165.521 522.482 10.4191 606.615 -132.46 606.042C-240.776 605.598 -196.483 508.321 -210.991 461.089C-228.341 404.157 -345.528 385.112 -413.614 369.528C-467.514 357.148 -522.112 344.042 -576.135 331.985C-660.973 313.089 -767.423 343.376 -845.915 312.754M2018.39 956.082C1965.88 952.465 1916.55 931.432 1874.29 911.945C1822.42 888.067 1784.88 840.177 1726.31 823.01C1698.9 814.962 1671.27 815.412 1641.19 815.942C1568.15 817.21 1490.85 816.24 1423.65 793.901C1402.77 787.01 1380.36 779.93 1358.62 772.834C1293.88 751.589 1217.01 725.293 1149.73 757.997C1088.14 787.94 1030.95 831.564 973.514 867.937C888.82 921.617 796.26 975.418 699.597 992.062C649.591 1000.67 590.569 1001.8 540.679 979.873C486.456 956.066 429.932 921.967 407.177 876.842C401.97 866.509 400.527 852.161 400.598 838.279C401.051 749.785 502.01 575.779 331.302 547.256C328.211 546.76 324.905 546.047 321.664 545.525C170.398 521.31 19.7863 598.204 -121.196 598.575C-227.583 598.875 -183.532 496.106 -203.344 452.699C-227.832 398.839 -343.623 381.246 -415.437 364.592C-468.845 352.212 -522.217 339.047 -575.436 326.574C-659.89 306.944 -763.011 337.003 -841.886 308.366M2022.86 943.099C1971.49 935.833 1923.34 913.534 1882.08 892.99C1834.52 869.432 1791.82 827.934 1734.28 815.571C1706.44 809.551 1678.53 810.844 1648.14 811.087C1574.36 811.711 1495.14 808.978 1427.75 785.442C1406.79 778.09 1384.42 770.419 1362.82 762.57C1298.24 739.083 1222.63 710.615 1153.46 739.953C1091.57 766.167 1034.95 809.667 978.842 845.934C895.356 899.947 805.909 954.516 710.449 974.503C660.784 984.925 599.95 989.243 549.639 967.586C497.239 945.041 434.84 913.171 419.197 864.662C415.901 851.675 414.965 838.312 416.417 824.975C422.625 731.525 513.484 566.614 334.741 542.251C331.507 541.806 328.109 541.179 324.777 540.742C175.549 521.093 28.242 590.688 -110.226 591.717C-214.656 592.486 -172.255 485.705 -197.408 445.071C-229.293 393.483 -342.903 377.319 -417.438 359.866C-469.85 347.641 -522.318 334.091 -574.503 321.613C-658.619 301.292 -758.509 331.131 -837.858 304.565M2027.26 931.02C1977.21 920.6 1931.55 897.437 1889.62 876.517C1843.47 853.393 1798.45 819.078 1742.12 810.137C1713.85 805.674 1685.86 807.092 1655.29 807.035C1580.62 806.91 1499.84 802.426 1432.53 776.929C1411.52 768.955 1389.29 760.609 1367.88 751.924C1303.87 725.773 1230.47 695.408 1158.75 721.744C1095.67 744.77 1039.47 787.338 984.242 823.612C901.615 877.909 815.254 933.521 721.219 956.56C672.271 968.566 609.247 976.265 558.665 954.903C507.054 932.998 442.959 903.922 433.719 851.774C431.968 838.332 432.019 824.727 433.869 811.188C444.624 711.824 521.934 558.433 337.18 537.678C333.903 537.315 330.365 536.777 326.99 536.421C180.641 520.764 35.9262 583.389 -99.4114 584.793C-201.955 585.763 -161.777 476.424 -192.793 437.549C-232.517 387.643 -342.72 372.848 -419.332 354.662C-470.609 342.464 -522.026 328.517 -573.252 315.728C-657.124 294.761 -753.875 324.468 -833.796 299.98M2031.58 919.769C1983.55 906.92 1939.18 883.927 1896.91 863.699C1850.86 841.701 1805.38 812.855 1749.86 806.077C1721.24 802.699 1693.36 803.639 1662.64 803.477C1587.21 802.552 1504.9 796.236 1438.34 768.295C1417.46 759.568 1395.37 750.468 1374.33 740.854C1311.09 712.022 1241.48 679.83 1166.08 703.255C1100.7 723.338 1044.51 764.263 989.535 800.556C907.788 854.783 823.958 911.873 731.332 937.77C683.187 951.198 618.168 962.261 567.574 941.37C515.233 919.562 455.459 892.212 450.621 837.874C449.951 824.283 450.67 810.63 452.77 797.05C466.816 691.443 527.54 550.987 338.695 533.843C335.274 533.531 331.694 533.074 328.276 532.8C185.709 520.75 42.735 576.825 -89.1024 578.301C-190.059 579.417 -152.016 468.607 -189.5 430.718C-237.653 382.504 -342.902 368.719 -421.065 349.602C-471.26 337.395 -521.629 323.013 -571.883 310.068C-655.61 288.464 -749.27 318.04 -829.9 295.759M2035.89 908.988C1989.64 894.472 1946.36 872.721 1904 853.281C1858.28 832.313 1811.82 808.393 1757.55 802.453C1728.85 799.354 1701.07 799.7 1670.25 798.959C1594.17 797.227 1510.48 789.067 1444.63 758.372C1424.18 748.75 1402.11 738.749 1381.49 728.242C1312.57 693.063 1253.38 672.976 1176.61 685.409C1111.99 695.933 1050.7 740.667 996.242 776.723C915.509 830.087 833.29 889.472 741.78 918.25C694.337 933.068 627.579 946.381 576.766 927.071C525.092 907.438 471.029 875.8 469.44 823.939C469.548 810.225 470.752 796.499 473.044 782.842C488.721 671.163 529.724 544.441 339.431 530.736C335.964 530.466 332.39 530.087 328.877 529.86C190.357 521.004 48.9702 571.088 -79.141 572.383C-178.777 573.395 -142.142 461.602 -187.298 424.405C-243.568 378.091 -343.43 364.579 -422.746 344.577C-471.49 332.058 -520.74 317.509 -569.644 304.221C-653.325 281.949 -744.182 311.497 -825.613 291.508M2040.17 898.561C1995.58 883.208 1953.61 862.486 1910.98 844.476C1865.8 825.418 1817 804.226 1765.23 798.751C1736.88 795.741 1708.93 794.615 1678.14 793.599C1601.51 791.129 1516.7 781.299 1452.2 747.721C1431.66 737.128 1409.76 726.059 1390.5 714.779C1328.57 678.923 1263.79 664.052 1192.24 671.025C1123.87 677.706 1059.67 716.183 1004.3 751.883C924.075 803.642 845.304 861.227 752.493 897.106C703.084 916.264 638.485 930.734 586.272 911.144C534.059 891.554 490.598 857.7 490.63 808.876C490.653 797.46 492.761 782.594 494.742 767.973C510.525 650.852 528.909 537.94 339.956 527.449C336.446 527.261 332.777 526.929 329.271 526.779C195.039 520.473 55.1659 565.472 -69.1796 566.466C-167.954 567.174 -131.855 454.838 -185.493 418.046C-250.167 373.732 -343.328 360.31 -423.631 339.058C-471.35 326.418 -519.005 311.506 -566.976 298.183C-650.759 275.255 -739.009 304.79 -821.327 287.256M2044.36 888.727C2001.33 872.624 1959.91 853.227 1917.89 836.769C1872.17 818.967 1823.78 801.025 1773.03 794.218C1744.42 790.232 1715.49 787.587 1686.37 786.296C1609.32 783.037 1523.54 771.957 1460.8 735.228C1441.1 723.474 1419.74 712.987 1401.58 703.182C1341.92 670.39 1280.86 656.55 1211.37 659.762C1141.89 662.974 1072.91 695.97 1015.66 728.42C933.341 774.874 854.624 836.833 763.078 874.996C715.88 894.719 647.021 915.002 598.481 893.946C552.601 874.162 512.335 840.248 512.86 793.886C512.995 782.657 515.061 767.872 516.663 753.438C522.381 701.852 547.344 637.353 513.418 589.798C480.687 543.634 402.06 527.329 339.148 524.739C335.642 524.589 331.882 524.342 328.43 524.267C200.559 521.79 62.458 559.416 -60.4529 561.116C-146.097 562.298 -144.443 443.297 -185.231 412.083C-241.387 369.043 -342.952 355.785 -424.86 333.528C-471.901 320.756 -517.454 305.05 -564.325 291.952C-648.304 268.414 -734.341 297.928 -817.575 283.086M2048.57 879.244C2007.06 863.019 1967.04 844.565 1924.71 829.696C1878.01 813.261 1830.39 797.487 1780.88 788.274C1752.75 782.349 1723.96 778.323 1694.81 776.239C1616.53 772.258 1533.55 758.139 1470.67 722.048C1451.99 711.307 1431.52 702.664 1414.27 693.763C1361.15 665.92 1299.16 647.151 1233.45 650.179C1160.73 653.611 1093.49 678.103 1033.95 707.256C948.03 749.308 863.187 815.274 774.731 850.845C733.584 867.465 660.917 895.519 617.458 874.603C576.864 855.061 536.567 823.222 536.531 778.468C536.542 767.522 538.278 752.921 539.354 738.685C543.207 687.17 561.767 625.685 521.82 580.996C483.144 538.043 401.961 523.624 338.72 521.841C335.167 521.734 331.459 521.523 327.962 521.49C204.269 520.79 67.83 555.195 -51.4107 556.015C-95.9314 556.293 -110.342 534.891 -125.755 508.332C-149.097 468.178 -141.342 436.522 -184.719 406.179C-244.257 364.543 -343.031 351.101 -424.788 327.659C-470.476 314.583 -514.534 298.484 -560.136 285.245C-644.147 260.694 -728.945 290.929 -813.047 278.776M2052.7 870.001C2052.7 870.001 2018.24 852.001 1931.54 822.74C1886.01 807.345 1836.45 792.663 1788.91 780.4C1760.61 773.087 1733.07 764.033 1703.46 762.53C1626.61 758.592 1546.96 744.168 1481.98 711.449C1463.72 702.277 1444.6 694.543 1428.6 686.558C1377.33 660.873 1319.64 641.721 1256.81 642.642C1184.94 643.661 1117.93 663.131 1057.09 688.871C968.586 726.322 881.044 788.087 792.96 825.23C754.867 841.254 681.834 872.738 642.626 853.28C605.066 834.747 562.936 806.454 561.563 762.824C561.21 752.259 562.421 737.856 562.69 723.997C565.171 598.715 509.593 521.66 337.836 518.785C334.241 518.76 330.535 518.587 327.041 518.593C207.406 519.405 72.8506 551.51 -43.0838 551.206C-88.0758 551.13 -100.787 528.811 -117.075 502.4C-142.304 461.42 -138.324 430.573 -184.947 400.256C-246.678 360.124 -343.665 345.64 -424.233 321.673C-468.356 308.472 -511.615 291.293 -555.676 278.243C-638.66 253.61 -723.88 283.488 -808.8 274.645M2056.86 861.03C2056.86 861.03 2024.77 842.567 1938.36 815.783C1891.43 801.283 1843.25 786.608 1796.91 770.301C1768.7 760.284 1741.43 747.376 1712.17 745.808C1638.02 741.81 1559.16 733.107 1494.2 703.592C1476.68 695.612 1458.55 688.658 1443.2 681.364C1394.04 657.543 1340.71 637.456 1280.78 636.503C1210.76 635.42 1144.71 650.866 1083.73 673.059C993.77 705.818 904.377 761.047 817.512 799.891C782.062 815.743 712.405 850.045 671.467 831.117C622.49 808.297 598.315 790.96 586.045 747.693C583.428 738.365 585.537 723.499 584.804 710.033C578.608 585.796 499.752 516.779 336.156 515.636C332.561 515.61 328.862 515.515 325.42 515.556C209.584 517.707 77.0348 548.439 -35.8474 546.914C-81.2772 546.286 -92.4861 523.065 -109.547 496.833C-136.651 455.183 -136.753 424.975 -186.03 394.714C-249.33 355.88 -344.204 340.132 -423.704 315.376C-466.609 302 -508.051 283.542 -551.589 270.881C-635.227 246.69 -719.476 275.787 -804.954 270.428M2061.01 852.059C2061.01 852.059 2031.2 833.179 1944.99 808.256C1896.47 794.695 1849.74 777.632 1805.37 757.272C1777.42 743.872 1750.75 732.285 1721.48 731.148C1646.97 728.195 1574.66 724.363 1507.12 697.242C1489.99 690.365 1472.3 684.001 1458.41 677.06C1409.1 652.586 1360.48 635.993 1304.98 630.699C1242.67 624.542 1172.84 640.095 1112.67 658.901C1023.07 686.902 933.83 736.685 847.67 774.495C813.573 789.418 743.997 824.729 704.409 807.296C668.702 791.624 618.174 770.335 612.033 731.699C610.47 722.013 609.728 708.43 607.85 695.407C590.241 574.937 490.346 511.786 334.831 511.989C331.288 511.999 327.638 511.9 324.202 512.018C211.708 515.348 81.9314 545.663 -28.6995 542.746C-74.5703 541.528 -84.3805 517.335 -102.224 491.166C-131.248 448.887 -135.388 419.276 -187.034 388.931C-251.192 351.065 -343.986 334.251 -421.634 308.644C-463.29 294.894 -503.339 275.386 -546.775 263.381C-631.534 239.945 -714.698 268.447 -800.554 266.363M2065.16 843.011C2065.16 843.011 2036.39 823.54 1952.16 799.982C1901.81 785.833 1857.67 765.089 1814.28 741.315C1790.28 727.516 1761.3 720.018 1731.2 719.816C1658.43 718.835 1587.3 717.566 1520.65 692.838C1504.63 687.24 1489.04 680.931 1473.96 673.94C1426.64 650.362 1381.51 631.887 1328.57 624.824C1269.77 616.98 1200.81 630.431 1142.61 646.109C1053.76 670.023 965.942 714.181 880.76 750.076C847.439 764.233 778.248 799.436 739.123 783.49C702.491 768.556 648.26 755.108 637.523 716.253C634.91 706.963 633.142 694.088 629.836 681.688C598.522 565.245 485.023 506.778 333.661 507.822C330.121 507.871 326.523 507.807 323.139 507.96C213.438 512.356 86.8133 543.318 -22.0711 538.854C-68.49 536.938 -76.8064 511.726 -95.4902 485.507C-126.032 442.724 -135.286 413.17 -188.139 383.117C-252.647 346.412 -344.194 328.561 -418.659 301.526C-458.5 287.084 -499.082 267.072 -541.933 255.606C-626.982 232.858 -710.428 260.913 -796.539 262.406M2069.35 833.803C2069.35 833.803 2041.57 813.939 1959.14 790.629C1909.33 776.515 1865.13 747.606 1823.49 726.037C1798.59 713.175 1770.32 709.808 1741.41 710.205C1669.97 711.111 1600.14 711.966 1534.33 689.047C1518.55 683.962 1503.27 678.001 1488.6 671.205C1443.69 648.686 1399.18 628.245 1350.01 618.38C1294.97 607.147 1227.84 621.35 1171.08 634.176C1083.39 653.972 998.717 694.439 915.441 726.468C880.487 739.896 812.626 772.646 774.562 759.508C736.499 746.37 679.075 739.783 662.286 700.943C658.426 692.066 655.436 679.914 650.545 667.992C605.998 559.019 478.334 501.293 332.741 503.088C329.25 503.132 325.756 503.138 322.369 503.253C210.976 506.807 93.4109 541.5 -16.069 535.13C-62.9963 532.394 -69.8775 506.051 -89.402 479.782C-121.494 436.693 -135.939 406.851 -189.36 377.078C-253.654 341.216 -342.713 322.462 -414.701 293.783C-453.391 278.349 -494.602 258.466 -537.221 247.451C-622.657 225.398 -706.632 252.987 -792.733 258.31M2073.52 824.401C2073.52 824.401 2047.3 804.373 1966.26 780.014C1917.19 765.176 1876.87 731.267 1832.93 712.931C1808.13 702.562 1780.4 701.067 1751.6 702.236C1681.14 705.018 1612.51 707.849 1547.38 686.088C1531.95 681.271 1517.11 675.41 1503.01 668.567C1459.51 645.858 1417.34 623.314 1369.68 610.787C1318.8 597.423 1250.08 612.027 1198 622.369C1114.08 638.97 1031.35 674.786 950.852 703.974C915.313 716.862 848.944 747.969 810.371 735.849C769.478 723.015 710.517 724.291 686.631 685.94C681.484 677.596 677.08 666.222 670.417 654.911C611.314 554.724 473.928 495.431 332.205 497.619L322.035 497.846C212.024 502.072 98.7036 539.983 -10.2896 531.697C-55.9951 528.238 -65.4148 500.926 -83.7997 474.135C-114.313 429.239 -137.598 400.261 -190.484 371.03C-254.128 335.899 -339.335 316.094 -409.582 285.79C-447.912 269.312 -489.63 249.86 -532.267 239.237C-617.644 217.922 -703.081 245.081 -788.816 254.362M2077.76 814.719C2077.76 814.719 2052.28 795.766 1973.52 767.941C1925.09 750.785 1891.67 716.285 1842.63 701.366C1816.7 693.472 1790.49 693.067 1761.95 695.037C1692.63 699.76 1624.5 704.467 1560.05 683.276C1544.75 678.546 1530.11 672.621 1516.36 665.585C1473.57 641.996 1432.57 616.741 1386.16 601.417C1338.29 585.701 1270.71 599.745 1221.36 609.868C1142.54 626.179 1062.63 656.023 985.016 682.518C948.554 694.933 882.507 724.529 844.702 712.777C800.53 698.954 742.166 710.15 709.435 671.373C702.911 663.647 696.897 653.066 688.321 642.456C614.964 551.735 472.434 489.061 332.268 491.633C328.924 491.666 325.475 491.629 322.443 491.872C218.725 499.073 103.719 541.145 -4.87966 528.567C-53.1159 523.004 -58.2738 496.055 -78.6507 467.743C-111.13 422.887 -137.879 393.677 -190.929 364.851C-254.318 330.441 -334.385 309.053 -403.32 277.315C-441.743 259.671 -483.882 241.113 -526.732 230.898C-612.34 210.383 -699.307 236.883 -784.4 250.491M2081.98 804.687C2081.98 804.687 2052.88 786.728 1980.83 754.144C1939.99 735.834 1900.48 701.508 1852.7 690.554C1826.53 684.595 1800.78 685.091 1772.5 687.822C1704.12 694.386 1636.09 701.077 1572.18 679.921C1556.74 675.282 1542.11 669.183 1528.6 661.752C1485.29 635.9 1447.1 606.432 1399.29 589.578C1352.54 573.03 1289.81 585.044 1240.3 595.571C1166.3 611.301 1090.36 638.443 1016.65 662.007C979.167 673.996 916.088 701.321 877.013 690.296C829.035 676.896 770.513 692.873 730.553 657.254C722.596 650.073 715.078 640.394 704.247 630.51C615.618 549.454 475.118 482.006 333.01 484.304C329.767 484.367 326.368 484.327 323.189 484.581C220.459 492.446 107.951 539.907 -0.381049 525.119C-48.3037 518.554 -53.4696 490.276 -74.837 461.887C-108.581 417.21 -138.844 387.148 -192.01 358.097C-254.244 323.986 -332.037 299.64 -397.713 268.033C-435.076 250.109 -480.361 229.144 -521.935 221.954C-608.175 207.079 -690.631 227.199 -780.854 246.22M2086.27 794.26C2086.27 794.26 2057.27 775.783 1988.33 738.965C1952.64 719.89 1908.44 688.402 1862.28 680.524C1836 676.254 1810.57 677.115 1782.5 680.533C1714.84 688.759 1646.55 697.661 1583.01 676.163C1567.48 671.328 1552.88 664.874 1539.59 656.964C1495.49 628.634 1456.84 595.256 1408.46 574.968C1362.32 555.635 1303.73 567.045 1253.82 578.776C1184.84 595.043 1113.79 621.247 1044.61 642.415C1006.17 654.089 946.583 678.908 906.2 668.769C854.268 655.763 796.16 675.694 749.458 643.781C740.083 637.338 730.663 628.476 717.632 619.394C614.99 547.745 479.723 475.579 334.642 476.394C331.494 476.412 328.299 476.472 325.209 476.602C216.221 481.918 116.098 540.233 3.98328 521.838C-42.1431 514.348 -51.4767 485.035 -71.1177 456.078C-102.149 410.246 -140.702 379.909 -192.71 351.195C-253.686 317.413 -327.192 289.442 -391.828 258.532C-429.289 240.616 -475.112 219.694 -516.942 212.994C-603.603 199.013 -687.851 218.26 -777.102 242.05M2090.66 783.393C2090.66 783.393 2065.03 760.153 1996.09 722.239C1961.76 703.369 1916.75 676.05 1872.29 670.264C1846.03 667.206 1819.13 667.849 1792.8 672.165C1725.51 681.847 1656.66 693.061 1593.22 670.89C1577.35 665.719 1562.57 658.77 1549.29 650.247C1504.7 620.158 1467.85 580.303 1412.42 561.204C1361.82 543.87 1310.26 547.838 1261.61 559.234C1199.23 573.8 1133.09 604.029 1067.7 623.409C1028.81 634.963 972.839 657.654 931.433 648.262C875.692 635.639 818.294 658.914 765.615 631.036C754.875 625.367 743.487 617.756 727.965 608.913C618.564 546.912 481.308 467.713 337.348 467.774C334.297 467.783 331.2 467.836 328.26 467.993C218.978 473.332 120.985 539.803 8.27661 518.915C-37.7349 510.399 -46.9543 479.436 -67.3872 450.424C-99.4362 404.791 -140.623 373.531 -192.276 344.32C-251.663 310.724 -320.577 278.632 -385.07 248.884C-423.347 231.229 -469.117 210.342 -511.146 204.244C-598.12 191.265 -684.797 209.69 -772.681 238.257M2094.68 772.127C2094.68 772.127 2070.47 742.049 2003.48 706.325C1969.91 688.449 1924.65 664.043 1881.62 659.55C1855.33 656.955 1828.52 657.937 1802.31 662.453C1735.06 673.227 1665.18 686.907 1601.77 663.952C1585.39 658.418 1570.26 650.888 1556.92 641.624C1512.39 608.598 1473.86 568.721 1414.6 549.694C1364.6 533.681 1313.64 534.121 1264.6 543.164C1205.28 554.084 1143.76 584.804 1084.74 604.456C1048.79 616.478 991.893 636.821 951.758 628.539C892.609 616.383 835.982 642.528 778.723 618.925C766.611 613.952 752.231 606.464 735.123 598.099C622.454 543.24 481.908 459.222 341.309 457.607C338.402 457.566 335.403 457.61 332.557 457.72C222.921 462.932 125.735 539.501 12.3412 515.58C-33.1488 506.202 -43.0918 473.576 -64.2186 444.503C-97.3832 399.077 -140.368 366.866 -191.827 337.013C-249.223 303.688 -314.651 267.174 -378.541 238.824C-417.631 221.468 -463.395 200.659 -505.744 194.861C-592.93 182.915 -682.467 200.669 -768.642 233.986M2099.26 760.386C2099.26 760.386 2081.01 724.203 2011.47 691.145C1971.92 672.302 1936.77 652.559 1891.61 647.884C1865.35 645.156 1838.53 646.137 1812.36 650.783C1745.01 662.345 1673.75 678.404 1610.13 654.645C1592.99 648.765 1577.35 640.549 1563.89 630.356C1521.41 595.876 1476.37 557.028 1415.69 539.836C1367.45 526 1314.93 522.935 1263.68 530.964C1209.14 540.134 1150.75 565.717 1094.78 585.398C1048.54 601.645 1003.11 617.669 966.46 609.89C908.13 597.513 843.614 621.631 787.635 607.267C774.572 603.934 758.442 595.491 739.995 587.625C626.047 538.926 482.931 450.462 346.572 447.101C343.751 446.897 341.088 446.836 338.147 446.993C227.78 451.677 130.315 539.526 15.7402 512.533C-29.1583 501.935 -39.5802 467.628 -61.2543 438.481C-95.0484 393.183 -139.682 360.049 -190.858 329.431C-246.585 296.05 -309.515 255.701 -371.89 228.442C-410.954 211.397 -457.688 190.782 -500.195 185.465C-587.542 174.588 -680.692 192.084 -764.593 229.831M2103.64 748.152C2103.64 748.152 2086.66 708.193 2019.16 676.459C1981 658.481 1946.32 640.264 1900.92 635.1C1874.73 631.913 1847.84 632.593 1821.6 637.106C1754.21 648.749 1680.36 666.969 1616.99 642.604C1599.58 636.112 1583.8 627.246 1570.35 616.392C1527.11 580.41 1478.23 545.856 1416.31 530.991C1366.09 518.638 1312.6 515.554 1259.81 521.97C1208.15 528.956 1150.97 549.399 1098.98 567.707C1055.89 582.88 1016.14 599.662 974.452 592.286C913.886 581.495 851.036 607.982 793.739 595.6C779.98 592.791 762.594 584.644 743.047 577.178C628.262 533.394 485.273 441.597 353.349 435.223C350.631 435.089 347.819 435.001 345.117 435.061C233.068 437.807 135.627 539.492 19.2568 509.124C-25.0773 497.582 -36.2323 461.496 -58.4507 432.315C-92.9295 387.072 -138.619 353.045 -189.367 321.611C-243.799 287.814 -303.501 244.745 -365.001 217.963C-404.06 200.995 -451.642 180.839 -494.452 176.055C-586.54 166.494 -681.089 184.145 -760.396 225.704M2108.09 735.484C2108.09 735.484 2092.48 692.914 2027.26 662.013C1990.42 644.554 1956.14 627.048 1910.46 620.773C1884.38 616.742 1857.37 616.778 1830.93 620.88C1763.99 631.98 1687.58 651.89 1624.73 627.327C1607.5 620.951 1591.67 612.505 1577.79 602.273C1531.97 567.317 1480.47 535.084 1416.93 522.146C1364.07 511.418 1308.73 508.956 1253.93 514.897C1203.94 520.654 1148.45 535.841 1098.77 552.128C1057.95 565.516 1021.97 582.662 977.325 575.288C917.128 565.405 854.127 593.702 797.5 583.533C783.221 581.001 764.845 573.402 744.3 566.368C667.638 540.173 592.758 508.559 518.417 478.152C469.723 458.242 416.967 425.718 360.499 422.456C357.827 422.278 355.014 422.191 352.309 422.212C238.942 424.477 140.163 538.973 22.713 505.565C-20.7509 493.21 -32.9872 455.295 -55.7195 425.843C-90.8767 380.732 -136.84 345.749 -187.232 313.232C-240.582 278.801 -296.98 233.356 -358.152 206.978C-397.427 190.38 -446.094 170.819 -488.97 166.43C-576.678 157.81 -677.605 174.677 -756.451 221.479M2112.6 722.341C2112.6 722.341 2098.4 678.251 2035.21 647.578C1999.37 630.314 1965.64 612.842 1919.56 604.762C1893.11 600.115 1866.5 597.866 1839.88 601.675C1774.01 611.322 1697.36 633.322 1633.92 611.229C1616.46 605.552 1600.27 597.766 1585.91 588.138C1537.87 554.298 1482.83 522.113 1418.46 513.033C1362.47 504.449 1304.8 502.981 1247.57 508.682C1195.85 514.631 1144.83 524.736 1095.29 538.842C1056.12 549.988 1022.87 566.837 976.782 559.266C919.144 549.999 853.729 579.505 798.954 571.573C784.41 569.414 765.179 562.196 743.879 555.574C665.511 530.592 589.424 501.569 516.085 468.684C470.119 448.438 422.053 412.998 367.629 409.455C364.911 409.248 362.176 409.154 359.436 409.172C244.684 410.728 144.019 537.961 26.1404 501.655C-16.2911 488.671 -30.0071 448.256 -53.0351 419.413C-88.9198 374.438 -134.67 338.423 -184.556 304.848C-236.991 269.562 -289.593 222.329 -351.389 196.157C-390.719 179.485 -440.196 160.262 -483.306 156.635C-571.344 148.823 -676.275 166.089 -752.361 217.243M2117.01 709.167C2117.01 709.167 2104.35 664.055 2043.1 632.993C2008.72 615.533 1974.99 597.397 1928.41 586.777C1901.74 580.74 1875.23 576.568 1849.17 580.567C1784.07 590.621 1707.97 614.571 1643.62 595.209C1625.82 590.397 1609.17 583.381 1594.26 574.414C1541.17 540.197 1486.17 515.24 1420.33 503.776C1364.56 493.852 1299.75 494.58 1241.03 502.599C1191.23 509.397 1137.96 516.667 1088.9 527.861C1050.66 536.548 1019.86 552.693 972.899 544.566C918.798 535.212 850.884 565.465 798.814 559.35C783.912 557.649 764.217 550.781 742.309 544.559C662.678 522.091 586.308 493.347 514.305 458.741C470.17 437.372 428.915 400.332 374.695 396.264C371.977 396.032 369.24 395.911 366.496 395.904C249.631 396.886 146.562 534.669 29.4952 497.439C-11.5149 484.38 -26.8085 441.472 -50.4629 412.797C-86.9282 367.947 -132.276 330.804 -181.399 296.309C-233.178 259.993 -282.145 211.453 -344.674 185.339C-384.129 168.951 -434.446 150.304 -477.773 147.046C-566.362 140.333 -675.203 157.951 -748.514 213.027M2121.41 696.424C2121.41 696.424 2110.34 650.403 2051.15 618.003C2017.96 599.979 1984.18 580.713 1937.26 566.954C1910.3 559.143 1885.08 555.141 1859.86 559.191C1795.43 569.582 1720.02 595.353 1654.72 578.959C1636.54 574.859 1619.42 568.443 1603.98 559.955C1548.36 527.27 1491.19 503.503 1424.1 493.077C1365.39 483.858 1297.77 485.787 1236.51 495.26C1185.57 503.243 1133.19 509.934 1081.8 518.461C1043.86 524.74 1015 539.87 967.621 530.877C916.696 521.23 846.878 551.675 797.393 547.111C782.109 545.558 761.925 539.355 739.59 533.324C661.627 513.018 581.271 484.93 513.764 448.27C471.163 425.175 437.193 387.513 382.134 382.809C379.41 382.597 376.589 382.393 373.978 382.367C255.871 382.588 147.981 532.093 33.3537 492.752C-6.6791 478.99 -23.457 434.754 -47.4608 405.403C-84.1551 360.767 -128.884 322.754 -177.161 287.136C-228.107 249.542 -274.196 200.068 -337.406 174.048C-377.106 157.679 -428.201 139.759 -471.83 137.033C-560.874 131.412 -673.657 149.579 -744.148 208.534M2125.9 683.674C2116.41 650.814 2092.64 622.068 2058.72 602.427C2026.58 583.42 1991.36 560.282 1945.87 545.392C1919.7 536.971 1895.24 533.259 1870.76 537.328C1806.4 548.026 1732.18 575.11 1666.21 562.053C1647.58 558.842 1629.89 553.121 1613.87 545.132C1555.77 514.129 1496.34 491.052 1428.51 481.037C1364.19 472.334 1297.87 473.932 1233.38 485.738C1180.31 495.377 1127.41 504.142 1073.37 510.263C1035.94 514.35 1007.52 528.194 960.109 518.188C911.894 507.972 842.197 537.469 793.833 534.614C778.997 533.729 757.899 527.794 735.937 522.124C660.544 502.551 577.751 477.237 513.297 437.518C471.889 412.1 444.84 375.448 389.389 369.525C386.691 369.214 383.965 369.041 381.227 369.005C261.422 368.307 145.904 529.523 37.5192 487.611C-0.625696 472.838 -19.3816 428.487 -44.2393 398.305C-81.1385 353.568 -125.232 314.879 -172.387 277.92C-222.43 238.69 -266.049 188.706 -330.375 162.893C-370.343 146.858 -420.069 131.29 -466.124 127.156C-555.363 119.088 -678.031 145.356 -740.07 204.143M2130.37 671.199C2121.19 637.89 2098.77 608.184 2066.39 586.412C2033.09 563.902 1995.59 538.132 1954.93 523.873C1929.96 515.081 1905.96 511.607 1881.91 515.485C1816.45 526.036 1746.16 554.877 1678.82 544.901C1659.67 542.555 1641.31 537.498 1624.62 529.966C1564.59 500.681 1503.69 477.682 1434.9 467.47C1368.57 457.91 1299.9 459.962 1233.59 473.487C1179 485.085 1122.39 498.524 1065.86 502.537C1028.03 505.211 999.522 517.42 952.311 506.225C906.205 495.293 836.11 524.118 789.54 521.55C774.71 520.743 753.684 515.701 731.698 510.345C657.505 492.24 575.154 468.142 514.793 426.063C475.495 398.717 452.956 362.447 396.712 355.845C394.014 355.508 391.285 355.309 388.543 355.247C267.652 353.893 147.914 525.102 42.3147 481.716C4.70391 466.236 -15.4431 421.722 -40.9622 390.655C-77.7574 345.988 -121.466 307.19 -166.948 268.377C-215.315 227.333 -258.574 176.929 -323.254 151.613C-363.543 135.877 -414.32 120.707 -460.227 117.186C-550.357 110.284 -676.301 137.439 -735.756 199.615M2134.83 658.763C2126.55 624.564 2105.35 593.552 2074.02 569.814C2042.1 545.475 2005.38 517.102 1964.8 502.054C1940.36 493.064 1917.04 489.534 1893.57 493.327C1828.22 503.948 1759.96 534.151 1692.32 527.17C1672.59 525.723 1653.5 521.365 1636.02 514.318C1574.25 486.735 1511.99 463.259 1442.73 452.108C1377.66 441.676 1302.36 442.305 1237.05 457.692C1179.08 471.358 1120.94 490.901 1059.3 495.049C1019.46 497.766 991.01 507.625 944.196 495.226C899.592 483.392 829.566 511.234 784.336 508.793C769.509 508.025 748.621 503.48 726.709 498.431C653.941 481.541 574.113 458.218 517.638 414.265C480.423 385.267 460.63 349.482 403.942 342.25C401.247 341.898 398.517 341.699 395.773 341.652C275.364 339.556 157.216 518.338 48.1747 474.993C8.76904 459.226 -11.2653 414.274 -36.7627 383.479C-73.6495 338.897 -117.645 298.363 -160.853 259.056C-206.399 217.59 -251.368 165.486 -316.247 140.772C-356.859 125.297 -408.143 110.558 -454.45 107.577C-545.572 101.81 -674.682 130 -731.607 195.492M2139.36 646.401C2131.59 611.036 2111.57 578.445 2081.53 552.25C2052.06 526.58 2015.01 496.005 1974.53 480.285C1950.76 471.085 1927.69 467.536 1904.9 471.235C1839.79 481.759 1773.56 513.401 1706.13 509.139C1686.1 508.473 1666.57 504.726 1648.6 498.106C1585.2 472.218 1521.64 447.321 1452.47 434.872C1383.31 422.423 1310.93 422.114 1245.36 437.326C1186.02 451.063 1121.81 481.489 1055.32 487.041C1012.82 490.441 983.488 498.493 937.011 484.777C893.263 471.937 823.739 498.684 779.148 496.231C764.321 495.462 744.261 490.812 721.946 486.265C648.64 471.255 574.249 446.989 522.234 402.171C487.077 371.836 467.761 336.481 411.247 328.962C408.548 328.604 405.818 328.378 403.072 328.287C279.4 325.396 166.313 510.223 54.0965 467.796C13.4994 452.515 -7.29121 406.725 -32.9788 375.397C-69.5691 330.831 -112.877 289.656 -154.002 249.322C-197.502 206.364 -243.955 153.557 -309.38 129.395C-350.362 114.223 -403.701 98.3976 -448.853 97.5528C-540.884 95.806 -670.056 118.294 -727.553 190.79M2143.83 634.004C2138.28 594.773 2116.22 564.524 2089 534.258C2063.61 506.034 2024.59 474.873 1984.5 458.574C1961.2 449.102 1938.33 445.577 1915.98 449.163C1851.29 459.496 1786.21 493.08 1719.88 490.841C1700.13 490.153 1678.31 488.068 1660.85 481.451C1596.68 456.954 1532.79 431.731 1463.23 415.561C1392.32 399.031 1320.58 394.449 1255.19 411.328C1193.32 427.26 1125.31 468.622 1053.8 477.86C1007.76 483.77 976.834 489.762 930.521 475.016C874.094 456.897 831.555 493.642 773.406 484.142C758.993 481.777 738.495 478.413 716.693 474.137C643.232 459.648 577.985 435.863 528.49 389.944C494.833 358.668 473.943 323.322 418.37 315.258C415.691 314.854 412.974 314.601 410.237 314.501C283.349 310.774 175.251 501.377 60.0224 460.052C18.576 445.23 -3.16317 398.655 -29.0441 366.757C-65.1911 322.194 -107.011 280.548 -146.581 239.347C-188.795 195.231 -236.349 142.199 -302.327 118.511C-343.727 103.647 -397.665 88.338 -443.079 87.9051C-536.271 87.0328 -668.251 110.723 -723.231 186.379M2148.35 621.565C2143.86 580.803 2122.76 547.74 2096.36 515.61C2072.69 486.74 2034.37 453.726 1994.39 436.872C1971.42 427.217 1948.69 423.641 1926.77 427.114C1862.36 437.268 1799.29 472.02 1733.52 472.512C1712.98 473.07 1692.66 470.293 1673.81 464.349C1607.96 441.042 1542.5 413.952 1473.35 393.058C1401.82 371.417 1330.09 363.16 1264.84 381.123C1200.49 398.738 1130.83 452.076 1056.34 466.556C1005.49 476.407 972.4 481.087 926.587 465.207C869.899 445.662 826.833 481.98 768.705 472.127C754.435 469.712 734.573 466.297 712.658 461.835C639.374 447.096 582.019 424.751 535.43 378.249C503.322 346.028 480.783 310.384 425.965 301.908C423.286 301.483 420.567 301.205 417.826 301.073C287.965 296.489 184.585 491.914 66.5335 452.222C24.0484 437.952 1.58949 390.379 -24.2767 358.05C-59.9253 313.564 -99.8107 271.49 -138.29 229.146C-179.791 183.488 -228.128 130.519 -295.007 107.255C-336.872 92.7398 -391.401 78.0259 -437.081 77.966C-531.504 77.7004 -666.127 102.813 -718.645 181.556M2152.81 609.051C2149.41 566.56 2129.17 530.771 2103.61 496.658C2081.56 467.151 2044 432.591 2004.13 415.298C1981.29 405.398 1958.75 401.806 1937.06 405.026C1872.83 414.932 1811.57 450.868 1746.12 453.993C1725.49 455.219 1704.95 452.861 1685.91 447.081C1617.44 424.257 1549.9 393.268 1481.54 367.504C1411.05 340.933 1341.9 330.476 1273.25 347.889C1200.89 366.224 1139.21 427.601 1063.07 452.336C1022.87 465.401 964.549 469.089 924.636 455.591C865.281 435.321 819.733 471.369 764.239 460.602C750.381 457.801 730.538 454.619 708.962 450.091C636.928 434.979 586.295 412.996 542.262 366.445C511.033 333.528 487.828 297.546 432.691 288.783C430.018 288.323 427.295 288.031 424.549 287.91C292.058 282.442 192.923 482.335 72.3369 444.174C-9.62818 418.13 -75.7501 281.253 -130.432 219.098C-171.382 172.339 -220.522 119.161 -288.345 96.4027C-330.677 82.1986 -385.799 68.0793 -431.696 68.3885C-527.419 69.0869 -664.425 95.1722 -714.629 177.013M2157.27 596.46C2154.01 554.358 2138.1 513.864 2110.86 478.371C2087.56 448.612 2053.5 411.622 2013.6 393.979C1990.78 383.843 1968.2 380.216 1946.75 383.417C1882.55 393.008 1823 430.058 1758.09 435.718C1737.53 437.598 1716.88 435.551 1697.86 429.747C1625.87 406.54 1556.65 367.516 1488.85 339.518C1426.5 313.82 1353.98 289.522 1281.55 312.553C1201.49 338.032 1144.67 404.18 1072.39 432.867C1028.56 450.289 976.413 463.567 925.733 445.301C865.885 423.781 817.106 460.673 760.502 449.565C746.84 446.749 727.376 443.38 706.182 438.704C635.66 422.806 590.866 400.591 549.144 354.637C518.707 321.149 494.776 284.717 440.116 275.759C437.459 275.285 434.752 274.979 432.02 274.843C297.104 268.591 201.725 472.367 79.0463 435.742C-4.39678 410.91 -68.5928 271.651 -122.291 208.87C-162.912 161.303 -212.762 107.869 -281.525 85.655C-324.322 71.8007 -379.981 58.3498 -426.103 58.9116C-523.251 60.2711 -662.374 87.5811 -710.333 172.252M2161.71 583.752C2159.44 540.041 2144.57 497.7 2118.25 459.995C2096.47 429.528 2062.8 390.709 2022.66 372.615C1999.74 362.331 1976.91 358.685 1955.69 361.711C1891.45 370.758 1833.29 409.105 1768.97 417.22C1748.55 419.857 1727.82 418.171 1708.87 412.332C1632.82 388.161 1564.01 342.028 1495.02 309.629C1434.78 281.301 1362.17 252.905 1289.25 275.975C1205.97 302.376 1151.54 371.382 1081.29 409.366C1038.83 432.307 983.502 454.361 929.57 434.205C869.54 411.644 816.002 450.559 757.638 438.38C744.123 435.552 725.144 432.106 704.36 427.006C635.867 410.633 595.776 387.533 555.817 342.689C525.697 308.863 501.897 272.225 447.102 262.809C444.44 262.342 441.734 262.023 439.003 261.854C306.73 254.805 209.164 465.088 85.527 426.937C-1.42803 400.041 -60.6162 261.241 -114.217 198.452C-154.739 150.877 -205.3 96.5619 -274.906 74.8844C-318.213 61.4227 -374.415 48.5625 -420.754 49.4935C-519.426 51.483 -660.382 79.8778 -706.145 167.383M2166.15 570.967C2164.78 525.796 2151 481.777 2125.77 441.999C2105.42 410.401 2071.88 370.164 2031.39 351.826C2008.25 341.324 1985.12 337.663 1963.94 340.568C1899.44 349.402 1842.43 388.633 1778.65 399.168C1758.38 402.652 1737.5 401.43 1718.52 395.652C1639.27 370.406 1569.78 314.478 1500.42 278.591C1442.08 248.351 1369.9 216.638 1296.61 239.308C1211.21 265.683 1156.82 337.734 1090.73 382.696C1052.08 409.006 994.257 442.361 937.925 421.732C876.161 399.036 817.543 440.898 756.289 427.66C742.823 424.828 724.269 421.153 704.087 416.2C638.256 399.263 601.088 374.561 562.861 331.064C532.82 296.997 509.296 260.102 454.427 250.38C451.76 249.918 449.054 249.586 446.324 249.386C311.538 241.677 218.182 454.751 92.694 418.076C3.94887 392.184 -52.4175 251.126 -105.78 188.239C-146.205 140.657 -197.659 85.6313 -267.952 64.595C-311.821 51.491 -366.676 40.712 -415.122 40.5216C-518.077 40.0393 -660.474 76.2498 -701.547 162.716M2170.59 558.065C2170.12 511.404 2157.45 465.692 2133.37 423.84C2114.31 391.084 2080.57 349.495 2039.69 330.718C2016.19 319.972 1992.86 316.327 1971.33 319.065C1905.65 327.406 1849.89 367.437 1786.78 380.263C1766.49 384.891 1745.07 383.842 1726.15 377.295C1644.61 347.308 1577.75 286.79 1505.13 247.061C1447.48 215.553 1377.25 181.73 1303.73 203.441C1217.18 228.97 1161.2 301.931 1099.9 353.388C1061.94 385.272 1008.82 426.303 947.367 406.866C881.736 386.278 820.682 431.539 756.728 417.149C743.36 414.31 725.175 410.331 705.558 405.059C591.786 374.562 569.083 257.47 461.512 238.047C458.867 237.566 456.176 237.232 453.459 237.05C315.752 228.519 227.546 443.213 99.6827 408.84C10.9554 385.017 -45.186 240.619 -97.6527 177.856C-137.941 129.52 -190.116 74.7087 -261.488 54.3449C-305.863 41.6723 -361.206 31.5578 -409.928 31.6239C-514.652 31.7913 -657.965 68.8569 -697.304 157.92M2174.96 545.089C2177.49 496.104 2161.52 450.241 2140.9 406C2124.61 370.95 2089.28 329.176 2047.44 310.124C2026.79 300.204 2002.48 295.868 1977.99 297.737C1910.37 303.341 1855.17 344.265 1792.77 359.184C1772.45 364.49 1750.64 363.583 1731.69 356.643C1648.62 324.785 1582.2 257.509 1509.41 215.643C1453.17 183.28 1384.43 149.025 1310.85 169.334C1223.44 193.446 1166.07 266.909 1109.05 321.972C1073.91 355.819 1021.72 409.128 956.697 389.976C888.538 369.785 828.936 421.498 758.702 406.75C744.894 403.946 727.626 399.737 708.485 394.271C597.659 362.444 574.567 245.422 468.363 225.851C465.701 225.345 462.991 224.987 460.254 224.779C320.061 215.94 236.368 431.055 106.79 399.242C18.4783 377.536 -38.1438 230.205 -89.6814 167.368C-129.878 118.322 -183.013 63.8211 -255.215 44.1493C-300.146 31.912 -355.871 22.5706 -405.063 22.9089C-511.859 23.6329 -655.755 61.4096 -693.174 152.938M2179.44 532.106C2182.9 481.873 2168.02 434.32 2148.25 388.369C2132.91 352.227 2097.61 309.082 2054.62 289.732C2033.55 279.73 2009.13 274.786 1984.18 275.47C1915.01 277.68 1859.27 319.194 1797.41 335.985C1787.4 338.907 1776.82 340.209 1766.31 339.813C1755.8 339.418 1745.57 337.334 1736.25 333.685C1652.35 300.056 1586.96 228.32 1513.54 184.901C1458.32 152.223 1391.71 119.478 1318.09 137.992C1229.36 160.295 1172.51 231.722 1118.2 289.227C1084.66 324.704 1033.74 387.762 966.167 371.16C894.872 353.604 838.807 412.617 762.947 396.443C746.292 392.852 729.915 388.564 713.882 383.598C605.988 350.286 580.705 233.556 475.647 214.167C472.985 213.674 470.277 213.329 467.542 213.135C325.545 203.892 245.401 419.075 114.607 389.9C27.0954 370.202 -30.5941 219.985 -81.1776 157.385C-121.382 107.635 -175.561 53.6094 -248.493 34.6604C-293.733 22.8777 -350.327 14.3486 -399.742 14.9784C-507.909 16.3984 -652.762 54.5252 -688.418 148.415M2183.86 519.126C2187.46 468.338 2178.01 417.883 2156.1 370.855C2138.72 333.821 2110.95 291.794 2062.33 269.767C2040.55 259.358 2015.71 253.441 1989.98 252.53C1919.45 251.331 1862.38 292.209 1800.94 311.117C1790.95 314.313 1780.29 315.782 1769.68 315.422C1759.08 315.063 1748.78 312.884 1739.49 309.034C1655.25 274.221 1591.58 199.377 1517.88 155.472C1463.32 123.054 1399.36 93.9274 1325.85 110.205C1235.8 130.111 1179.86 196.814 1127.33 255.74C1094.31 292.779 1040.47 365.451 975.589 350.51C907.992 334.887 849.24 403.379 769.35 386.042C755.424 383.012 739.232 378.717 721.171 373.204C612.821 339.733 588.002 222.028 482.644 202.584C479.982 202.079 477.273 201.721 474.536 201.513C331.05 192.116 253.574 406.812 122.406 379.739C35.9858 361.986 -23.612 208.834 -73.0147 146.843C-113.012 96.6075 -168.441 42.955 -242.292 24.8222C-291.447 12.6403 -342.915 6.54266 -394.938 6.73738C-504.722 8.87301 -650.064 47.0389 -684.256 143.235M2188.24 506.189C2196.46 417.621 2168.42 298.963 2069.79 249.86C1941.63 185.842 1843.34 324.338 1741.92 283.315C1611.03 230.226 1516.39 56.189 1334.39 87.0459C1246.29 101.91 1189.28 163.265 1139.5 218.961C1105.52 256.859 1057.22 339.095 984.943 328.38C935.583 321.071 915.343 349.856 874.712 365.536C824.679 384.9 779.037 381.006 729.058 363.505C626.034 327.692 592.475 207.794 489.505 191.13C342.877 167.678 268.614 394.234 130.388 369.367C55.4757 355.814 15.6366 242.321 -21.6246 191.828C-73.7617 121.495 -134.613 37.5914 -236.101 15.4539C-371.655 -14.161 -630.717 -11.3825 -679.63 138.291" stroke="url(#paint0_linear_489_26629)" stroke-width="0.5" stroke-miterlimit="10"/>
<defs>
<linearGradient id="paint0_linear_489_26629" x1="-386.384" y1="140.691" x2="1442.26" y2="677.659" gradientUnits="userSpaceOnUse">
<stop offset="0.683304" stop-color="#FD6721"/>
<stop offset="0.820933" stop-color="#FD6721" stop-opacity="0"/>
</linearGradient>
</defs>
</svg>
