<svg width="35" height="75" viewBox="0 0 35 75" fill="none" xmlns="http://www.w3.org/2000/svg">
<path d="M6.51942 62.7335C5.19496 56.6534 5.57441 44.405 5.57441 44.405C5.57441 44.405 7.78664 32.4712 10.1194 26.951C14.7814 15.9231 22.6335 6.2908 32.6121 -6.28233e-08C23.3715 7.2894 16.8982 17.3984 13.6338 28.1839C10.3566 38.9661 10.289 50.5725 13.7253 60.8483L6.51942 62.7335Z" fill="#F18521"/>
<path d="M6.51942 62.7335C5.19496 56.6534 5.57441 44.405 5.57441 44.405C5.57441 44.405 7.78664 32.4712 10.1194 26.951C14.7814 15.9231 22.6335 6.2908 32.6121 -6.28233e-08C23.3715 7.2894 16.8982 17.3984 13.6338 28.1839C10.3566 38.9661 10.289 50.5725 13.7253 60.8483L6.51942 62.7335Z" fill="url(#paint0_linear_1238_97924)"/>
<path d="M18.7468 56.6589C24.0811 61.9143 13.7004 75 13.7004 75L0.0493137 61.5476L18.7468 56.6589Z" fill="#F18521"/>
<path d="M18.7468 56.6589C24.0811 61.9143 13.7004 75 13.7004 75L0.0493137 61.5476L18.7468 56.6589Z" fill="url(#paint1_linear_1238_97924)"/>
<path d="M3.10804 59.2217C2.13316 55.9887 1.69205 52.6013 1.54833 49.225C1.40801 45.8363 1.65984 42.4367 2.21961 39.0846C2.49313 37.4069 2.91829 35.749 3.34003 34.1036C3.5781 33.2813 3.87645 32.4883 4.14466 31.6807L4.55567 30.4749L5.07327 29.3038C5.42259 28.5243 5.75109 27.7459 6.12589 26.973L7.38145 24.7492C7.59729 24.3837 7.80038 24.0148 8.03363 23.6605L8.77624 22.6157C9.27287 21.9218 9.78349 21.2516 10.3022 20.577C9.94821 21.3486 9.60231 22.1157 9.22626 22.8681L8.66793 23.9882C8.49498 24.3718 8.36025 24.7654 8.20004 25.1523L7.2456 27.4486L6.44065 29.7976C5.40787 32.9314 4.5628 36.128 4.05581 39.3867C3.48513 42.6286 3.15994 45.9218 2.99446 49.2301C2.86255 52.5405 2.89036 55.8662 3.09996 59.2262L3.10804 59.2217Z" fill="#F18521"/>
<path d="M3.10804 59.2217C2.13316 55.9887 1.69205 52.6013 1.54833 49.225C1.40801 45.8363 1.65984 42.4367 2.21961 39.0846C2.49313 37.4069 2.91829 35.749 3.34003 34.1036C3.5781 33.2813 3.87645 32.4883 4.14466 31.6807L4.55567 30.4749L5.07327 29.3038C5.42259 28.5243 5.75109 27.7459 6.12589 26.973L7.38145 24.7492C7.59729 24.3837 7.80038 24.0148 8.03363 23.6605L8.77624 22.6157C9.27287 21.9218 9.78349 21.2516 10.3022 20.577C9.94821 21.3486 9.60231 22.1157 9.22626 22.8681L8.66793 23.9882C8.49498 24.3718 8.36025 24.7654 8.20004 25.1523L7.2456 27.4486L6.44065 29.7976C5.40787 32.9314 4.5628 36.128 4.05581 39.3867C3.48513 42.6286 3.15994 45.9218 2.99446 49.2301C2.86255 52.5405 2.89036 55.8662 3.09996 59.2262L3.10804 59.2217Z" fill="url(#paint2_linear_1238_97924)"/>
<path d="M34.0493 2.11438C30.3077 6.66733 26.6945 11.2004 23.4561 15.9863C21.8299 18.3673 20.3556 20.842 18.951 23.3617C17.6067 25.9108 16.4386 28.5397 15.3693 31.2818C15.6801 28.367 16.4861 25.4886 17.6271 22.7587C18.7936 20.0355 20.2523 17.4428 21.8943 14.9788C23.5839 12.5407 25.414 10.2133 27.438 8.05085C29.462 5.88842 31.6231 3.84921 34.0412 2.11896L34.0493 2.11438Z" fill="#F18521"/>
<path d="M34.0493 2.11438C30.3077 6.66733 26.6945 11.2004 23.4561 15.9863C21.8299 18.3673 20.3556 20.842 18.951 23.3617C17.6067 25.9108 16.4386 28.5397 15.3693 31.2818C15.6801 28.367 16.4861 25.4886 17.6271 22.7587C18.7936 20.0355 20.2523 17.4428 21.8943 14.9788C23.5839 12.5407 25.414 10.2133 27.438 8.05085C29.462 5.88842 31.6231 3.84921 34.0412 2.11896L34.0493 2.11438Z" fill="url(#paint3_linear_1238_97924)"/>
<defs>
<linearGradient id="paint0_linear_1238_97924" x1="6.66043" y1="14.7725" x2="26.6236" y2="63.4397" gradientUnits="userSpaceOnUse">
<stop stop-color="#FF580A"/>
<stop offset="1" stop-color="#FF7324"/>
</linearGradient>
<linearGradient id="paint1_linear_1238_97924" x1="6.66043" y1="14.7725" x2="26.6236" y2="63.4397" gradientUnits="userSpaceOnUse">
<stop stop-color="#FF580A"/>
<stop offset="1" stop-color="#FF7324"/>
</linearGradient>
<linearGradient id="paint2_linear_1238_97924" x1="6.66043" y1="14.7725" x2="26.6236" y2="63.4397" gradientUnits="userSpaceOnUse">
<stop stop-color="#FF580A"/>
<stop offset="1" stop-color="#FF7324"/>
</linearGradient>
<linearGradient id="paint3_linear_1238_97924" x1="6.66043" y1="14.7725" x2="26.6236" y2="63.4397" gradientUnits="userSpaceOnUse">
<stop stop-color="#FF580A"/>
<stop offset="1" stop-color="#FF7324"/>
</linearGradient>
</defs>
</svg>
