<svg width="144" height="123" viewBox="0 0 144 123" fill="none" xmlns="http://www.w3.org/2000/svg">
<path d="M11.5624 33.2533C16.9368 46.8609 33.6265 70.3748 33.6265 70.3748C33.6265 70.3748 53.4321 90.9276 65.1124 98.7595C88.4503 114.403 116.107 123.231 143.5 122.792C116.225 120.331 90.6003 108.805 70.2668 91.8477C49.9132 74.9138 34.6598 52.259 27.881 27.7287L11.5624 33.2533Z" fill="#F18521"/>
<path d="M11.5624 33.2533C16.9368 46.8609 33.6265 70.3748 33.6265 70.3748C33.6265 70.3748 53.4321 90.9276 65.1124 98.7595C88.4503 114.403 116.107 123.231 143.5 122.792C116.225 120.331 90.6003 108.805 70.2668 91.8477C49.9132 74.9138 34.6598 52.259 27.881 27.7287L11.5624 33.2533Z" fill="url(#paint0_linear_1238_93501)"/>
<path d="M43 29.5132C46.4139 12.3919 9.39341 0.0320737 9.39341 0.0320737L0.660864 43.8542L43 29.5132Z" fill="#F18521"/>
<path d="M43 29.5132C46.4139 12.3919 9.39341 0.0320737 9.39341 0.0320737L0.660864 43.8542L43 29.5132Z" fill="url(#paint1_linear_1238_93501)"/>
<path d="M9.57575 44.4986C11.9128 52.0803 15.4781 59.2819 19.6009 66.0811C23.7465 72.9005 28.6606 79.2394 34.1052 85.0912C36.8174 88.0286 39.7956 90.7332 42.7509 93.4177C44.2803 94.7242 45.8875 95.8963 47.4558 97.1357L49.8177 98.9725L52.3393 100.605C54.0271 101.685 55.6733 102.79 57.4013 103.825L62.7143 106.576C63.6059 107.016 64.4772 107.479 65.3876 107.875L68.1776 108.972C70.0371 109.697 71.8926 110.356 73.7695 111.015C72.0831 109.956 70.4182 108.895 68.7143 107.902L66.1807 106.421C65.3483 105.891 64.5762 105.292 63.7639 104.739L58.9357 101.461L54.3264 97.888C48.2562 93.069 42.4654 87.8868 37.244 82.1503C31.9219 76.5282 27.0054 70.4918 22.3763 64.2212C17.809 57.9035 13.5292 51.3518 9.55424 44.5L9.57575 44.4986Z" fill="#F18521"/>
<path d="M9.57575 44.4986C11.9128 52.0803 15.4781 59.2819 19.6009 66.0811C23.7465 72.9005 28.6606 79.2394 34.1052 85.0912C36.8174 88.0286 39.7956 90.7332 42.7509 93.4177C44.2803 94.7242 45.8875 95.8963 47.4558 97.1357L49.8177 98.9725L52.3393 100.605C54.0271 101.685 55.6733 102.79 57.4013 103.825L62.7143 106.576C63.6059 107.016 64.4772 107.479 65.3876 107.875L68.1776 108.972C70.0371 109.697 71.8926 110.356 73.7695 111.015C72.0831 109.956 70.4182 108.895 68.7143 107.902L66.1807 106.421C65.3483 105.891 64.5762 105.292 63.7639 104.739L58.9357 101.461L54.3264 97.888C48.2562 93.069 42.4654 87.8868 37.244 82.1503C31.9219 76.5282 27.0054 70.4918 22.3763 64.2212C17.809 57.9035 13.5292 51.3518 9.55424 44.5L9.57575 44.4986Z" fill="url(#paint2_linear_1238_93501)"/>
<path d="M143.51 116.81C130.379 112.676 117.522 108.416 105.056 103.182C98.825 100.597 92.7645 97.6341 86.7791 94.4939C80.8716 91.2191 75.1989 87.5624 69.569 83.5575C73.9648 88.8713 79.2659 93.4799 85.018 97.3691C90.8104 101.213 96.9948 104.427 103.364 107.154C109.791 109.77 116.345 111.989 123.056 113.636C129.767 115.284 136.582 116.515 143.488 116.812L143.51 116.81Z" fill="#F18521"/>
<path d="M143.51 116.81C130.379 112.676 117.522 108.416 105.056 103.182C98.825 100.597 92.7645 97.6341 86.7791 94.4939C80.8716 91.2191 75.1989 87.5624 69.569 83.5575C73.9648 88.8713 79.2659 93.4799 85.018 97.3691C90.8104 101.213 96.9948 104.427 103.364 107.154C109.791 109.77 116.345 111.989 123.056 113.636C129.767 115.284 136.582 116.515 143.488 116.812L143.51 116.81Z" fill="url(#paint3_linear_1238_93501)"/>
<defs>
<linearGradient id="paint0_linear_1238_93501" x1="74.3269" y1="127.047" x2="50.8798" y2="5.848" gradientUnits="userSpaceOnUse">
<stop stop-color="#FF580A"/>
<stop offset="1" stop-color="#FF7324"/>
</linearGradient>
<linearGradient id="paint1_linear_1238_93501" x1="74.3269" y1="127.047" x2="50.8798" y2="5.848" gradientUnits="userSpaceOnUse">
<stop stop-color="#FF580A"/>
<stop offset="1" stop-color="#FF7324"/>
</linearGradient>
<linearGradient id="paint2_linear_1238_93501" x1="74.3269" y1="127.047" x2="50.8798" y2="5.848" gradientUnits="userSpaceOnUse">
<stop stop-color="#FF580A"/>
<stop offset="1" stop-color="#FF7324"/>
</linearGradient>
<linearGradient id="paint3_linear_1238_93501" x1="74.3269" y1="127.047" x2="50.8798" y2="5.848" gradientUnits="userSpaceOnUse">
<stop stop-color="#FF580A"/>
<stop offset="1" stop-color="#FF7324"/>
</linearGradient>
</defs>
</svg>
