<svg width="144" height="123" viewBox="0 0 144 123" fill="none" xmlns="http://www.w3.org/2000/svg">
<path d="M132.702 33.2533C127.328 46.8609 110.638 70.3748 110.638 70.3748C110.638 70.3748 90.8326 90.9276 79.1522 98.7595C55.8143 114.403 28.158 123.231 0.764859 122.792C28.0395 120.331 53.6643 108.805 73.9978 91.8477C94.3515 74.9138 109.605 52.259 116.384 27.7287L132.702 33.2533Z" fill="#F18521"/>
<path d="M132.702 33.2533C127.328 46.8609 110.638 70.3748 110.638 70.3748C110.638 70.3748 90.8326 90.9276 79.1522 98.7595C55.8143 114.403 28.158 123.231 0.764859 122.792C28.0395 120.331 53.6643 108.805 73.9978 91.8477C94.3515 74.9138 109.605 52.259 116.384 27.7287L132.702 33.2533Z" fill="url(#paint0_linear_1238_93500)"/>
<path d="M101.265 29.5132C97.8508 12.3919 134.871 0.0320737 134.871 0.0320737L143.604 43.8542L101.265 29.5132Z" fill="#F18521"/>
<path d="M101.265 29.5132C97.8508 12.3919 134.871 0.0320737 134.871 0.0320737L143.604 43.8542L101.265 29.5132Z" fill="url(#paint1_linear_1238_93500)"/>
<path d="M134.689 44.4986C132.352 52.0803 128.787 59.2819 124.664 66.0811C120.518 72.9005 115.604 79.2394 110.159 85.0912C107.447 88.0286 104.469 90.7332 101.514 93.4177C99.9843 94.7242 98.3771 95.8963 96.8088 97.1357L94.447 98.9725L91.9253 100.605C90.2375 101.685 88.5914 102.79 86.8633 103.825L81.5503 106.576C80.6588 107.016 79.7874 107.479 78.8771 107.875L76.0871 108.972C74.2275 109.697 72.3721 110.356 70.4951 111.015C72.1815 109.956 73.8465 108.895 75.5503 107.902L78.0839 106.421C78.9164 105.891 79.6884 105.292 80.5007 104.739L85.3289 101.461L89.9383 97.888C96.0084 93.069 101.799 87.8868 107.021 82.1503C112.343 76.5282 117.259 70.4918 121.888 64.2212C126.456 57.9035 130.735 51.3518 134.71 44.5L134.689 44.4986Z" fill="#F18521"/>
<path d="M134.689 44.4986C132.352 52.0803 128.787 59.2819 124.664 66.0811C120.518 72.9005 115.604 79.2394 110.159 85.0912C107.447 88.0286 104.469 90.7332 101.514 93.4177C99.9843 94.7242 98.3771 95.8963 96.8088 97.1357L94.447 98.9725L91.9253 100.605C90.2375 101.685 88.5914 102.79 86.8633 103.825L81.5503 106.576C80.6588 107.016 79.7874 107.479 78.8771 107.875L76.0871 108.972C74.2275 109.697 72.3721 110.356 70.4951 111.015C72.1815 109.956 73.8465 108.895 75.5503 107.902L78.0839 106.421C78.9164 105.891 79.6884 105.292 80.5007 104.739L85.3289 101.461L89.9383 97.888C96.0084 93.069 101.799 87.8868 107.021 82.1503C112.343 76.5282 117.259 70.4918 121.888 64.2212C126.456 57.9035 130.735 51.3518 134.71 44.5L134.689 44.4986Z" fill="url(#paint2_linear_1238_93500)"/>
<path d="M0.755045 116.81C13.8854 112.676 26.7429 108.416 39.2088 103.182C45.4397 100.597 51.5002 97.6341 57.4856 94.4939C63.3931 91.2191 69.0657 87.5624 74.6956 83.5575C70.2999 88.8713 64.9988 93.4799 59.2467 97.3691C53.4543 101.213 47.2699 104.427 40.9004 107.154C34.4733 109.77 27.9201 111.989 21.2088 113.636C14.4974 115.284 7.68298 116.515 0.77655 116.812L0.755045 116.81Z" fill="#F18521"/>
<path d="M0.755045 116.81C13.8854 112.676 26.7429 108.416 39.2088 103.182C45.4397 100.597 51.5002 97.6341 57.4856 94.4939C63.3931 91.2191 69.0657 87.5624 74.6956 83.5575C70.2999 88.8713 64.9988 93.4799 59.2467 97.3691C53.4543 101.213 47.2699 104.427 40.9004 107.154C34.4733 109.77 27.9201 111.989 21.2088 113.636C14.4974 115.284 7.68298 116.515 0.77655 116.812L0.755045 116.81Z" fill="url(#paint3_linear_1238_93500)"/>
<defs>
<linearGradient id="paint0_linear_1238_93500" x1="69.9377" y1="127.047" x2="93.3848" y2="5.848" gradientUnits="userSpaceOnUse">
<stop stop-color="#FF580A"/>
<stop offset="1" stop-color="#FF7324"/>
</linearGradient>
<linearGradient id="paint1_linear_1238_93500" x1="69.9377" y1="127.047" x2="93.3848" y2="5.848" gradientUnits="userSpaceOnUse">
<stop stop-color="#FF580A"/>
<stop offset="1" stop-color="#FF7324"/>
</linearGradient>
<linearGradient id="paint2_linear_1238_93500" x1="69.9377" y1="127.047" x2="93.3848" y2="5.848" gradientUnits="userSpaceOnUse">
<stop stop-color="#FF580A"/>
<stop offset="1" stop-color="#FF7324"/>
</linearGradient>
<linearGradient id="paint3_linear_1238_93500" x1="69.9377" y1="127.047" x2="93.3848" y2="5.848" gradientUnits="userSpaceOnUse">
<stop stop-color="#FF580A"/>
<stop offset="1" stop-color="#FF7324"/>
</linearGradient>
</defs>
</svg>
