<svg width="46" height="100" viewBox="0 0 46 100" fill="none" xmlns="http://www.w3.org/2000/svg">
<path d="M9.11268 83.6447C7.35973 75.5379 7.86193 59.2067 7.86193 59.2067C7.86193 59.2067 10.7899 43.2949 13.8773 35.9346C20.0476 21.2308 30.4401 8.38774 43.6471 -8.31485e-08C31.4169 9.71919 22.8494 23.1978 18.5288 37.5786C14.1913 51.9548 14.1018 67.43 18.6498 81.1311L9.11268 83.6447Z" fill="#F18521"/>
<path d="M9.11268 83.6447C7.35973 75.5379 7.86193 59.2067 7.86193 59.2067C7.86193 59.2067 10.7899 43.2949 13.8773 35.9346C20.0476 21.2308 30.4401 8.38774 43.6471 -8.31485e-08C31.4169 9.71919 22.8494 23.1978 18.5288 37.5786C14.1913 51.9548 14.1018 67.43 18.6498 81.1311L9.11268 83.6447Z" fill="url(#paint0_linear_1238_88987)"/>
<path d="M25.296 75.5452C32.356 82.5524 18.6169 100 18.6169 100L0.549309 82.0635L25.296 75.5452Z" fill="#F18521"/>
<path d="M25.296 75.5452C32.356 82.5524 18.6169 100 18.6169 100L0.549309 82.0635L25.296 75.5452Z" fill="url(#paint1_linear_1238_88987)"/>
<path d="M4.59762 78.9622C3.30734 74.6517 2.72353 70.1351 2.5333 65.6334C2.34759 61.115 2.68088 56.5823 3.42176 52.1128C3.78377 49.8759 4.34648 47.6653 4.90468 45.4714C5.21976 44.3751 5.61464 43.3178 5.96962 42.2409L6.51361 40.6332L7.19867 39.0718C7.661 38.0323 8.09578 36.9945 8.59184 35.964L10.2536 32.9989C10.5393 32.5115 10.8081 32.0197 11.1168 31.5473L12.0997 30.1542C12.757 29.229 13.4328 28.3355 14.1193 27.4359C13.6508 28.4648 13.193 29.4876 12.6953 30.4908L11.9563 31.9843C11.7274 32.4957 11.5491 33.0205 11.337 33.5364L10.0738 36.5981L9.00843 39.7302C7.64152 43.9086 6.52304 48.1707 5.85203 52.5156C5.09672 56.8382 4.66631 61.229 4.4473 65.6401C4.27271 70.054 4.30952 74.4882 4.58693 78.9683L4.59762 78.9622Z" fill="#F18521"/>
<path d="M4.59762 78.9622C3.30734 74.6517 2.72353 70.1351 2.5333 65.6334C2.34759 61.115 2.68088 56.5823 3.42176 52.1128C3.78377 49.8759 4.34648 47.6653 4.90468 45.4714C5.21976 44.3751 5.61464 43.3178 5.96962 42.2409L6.51361 40.6332L7.19867 39.0718C7.661 38.0323 8.09578 36.9945 8.59184 35.964L10.2536 32.9989C10.5393 32.5115 10.8081 32.0197 11.1168 31.5473L12.0997 30.1542C12.757 29.229 13.4328 28.3355 14.1193 27.4359C13.6508 28.4648 13.193 29.4876 12.6953 30.4908L11.9563 31.9843C11.7274 32.4957 11.5491 33.0205 11.337 33.5364L10.0738 36.5981L9.00843 39.7302C7.64152 43.9086 6.52304 48.1707 5.85203 52.5156C5.09672 56.8382 4.66631 61.229 4.4473 65.6401C4.27271 70.054 4.30952 74.4882 4.58693 78.9683L4.59762 78.9622Z" fill="url(#paint2_linear_1238_88987)"/>
<path d="M45.5493 2.81918C40.5972 8.88977 35.815 14.9339 31.5289 21.315C29.3765 24.4897 27.4253 27.7893 25.5663 31.149C23.787 34.5477 22.241 38.0529 20.8258 41.709C21.2371 37.8226 22.3039 33.9848 23.8141 30.3449C25.358 26.714 27.2886 23.2571 29.4618 19.9717C31.698 16.7209 34.1202 13.6177 36.799 10.7345C39.4779 7.85123 42.3381 5.13228 45.5386 2.82528L45.5493 2.81918Z" fill="#F18521"/>
<path d="M45.5493 2.81918C40.5972 8.88977 35.815 14.9339 31.5289 21.315C29.3765 24.4897 27.4253 27.7893 25.5663 31.149C23.787 34.5477 22.241 38.0529 20.8258 41.709C21.2371 37.8226 22.3039 33.9848 23.8141 30.3449C25.358 26.714 27.2886 23.2571 29.4618 19.9717C31.698 16.7209 34.1202 13.6177 36.799 10.7345C39.4779 7.85123 42.3381 5.13228 45.5386 2.82528L45.5493 2.81918Z" fill="url(#paint3_linear_1238_88987)"/>
<defs>
<linearGradient id="paint0_linear_1238_88987" x1="9.29931" y1="19.6967" x2="36.0568" y2="84.4477" gradientUnits="userSpaceOnUse">
<stop stop-color="#FF580A"/>
<stop offset="1" stop-color="#FF7324"/>
</linearGradient>
<linearGradient id="paint1_linear_1238_88987" x1="9.29931" y1="19.6967" x2="36.0568" y2="84.4477" gradientUnits="userSpaceOnUse">
<stop stop-color="#FF580A"/>
<stop offset="1" stop-color="#FF7324"/>
</linearGradient>
<linearGradient id="paint2_linear_1238_88987" x1="9.29931" y1="19.6967" x2="36.0568" y2="84.4477" gradientUnits="userSpaceOnUse">
<stop stop-color="#FF580A"/>
<stop offset="1" stop-color="#FF7324"/>
</linearGradient>
<linearGradient id="paint3_linear_1238_88987" x1="9.29931" y1="19.6967" x2="36.0568" y2="84.4477" gradientUnits="userSpaceOnUse">
<stop stop-color="#FF580A"/>
<stop offset="1" stop-color="#FF7324"/>
</linearGradient>
</defs>
</svg>
