<svg width="45" height="100" viewBox="0 0 45 100" fill="none" xmlns="http://www.w3.org/2000/svg">
<path d="M36.4357 83.6447C38.1886 75.5379 37.6864 59.2067 37.6864 59.2067C37.6864 59.2067 34.7585 43.2949 31.671 35.9346C25.5007 21.2308 15.1082 8.38774 1.90124 -8.31485e-08C14.1315 9.7192 22.699 23.1978 27.0196 37.5786C31.357 51.9548 31.4466 67.4301 26.8985 81.1311L36.4357 83.6447Z" fill="#F18521"/>
<path d="M36.4357 83.6447C38.1886 75.5379 37.6864 59.2067 37.6864 59.2067C37.6864 59.2067 34.7585 43.2949 31.671 35.9346C25.5007 21.2308 15.1082 8.38774 1.90124 -8.31485e-08C14.1315 9.7192 22.699 23.1978 27.0196 37.5786C31.357 51.9548 31.4466 67.4301 26.8985 81.1311L36.4357 83.6447Z" fill="url(#paint0_linear_1238_97911)"/>
<path d="M20.2523 75.5453C13.1923 82.5524 26.9315 100 26.9315 100L44.999 82.0635L20.2523 75.5453Z" fill="#F18521"/>
<path d="M20.2523 75.5453C13.1923 82.5524 26.9315 100 26.9315 100L44.999 82.0635L20.2523 75.5453Z" fill="url(#paint1_linear_1238_97911)"/>
<path d="M40.9507 78.9622C42.241 74.6517 42.8248 70.1351 43.015 65.6334C43.2007 61.115 42.8674 56.5823 42.1266 52.1129C41.7646 49.8759 41.2019 47.6653 40.6437 45.4714C40.3286 44.3751 39.9337 43.3178 39.5787 42.2409L39.0347 40.6332L38.3497 39.0718C37.8873 38.0323 37.4526 36.9945 36.9565 35.964L35.2947 32.9989C35.0091 32.5115 34.7403 32.0197 34.4316 31.5473L33.4487 30.1542C32.7914 29.229 32.1156 28.3355 31.429 27.4359C31.8975 28.4648 32.3554 29.4876 32.8531 30.4908L33.592 31.9843C33.8209 32.4957 33.9993 33.0205 34.2113 33.5364L35.4745 36.5981L36.5399 39.7302C37.9068 43.9086 39.0253 48.1707 39.6963 52.5156C40.4516 56.8382 40.882 61.229 41.101 65.6401C41.2756 70.054 41.2388 74.4882 40.9614 78.9683L40.9507 78.9622Z" fill="#F18521"/>
<path d="M40.9507 78.9622C42.241 74.6517 42.8248 70.1351 43.015 65.6334C43.2007 61.115 42.8674 56.5823 42.1266 52.1129C41.7646 49.8759 41.2019 47.6653 40.6437 45.4714C40.3286 44.3751 39.9337 43.3178 39.5787 42.2409L39.0347 40.6332L38.3497 39.0718C37.8873 38.0323 37.4526 36.9945 36.9565 35.964L35.2947 32.9989C35.0091 32.5115 34.7403 32.0197 34.4316 31.5473L33.4487 30.1542C32.7914 29.229 32.1156 28.3355 31.429 27.4359C31.8975 28.4648 32.3554 29.4876 32.8531 30.4908L33.592 31.9843C33.8209 32.4957 33.9993 33.0205 34.2113 33.5364L35.4745 36.5981L36.5399 39.7302C37.9068 43.9086 39.0253 48.1707 39.6963 52.5156C40.4516 56.8382 40.882 61.229 41.101 65.6401C41.2756 70.054 41.2388 74.4882 40.9614 78.9683L40.9507 78.9622Z" fill="url(#paint2_linear_1238_97911)"/>
<path d="M-0.000976439 2.81918C4.9511 8.88977 9.73334 14.9339 14.0195 21.315C16.1718 24.4897 18.123 27.7893 19.982 31.149C21.7613 34.5477 23.3073 38.0529 24.7225 41.709C24.3113 37.8226 23.2445 33.9848 21.7343 30.3449C20.1903 26.714 18.2598 23.2571 16.0865 19.9717C13.8503 16.7209 11.4282 13.6177 8.74932 10.7345C6.07048 7.85123 3.21022 5.13228 0.00971436 2.82528L-0.000976439 2.81918Z" fill="#F18521"/>
<path d="M-0.000976439 2.81918C4.9511 8.88977 9.73334 14.9339 14.0195 21.315C16.1718 24.4897 18.123 27.7893 19.982 31.149C21.7613 34.5477 23.3073 38.0529 24.7225 41.709C24.3113 37.8226 23.2445 33.9848 21.7343 30.3449C20.1903 26.714 18.2598 23.2571 16.0865 19.9717C13.8503 16.7209 11.4282 13.6177 8.74932 10.7345C6.07048 7.85123 3.21022 5.13228 0.00971436 2.82528L-0.000976439 2.81918Z" fill="url(#paint3_linear_1238_97911)"/>
<defs>
<linearGradient id="paint0_linear_1238_97911" x1="36.249" y1="19.6967" x2="9.49159" y2="84.4477" gradientUnits="userSpaceOnUse">
<stop stop-color="#FF580A"/>
<stop offset="1" stop-color="#FF7324"/>
</linearGradient>
<linearGradient id="paint1_linear_1238_97911" x1="36.249" y1="19.6967" x2="9.49159" y2="84.4477" gradientUnits="userSpaceOnUse">
<stop stop-color="#FF580A"/>
<stop offset="1" stop-color="#FF7324"/>
</linearGradient>
<linearGradient id="paint2_linear_1238_97911" x1="36.249" y1="19.6967" x2="9.49159" y2="84.4477" gradientUnits="userSpaceOnUse">
<stop stop-color="#FF580A"/>
<stop offset="1" stop-color="#FF7324"/>
</linearGradient>
<linearGradient id="paint3_linear_1238_97911" x1="36.249" y1="19.6967" x2="9.49159" y2="84.4477" gradientUnits="userSpaceOnUse">
<stop stop-color="#FF580A"/>
<stop offset="1" stop-color="#FF7324"/>
</linearGradient>
</defs>
</svg>
