<svg width="24" height="78" viewBox="0 0 24 78" fill="none" xmlns="http://www.w3.org/2000/svg">
<path d="M13.8092 67.6845C16.5037 62.0754 18.9669 50.0713 18.9669 50.0713C18.9669 50.0713 19.5743 37.9493 18.5813 32.0393C16.5958 20.2322 11.1839 9.0453 2.9305 0.617507C10.235 9.84617 14.1952 21.178 14.877 32.4261C15.5721 43.6739 12.954 54.9814 7.23459 64.1841L13.8092 67.6845Z" fill="#F18521"/>
<path d="M13.8092 67.6845C16.5037 62.0754 18.9669 50.0713 18.9669 50.0713C18.9669 50.0713 19.5743 37.9493 18.5813 32.0393C16.5958 20.2322 11.1839 9.0453 2.9305 0.617507C10.235 9.84617 14.1952 21.178 14.877 32.4261C15.5721 43.6739 12.954 54.9814 7.23459 64.1841L13.8092 67.6845Z" fill="url(#paint0_linear_1238_106848)"/>
<path d="M3.31789 58.947C-3.08703 62.8264 3.98633 77.9579 3.98633 77.9579L20.3782 68.0269L3.31789 58.947Z" fill="#F18521"/>
<path d="M3.31789 58.947C-3.08703 62.8264 3.98633 77.9579 3.98633 77.9579L20.3782 68.0269L3.31789 58.947Z" fill="url(#paint1_linear_1238_106848)"/>
<path d="M17.9402 65.0567C19.6362 62.1368 20.8487 58.9432 21.7693 55.6917C22.6894 52.4272 23.2306 49.0615 23.4611 45.6709C23.583 43.9754 23.5527 42.2641 23.5229 40.5657C23.4814 39.7107 23.3745 38.8702 23.3004 38.0224L23.1793 36.7543L22.9466 35.4953C22.787 34.6561 22.6474 33.8228 22.4615 32.9842L21.7542 30.5303C21.6287 30.1248 21.5164 29.7189 21.3714 29.3203L20.8906 28.1321C20.5678 27.3422 20.226 26.5721 19.8774 25.7958C20.0433 26.6284 20.2025 27.4546 20.3944 28.2737L20.6785 29.4925C20.7581 29.9057 20.7982 30.3197 20.8646 30.7332L21.2621 33.188L21.502 35.6595C21.7822 38.9472 21.8651 42.2525 21.6048 45.5401C21.4104 48.8262 20.9652 52.1052 20.3612 55.3621C19.724 58.6134 18.9279 61.8424 17.947 65.063L17.9402 65.0567Z" fill="#F18521"/>
<path d="M17.9402 65.0567C19.6362 62.1368 20.8487 58.9432 21.7693 55.6917C22.6894 52.4272 23.2306 49.0615 23.4611 45.6709C23.583 43.9754 23.5527 42.2641 23.5229 40.5657C23.4814 39.7107 23.3745 38.8702 23.3004 38.0224L23.1793 36.7543L22.9466 35.4953C22.787 34.6561 22.6474 33.8228 22.4615 32.9842L21.7542 30.5303C21.6287 30.1248 21.5164 29.7189 21.3714 29.3203L20.8906 28.1321C20.5678 27.3422 20.226 26.5721 19.8774 25.7958C20.0433 26.6284 20.2025 27.4546 20.3944 28.2737L20.6785 29.4925C20.7581 29.9057 20.7982 30.3197 20.8646 30.7332L21.2621 33.188L21.502 35.6595C21.7822 38.9472 21.8651 42.2525 21.6048 45.5401C21.4104 48.8262 20.9652 52.1052 20.3612 55.3621C19.724 58.6134 18.9279 61.8424 17.947 65.063L17.9402 65.0567Z" fill="url(#paint2_linear_1238_106848)"/>
<path d="M1.04329 2.34223C3.6306 7.63699 6.09767 12.8827 8.14161 18.2878C9.17314 20.9803 10.0352 23.7288 10.819 26.5051C11.5374 29.2959 12.066 32.1237 12.4722 35.0387C12.8439 32.131 12.7253 29.1443 12.2465 26.2245C11.7413 23.3054 10.9217 20.4457 9.894 17.6687C8.81402 14.906 7.57176 12.2185 6.10265 9.64662C4.63355 7.07477 3.00259 4.59109 1.05009 2.34855L1.04329 2.34223Z" fill="#F18521"/>
<path d="M1.04329 2.34223C3.6306 7.63699 6.09767 12.8827 8.14161 18.2878C9.17314 20.9803 10.0352 23.7288 10.819 26.5051C11.5374 29.2959 12.066 32.1237 12.4722 35.0387C12.8439 32.131 12.7253 29.1443 12.2465 26.2245C11.7413 23.3054 10.9217 20.4457 9.894 17.6687C8.81402 14.906 7.57176 12.2185 6.10265 9.64662C4.63355 7.07477 3.00259 4.59109 1.05009 2.34855L1.04329 2.34223Z" fill="url(#paint3_linear_1238_106848)"/>
<defs>
<linearGradient id="paint0_linear_1238_106848" x1="24.7627" y1="20.9908" x2="-5.91341" y2="63.7226" gradientUnits="userSpaceOnUse">
<stop stop-color="#FF580A"/>
<stop offset="1" stop-color="#FF7324"/>
</linearGradient>
<linearGradient id="paint1_linear_1238_106848" x1="24.7627" y1="20.9908" x2="-5.91341" y2="63.7226" gradientUnits="userSpaceOnUse">
<stop stop-color="#FF580A"/>
<stop offset="1" stop-color="#FF7324"/>
</linearGradient>
<linearGradient id="paint2_linear_1238_106848" x1="24.7627" y1="20.9908" x2="-5.91341" y2="63.7226" gradientUnits="userSpaceOnUse">
<stop stop-color="#FF580A"/>
<stop offset="1" stop-color="#FF7324"/>
</linearGradient>
<linearGradient id="paint3_linear_1238_106848" x1="24.7627" y1="20.9908" x2="-5.91341" y2="63.7226" gradientUnits="userSpaceOnUse">
<stop stop-color="#FF580A"/>
<stop offset="1" stop-color="#FF7324"/>
</linearGradient>
</defs>
</svg>
