<svg width="24" height="25" viewBox="0 0 24 25" fill="none" xmlns="http://www.w3.org/2000/svg">
<path d="M17.0858 3.24292H7.13351C4.70859 3.24292 2.7428 5.20871 2.7428 7.63363V17.5859C2.7428 20.0108 4.70859 21.9766 7.13351 21.9766H17.0858C19.5107 21.9766 21.4765 20.0108 21.4765 17.5859V7.63363C21.4765 5.20871 19.5107 3.24292 17.0858 3.24292Z" fill="url(#paint0_radial_1684_3272)"/>
<path d="M17.0858 3.24292H7.13351C4.70859 3.24292 2.7428 5.20871 2.7428 7.63363V17.5859C2.7428 20.0108 4.70859 21.9766 7.13351 21.9766H17.0858C19.5107 21.9766 21.4765 20.0108 21.4765 17.5859V7.63363C21.4765 5.20871 19.5107 3.24292 17.0858 3.24292Z" fill="url(#paint1_radial_1684_3272)"/>
<path d="M12.1103 5.29199C10.1229 5.29199 9.87341 5.3007 9.09289 5.33619C8.31383 5.3719 7.78204 5.49521 7.31677 5.67618C6.83541 5.86308 6.42714 6.11313 6.02042 6.52C5.61332 6.9268 5.36327 7.33506 5.17579 7.81621C4.99431 8.28163 4.87085 8.81364 4.8358 9.59233C4.8009 10.3729 4.79175 10.6225 4.79175 12.6099C4.79175 14.5974 4.80053 14.846 4.83595 15.6266C4.87181 16.4056 4.99511 16.9374 5.17594 17.4027C5.36298 17.884 5.61303 18.2923 6.0199 18.699C6.42656 19.1061 6.83482 19.3568 7.31582 19.5437C7.78146 19.7246 8.31332 19.8479 9.09223 19.8837C9.87283 19.9191 10.1221 19.9279 12.1094 19.9279C14.097 19.9279 14.3456 19.9191 15.1262 19.8837C15.9052 19.8479 16.4376 19.7246 16.9032 19.5437C17.3844 19.3568 17.7921 19.1061 18.1986 18.699C18.6057 18.2923 18.8557 17.884 19.0433 17.4029C19.2231 16.9374 19.3467 16.4055 19.3833 15.6267C19.4183 14.8462 19.4275 14.5974 19.4275 12.6099C19.4275 10.6225 19.4183 10.3731 19.3833 9.59248C19.3467 8.81342 19.2231 8.2817 19.0433 7.81643C18.8557 7.33506 18.6057 6.9268 18.1986 6.52C17.7916 6.11298 17.3845 5.86293 16.9028 5.67625C16.4363 5.49521 15.9042 5.37183 15.1251 5.33619C14.3446 5.3007 14.096 5.29199 12.108 5.29199H12.1103ZM11.4538 6.61074C11.6487 6.61045 11.8661 6.61074 12.1103 6.61074C14.0642 6.61074 14.2957 6.61777 15.0673 6.65282C15.7808 6.68546 16.1681 6.80467 16.426 6.90485C16.7676 7.03745 17.011 7.19603 17.267 7.45222C17.5231 7.70835 17.6816 7.95225 17.8146 8.29378C17.9148 8.55137 18.0341 8.93863 18.0666 9.65212C18.1017 10.4236 18.1093 10.6552 18.1093 12.6082C18.1093 14.5612 18.1017 14.793 18.0666 15.5644C18.034 16.2779 17.9148 16.6651 17.8146 16.9228C17.682 17.2643 17.5231 17.5075 17.267 17.7635C17.0109 18.0196 16.7677 18.1781 16.426 18.3108C16.1684 18.4114 15.7808 18.5303 15.0673 18.5629C14.2959 18.598 14.0642 18.6056 12.1103 18.6056C10.1562 18.6056 9.92464 18.598 9.15326 18.5629C8.43977 18.53 8.05251 18.4108 7.79434 18.3106C7.45289 18.1779 7.20891 18.0194 6.95278 17.7633C6.69666 17.5072 6.53815 17.2639 6.40519 16.9222C6.30501 16.6645 6.18565 16.2773 6.15316 15.5638C6.11811 14.7923 6.11108 14.5606 6.11108 12.6064C6.11108 10.6522 6.11811 10.4217 6.15316 9.65029C6.1858 8.9368 6.30501 8.54954 6.40519 8.29158C6.53786 7.95006 6.69666 7.70615 6.95286 7.45003C7.20898 7.1939 7.45289 7.03533 7.79441 6.90243C8.05237 6.80181 8.43977 6.6829 9.15326 6.65011C9.82834 6.6196 10.09 6.61045 11.4538 6.60891V6.61074ZM16.0165 7.8258C15.5317 7.8258 15.1384 8.21877 15.1384 8.70365C15.1384 9.18846 15.5317 9.58179 16.0165 9.58179C16.5013 9.58179 16.8947 9.18846 16.8947 8.70365C16.8947 8.21884 16.5013 7.82551 16.0165 7.82551V7.8258ZM12.1103 8.85184C10.0349 8.85184 8.35225 10.5345 8.35225 12.6099C8.35225 14.6853 10.0349 16.3672 12.1103 16.3672C14.1857 16.3672 15.8678 14.6853 15.8678 12.6099C15.8678 10.5346 14.1855 8.85184 12.1101 8.85184H12.1103ZM12.1103 10.1706C13.4574 10.1706 14.5496 11.2626 14.5496 12.6099C14.5496 13.9571 13.4574 15.0493 12.1103 15.0493C10.763 15.0493 9.671 13.9571 9.671 12.6099C9.671 11.2626 10.763 10.1706 12.1103 10.1706Z" fill="white"/>
<defs>
<radialGradient id="paint0_radial_1684_3272" cx="0" cy="0" r="1" gradientUnits="userSpaceOnUse" gradientTransform="translate(7.71894 23.4195) rotate(-90) scale(18.5665 17.2683)">
<stop stop-color="#FFDD55"/>
<stop offset="0.1" stop-color="#FFDD55"/>
<stop offset="0.5" stop-color="#FF543E"/>
<stop offset="1" stop-color="#C837AB"/>
</radialGradient>
<radialGradient id="paint1_radial_1684_3272" cx="0" cy="0" r="1" gradientUnits="userSpaceOnUse" gradientTransform="translate(-0.395172 4.59241) rotate(78.681) scale(8.29933 34.2101)">
<stop stop-color="#3771C8"/>
<stop offset="0.128" stop-color="#3771C8"/>
<stop offset="1" stop-color="#6600FF" stop-opacity="0"/>
</radialGradient>
</defs>
</svg>
