<svg width="155" height="70" viewBox="0 0 155 70" fill="none" xmlns="http://www.w3.org/2000/svg">
<path d="M0 16.1577C0 7.23406 7.33822 0 16.3904 0H54.6175C63.6697 0 71.0079 7.23406 71.0079 16.1577V53.8423C71.0079 62.7659 63.6697 70 54.6175 70H16.3904C7.33822 70 0 62.7659 0 53.8423V16.1577Z" fill="#FF5100"/>
<path d="M56.5371 32.858C55.7951 28.1034 51.6958 24.6499 46.7937 24.6499C46.3376 24.6499 45.8692 24.6799 45.4131 24.7398C44.8231 24.8178 44.2514 24.9437 43.704 25.1116C42.81 25.3874 42.1957 26.2028 42.1957 27.1261V30.4297C43.2966 29.2666 44.8596 28.5471 46.6295 28.5471C48.2777 28.5471 49.8165 29.1647 50.9538 30.2858C52.0972 31.413 52.7237 32.9419 52.7237 34.5787C52.7237 37.9543 50.0415 40.6044 46.6295 40.6104C44.9934 40.6104 43.4668 39.9869 42.3356 38.8597C41.2043 37.7325 40.5779 36.2156 40.5779 34.5847V20.6622C40.5779 19.6377 39.7474 18.8071 38.7229 18.8071C37.543 18.8071 36.5881 18.8071 36.5881 18.8071V32.858C36.5881 32.858 36.6395 34.43 36.8019 35.4218C37.0569 36.9795 37.2295 37.909 37.9453 39.3017C38.6699 40.7119 40.584 42.4031 40.584 42.4031C42.3295 43.7701 44.513 44.5256 46.812 44.5256C48.7765 44.5256 50.6558 43.962 52.2493 42.8888C55.7282 40.5504 57.2183 37.0789 56.5553 32.858H56.5371Z" fill="white"/>
<path d="M14.6315 32.828C15.3735 28.0734 19.4727 24.6199 24.3748 24.6199C24.831 24.6199 25.2993 24.6499 25.7555 24.7098C26.3454 24.7878 26.9171 24.9137 27.4645 25.0815C28.3586 25.3573 28.9728 26.1728 28.9728 27.0961V30.3997C27.872 29.2365 26.3089 28.5171 24.5391 28.5171C22.8908 28.5171 21.3521 29.1346 20.2147 30.2558C19.0713 31.383 18.4449 32.9119 18.4449 34.5487C18.4449 37.9243 21.1271 40.5744 24.5391 40.5804C26.1751 40.5804 27.7017 39.9568 28.833 38.8296C29.9642 37.7024 30.5906 36.1855 30.5906 34.5547V24.9916H32.4457C33.6256 24.9916 34.5804 25.9329 34.5804 27.0961V50.797H32.7193C31.5394 50.797 30.5845 49.8557 30.5845 48.6925V42.3731C28.839 43.7401 26.6556 44.4955 24.3566 44.4955C22.3921 44.4955 20.5128 43.9319 18.9193 42.8587C15.4404 40.5204 13.9503 37.0489 14.6132 32.828H14.6315Z" fill="white"/>
<path d="M91.5466 41.6882C91.1028 42.0462 90.5581 42.3146 89.9126 42.4936C89.2872 42.6726 88.6215 42.7621 87.9155 42.7621C86.1403 42.7621 84.7685 42.3047 83.8002 41.3899C82.8319 40.4751 82.3478 39.1428 82.3478 37.3928V29.7265H79.685V26.7436H82.3478V23.1043H86.1302V26.7436H90.4572V29.7265H86.1302V37.3033C86.1302 38.0788 86.3218 38.6754 86.7051 39.093C87.0884 39.4908 87.6431 39.6896 88.3693 39.6896C89.2166 39.6896 89.9226 39.4709 90.4875 39.0334L91.5466 41.6882Z" fill="white"/>
<path d="M101.388 42.7621C99.7544 42.7621 98.2817 42.4141 96.9705 41.7181C95.6593 41.022 94.6305 40.0575 93.8841 38.8246C93.1579 37.5717 92.7947 36.1598 92.7947 34.5888C92.7947 33.0177 93.1579 31.6157 93.8841 30.3828C94.6305 29.1498 95.6593 28.1853 96.9705 27.4893C98.2817 26.7933 99.7544 26.4453 101.388 26.4453C103.043 26.4453 104.525 26.7933 105.836 27.4893C107.148 28.1853 108.166 29.1498 108.893 30.3828C109.639 31.6157 110.012 33.0177 110.012 34.5888C110.012 36.1598 109.639 37.5717 108.893 38.8246C108.166 40.0575 107.148 41.022 105.836 41.7181C104.525 42.4141 103.043 42.7621 101.388 42.7621ZM101.388 39.5703C102.78 39.5703 103.93 39.1129 104.838 38.1982C105.746 37.2834 106.2 36.0802 106.2 34.5888C106.2 33.0973 105.746 31.8942 104.838 30.9794C103.93 30.0646 102.78 29.6072 101.388 29.6072C99.9964 29.6072 98.8466 30.0646 97.9388 30.9794C97.0512 31.8942 96.6074 33.0973 96.6074 34.5888C96.6074 36.0802 97.0512 37.2834 97.9388 38.1982C98.8466 39.1129 99.9964 39.5703 101.388 39.5703Z" fill="white"/>
<path d="M120.891 42.7621C119.257 42.7621 117.785 42.4141 116.473 41.7181C115.162 41.022 114.133 40.0575 113.387 38.8246C112.661 37.5717 112.298 36.1598 112.298 34.5888C112.298 33.0177 112.661 31.6157 113.387 30.3828C114.133 29.1498 115.162 28.1853 116.473 27.4893C117.785 26.7933 119.257 26.4453 120.891 26.4453C122.545 26.4453 124.028 26.7933 125.339 27.4893C126.651 28.1853 127.669 29.1498 128.396 30.3828C129.142 31.6157 129.515 33.0177 129.515 34.5888C129.515 36.1598 129.142 37.5717 128.396 38.8246C127.669 40.0575 126.651 41.022 125.339 41.7181C124.028 42.4141 122.545 42.7621 120.891 42.7621ZM120.891 39.5703C122.283 39.5703 123.433 39.1129 124.341 38.1982C125.249 37.2834 125.703 36.0802 125.703 34.5888C125.703 33.0973 125.249 31.8942 124.341 30.9794C123.433 30.0646 122.283 29.6072 120.891 29.6072C119.499 29.6072 118.35 30.0646 117.442 30.9794C116.554 31.8942 116.11 33.0973 116.11 34.5888C116.11 36.0802 116.554 37.2834 117.442 38.1982C118.35 39.1129 119.499 39.5703 120.891 39.5703Z" fill="white"/>
<path d="M133.132 20.4197H136.914V42.5533H133.132V20.4197Z" fill="white"/>
<path d="M146.872 42.7621C145.56 42.7621 144.279 42.5931 143.029 42.255C141.778 41.9169 140.779 41.4894 140.033 40.9723L141.486 38.1385C142.212 38.6158 143.079 39.0036 144.088 39.3018C145.117 39.5803 146.125 39.7195 147.114 39.7195C149.373 39.7195 150.503 39.1328 150.503 37.9595C150.503 37.4027 150.21 37.0149 149.625 36.7962C149.06 36.5774 148.143 36.3686 146.872 36.1697C145.54 35.9709 144.451 35.7422 143.604 35.4837C142.777 35.2251 142.05 34.7777 141.425 34.1413C140.82 33.4851 140.517 32.5802 140.517 31.4268C140.517 29.9155 141.153 28.7123 142.424 27.8174C143.715 26.9027 145.449 26.4453 147.628 26.4453C148.738 26.4453 149.847 26.5745 150.957 26.8331C152.066 27.0717 152.974 27.3998 153.68 27.8174L152.228 30.6512C150.856 29.8558 149.313 29.4581 147.598 29.4581C146.488 29.4581 145.641 29.6271 145.056 29.9652C144.491 30.2833 144.209 30.7109 144.209 31.2478C144.209 31.8444 144.511 32.272 145.117 32.5305C145.742 32.7692 146.7 32.9978 147.991 33.2166C149.282 33.4155 150.341 33.6442 151.168 33.9027C151.996 34.1612 152.702 34.5987 153.287 35.2152C153.892 35.8317 154.194 36.7067 154.194 37.8402C154.194 39.3317 153.539 40.5249 152.228 41.4198C150.916 42.3146 149.131 42.7621 146.872 42.7621Z" fill="white"/>
</svg>
